<?xml version="1.0" encoding="utf-8"?>
<!-- Generator: Adobe Illustrator 23.0.2, SVG Export Plug-In . SVG Version: 6.00 Build 0)  -->
<svg version="1.1" id="Calque_1" xmlns="http://www.w3.org/2000/svg" xmlns:xlink="http://www.w3.org/1999/xlink" x="0px" y="0px"
	 viewBox="0 0 209.1 68.8" style="enable-background:new 0 0 209.1 68.8;" xml:space="preserve">
<style type="text/css">
	.st0{opacity:0.14;}
	.st1{fill:#020203;}
</style>
<g class="st0">
	<path class="st1" d="M160.6,40.4c0.8,1.3,2.7,2.1,4.1,3.2c0.5,0.4,1,0.9,1.2,1.4c0,0.9-0.9,1-1.3,1.5c1.1,0.5,2.5,0.6,3.4,1.5
		c0.7,0.1,1.1,0.5,1.3,0.8c0.6,0.7,0.8,1.3,0.2,2.1c-0.4,0.5-1.2,0.1-1.6,0c-1.5-0.7-2.3-2-4-2.9c0.8,1.3,1.5,2.3,0.1,3.5
		c-1,0.7-1.9,1.7-3.2,1.6c-1.4-2-1-4.3-1-6.6c-1.5,0.3-1.7,1.3-2.8,1.7c0.3-2.6,0.2-5.2-1-7.5c-0.2-0.6,0.1-1.3,0.5-2.1
		c-3.4,0.3-6.5-0.4-9.8-0.7c-0.9,0-1.9,0.1-2.8-0.8l0,0c2.6,0.3,5.5,0.4,8.4,0.5c0.7-0.6,0.4-1.4,0.1-2.3c-1.4-2-2.4-3.8-3.4-5.6
		c0.9-1,1.1-2,1.1-2.9c0.2-0.4,0.3-0.8,0.3-0.8c0.3-0.8,0.5-1.1,1.2-1.1c0.7,0.1,0.9,0.6,1.1,1.2c0.4,1.1,0.6,2.3,0.8,3.8
		c-0.9-1.5-0.2-3.1-1.8-3.8c-0.6,0.2-1,0.7-1.1,1.4c-0.1,0.7-0.1,1.3-0.5,2.1c-0.4,0.5,0,0.9,0.1,1.2c1,1.8,1.9,3.4,2.6,5
		c0.5,0.4,0.4,1.1,0.7,1.9c0.9-1,1.2-1.7,1.2-2.7c0.3-2.6,0.3-4.9-0.3-7.5c-0.3-1.5,0.4-3,1.4-3.7c0.7,0.1,0.9,0.6,0.8,1.3
		c-1.6,0-1.9,0.7-1.3,3.1c1.2-0.1,2.4-1.2,3.9-1.5c0.3,1.5-0.4,3,0.5,4.6c1.3-0.8,2.7-1.3,4.6-0.5c-0.6,1.8-1.8,2.6-3.3,3.8
		c0.5-1.1,1.9-1.7,2.3-3.1c-2.2-0.7-4.5,1.4-5.8,4.8c1.1-0.4,2.4-1.2,3.8-1.8c-1.4,1.2-3,2.1-4.4,3.3c2.6,0.3,4.6,0.4,6.9,0.5
		c1.3,0.1,1.9-0.7,2.2-1.8l0,0c0.2,0.6-0.2,1,0,1.6c1.3,0.1,2.1-0.2,2.8-1.1c1.1-1.4,2.1-2.7,3.6-3.9c1-0.7,4-0.3,4.5,1.1
		c0.3,0.8-0.4,1.4-1.2,1.7c-0.6,0.2-1.1,0.4-1.7,0.6c1.3,0.8,2.9,0.1,4,1.3c-1.3,1.5-3.2,0.6-4.6,1.1c1.8,0.6,3.2,1,5.4,0.8
		c1.1-1.4,2.4-2.8,3.7-4.3c1,0.2,1.3,0.8,0.9,1.5c-0.8,1.3-1.4,2.1-2.9,2.4c-0.3,0.1-0.7-0.1-0.8,0.3c1.8,0.6,3.2,1.6,5.1,0.9l0,0
		c2.1,0.5,3.6,0.2,5.1-1.6c1.1-1.4,2.1-2.7,4.3-2.9c0.9,0.6,0.3,1.5,0,2.5c1,0.9,2.1-0.2,3.4,0.6c-1.4,0.5-2.8,0.1-4,0.3
		c-1.2,0.2-2.6,0.7-3.8,1.8c3.6,0.2,6.6,0.6,9.4,1.4c0.9-1,0.7-2.2,1.5-2.8c-1-0.9-2.2-0.1-3.2-1c1,0.2,2.1-0.2,3.2,0
		c0.8,0.3,1.3,0.8,0.6,1.7c-0.7,0.6-1.1,1.4-1.1,2c-0.5,1.1-1.2,1.1-1.9,0.7c-3.1-1.4-6.1-1.8-9.4-1.4c-1.2,0.2-2.2-0.1-3.3-0.3
		c-0.6,0.2-1-0.2-1.5,0.3c0.6,0.7,1.1,1.2,2.4,1.3c1.5-0.3,2.7,0.5,3.8,1.7c2.7,2.8,2.7,2.8,6,0.8c0,0,0,0,0.3-0.1
		c-0.5-1.4-2.1-1.4-2.8-2.4l0,0c1.1,0.5,2.2,0.7,3.2,1.6c0.6,0.7,0.7,1-0.4,1.4c-0.7,0.6-1.3,0.8-2.1,1.1c-1.5,0.3-2.7,0.4-3.5-0.9
		c-0.2-0.5-0.6-0.7-1.1-1.2c-0.9,1,0.1,2.8-1.5,3.4c-0.7-1.9-1.8-3.1-2.7-4.6c-0.5-0.4-1.1-1.2-1.7-1.2c-0.1-0.3-0.8-0.3-0.8-0.3
		c-0.2-2.1-1.9-0.8-2.8-1.5c1,1.8,2.5,3.2,3.2,5.1c-0.3,0.8-1,0.7-1.6,0.9c-0.4,0.5-0.2,1,0.4,1.1c0.4,0.2,0.8,0.3,0.7,1
		c-0.2,0.4-0.6,0.9-1,0.7c-0.7-0.1-1.2,0.2-1.9,0.1c-0.7-0.1-1.2-0.5-1-0.9c0.4-3-0.6-5.8-1.4-8.6c-6.7-0.9-13.3-1.5-20-1.8
		c-0.9,1-0.9,1-0.6,2.5c1.4,0.4,2.5,1.6,3,2.9c0.4,1.1,1.6,1.6,2.7,2.1c-0.8-2.9-2.7-4.6-4.7-6.4c0.4-0.5,0.9-1,1.2-0.2
		C159.5,40.1,159.9,40.3,160.6,40.4L160.6,40.4z M155.1,36.1c4.5-3,3.8-5,3.2-8.2c-1.1,0.4-2.3,0.6-2.5,1.6
		C155.3,31.6,155.5,33.8,155.1,36.1L155.1,36.1z M160.3,45.5c0.3,2.4-0.4,4.6,0.6,6.4c0.9,0,1.7-0.6,2.2-0.9c0.8-0.3,0.9-1,0.6-1.8
		C162.9,48,162,46.5,160.3,45.5L160.3,45.5z M176,35.1c-0.4-1.1-2-1.8-2.9-1.7c-0.8,0.3-3.3,2.9-3.8,4
		C171.4,36.5,173.7,35.9,176,35.1L176,35.1z M165.5,44.8c-1.6-1-3-2-4.4-3.1c0.5,1.4,1.6,2.5,2.2,3.9
		C164.2,45.6,164.7,45.4,165.5,44.8L165.5,44.8z M157.5,46.3c2.1-1.1,2.1-2.7,0-4.1C157.4,43.5,157.2,44.8,157.5,46.3L157.5,46.3z
		 M164.9,47.6c1.5,1.3,2.3,2.6,3.7,3C168.9,48.9,167.6,47.8,164.9,47.6L164.9,47.6z M179,42.1c0.3,2.4,1.4,3.6,3.1,3.9
		C182,44.2,180.2,43.6,179,42.1L179,42.1z M185.9,43.6c0.5,1.4,0.9,2.2,1.8,3.1C188.7,45.1,188.4,44.2,185.9,43.6L185.9,43.6z
		 M180.9,48.7c0-0.9-0.4-1.8-1.3-2.6c0.1,1.2,0.2,2.1,0.2,3.1C180.5,49.2,180.7,49.1,180.9,48.7L180.9,48.7z M193.7,37.4
		c-1.3-0.1-2.6,0.7-3.4,1.9C191.4,38.9,192.4,38.2,193.7,37.4L193.7,37.4z M171.3,37.8c-0.9,0-2-0.2-2.9,0.8
		C169.6,39.1,170.5,39.1,171.3,37.8L171.3,37.8z M174.2,38c0.8,0.3,1.2,0.5,2,0.2C175.6,37.4,174.9,38,174.2,38L174.2,38z"/>
	<path class="st1" d="M98.8,30.6c1.1-0.4,1.6-1.6,2.6-2.3c0.5-0.2,0.9-1,1.7-0.6c-0.5,1.1-1.6,1.6-2.2,2.4c0.9,0,1.9-0.1,2.4-0.3
		c0.9,0,1.6,0,1.4,1.1c-0.6,0.9-1.5,0.9-2.6,0.7c-2.5,0-4.7,0.9-6.7,3.2c-1.6,1.6-3,3.7-5,5.1c13-1.5,26.4-2.3,39.4-3.8
		c0.8-2.8,4.3-5.2,7.2-4.4c0.2,0.6,0,0.9-0.8,1.3c-1.3,0.8-2.8,1.7-4.4,2.6c0.1,0.3,0.1,0.3,0.1,0.3c1.7,0.3,3.7,0.5,5.3,0.5
		c1.7,0.3,3.3,0.3,5.2,0.2c0.4,0.2,1,0.2,1.4,0.4l0,0c-2.3,0.6-4.6,0.5-6.9,0.1c-2.4-0.4-4.6-0.4-7-0.1c-0.3,0.1-0.5,0.2-0.9,0
		c-1.7-0.3-3.2,0-5.1,0c-5.4,0.8-10.8,1.6-16.4,1.9c-6.5,0.3-13,0.9-19.4,2.4c-0.3,0.1-0.3,0.1-0.6,0.2c-2.4,1.9-5.8,1.3-8.5,1.7
		c-1.5,0.3-3,0.5-4.3,1c-1.8,0.4-3.4,1-5.3,1.1c-1.8,0.4-3.4,1-5.2,1.4c1.5,0.7,3,1.1,4.5,1.8c1.4,0.4,2.8,0.8,3.8,1.7
		c-1.4-0.4-2.7-1.2-4.4-1.5c1.1,1.2,2.2,1.7,3.4,2.2c1.9,0.8,3.8,1.7,5.7,2.5L77,53.6c-3.3-1.2-6.7-2.5-9.6-4.2
		c-2.1-1.4-4.6-2-7-1.7c-5.9,1-11.6,2.9-17.4,4.2c-2.3,0.6-4.7,0.9-7.2,1.8c-0.2,0.4-0.5,0.2-0.9,0c6.7-2.3,13.2-3.5,20.1-5.5
		c-2.2-0.7-25.8,5.5-30,7.8c0.8,0.3,1.7-0.6,2.5,0c-2.1,0.2-3.6,1.4-5.6,1.2c0.2-0.4,0.9,0,1.3-0.8c-0.6,0.2-1.2,0.1-1.7,0.6
		c0,0,0.4,0.2,0.5,0.4c-3,0.5-5.3,1.7-8.1,2.8c-0.5,0.2-1.4,0.5-1.9,0.7c-0.5-0.4-0.6-0.7-0.8-1.3c1.8-1,3.8-1.8,5.5-2.1
		c7.7-2.3,14.9-4.8,22.4-6.7c5.6-1.2,11.2-3,16.8-4c5.8-1.3,11.5-2.2,17.4-3.2c3.5-0.7,7.2-1.2,10.8-2.3c1.5-0.3,2.7-0.4,4.2-1.3
		c1.1-0.4,2-1.4,3-2.1c1.4-1.2,2.2-2.4,3.7-3.6c0.6-0.9,0.6-1.8,0.3-2.6c-0.7-1-1.3-1.7-1.6-2.5c-0.1-0.3-0.2-0.6-0.3-0.8
		c-0.1-0.3-0.3-0.8,0.1-1.3c0.4-0.5,0.9,0,1.3,0.1c1.1,0.5,2.1,2.1,2,3.6c0.1,0.3-0.1,0.7,0,0.9C97.9,31.6,98.4,31.1,98.8,30.6
		L98.8,30.6z M130.9,35.7c1.7-1.3,3.5-1.7,4.8-3.1C133.6,32.1,132.1,33,130.9,35.7L130.9,35.7z M94.3,27.9c1,0.9,1,2.5,1.7,3.5
		C96.5,29.6,96.2,28.8,94.3,27.9L94.3,27.9z"/>
	<path class="st1" d="M107.4,39.7c0.8-0.3,1.2-0.1,2,0.2c2.8,0.8,5.6,2.3,8.1,3.8c1.5,0.7,2.8,1.5,4.5,1.8c2.2,0.1,4.5,1.1,6.4,2.6
		c1.1,0.5,2.2,0.7,3.1,2.3c-2,0.5-3.8-0.8-5.8-1c0.8,1.3,2.5,1.6,3.3,2.8c0.8-0.3,1.6,0,2.5,0.6c1.7,1.2,3.5,2.5,5.6,3.9
		c0,0,0.1,0.3,0.2,0.6c-0.7,0.6-1.5,0.3-2.2-0.1c-2-1.1-3.8-2.4-5.6-3.9c-0.4,0.5-0.5,1.1-1.3,1.5c-2.1-1.4-4.1-3.2-5-5.7
		c-0.9-1.5-1.7-2.8-3.9-3.6c0.9,1.5,2.1,3,2.5,4.8c0.3,1.5,0.2,3.1-0.4,4.6c0.3,0.8,0.7,0.1,1,0.2c0.2,0.6,0.4,1.1-0.2,2
		c-3-3.6-3.6-8.4-5.9-12c0.1-0.7,0.8-0.3,0.8-1.3C114.3,42.1,111,40.8,107.4,39.7L107.4,39.7z M120.8,53.8c1-2.3-0.6-7.4-3-7.7
		C118.7,48.6,119.4,51.2,120.8,53.8L120.8,53.8z M122.3,46.3c2.1,2.1,4.5,2.7,7.3,3.2C127.3,47.8,125.1,46.1,122.3,46.3L122.3,46.3z
		 M123.8,49.5c0.6,1.7,1.6,2.5,3,3.6c0.3-0.1,0.8-0.3,1.1-0.4C126.9,50.8,125.2,50.5,123.8,49.5L123.8,49.5z M134.5,55.8
		c-1-0.9-2.2-2.3-3.8-2.4C131.8,54.6,133.4,55.3,134.5,55.8L134.5,55.8z"/>
	<path class="st1" d="M105.8,14.9c1.1,1.2,0.3,3.4,2.1,4.6c-1.3,0.8-1.4,2.1-2.2,3.4c1.5-0.3,3.3-1.3,5.1-0.7
		c-0.5,2.1-2,2.3-3.9,3.1c1.2-0.1,1.9-0.1,2.4-0.3c0.4,0.2,1,0.2,1.3,0.8c0.2,0.6-0.2,1-0.5,1.1c-1.8,1-3.6,1.4-5.6,1.2
		c1.6-0.9,3.1-0.9,5-1.9c-1.7-0.3-3,0.5-4.6,0.5c-0.2-0.5,0.3-0.8,0.6-0.9c-1.3-0.8-2.5,1-3.8-0.1c0.3-1.7-0.8-2.9-1-4.4
		c-0.2-0.6-0.4-1.1,0-1.6c0.4-0.5,0.2-1,0-1.6c-0.4-1.1-0.9-2.2-1.3-3.3c-0.2-0.6-0.5-1.4,0.2-2c0.9,0,1.6,1,2.8,1.5
		c-0.9,0-1.5-0.7-2.4-0.4c-0.3,1.7,0.5,3,1.2,4.6C102.5,17.2,102.4,14.4,105.8,14.9L105.8,14.9z M104,18.5c-0.2-0.6-0.3-1.5-0.9-2.2
		c-0.6,0.9-1.2,1.7-1.1,3c0.4,0.2,1,0.9,1.4,1.1C104.2,20,103.9,19.1,104,18.5c0.4-0.5,1.1-0.4,1.5-0.9c-0.2-0.6-0.4-1.1-1.2-1.4
		C104,16.9,104,17.8,104,18.5L104,18.5z M102.2,24.6c0.9-1,1.1-2,0.8-2.8c-0.2-0.6-0.5-1.4-1.5-1.3
		C101.4,21.7,101.9,23.1,102.2,24.6L102.2,24.6z M104.5,23.1c1.9-2.3,2.1-3.7,0.9-4.2C104.9,20,104.1,21.3,104.5,23.1L104.5,23.1z
		 M109.1,22.8c-1.9,0.1-2.9,1.4-4.3,2C106.3,24.6,108,23.9,109.1,22.8L109.1,22.8z"/>
	<path class="st1" d="M111,13.9c1.2-1.1,1.3-2.4,1.9-3.3c1.1,0.5,2.2,0.7,3,1.1c0.4,1.1-0.5,1.1-0.6,1.8c1.3,0.1,2.5,0.6,2.7,2.1
		c-1.8,1-4,1.9-5.8,3.2c-0.4-0.2-0.7-1-1.5,0.3c0.2-1,0.7-1.5,0.7-2.2c-0.9,0-1.1,1.4-2.1,1.1c0-0.9,0.8-1.3,0.6-1.8
		c-0.5-0.4-0.8,0.3-1.2,0.2c0.5-1.2,1.7-2.2,1.1-3.6c-0.2-0.5-0.4-1.1-1.4-1.1c-0.9,2.6-0.6,5,0.1,7.6c-0.9-1.6-1.7-3.5-1.2-5.6
		c0.1-0.7,0.2-1,0-1.6c0.1-0.7,0.1-1.3,0.7-1.5c0.6-0.2,1,0.2,1.4,0.4C110.2,11.6,110.8,12.4,111,13.9L111,13.9z M112.3,17.8
		c1.7-0.6,3.1-1.8,4.7-2.5C115.7,13.6,113.7,15,112.3,17.8L112.3,17.8z M113.5,12c-0.6,0.9-1.5,1.9-1.9,3.3c1.3-0.8,2.5-1.6,3.3-2.9
		C114.5,12.2,114.1,12,113.5,12L113.5,12z"/>
	<path class="st1" d="M98.8,30.6c-0.6,0.2-0.7-0.1-0.9-0.6c-1-3.4-2.1-7.1-4.8-9.9c-0.1-0.3-0.1-0.3-0.1-1.2c2-0.5,4-0.3,5.7,1.6
		c1,0.9,0.7,1.9,0.8,2.9c-0.2,1-0.2,2-0.1,2.9c0.3,0.8,0,1.6-0.4,2.4C98.9,29.3,98.2,29.9,98.8,30.6L98.8,30.6z M93.9,19.5
		c0.4,1.1,1.1,2.1,1.7,2.8c0.6,0.7,0.4,1.8,1.3,2.7c0.3-0.8,0.8-1.3,1.7-1.3c0.8-1.9-0.4-2.7-1.8-3.8C95.8,19.4,95.1,19.4,93.9,19.5
		L93.9,19.5z M98.2,24.8c-0.5,1.1-0.6,1.8,0,2.5C98.5,26.6,98.6,25.9,98.2,24.8L98.2,24.8z"/>
	<path class="st1" d="M111.2,21.7c0.4-0.5,0.9,0,1.4-0.5c-0.2-0.5-0.2-0.5-2.4-0.4c1.3-0.8,2.2-1.8,3.3-2.2c1.2-0.2,2-0.5,2.7,0.5
		c0.2,0.6,0.9,0.6,1.5,0.7c1,0.2,1.3,0.8,1.3,1.7c-0.1,0.7-0.4,1.4-1.2,1.1C115.9,21.5,113.3,22.2,111.2,21.7L111.2,21.7z
		 M113.3,21.2c1.9-0.1,3.5-0.1,4.9,0.3C117.6,20.2,115.3,19.8,113.3,21.2L113.3,21.2z"/>
	<path class="st1" d="M184.5,40.7c-0.3-0.8,0.2-1,0.7-1.5c1.2-1.1,2.2-2.4,3.3-3.8c0.2-0.4,0.6-0.9,0.7-1.5c-1.6-1.6-1.9-1.5-3,0.5
		c-0.3,0.8-1,1.6-1.6,2.5c0.7-1.5,1.1-2.9,1.8-4.5c0.8-1.2,1.8-0.4,2.5,0c0.8,0.3,1.5,1.3,0.8,2.2C188,36.8,186.8,39.4,184.5,40.7
		L184.5,40.7z"/>
	<path class="st1" d="M160.6,40.4c0.7-0.6,1.8-0.4,2.5,0c1.8,0.6,3.1,1.4,4.1,2.5c0.5,0.4,0.7,1,0.3,1.5c-1.3-0.1-2.3-1-3.3-1.9
		C163.1,41.9,162,40.8,160.6,40.4L160.6,40.4z M164.7,42c0.2,0.6,0.6,0.7,1.2,0.8C165.4,42.3,165.2,41.8,164.7,42L164.7,42z"/>
	<path class="st1" d="M165.7,36.5c0.1-1.3,1-2.3,1.5-3.4c0.8-1.3,1.7-2.2,2.4-3.8c1.4,2.9,0.9,5.7-2,7.1c1.1-1.4,2.8-2.7,1.9-4.9
		c-0.9,1-1.8,2-2.5,3.5C166.6,35.5,166.7,36.4,165.7,36.5L165.7,36.5z"/>
	<path class="st1" d="M160.4,29.3c0.7-0.6,1.4-1.2,2.3-1.5c0.5-0.5,1.3-0.8,1.5-1.9c-2.1-0.5-2.8,1.1-3.9,2.1
		c0.5-2.1,1.6-3.2,3.5-3.2c0.9,0,1.3,0.1,1.1,1.2C164.5,27.5,162.3,29.3,160.4,29.3L160.4,29.3z"/>
	<path class="st1" d="M193.4,43.3c-1.5,0.3-3.1-0.7-4.7-0.7C190.4,42.2,191.8,42.6,193.4,43.3L193.4,43.3z"/>
	<path class="st1" d="M28.8,55.4c1.4-0.5,2.8-1.1,4.2-1.3C31.6,54.3,30.5,55.7,28.8,55.4L28.8,55.4z"/>
</g>
</svg>
