<?xml version="1.0" encoding="utf-8"?>
<!-- Generator: Adobe Illustrator 23.0.2, SVG Export Plug-In . SVG Version: 6.00 Build 0)  -->
<svg version="1.1" id="Calque_1" xmlns="http://www.w3.org/2000/svg" xmlns:xlink="http://www.w3.org/1999/xlink" x="0px" y="0px"
	 viewBox="0 0 331.8 418.4" style="enable-background:new 0 0 331.8 418.4;" xml:space="preserve">
<style type="text/css">
	.st0{opacity:0.14;}
	.st1{fill:#020203;}
</style>
<g class="st0">
	<g>
		<path class="st1" d="M45,80.2c0.6,2.2-0.1,4-0.2,6.4c-0.4,3.3-0.5,7.3,0.1,10.6c-1,0.1-0.9-0.4-1.3-0.5c-0.5,1.3-0.5,2.3-0.1,4
			c0.8,0.4,1.2-0.5,1.4-0.9c5.7,1.9,7.1,7,9.1,11.8c0.5,1.2,0,2.5-0.6,3.8c-0.7,1.7-2,3.7-3.8,5.4c-2.5,2.4-3.9,5.9-3.5,9.6
			c0.3,4.1,1.4,8.6,1.7,12.7c0.5,3.7,1.5,7.1,1,10.9c0,2.5,1,4.9,1.3,7.6c-0.2,0.4,0.1,1,0.9,1.4c0.6-0.3,0.4-0.9,0.1-1.5
			c0.4-3.3,1.6-6.3,3.7-9c1.1-1.5,1.4-3.4,1.5-5.9c-0.3-1.6,1.2-4,3-4.8c1-1.1,1.7-1.8,0.6-2.7c1.9-3.2,2.4-7,3.2-10.2
			c0.3-1.9-0.6-3.3-0.5-4.7c-0.9-6.4-1.9-12.3-4.1-17.7c-0.5-1.2-1.4-2.6-2.7-3.1c-1.8-1.8-1.7-3.2-1.8-5.3c0.1-1.5,1.7-1.8,2.9-2.3
			c1.7-0.3,2.2-1.6,2.9-3.3c1-3.6,3.5-6,7.1-7.5c3.9-0.9,8.7,0.6,10.4,3.8c1.5,0.1,2.8-0.8,3.6-1.5c1.1-1.5,2.6-1.4,3.6-1.5
			c2.7,0.6,5.2,0.7,8,1.3c2.7,0.6,5.3,4.2,5.7,6.8c0.5,3.7,1.1,7-0.3,10.4c4.3,1.8,7.9,3.8,11.4,6.3c3.2,1.9,4.5,4.9,3.5,8.5
			c-0.4,0.8-0.3,1.9,0.8,2.8c1.8,1.7,2.3,4,2.5,6c0.9,3.9,0.6,8.2-0.9,11.7c-1.4,3.4-3.9,5.9-7,7.1c-1,0.1-1.6,0.3-2.2,0.6
			c-2.4,1-3.8,1.9-4.9,4.5c-0.6,2.7-4.5,3.6-6.7,1.7c-4.3-2.8-7.9-6.3-11.5-9.8c-0.7-0.8-1.4-1.6-2.6-2.1c-3.2-0.8-6.6-2.2-9.5-2.4
			c-3.3-0.4-6.4,0.9-9.1,2.7c-2.2,1.6-3.5,3.6-4.5,6.1c-2,4.7-3.5,9.5-5,14.4c-0.6,2.7-0.4,5.8,0.4,8.7c1.2,3,0.4,6.2,0.2,9.1
			c-1.5-1.1,0.2-2.9-1.7-4.2c0.6,2.2-0.6,3.8,1,5.9c0.9,1.4,0.9,3.9,0.6,5.8c0,3.5,1.1,7,1.1,10.5c0.1,4.5,0,8.5-0.4,12.9
			c-0.2,2.9,0,6,0.2,9.1c0.2,0.6,0.1,1.1,0.5,1.2c2.4,1.5,3.4,3.9,5.4,6.2c8-3.7,14.1,0.9,20.5,6c-0.4,3.3-0.3,6.9-0.5,10.8
			c2.9-2.3,3.2-5.2,3.2-7.7c0.1-7.5-2.8-13.7-6.8-19.8c-0.2-0.6-0.5-1.2-1.3-1.6c-4.2-3.2-6.6-8.2-9.4-12.4c-0.9-1.4-1.8-2.8-1-4.9
			c0.4-0.9,0.7-1.7,1.5-2.4c1.6-1.3,2.9-2.3,4.6-2.6c0.2-0.4,0.2-0.4,0.2-0.4c0.5-4.8,4.1-7.3,7.7-8.8c3-1.2,5.5-3.7,9.3-3.1
			c0.9,0.4,1.2-0.5,1.8-0.7c0.9,0.4,1.4,1.6,2.4,1.5c3.9,0.1,7.1,1,9.5,4.9c7.7-5.3,15.1-3.7,22.3,1.8c0.6,2.2,1.7,4.2,2.1,6.9
			c-0.1,1.5,1.2,2,1.8,2.8c2.8,1.7,5,3.6,7.2,5.5c1.3,0.5,1.8,1.7,2.4,2.5c1.2,2,2.8,4.2,3.5,6c3.2,6.8,4.3,13.8-1.1,20.6
			c-1.1,1.5-1.2,3-0.5,4.8c2.2,4.4,2.5,8.5,0.3,12.6c-1.8,4.3-4.2,7.8-9.4,8.1c-0.5,1.3-1.1,2.6-1.6,3.8c2,1.3,3.7,2,4.8,4
			c3,4.8,7.9,8.8,6.8,14.9c0.1,2.1-0.6,3.8-0.9,5.7c-0.4,0.8-1.1,1.5-2.2,1.6c-2.1,0.1-3.6,1.5-5,2.4c-3,2.3-5.9,4.6-9.1,6.2
			c-4.8,3-9.8,5.4-15.3,6.7c4.1-0.3,8.2-0.6,12.4-0.9c4.3-0.7,8.4-2,12.4-3.4c4.1-1.3,7.4-4.4,11.8-5.6c0.4,0.2,0.9,0.4,1.1,1
			c-10,4.8-19.4,9.4-31,9.6l0.3,0.6c1.9,0.3,3.3,0.4,5.4,0.3c5.4,0.3,10.8,0.5,16.1-1.3c3.9-0.9,7.5-2.4,11.2-2.8
			c0.8-5.7-2.7-12.6-6.9-13.4c1.4-0.9,2-1.2,2.9,0.2c6.2,5.6,7.5,15.6,3.6,22.5c-1.5,2.4-3.8,4.4-6,6c-0.8,0.7-1.4,0.9-1.5,2.4
			c-0.2,2.9-1.5,5.9-3.1,8.7c-0.4,0.9-0.7,1.7-0.5,2.3c-4.3,3.2-8.6,4.9-13.8,4.3c-0.8,0.7-0.7,1.7-1.1,2.6c-0.6,3.8-6.6,6.2-9.6,5
			c-0.9-0.4-2.1-0.9-3-1.2c-0.9-0.4-1.3-0.5-1.4-1.6c-0.6-2.2-0.5-4.7-0.7-6.8c-0.4-5.2-3.1-9.3-5.9-13.5c-2.3-3-5.2-5.6-8.6-7.1
			c-4.3-1.8-8.5-3.6-13.1-1c-6,3.5-12.6,7.3-17.9,11.6c-6.7,5.2-12.4,11.8-18.3,17.4c-5.1,4.9-8.8,10.3-11.9,16.6
			c-1.5,2.4-1.5,4.9-2.6,7.4c-3.9,11.9-9.3,23.6-14.7,35.4c-2.2,4.1-4.7,7.6-6.9,11.6c-2.6,4.9-5.5,9.7-7.4,15.4
			c-0.2,0.4-0.3,1.9-1.5,2.4c0.5-2.3,1.3-4.4,2.4-7c3.6-7.5,8.3-15.1,12.3-22.4c2.2-4.1,3.6-8.5,5.5-13.2c1.7-2.8,3.1-6.2,4.5-9.6
			c1.7-2.8,2.5-6,3.7-9c1.9-5.7,3.6-11,5.5-16.7c1.7-5.3,3.6-11,4.4-16.7c0.4-0.9,0.7-1.7,0.9-2.1c0.5-1.3,1.1-2.6,0.1-3.9
			c-0.3-1.6,0.8-3.2,1.4-4.4c0.5-2.3,1.2-4,1.6-6.3c0.4-0.9,0.3-1.9,0.2-2.9c-1.1,1.5-1.8,3.2-2.4,4.5c-1,6.1-2.5,12-4.8,17.5
			c-0.8,3.2-1.5,5.9-2.1,8.6c-2.2,7.6-4.6,14.6-7.2,22c-2.7,6.4-5.5,13.2-7.8,19.8c-0.7,1.7-0.6,3.8-1.5,4.9c-2.1,2.6-2.9,5.8-4,8.4
			c-2,4.7-4.6,8.6-7.2,12.5c-0.4,0.9-0.7,1.7-1.1,2.6c-0.5,1.3-0.9,2.1-1.9,2.2l0,0c1.4-0.9,1.7-2.8,2.2-4.1
			c4.3-6.7,7.9-14.2,11-21.5c1.2-4,1.5-8.4,2.2-12.6c0.3-4.4-0.7-7.8-1.6-11.7c-0.3-1.6-1.7-3.2-2.6-4.6c0,0-0.4-0.2-0.7-0.8
			c-3.3-5.4-8.8-7.7-15.1-8.3c-2.9-0.2-5.6-0.9-8.9-0.2c-2.7,0.4-5.3,0.8-7.6,1.4c-3.9,0.9-7.8,1.8-11.2,2.8c-3,1.2-5.7,1.6-8.8,1.8
			c-3.5,1.1-8.3-3-8.2-7.9c-0.1-1,0.3-1.9,0.2-2.9c0.5-1.3,0-2.5-1.2-3c-3.3-2.9-3.2-6.8-1.6-10.7c0.7-1.7,1.4-3.4,2.1-5.1
			c0.7-1.7,1.8-3.2,3.7-4c1.2-0.5,2-1.2,1.7-2.8c-0.6-5.8,2.4-10.5,5.6-14.7c2.3-3.1,5.9-4.6,10.3-4.2c1.9,0.3,4.1-0.3,6,0
			c1-0.1,1.4-0.9,1.6-1.4c1.2-3,3.2-4.2,5.8-5.6c4.6-2.6,9.1-2.7,13.6-0.3c1.3,0.5,2.7,0.6,3.9-0.9c1.9-2.2,4.5-1.1,7.2-0.5
			c1.3,0.5,2.3,0.5,3.5,0c1.6-1.4,4.1-1.3,5.8-0.6c3.6,1,6.2,3.1,8.1,5.9c1.6,2.2,2,4.8,2,7.3c-0.2,2.9-0.2,5.4-1.3,8
			c-0.5,2.3-2.5,3.5-3.3,5.6c-2.6,4.9-6.4,9.3-9,14.3c-2.6,3.9-4,8.3-4.7,12.6c-0.1,1.4-0.2,2.9,0.3,4.1c0.1,1-0.5,1.3-1.1,1.5
			c0.2,2.1,1.3,4,2.5,6c3.3,5.4,4.3,11.3,4.7,17.5c-0.2,0.4-0.4,0.9-0.1,1.5c1-0.1,0.8-0.7,1-1.1c3.4-8.1,6.7-16.2,9.3-24.7
			c0.5-2.3,1.5-4.9,2.6-7.4c1.3-4.5,2.5-8.5,3.3-12.7c2.5-8.5,4.6-17.1,6.7-25.7c1-3.6,1.6-7.4,1.3-11.5c0-3.5-1.1-7-3.6-9.5
			c-0.2-0.6-0.2-0.6-0.5-1.2c-2.3-5.4-7.2-8-12.7-10.3c-4.7-2-9.1-2.3-14.1-0.9c-2.8,0.8-5.6,0.2-8.5,0c-1,0.1-1.7-0.7-2.4-1.5
			c-1.4-2.6-4.8-3-7.2-2c-1.4,0.9-3,2.3-4.8,2c2-1.2,4.5-1.1,5.5-3.7c-2.5-2.5-2.5-2.5-5.6-0.9c-1.6,1.3-3.4,2.1-5.2,2.8
			c0,0-1,0.1-1,1.1c2.1,0.9,4.4,0.3,6.3,0.6c-3,1.3-6.8,0.7-9.1-2.3c-2.2-1.9-4.2-4.3-5.5-7.3c-0.6-2.2-0.3-4.1,0.8-6.7
			c1.5-2.4,1.1-2.6-1.1-4.5c-3.7-3.1-6.7-6.8-8.6-10.6c-1-2.4-1.4-5.1-1.5-7.1c0.2-0.4-0.1-1,0.5-1.3c1.4-0.9,1.3-2,0.6-2.7
			c1.8-4.3,5.2-6.4,9.4-8.1c-1.6-5.7-1-10.9,1.6-15.8c0.2-0.4,0.8-0.7,1.6-0.3c-0.4,0.9-0.7,1.7-1.5,2.4c-0.7,1.7-0.6,2.7,0.5,3.7
			c5.9,5,11.8,8.9,17.9,13.5c3.7,3.1,7,5.9,10.8,9c0.9,0.4,1.3,1.6,2.9,0.2c-5.3-4.2-9.7-9.1-14.8-13.7c-5.1-4.6-10.5-8.4-16-13.2
			c1.6-0.3,1.9,0.3,2.3,0.5c8.8,7.7,17.2,15.2,25.8,23.3c1.5,1.1,3.8,1.6,5.2,3.2c0.7,0.8,1.3,0.5,1.8-0.8c-2.5-3.6-5-7.1-7.6-10.7
			c-3.2-4.3-6.2-9.1-8.6-14.1c-0.7-1.8-2.6-2.1-3.9-2.6c-2.5,0-4.2-0.8-6.3-1.6c-2.1-0.9-4.2-0.7-6.4-0.2c2.2-1.6,4.2-1.7,6.8-0.7
			c2.3,0.5,4.9,1.5,7.8,1.7c-1.6-4.7,0.9-8.1,3.1-12.2c0.5,1.2-0.3,1.9,0,2.5c0.4,0.2,0.4,0.2,0.4,0.2c-1.9,2.2-1.9,2.2-0.5,4.8
			c2.5,3.6,4.7,8,7,11.9c-2.9-2.7-4.4-6.3-7.1-9.4c3.8,6.6,7.2,14,12.2,20.1c-0.9-1.4-1.4-2.6-2.4-4c-0.6-2.2-2.8-4.2-3.2-6.8
			c0.2,0.6,0.7,0.8,1.1,1c2.6,4.6,5.2,9.2,8,14.4c0.4,0.2,0.5,1.2,1.5,1.1c1-0.1,1-1.1,0.3-1.9c-0.5-1.2-1.6-2.2-2.3-4
			c-0.7-1.8-2.7-3.1-2.2-5.4l0,0c2,2.3,2.8,5.2,4.3,7.8c0.2,0.6,0.5,1.2,1.8,1.7c2.3-2,3.7-4,5.5-7.2c0,0-0.4,0.8,0.5,1.2
			c0.4-0.8,0.3-1.9,0-2.5c-0.9-0.4-1.2,0.5-1.9-0.3c-1.3-4.1-2.9-8.7-3.9-13.6c-0.8-2.8-2.1-5.9-2.9-8.7c-1.3-3-4-3.7-6.7-3.3
			c3.2,6.8,6.7,12.8,8.8,19.7c0,0-0.2,0.4-0.6,0.3c-0.3-1.6-1.2-3-2-4.8c-1.6-4.6-4.2-9.2-6.9-13.4c-1.4-2.6-2.7-3.1-5.3-1.7
			c-0.6,0.2-1.2,0.5-2.2,0.6c0.7-1.7,3.1-2.7,5-2.4c1.9,0.3,3.8,0.6,5,1.1c3.4,1.4,6.3,0.6,9-2.3c1.9-2.2,5.6-2.7,9-1.2
			c3.2,1.8,6.9,3.9,10,6.1c2.9,2.7,5.4,6.3,6.7,10.3c2,4.8-0.9,8.1-3.8,11.4c-0.8,0.7-0.8,0.7-1.1,2.6c4.3-0.7,8.3-0.6,12.3,0.6
			c0.8-4.2,1.1-7.6,1.3-11.5c-0.1-4.6,0.2-8.9-0.3-13.7c-0.3-6.6-0.1-13-0.9-19.4c-0.5-7.2-5.1-10.6-11.1-13.1c-3-1.2-6.3-1.6-9.7-2
			c-3.8-0.6-6.8,0.7-9.7,2.9c-3.7,3-6.9,5.7-10.8,8c-2.8,1.9-7.8,1.8-10.2-0.7c-0.4-0.2-0.2-0.6-0.7-0.8c0.2-2.9-2.1-3.4-4.4-3.8
			c-4.9-1.5-6.9-7.4-6.9-12.4c0.1-4,1.4-6.9,2.4-10.5c0.2-0.4,0.1-1.4-0.1-2.1c-1.2-3-1.3-6.5-0.7-10.3c0,0,0.2-0.4-0.1-1
			c-1.5-1.1-4-0.1-4.9-2.6c2.5,0,3.7,2,5.5,1.3c0.8-0.7,1.1-1.5,1.1-2.6c0.2-0.4,0.1-1.5-0.9-1.4c-1.5-0.1-3-1.2-4.6-0.9
			c-0.5,1.3,0.9,1.4,1.6,2.2c-2.2,0.6-3.1,0.2-3.8-1.6c-2.2-4.4-1.4-8.6,0.3-12.9c0.1-1.5,2.1-2.6,3.2-4.2c-3.1-2.3-4.7-5.5-5.4-8.7
			c-0.6-3.3,0-6,0.8-9.2c1.7-7.8,7.1-13.5,13.6-18.3c1.6-1.4,3.8-1.9,5.6-2.7c1-0.1,2.1-0.1,2.3-2c1.3,1.6,2.4,1.5,4,1.2
			c1.8-0.7,3.9,0.1,6,0c1-0.1,1.6-0.3,2-1.2c3.2-5.2,8.3-6.6,13.6-3.8c1.7,0.7,3.4,1.4,5.1,2.1c3.6,1,4.8,4,5.7,7.9
			c0.7,4.3-0.9,8.1-3.1,12.2c-1.4,3.4-2.7,6.4-2.4,10.5c-0.2,0.4-0.1,1.5,0.6,2.2c2.8-0.8,4.9,1.5,7.8,1.7c0.3-4.4,0-8.5,1.6-12.3
			c-0.4-0.2-0.4-0.2-0.4-0.2c0.3,1.6-0.2,2.9,0.5,4.7c0.7-1.7,0.6-2.7,0.7-4.2c0.9-2.1,0.3-4.4,1.5-5.9L45,80.2z M-0.6,344.5
			c-1.3-0.5-2.6-1.1-3.7-2c-0.2,0.4-0.2,0.4-0.2,0.4C-3.3,343.9-2,344.4-0.6,344.5c0.3,1.6,1.2,2,2.9,2.7
			C1.4,345.8,0.1,345.3-0.6,344.5L-0.6,344.5z M55.6,269.8c-2.2,0.6-2.5,2.5-3.7,4C53,272.3,54.7,271.9,55.6,269.8
			c1.2-0.5,2-1.2,3-2.3C57.3,268,56.1,268.5,55.6,269.8L55.6,269.8z M-8,261.4c-1.4,0.9-0.7,1.7,0,2.5c1.2-0.5,2.8-0.8,3.8-1.9
			c-1.4-1.6-2.7-0.6-4.2-0.7c0.6-0.2,0.8-0.7,1-1.1c-0.4-0.2-0.2-0.6-0.7-0.8c-0.4-0.2-0.8-0.4-1,0.1C-9.5,260.2-9.3,260.8-8,261.4
			L-8,261.4z M51.8,206.7c0.8-0.7,1.1-1.5,1.1-2.6c-0.2-3.1-0.4-6.2-0.7-9.3c-0.4,0.9-0.7,1.7-0.5,2.3c0.2,3.1-0.6,6.3,0.2,9.1
			c-0.8,4.2-1.1,8.6-1.2,12.5c0.1,1,0.5,1.2,1.5,1.2l0.2-0.4c0.6-3.8-0.1-8.1,0.4-11.8C53.1,207.2,52.7,207,51.8,206.7L51.8,206.7z
			 M1.3,254.7c-0.6,0.2-0.8,0.7-0.1,1.5c0.9,0.4,1.9,0.3,2.7-0.4C3.4,254.6,2.5,254.2,1.3,254.7c0.4-0.9,0.1-1.4-0.7-1.8
			c-0.7-0.8-1.3-1.6-2.2-1.9c-1.8-1.7-4.3-1.8-6.4-0.2c1,2.4,1.8,2.8,4,1.2C-1.8,252.4-1.4,255.1,1.3,254.7L1.3,254.7z M28,268.8
			c1-0.1,1.4,1.6,2.4,1.5C30,268.7,29.2,268.3,28,268.8c-0.5-1.2-1.6-2.2-2.7-3.1c-2.6-2.1-5.4-3.8-7.6-5.7
			c-1.8-1.8-3.4-1.4-5.4-0.3c1.3,1.6,3.2,1.9,4.7,3C20.8,264.3,24.6,265.9,28,268.8L28,268.8z M33.7,106c1.3,0.5,1,2.4,2.7,3.1
			c0.6-3.8,1-7.1,0.3-10.4c-0.9-0.4-2.3-0.5-2.9-0.2c-0.4,0.9-0.1,1.5-0.5,2.3c-0.3,1.9,1.1,3.5,0.8,5.3c-0.8-0.4-0.7-1.8-1.6-2.2
			c-1,3.6-0.2,5.4,2.8,7.7C35.6,109.8,33.8,108.1,33.7,106L33.7,106z M-10.3,263.4c-4,1.3-7.2,4-11,5.9c0.7,0.8,1.7,0.7,2.3,0.5
			c2.3-0.6,4.7-1.6,6.4-3.3C-11.6,265.3-10,265-10.3,263.4c-0.7-0.8-0.1-2.1-1.4-2.6c-3.7,0.5-9.7,4-11.6,6.2
			c0.5,1.2,1.3,1.6,2.6,1.1c0.8-0.7,2-1.2,2.8-1.8C-15.4,264.8-13.2,263.2-10.3,263.4L-10.3,263.4z M31.8,254.9
			c1.3,0.5,1.5,1.1,1.6,2.2c1.5,3.6,3.2,7.9,4.5,11.9c0.3,0.6,0.1,1,0.9,1.4c-0.8-5.3-8.2-25.9-10.2-28.3c-0.5,2.3-0.3,4.4,0.9,6.4
			c0.7,1.8,2.3,4,2.7,6.6c-0.7-0.8-0.7-1.8-1.8-1.7c-0.1,1.5,1.3,4,3.1,5.8C33.2,257.5,31.6,256.3,31.8,254.9L31.8,254.9z M-2.5,164
			c1.7,0.7,0.4,2.7,1.5,3.6c5.4,0.3,16.3-4.2,19.6-7.4c-0.4-0.2-0.4-0.2-0.4-0.2c-0.4-0.2-1,0.1-1.6,0.3c-5.7,1.6-11.4,3.3-17.6,2.7
			C-1.7,163.4-2.1,163.2-2.5,164c-1.5-1.1-2.7-0.6-4.4-0.3C-5.6,164.2-3.9,165-2.5,164L-2.5,164z M15.6,69c0.7,0.8,0.7,1.8,1,2.4
			c1.8,5.3,3.6,9.5,6.1,14.1c-1.2-5.5-4.2-10.3-4.2-16.3c0.7,0.8,0.9,1.4,1,2.4c1.6,5.7,3.5,11,6.1,16.6c0.3,0.6,0.5,1.2,1.5,1.1
			c-0.1,1.5-0.6,2.7,1.2,3c-0.1,1.5,0.8,2.8,2.5,3.6c0.2-0.4-0.1-1-0.3-1.6c-2.9-8.7-4.7-17.5-5.4-26.8c-0.1-1-0.1-2.1,1.1-2.6
			C25.9,71.8,27.8,78,28.8,84c0.8-0.7,0.3-1.9,0.2-2.9c-0.5-4.7-0.5-9.7-0.4-14.7c-0.1-1,0.1-1.5,1.9-2.2c-2.4,8-0.6,15.8,0.4,23.2
			c-0.1-7,1.1-13.5,2.5-20.5c-0.2,6.4-1.8,12.8-0.7,19.7c0.9-2.1,1.8-4.3,3.1-6.2c0.4-0.9,0.7-1.7,0.5-2.3c-1.1-1-0.7-1.8-0.4-2.7
			c-0.1-1,0-2.5,0.6-3.8c0.1-4-1-5.9-4.4-7.4c-2.1-0.9-3.8-1.6-6-2.5s-4.2-0.7-6.2,0.4c0.2,3.1,0.6,5.8,0.8,8.9
			c-1.5-1.1-1-2.4-1.5-3.6c-0.3-1.6,0.4-3.3-0.7-4.3c-1,0.1-1.2,0.5-1.8,0.7c-1.7,1.8-1,3.6-1.3,5.5c-0.9-0.4-1-2.4-2.1-0.9
			c-0.1,5,9.3,25.9,13.3,28.1c0.2-0.4-0.2-0.6-0.2-0.6c-3.4-7.4-7.3-15-10.1-22.7C15.8,72,14.9,70.7,15.6,69L15.6,69z M136.6,235
			c0.5-1.3,1.2-3,1.8-4.3c-0.4-0.2-0.4-0.2-1,0.1c-5.4,2.2-11.1,1.4-16.9,1c-2.9-0.2-5.8-0.4-9,1.3c7.3,0.5,14.2,1.9,21.9,1.6
			C134.3,234.5,135.5,234,136.6,235c-1.4,0.9-2.6,1.4-4.1,1.3c-3.6-1-7.9-0.3-11.5-1.3c-1.9-0.3-3.3-0.4-5.2,0.4
			c0.4,0.2,0.9,0.4,1.3,0.5c4.8,0.5,9.3,1.9,13.3,4.1c2.6,1.1,5.9,1.4,8.8,1.7C139,239,137.8,237,136.6,235L136.6,235z M-4.7,162.1
			c-1.5-0.1-3.2-0.8-5.1-2.1c2.9,0.2,5,1.1,7.1,1c5.3-0.8,10.7-1.6,15.8-1.9c4.3-0.7,8.4-1,13.2-1.5c-2.7-0.6-5.2-0.7-8.1-0.9
			c-5.6,0.2-11.2,0.4-16.7,0.5c-3.9-0.1-7.9-0.3-11.5-1.3c-0.4-0.2-1.5-0.1-1.6,0.3c-0.5,1.3,0.6,2.2,0.6,3.3
			C-10,162.9-7.7,163.4-4.7,162.1c0.4,0.2,0.8,0.4,1.3,0.5c4.5-0.1,9.1-0.2,13.8-1.8c-1.9-0.3-3.8-0.6-6,0
			C1.7,161.3-1.4,161.5-4.7,162.1L-4.7,162.1z M27.9,205.2c0.3,0.6,0.3,1.6,0,2.5c0,3.5-0.8,6.7,1.5,9.6c1.4,0.1,2.2-0.6,2.5-2.5
			c0.6-3.8,1.3-8,2.1-12.2c0.3-1.9,0.6-3.8,0.9-5.7c0.1-1.4-1.5-3.6-2.5-3.6c-1.9-0.3-1.6,1.4-2.1,2.6
			C29.4,199.3,28.7,202.1,27.9,205.2c-0.1-4.5,1.7-8.8,2-13.2c-0.4-0.2-0.9-1.4-2.1-0.9c-2.6,5-4.1,21.8-2.7,26.9
			c1.9,0.3,1.6-1.4,1.9-2.2C27.1,211.9,26.9,208.8,27.9,205.2L27.9,205.2z M100.6,148.4c-0.8,0.7-1.6,0.3-2.3-0.5
			c-2.6-1.1-4.9-2.6-7.8-4.2c-2.1-0.9-4.7-2-8-2.3c3.6,4.5,8,8.4,12.8,11.3c1.1,1,3.8,0.6,4.7-0.5
			C101,151.1,101.5,149.8,100.6,148.4c0.4-0.9,0.1-1.5,1.1-1.5c2.5,0,4.3-0.7,6.5-1.3c2.4-1,3.7-2.9,4.6-5.1c-5.9,1-12,0-17.7-1.9
			c3,2.3,6.3,4.1,9.2,6.8c-1.6,0.3-2.3-0.5-3.2-0.8c-4.6-3.4-9.8-6.6-15.1-8.3c-5.5-1.3-10.7-2-16-1.2c-0.6,0.3-1.2,0.5-1.4,0.9
			c0.7,0.8,1.3,0.5,1.7,0.7c3.9-0.9,8.1-0.2,12.1,1c4,1.2,7.5,3.6,11.3,5.2c1.3,0.5,3.4,1.4,3.9,2.6
			C98.2,146.9,99.3,147.9,100.6,148.4L100.6,148.4z M137.9,210.5c-0.3-1.6-1.1-3.5-2.4-5c-1.6-2.2-3.3-2.9-6.1-1
			c-2,1.2-3.5,2.5-5.1,3.9c-0.6,0.2-1.2,0.5-1.6,1.3c2.7-0.4,4.2-1.7,6.4-3.3c0.4-0.9,1.4-0.9,2.2-1.6c1-0.1,1.3,0.5,1.5,1.1
			c-4,2.3-8.2,4.1-11.5,7.2c-3.5,3.6-7,7.1-10,10.8c-1.6,1.3-2.7,2.9-4,4.8c1-0.1,1.6-0.3,2.4-1c3.6-2.5,6.3-5.4,9.6-8.5
			c3.9-3.4,7.6-7.4,12.4-9.3c0.8-0.7,1.6-1.4,2.6-1.4c0.7,0.8-0.1,1.5-0.7,1.7c-5.4,2.2-9.5,6.1-13.8,10.3c-0.6,0.2-1.8,0.7-1.7,1.8
			c0.4,0.2,0.4,0.2,0.6-0.2c5.4-2.2,9.8-5.4,14.3-9.1C134.2,212,135.5,210,137.9,210.5c0.1,1-0.5,1.3-1.3,2c-1,0.1-1.8,0.7-2.6,1.4
			c-4.3,3.2-8.7,6.4-13.7,8.8c-3.6,1.5-7,3.6-10.3,6.7c11.7-1.6,22.7-4.1,31.5-11.9C141.2,214.4,139.8,211.8,137.9,210.5
			L137.9,210.5z M-0.8,320.9c0.7,1.8,1.7,4.2,3.5,6C1.8,324.5,1.2,322.2-0.8,320.9c-0.3-0.6-0.1-1-0.1-1c-2.5-7.1-3.2-13.9-4.3-20.8
			c-0.1-1-0.3-1.6,0.9-2.1c0.5,9.7,1.9,18.3,6.4,26.7c0.1-1.4-0.8-2.8-1.1-4.5c-1.5-6.1-2.5-12.1-1.5-18.1c-0.1-1,0.2-2.9-0.6-3.3
			c-2.4-1.5-5.2-3.2-8-2.3c-1,0.1-1.4,0.9-1.7,1.8c-1.6,3.8,0.1,7,1.1,10.5C-7.9,314-5,320.2-1.9,326c1.7,3.2,3.5,6,5.6,9.3
			c0.4-0.8,0.1-1.5-0.3-1.6c-1-4.9-3.9-8.6-6.1-13c-3.8-6.6-5.7-13.9-6.5-21.7c-0.1-1,0.3-1.9,1.6-1.3c0.7,4.3,0,8.5,1.7,12.7
			C-4.4,313.9-2.9,317.6-0.8,320.9L-0.8,320.9z M101.3,191.2c-0.5-1.2-1-2.4-1.1-3.4c-0.2-3.1-3.3-5.4-6.2-5.6
			c-1.3,4.4-1.8,9.2-1.3,14c0.1,4.6,0.4,8.7,0.7,12.8c0.1,2.1,0.1,4.6,0.2,6.6l0.6-0.2c0-9.5,0.4-18.9,1.3-28.5
			c0.9,7.4-0.4,14.3,0,21.5c0.5,7.2-2.8,13.9-2.3,21.1c1.1-1.5,2-3.7,2.7-5.4c2.3-5.5,2.3-11.5,2.7-17.4
			C99.5,201.5,98.8,196.2,101.3,191.2c0.1,4.6-1.2,9-0.5,13.3c0.7-1.7,1.8-3.2,2.1-5.1c0.2-2.9,0.7-5.2,1.3-8
			c0.7-1.7,0.8-3.2,2.4-4.5c-2.3,11.6-6.3,22.4-8,34.7c1-1.1,1.1-1.5,1.3-2c1.7-5.3,3.6-11,4.9-16.5c1.2-6.5,1.8-12.8,6.2-18.5
			c0,0,0.2-0.4-0.5-1.2c-1,0.1-2.4,1-3.4,1.1C103.6,185.7,101.4,187.3,101.3,191.2L101.3,191.2z M40.1,246.8
			c0.3,0.6,0.5,1.2,1.8,1.7c-1-5.9-2.2-11.4-4.8-16c0.4,2.7,1.4,5.1,1.6,8.2c-1.1-3.4-2.1-6.9-3.2-10.3c-0.9-1.4-1.2-3-2.2-4.4
			c-3.3,3.1-0.4,5.8-0.2,8.9c-1.5-1.1-0.8-2.8-2.3-4c-1.1,1.5-0.6,2.7-0.3,4.4c-1.6,0.3-2,1.2-2.1,2.6c0.1,1,0.6,2.2,1.1,3.4
			c2,4.8,4,9.7,6,14.5c0.9,1.4,1.2,3,2.3,4c-0.6-2.2-0.7-4.3-1.5-6.1c2.7,6.7,3.7,14,6,21.5c0.5-1.3,0.3-1.9,0-2.5
			c0.2-0.4,0.1-1.5,0.1-1.5c1.6-0.3,1.1-1.5,1.1-2.6C43,261.6,42.1,254.2,40.1,246.8L40.1,246.8z M120.7,252.9c-2.1-0.9-3.7-2-5-3.6
			c-4.1-4.7-9.5-6-14.8-7.7c-0.4-0.2-1.3-0.5-2.5,0c10.4,3.8,17.6,11.8,27.2,16.4c-0.1,1.4,0.6,2.2,2,2.3c0,0,0.4,0.2,0.6-0.2
			c0.4-0.9,3.1-3.7,4.1-3.8c0.6-0.3,0.6-0.3,0.6-0.3c4.2-1.7,7.9-8.2,6.8-12.7c-0.2-0.6-1.3-0.5-1.7-0.7c-3.5,0-6.5-1.2-9.5-2.4
			c-6.6-3.3-13.9-3.8-20.9-5.2c-1,0.1-1.9-0.3-2.7,0.4c1.1,1,1.7,0.7,2.7,0.6c3.8,0.6,7.4,1.6,10.8,3c5.1,2.1,10.4,3.8,15.7,5.5
			c1.3,0.5,2.7-0.4,4.2,0.7c-0.7,1.7-2,1.2-3,1.3c-5.5-1.3-10-3.7-15.1-5.8c-4.7-2-9.6-3.5-14.5-3.5c-0.8-0.4-1.3-0.5-1.6,0.3
			c10.4,3.8,19.9,9.8,30,14.5c-5.8-0.4-9.3-5.4-14.7-5.6c3.1,3.3,7.6,4.7,10.9,7.5c-0.8,0.7-1.6,0.3-2.5,0c-2.4-1.5-4.6-3.4-7.4-5.1
			c-4.8-3-8.6-7.1-13.9-8.8c-4.4-1.4-8.3-0.5-13,0.1c1.3,0.5,1.7,0.7,2.3,0.5c1.6-1.3,3.3-0.6,4.5-0.1c0.9,0.4,1.7,0.7,2.6,1.1
			c3.4,1.4,7.2,2,9.6,4.5c2.6,2.1,4.8,4,7,5.9C120,252.1,120.4,252.3,120.7,252.9L120.7,252.9z M8.7,80.6c-1.1-1-1.4-1.6-1.8-2.8
			c-1.7-3.2-2.9-6.2-4.6-9.4c-0.4-0.2-0.4-0.2-0.4-0.2c-6.4,0.9-10.5,4.7-14.7,8.9c-0.4,0.9-0.5,1.3,0,2.5c2.5,3.6,5.5,7.3,8.8,10.2
			c4.2,4.3,9.6,7,14.8,10.2c1.3,0.5,2.3,0.5,3.3-0.6c-2-1.3-3.9-2.6-5.9-4c-2-1.3-3.7-3-5.7-4.4c-2.9-2.7-4-3.7-4.3-5.3
			c9.3,8.9,16.7,14,20.2,12.9c-4.4-3.8-8-8.3-12.1-13C2.5,81-0.1,75.4-1.3,69.9c1.3,0.5,1.8,1.7,1.8,2.8c0.3,1.6,0.8,2.8,1.6,4.7
			c4.3,7.8,10.5,14.4,16.4,20.8c0.9,0.4,1.5,1.1,2.9,0.2c-4.4-3.8-7.6-8.2-10.2-12.8c-1.2-2-2.7-3.1-2.2-5.4c0.7,0.8,0.9,1.4,1.2,2
			c2.8,5.2,6.3,10.1,10.1,14.2c0.3,0.6,0.5,1.2,1.5,1.1c-0.1-1-0.5-1.2-0.7-1.8c-2.5-2.5-4.1-5.7-5.8-8.9C12,82.5,9.9,76.6,7.5,71.6
			c-0.3-1.6-1.2-3-2.9-3.7c-0.4,0.8,0.5,1.2,0.1,2.1C5.7,73.4,7.2,77,8.7,80.6L8.7,80.6z M83,267.7c1.3-2,2-3.7,2.7-5.4
			c0.5-1.3,1.3-2,2.5-2.4c3-1.2,5.9-2.1,9.6-2.5c4.1-0.3,6.7,0.8,8.6,4.6l0.4,0.2c2.1-2.6,4.7-4,8-4.7c-0.3-0.6-0.1-1-0.5-1.2
			c-3.4-3.9-6.9-7.4-11.7-10.4c-5.2-3.2-10.8-3-16.5-2.4c-3.3,0.6-4.6,2.6-4.4,5.7c0.3,1.6,0,3.5,0.4,5.2c0.1,1-0.1,1.5-0.5,2.3
			c-2.8,4.3-6.5,7.3-11.5,7.2c-2.1,0.1-2.9,0.8-3.6,2.5c-2.9,5.8-6.1,11-8.6,17c-3.4,8.1-8.2,16.1-12,24c-3.1,6.2-5.8,12.6-7.2,19.6
			c-0.9,4.6-2.3,9.1-3.6,13.5c-0.5,2.3-1.2,4-1.2,6.5c0.6-0.3,0.8-0.7,1.6-1.4c1.7-2.8,4.2-5.3,6.1-7.5c5.2-5.3,10.7-10.1,15.9-15.4
			c4.6-5.1,10.2-8.8,16.1-12.3c2.8-1.9,5.4-3.3,5.8-6.6c0.5-2.3,1.1-5,1.4-6.9c-0.2-3.1-0.2-5.6-1-8.4c-1.3-4.1-3.1-8.3-5-12.1
			c-2.1-3.4,0.8-9.2,4.8-9C80.7,267.2,81.5,267.6,83,267.7L83,267.7z M-7.7,103.3c-3.5,0-6.1-2.1-9.8-3.1c0.1,2.1,1.5,3.6,2.8,4.2
			c4.4,1.3,9.1,2.3,13.1,3.4c1.3,0.5,2.3,0.5,2.8-0.8c-2.2-1.9-5.3-1.7-7.5-3.6c2.1-0.1,3.2,0.8,5.1,1.1c1.3,0.5,3.1,2.3,4.6,0.9
			c-2.1-0.9-4.7-2-7.1-3.4c-2-1.3-4.5-2.4-6.5-3.7c-5.2-3.2-5.2-3.2-5.9-5c2.4,1.5,4.8,3,7.1,4.5c3.5,2.5,7.6,4.7,12,6
			c1.3,0.5,2.7,0.6,3.9-0.9c-0.2-0.6-1.3-0.5-1.5-1.1c-0.4-0.2-0.8-0.4-0.9-1.4c1.9,0.3,3.5,3.5,6.2,0.6C1.2,95-8.5,89.5-14.2,79.1
			c-1.7,2.8-1.8,3.2-2,4.7c5,6.1,11.1,10.6,17.8,14.9c-6.9-3.9-12.8-7.8-18.5-13.2c-1.3,2-1.1,2.6,0.5,3.7c1.8,1.7,4,3.7,6.4,5.1
			c3.2,1.9,6.3,4.1,9.3,6.4l-0.2,0.4c-5.7-4.4-11.9-7.5-17.4-12.3c-0.8,3.2-0.9,5.7-0.9,8.1c0.3,0.6,0.5,1.2,1.3,1.6
			c2.4,1.5,5.4,2.7,7.9,3.8C-9,102.8-8,102.7-7.7,103.3L-7.7,103.3z M-48.6,332.5c-1.8,0.7-2.1,2.6-2.4,4.5
			c-0.1,1.5-0.2,2.9,0.5,4.7c0.9,1.4,2.4,1.5,3.4,1.4c1.3,0.5,2.1,0.9,3,1.2c5.4,2.7,10.6,3.4,16.4,2.8c6.8-0.7,13.4-0.9,20.1-0.1
			c0.6-0.3,1.5,0.1,1.8-0.7c-0.4-0.2-0.7-0.8-1.3-0.5c-5-1.1-10.1-2.2-15.1-2.3c-8.1-0.9-16.1-2.2-23.4-6.3c-1.1-1-2.4-1.5-1.5-3.6
			c6.9,7.4,16.3,7.8,26,8.3c-9.4-3.9-19.3-6.5-27.4-12.4C-49.4,330.7-48.7,331.5-48.6,332.5L-48.6,332.5z M134.4,328.2
			c1.7-2.8,3.8-5.4,3.6-8.5c-0.2-3.1,0.9-4.6,3.5-6c2.6-1.4,4.9-3.4,5.1-7.4c-4.5,1.1-9.2,1.7-13.5,2.4c-4.5,1.1-9.3-0.4-13.7,0.3
			c7.2,2,14.9,2.7,22.5,1.3c-1.8,0.8-3.4,2.1-5.4,2.2c-4.4-0.3-8.5,0-13.1-1c-2.1-0.9-5.1-1.1-8-1.3c7.3,3,14.5,3.5,21.7,5.6
			c-3.3,0.6-6,0-8.7-0.6c-6.1-1-7.8-1.7-9-1.2c4.6,3.4,10.2,4.3,15.2,6.8c-2.7,0.4-5.5-1.3-8.8-1.7c2.7,3.1,5.7,4.4,9.5,6
			c-2.4,1-3.5,0-4.8-0.5c-2.8-1.7-5.4-3.8-8.5-6c-2.2-1.9-4.8-3-7.5-3.6C120.9,319.6,126.5,325.4,134.4,328.2L134.4,328.2z
			 M87.8,223.7c-0.1-1-0.1-2.1-0.2-3.1c0.2-5.4-1-10.9-1.7-16.2c-1-5.9-2.3-12.5-2.1-18.9c0.2-0.4,0.1-1.5,0.9-2.1
			c0.3,0.6,0.3,0.6,0.1,1c-0.5,4.8,0,9.5,1,14.4c1.7,9.2,3.8,18.6,2.6,28.6c-0.4,0.9-0.1,1.5,0.6,2.2c0.5-1.3,0.6-2.7,1.2-4
			c1.3-8,0.6-15.8-0.6-23.8c-1-5.9-2.5-12-1.9-18.3c0.4-0.8,0.5-1.3,0.3-1.9c-1.3-0.5-1.9-0.3-2.9-0.2c-2.7,0.4-3.6,1.5-4.3,4.2
			c-0.1,5-0.1,10,1,14.4c1.4,5.1,2.5,9.6,3.9,14.6C86.3,217.5,86.6,220.6,87.8,223.7L87.8,223.7z M36.7,224.9
			c1.5,6.1,4.1,11.7,5.6,17.8c0.4-0.9,0.1-1.5-0.2-2.1c-0.3-4.1-1.6-8.2-2.3-12.5c-0.5-1.2-0.8-2.8,0.5-4.8c0.9,9.9,4,19.2,5.1,28.7
			c0.3-5.4-1.1-10.5-1.5-15.6c-0.4-5.2-1.9-9.8-1.2-15c1.8,11.3,3.2,22.4,4.8,34.1c0.7-1.7,1-3.6,0.8-5.7c0.3-1.9,0.1-3.9,0.2-6.4
			c-0.9-6.4-0.2-12.6-1.5-19.2c-0.3-0.6-0.5-1.2,0.5-2.3c0.6,2.2,0.5,4.7,1.1,7c0.8-0.7,0.8-0.7,0.5-1.3c0.5-1.3,0.6-2.7,0.7-4.2
			c0-3.5-0.5-3.7-3.8-4.1c-3.3-0.4-7.3-0.5-10.4,2.2c-1.2,0.5-2.2,1.6-1.8,3.2c0.7,1.8,1.1,3.5,2.4,5
			C36.3,228.3,35,226.7,36.7,224.9L36.7,224.9z M128.7,329.8c-8.2-4.4-15.3-11.4-24.7-15.3c1.2,2,2.7,3.1,4.8,4
			c1.7,0.7,3.2,1.8,4.6,3.4c0.9,1.4,1.6,2.2,3.3,2.9c2.6,1.1,4.4,3.8,7.4,5.1c-0.2,0.4-0.4,0.9-0.4,0.9c-2.7-0.6-4.6-3.4-7.1-4.5
			c-0.4,0.9,0.5,1.2,0.3,1.6c-1.7-0.7-3.1-2.3-4.6-3.4c-0.7-0.8-2-1.3-0.8-2.8c-1.2-2-3.1-2.3-4.8-3c-0.5,1.3,0.3,1.6,0.7,1.8
			c1.4,1.6,1.9,2.8,2.8,4.2c1.9,3.8,3.8,7.6,6.4,11.2c0.7,0.8,1.4,1.6,2.4,1.5c1.8-1.8,1.2-4,2.1-6.2c1.9,0.3,3.7,2,6.1,1
			c1.8-0.7,3.9-0.9,5.6-2.7c-2-1.3-4.3-1.8-5.6-3.3c-6.1-4.5-12.2-9.1-18.7-12.8c-4.5-2.4-9-3.7-13.3-4
			C108.4,312.3,118.6,321.6,128.7,329.8L128.7,329.8z M118,187.2c0.5,1.2,0.3,1.6-0.1,1.5c-2.9,3.3-4.9,7-6.9,10.6
			c-2.8,4.3-5.4,9.3-7.1,14.6c-1.6,3.8-2.6,7.4-4,10.8c-0.7,1.7-2.3,3.1-2.1,5.1c1.7-2.8,3.8-5.4,5-8.4c2.4-4.5,3.7-9,6.1-13.5
			c3.3-6.7,6.5-14.3,12.7-19.7c-2.6-2.1-5.6-3.3-8.4-4c-6.2,6.4-6.6,14.7-8,22.7C109.6,200.2,113,193.1,118,187.2L118,187.2z
			 M20.4,217.1c0.2-0.4,0.4-0.9,0.4-0.9c-0.1-4.5-1-8.4-1.7-12.7c-0.3-4.1-0.8-7.8-0.6-11.8c0.4-0.9,0.3-1.9,1.7-1.8
			c-1.3,5.5-1.1,11.1,0.3,16.1c0.4,0.2,0.4,0.2,0.9,0.4c0.2-5.4,1.1-11,1.8-16.3c1.2-0.5,1.9,0.3,1.5,1.1c-0.4,0.8-0.5,1.3-0.9,2.1
			c-1.6,7.4-1.9,14.2-2,21.7c0.3,1.6-0.2,2.9,1.1,4.5c1.3-2,0.7-4.2,1-6.1c0.1-7.5,0.2-14.9,2.2-22.1c0.4-0.9-0.1-2.1-1.2-2
			c-0.9-0.4-1.3-0.5-1.7-0.7c-4.3-1.8-8.8,1.8-8.5,6c0.3,7.6,2.9,14.7,4.6,21.4C19.6,216.8,20,217,20.4,217.1L20.4,217.1z M44,303.5
			c6.6-12.3,12.5-25.3,20.4-37c-0.9-0.4-1.5-0.1-2.1,0.1c-3.2,1.7-6,3.5-8.1,6.1c-1.9,2.2-3.7,4-4.7,6.6
			C46.8,287.2,45.8,295.8,44,303.5L44,303.5z M97.5,303.8c0,0,0,0,0.4,0.2c2.2-0.6,3.9-0.9,6.1-1.5c10.8-2,20.6-7.4,28.6-14.6
			c0.8-0.7,2-1.2,2.6-1.4c1.5,0.1,2.7-0.4,3-2.3c-0.2-0.6,0.5-1.3,0.5-2.3c0.9-2.1,0.6-3.8-0.2-5.6c-9.4,4.6-15.3,12.7-23.8,18.6
			c3-1.2,5.8-3.1,8.1-5.1c4.2-2.8,7.2-6.5,11.2-8.9c1.4-0.9,2.2-1.6,3.8-1.9c0.3,1.6-0.7,1.7-1.5,2.4c-2,1.2-4,2.3-5.6,3.7
			c-4.9,3.4-8.8,7.9-14.6,11c-4.6,2.6-9.2,5.2-14.9,5.8C100.1,302.4,98.4,302.7,97.5,303.8L97.5,303.8z M85.6,87.1
			c-1.1,11.1-4.9,21.5-9,31.3c7.2-9,14.9-17.8,17.2-29.4C91.4,87.5,88.3,87.7,85.6,87.1L85.6,87.1z M125.8,200.9
			c-0.1-1,1-1.1,0.9-2.1c-0.2-0.6-0.9-1.4-2-1.3c-1.8,0.7-2.5,2.5-4.1,3.8c-3.7,4-7.3,8-9,13.3c-0.4,0.9-0.7,1.7-1.3,2
			c-3.8,5.4-8,10.7-11.9,16.6c0.2-0.4,0.6-0.2,0.8-0.7c4.3-4.2,7.9-8.2,12.2-12.4c4-4.8,8-9.7,13.3-14c2.2-1.6,4.2-2.8,6.8-4.2
			c-0.9-1.4-1.8-1.7-3.1-2.3C127.2,200,127.3,201,125.8,200.9L125.8,200.9z M16.3,295.5c0.8,2.8-0.1,5-0.3,7.9
			c-0.4,3.3-0.3,6.9-2.2,10.1c-0.5,1.3-1.2,3-1.8,4.3c-1.9,5.7-3.1,12.2-4.1,18.3c-0.1,1.5-0.5,2.3,0,3.5c0.6-0.2,0.4-0.9,0.5-1.3
			c0.8-3.2,1.2-6.5,3.1-9.7c2.2-4.1,4-8.4,5.8-12.6c2.1-5.1,4.3-10.2,4.3-16.2C21.6,296.2,20,295,16.3,295.5L16.3,295.5z
			 M-9.5,111.1c-1.4,0.9-2.2,0.6-3.1,0.2c-4.4-0.3-4.8-0.5-5.7,4.1c-1,3.6,0.9,6.4,4.6,6.9l0.4,0.2c3.3,0.4,3.9,0.1,4.3-3.2
			c-0.7-0.8-2.1,0.2-2.6-1.1c1.2-0.5,2.3,0.5,3.1-0.2c0.8-0.7,1.3-2,1.2-3c-0.4-0.2-1.3-0.5-2.1-0.9c3.5,0,6.3-1.9,7.3-5.5
			c-3-1.2-5.9-1.5-9.1-2.3c-1.5-0.1-4.2,1.7-4.9,3.4C-14.1,110.1-11.8,110.6-9.5,111.1L-9.5,111.1z M-11.8,241.7
			c-7.4-1.6-14.7-3.1-22.5-2.4c-0.1,1.5-0.2,2.9,1.3,3c2.5,0,5.5,1.3,8.1,0.9c4.1-0.3,8.1-0.1,12,0c2.9,0.2,5.6-0.2,8.2-1.6
			c-10.3-2.8-20.1-5.9-30.6-8.2c-0.5,2.3-0.2,2.9,0.1,4.6C-27,238.4-19.3,239.1-11.8,241.7L-11.8,241.7z M-2,339.4
			c-1.8-1.7-3.4-3.9-5.3-5.2c-7-4.9-14.1-9.4-20.9-14.7c-3.3-2.9-6.2-5.6-8.5-9.6c0.8-0.7,1.7,0.7,2.1-0.1c0.5-1.3-0.6-2.2,0.4-3.3
			c-1.2,0.5-2.4,1-3.4,2.1c-0.6,0.2-1,1.1-0.3,1.9c3,4.8,6.1,9.5,11.4,12.3c0.4,0.2,1.3,0.5,1.5,1.1c-6.6-2.2-9.7-8-14.2-12.9
			c-0.5,2.3-0.2,2.9,0.7,4.3c4.1,4.7,8.5,9.6,14.3,12.5C-16.6,331.3-9.3,335.4-2,339.4L-2,339.4z M89.2,304.4c3.3-0.6,6-2.5,8.9-3.3
			c4.9-1,9.3-3.1,13.5-5.9c3.7-2.9,8.7-5.4,11.8-9.1c2.7-2.9,5.6-5.2,9.2-7.7c2-1.2,3.6-2.5,5.1-3.9c-0.1-1-0.8-1.8-1.6-2.2
			c-1.6,0.3-3,1.2-4.4,2.2c-5.1,3.9-10,8.3-14.7,12.4c-6.6,6.2-14.3,11.6-22.8,15C93,302.4,91,302.6,89.2,304.4L89.2,304.4z
			 M94.9,90c-1.7,5.3-3.6,10-6.6,14.8c-2.4,4.5-6.7,7.7-8.9,12.8c6.6-6.3,13-13.1,17-21.5c0.5,1.2,0.6,2.2,0,2.5
			c-1.1,1.5-1.9,3.2-2.8,4.3c-4.3,6.7-9.7,12.5-15.5,18c-1.1,1.5-3.1,2.7-3.6,5c0.6-0.2,0.8-0.7,1.4-0.9c6.3-5.4,12.7-11.2,18-18
			c1.9-2.2,4.3-4.2,3.8-7.9c0.1-1.4-0.2-3.1-0.5-4.7C97.2,92.9,96.5,91.1,94.9,90L94.9,90z M58,230.3c-1.7,5.3-3,10.8-5.1,15.9
			c-1.7,5.3-2,10.7-1.8,16.3c1.4-3.4,2.7-6.4,3.7-10c1.6-6.3,2.7-12.4,5.1-18.4c0.7-1.7,0.6-3.8-0.3-5.2c-1.4-1.6-2.3-3-3.5-4.9
			c-0.7-0.8-1.4-1.6-2.6-1.1c0,6-0.4,11.8-0.4,17.8C55.4,237.7,56.2,233.5,58,230.3L58,230.3z M22.7,150.5
			c-11.8-5.4-24.3-10.1-32.7-21.1c-1.1,2.6-1.3,4.5-1,6.1c-0.2,0.4,0.1,1,0.5,1.2c5.9,5,12,9.5,19.4,11.1
			C13.4,148.6,17.7,150.4,22.7,150.5L22.7,150.5z M77,130.6c4-1.3,8.2-0.6,12.4-0.9c4.5-0.1,9.4,1.4,14.4,1.5
			c4.1-0.3,8.1-0.1,11.2-2.8c-0.3-1.6-0.6-3.3-1.6-4.7c-1.4-2.6-2.3-2.9-4.6-0.9c-0.4-0.2-0.6,0.2-1,0.1c-3.9,0.9-7.7,2.8-11.6,2.7
			c-1.6,0.3-1.6,0.3-3,1.2c6.6-0.3,13.2-0.5,19.9-3.2c-1.1,1.5-1.1,1.5-1.7,1.8c-6,2.5-12.6,2.7-19.1,2.6
			C87,128.2,82,128.2,77,130.6L77,130.6z M-6.6,244.9c-8.6-1.1-17.4-0.3-25.6-1.1c-0.2,0.4,0.1,1,0.5,1.2c1.9,2.8,4.1,4.7,6.5,7.2
			c1.5,1.1,2.4,1.5,4,1.2c3.9-0.9,7.1-2.6,11-3.5c1-0.1,1.4-0.9,0.9-2.1c-3.2-0.8-6.4-0.2-9.3,0.6c-3.3,0.6-6.4-0.2-9.4-0.4
			c-1.3-0.5-1.1-0.9-0.3-1.6c3.4,1.4,6.8,1.8,10,1.2c3.7-0.5,7.3-2,10.8-2C-7.4,245.6-7.2,245.1-6.6,244.9L-6.6,244.9z M87.4,130.9
			c8.4,2.5,17.4,2.7,26.2,1.9c-2.2,1.6-4.5,1.1-6.5,1.3c-6.4,0.9-12.3-0.6-18.5-1.2c-1.9-0.3-3.3-0.4-5-0.1c2.3,0.5,4,1.2,6.3,1.6
			c1.3,0.5,3,1.2,4.6,0.9c4.1-0.3,8.3,0.5,12.3,0.6c0.4,0.2,0.4,0.2,0.9,0.4c0.6-0.2,0.4,0.2,0.9,0.4c-4.1,0.3-8.2-0.9-12.6,0.3
			c5.6,3.3,11.4,2.7,17,2.6c1-0.1,1.8-0.7,2-1.2c0.6-2.7,0.3-5.4,0.7-7.7c-0.4-0.2-0.9-0.4-1,0.1c-6,2.5-12.7,1.7-19.2,0.5
			C93,130.7,90.1,130.5,87.4,130.9L87.4,130.9z M67.6,126.7c0.4,0.2,0.4,0.2,0.8,0.3c0.2-0.4,0.8-0.7,1-1.1
			c3.6-7.5,5.6-15.7,6.2-24.5c0.4-3.3,0.8-6.7,1.8-10.3C77,91,77,91,76.5,90.8c0,0-0.4-0.2-1,0.1C70.3,102.2,69.7,114.5,67.6,126.7
			L67.6,126.7z M92.2,260c-0.4-0.2-0.4-0.2-1,0.1c0,0-0.4-0.2-0.6,0.3c-4.2,1.7-5.8,5.6-6.1,10c0.1,4.6,0.2,9.1,0.8,13.8
			c0.2,3.1,0.4,6.2-0.4,9.3c-0.3,1.9-0.4,3.3-0.7,5.2c2.7-2.9,3.5-6,3.5-9.6c0.2-5.4,0.5-10.8,1.8-16.3
			C90.1,268.7,90.4,264.3,92.2,260L92.2,260z M69.3,85.3c-4.6,17.1-5.1,19.4-3.7,22c0.5-2.3,1-3.6,1.3-5.5c0.3-1.9,1-3.6,1.3-5.5
			c0.7-1.7,1-3.6,2.1-5.1c0.7-1.7,0.4-3.3,2-4.7c0.9,1.4,0,2.5-0.4,3.3c-1.6,3.8-2.8,7.9-3.9,11.9c-1.5,4.9-1,9.6-0.9,14.1
			c-0.2,0.4,0.3,0.6,1.1,1C69.8,107,71,97,75.5,87.4C74.1,85.8,71.6,85.8,69.3,85.3L69.3,85.3z M-6.6,329
			c-6.5-7.2-12.7-15.3-19.9-21.8c2.5,0,3.7,2,5.2,3.2c1.5,1.1,2.1,3.4,4.8,4c-0.5-1.2-1-2.4-1.8-2.8c-1.5-1.1-2.5-2.5-2.8-4.2
			c-0.8-1.8-1.7-3.2-4.3-2.8c-1,0.1-2.5,0-4-0.1c-1,0.1-2,0.1-3.4,1.1C-25.2,314.7-15.4,321.3-6.6,329L-6.6,329z M109.2,113.4
			c0.5,1.2-0.7,1.7-1.3,1.9c-4.1,1.3-7.4,3.4-11.6,3.7c-3.3,0.6-6.9,2.1-10.1,3.8c-2.8,0.8-5.3,1.8-7.4,3.4
			c10.7-0.5,21-4.8,31.2-7.5c-2.3,2-5.6,2.7-8.2,4.1c2.1-0.1,4.1-0.3,5.7-1.6c1-0.1,2.1-0.1,3-1.2c1.9-3.2,2.1-5.1-1-8.4
			c-1.6,0.3-2.6,1.4-3.1,2.7c0,0,0,0,0.4,0.2C107.8,114.4,107.9,112.9,109.2,113.4L109.2,113.4z M6.2,353.4c-1,0.1-1.9-0.3-3-1.2
			c-5.2-3.2-10.7-4.4-17.2-3.2c-5.1,1.4-10.5,3.6-16.2,2.8c-4-0.2-8.1,0.1-11.9-1.5c-1.7-0.7-3.4-1.4-5-1.1c-0.5,1.3-0.9,2.1,0,3.5
			c1.5,0.1,2.7,0.6,4,1.2c1.3,0.5,2.3,0.5,3.3,0.4c1.6-0.3,3.5,0,5.4,0.2c2.9,0.2,5.8,0.4,8.4-1c5.6-2.7,12-3.5,18-3.5
			c1-0.1,1.6-0.3,2.3,0.5c0.4,0.2-0.4,0.9,0.5,1.2c4,0.1,8.6,1.1,12.3,4.1C7.4,354.3,6.5,354,6.2,353.4L6.2,353.4z M-16.8,299.2
			c2.4,7.5,4.5,14.4,7.9,20.8c2.1,3.4,10.7,17.5,11.8,18.4c-0.3-1.6-0.8-2.8-1.3-4.1c-4.3-7.8-8.1-15.4-11.3-23.2
			c-1.5-3.6-3.2-6.8-2.6-10.6c-0.1-1,0-2.5-0.7-3.3C-14.6,297.6-15.8,298.1-16.8,299.2L-16.8,299.2z M17.1,153.2
			c-4.6-0.9-9.2-1.9-14-2.4c-4.2-0.7-8.6-1.1-12.7-3.3c-0.4-0.2-1.3-0.5-1.9-0.3c-0.9,2.1-0.9,4.6-0.8,6.7c5.3,1.7,24,2.5,28,1.2
			c-1.5-0.1-2.7-0.6-4.2-0.8c-6,0-12,0-18.1-1c-1.5-0.1-3.3-0.4-4.3-2.8C-1.9,154.3,7.7,152.8,17.1,153.2L17.1,153.2z M103.9,291.9
			c0.4,0.2,0.4,0.2,0.4,0.2c10.5-7.1,17.6-18.2,27.6-25.5c-0.1-1-0.5-1.2-1.5-1.1c-2.4,1-5.4,2.2-7.2,4c-3.5,3.6-6.8,6.7-9.7,10
			C110,283.5,107.2,287.8,103.9,291.9L103.9,291.9z M38.4,207.6c0.2,2.1-0.9,4.6-0.3,6.9c2.8-1.9,3.8-4.4,3.2-7.7
			c-0.1-1-0.3-1.6-0.4-2.7c-0.6-3.3-3-4.8-5.1-7.1c-1.4,5.9-2.3,11.6-2.9,17.8c-0.3,1.9,0.4,2.7,2,2.3
			C36.5,215.8,37.7,211.8,38.4,207.6L38.4,207.6z M69.1,195.3c-3,1.2-3.9,3.4-3.3,5.6c2.6,4.6,4.8,9,8.9,12.2c1.1,1,1.8,1.7,2.5,2.5
			c3.9,5.1,6.4,11.2,7,18c0.1,1-0.5,2.3,0.5,3.7c0.2-0.4,0.2-0.4,0.4-0.8c0.4-5.8-0.6-11.8-3.4-17c-1.2-3-3.5-6-5.8-8.9
			c-1.9-3.8-4.4-7.3-5.6-11.8C69.6,197.6,70.2,196.3,69.1,195.3L69.1,195.3z M94,291.8c1.8-0.8,2.3-2,3-3.7
			c4.6-6.1,9.1-12.2,12.8-18.7c1.7-2.8,3.8-5.4,6.3-7.9c0.2-0.4,1-1.1,0.3-1.9c-0.2-0.6-1.1-1-1.7-0.7c-2.8,0.8-5.3,1.8-6.5,4.8
			c-0.4,0.9-0.9,2.1-1.7,2.8c-1.7,2.8-2.9,5.8-3.6,8.5c-1.4,4.5-3.2,7.7-5.6,11.2C96,288.1,95.1,290.3,94,291.8L94,291.8z
			 M63.7,120.5l0.4,0.2c-0.1-2.1,0-3.5-0.3-5.2c-1.2-8-2.4-16-0.6-23.8c0.1-1.5,0.9-2.1,2.3-3.1c-2,4.7-1.9,9.3-1.7,13.8
			c1.7-5.3,2.1-11.1,3.8-16.4c-5.3,1.8-7.3,5.5-8,10.7C59,97,59,97,58.5,96.8c-2.7,0.4-3.8,1.9-2.4,4.5c0.7,1.8,2.5,2.5,3.2,4.3
			c-0.2-3.1-1.2-5.5-1.6-8.2c1.5,1.1,1.6,2.2,2.1,3.4c0.7,4.3,1.2,9,2.4,13.5C62.8,116.6,63.1,118.3,63.7,120.5L63.7,120.5z
			 M25.5,98.1C20,88.3,14.2,78.4,11.1,67.6c-1,0.1-2.5,0-3.9-0.1c0.3,0.6,0.3,0.6,0.1,1c2.5,6,4.5,11.9,8.1,17.9
			c2.1,3.4,4.6,6.9,7.2,10.5C23.2,97.6,23.9,99.4,25.5,98.1L25.5,98.1z M76.9,188.6c-0.5,10.8,4.7,20,8.1,29.9
			c-1.2-11.5-7.3-22.1-5.3-34.2c-2.2,0.6-3.8,1.9-5.4,3.3c0.3,4.1,0.1,8.1,1.5,12.1c1.5,3.6,2.2,7.9,4.3,11.3c0.4-0.9,0.1-1.5,0-2.5
			c-1.3-4-3.2-7.9-3.5-12C76.2,193.8,75.2,191.4,76.9,188.6L76.9,188.6z M117.5,338.6c-0.7-0.8-1.5-1.1-2-2.3
			c-1.9-3.8-4.3-7.8-6.6-11.8c-1.9-3.8-5.2-6.7-8.7-9.1c2.5,3.6,5.1,7.1,6.4,11.2c0.8,2.8,1.2,5.5,1.6,8.2c-0.1,1.5,0.2,3.1,1.3,4
			C111,339.9,115.3,340.2,117.5,338.6L117.5,338.6z M140.1,224.4c0.3,0.6,0.3,0.6,0.1,1c-6.2,2.9-13.2,4-19.6,4.9
			c2.9,0.2,5.8,0.4,9.2,0.8c3.1-0.2,6.1-1.5,9.2-1.7c0.4,0.2,1-0.1,1.4-0.9c1.7-2.8,2.5-6,1-9.6c-5.3,4.3-11.6,6.2-17.8,9.1
			C129.6,229.1,134.8,226.2,140.1,224.4L140.1,224.4z M103.5,295.3c1.6-0.3,3-1.3,4.6-2.6c4.9-3.4,9.5-7.1,13.7-11.3
			c3.9-3.4,7.1-7.5,12.2-10c0.6-0.2,1.2-0.5,1-1.1c-0.5-1.2-1-2.4-2.9-2.7C121.9,276.4,113.9,287.1,103.5,295.3L103.5,295.3z
			 M10.7,339.2c0.6-0.2,0.8-0.7,1-1.1c3.1-6.2,6.6-12.3,10.1-18.3c2.4-4.5,4.8-9,5.7-13.7c0.5-2.3-0.4-5.2-2.5-6
			c0.6,3.3-1,6.1-1.7,8.8c-1.9,5.7-4,10.8-7.2,16C13.3,329.3,11.3,334,10.7,339.2L10.7,339.2z M22.8,152.6
			c-11.8-2.9-23.9-5-33.5-14.5c1.8,2.8,1,4.9,0.3,7.6c2,1.3,4.3,1.8,6.8,2.8c2.6,1.1,6.1,1,9,1.2C11.3,151.3,17,152.1,22.8,152.6
			L22.8,152.6z M-41.1,315.6c-2.1,2.6-1.8,3.2,0.8,5.3c0.4,0.2,0.4,0.2,0.9,0.4c4.2,4.3,9.6,7,15,9.7c5.8,2.9,11.8,5.4,17.6,8.3
			c1.3,0.5,2.4,1.5,3.7,2c-0.5-1.2-0.9-1.4-1.8-1.8c-5-3.6-10.8-6.5-16.6-9.4c-6.4-2.7-12.1-7-17-12.1
			C-39.3,317.4-39.6,315.7-41.1,315.6L-41.1,315.6z M21.9,256.8c0.2-0.4,0.6-0.2,0.8-0.7c-4.3-5.3-9-9.7-13.6-14.2
			c1.2-0.5,1.1,0.9,2.3,0.5c-1-2.4-3-3.7-4.9-5.1c-2,1.2-4.3,0.7-5.6,2.7c1.1,1,1.1,1,2,1.3c0.6-0.2,1-0.1,1.7,0.7
			c2.8,4.2,6.7,6.8,10.8,9c0.7,0.8,1.5,1.1,1.8,1.7C18.1,255.2,19.8,255.9,21.9,256.8L21.9,256.8z M95.8,285c0.4,0.2,0.9,0.4,1-0.1
			c1.5-2.4,3.2-5.2,4.4-8.2c0.6-2.7,1.5-5.9,2.9-8.3c2-3.7,1.6-3.8-0.7-7.8c-1.8,0.7-1.8,0.7-2.5,2.4
			C97.9,270.4,98.2,278.1,95.8,285L95.8,285z M-7.5,340.7c-11.6-5.8-24.6-10.7-35.1-19.1c-0.7,1.7,1.4,2.6,0.9,3.9
			c-0.5,1.3,0.3,1.6,1.2,2c2.2,1.9,4.7,2,6.7,3.3c3,2.3,6.6,3.3,10.5,4.9c3.6,1,7.2,2,10.4,3.8C-11.2,340.1-9.7,341.2-7.5,340.7
			L-7.5,340.7z M58.3,255.9c1.2-0.5,1.6-1.4,2.3-2c2.9-3.3,5.3-6.8,8.2-10.1c2.3-3.1,4.7-6.5,5.9-10.6c0.2-0.4,0.7-1.7-0.7-1.8
			c-2,3.7-3.8,7.9-5.8,11.6c-0.9-0.4-0.7-0.8-0.5-1.2c1.7-2.8,3.1-6.2,4.8-9c1.2-3,0.3-4.4-2.4-4C69.4,239,63.1,246.9,58.3,255.9
			L58.3,255.9z M-34,229c4.9,1.5,9.5,2.5,14.4,4l0.2-0.4c-2.1-0.9-4.1-2.2-6.2-3.1c-1.9-1.3-4.3-1.8-6.6-3.3
			c1.4-0.9,2.2-0.6,3.1-0.2c6.9,3.9,13.4,7.6,20.4,11c1.1,0.9,2.8,1.7,4.7,2c-2-2.4-4.4-3.8-7.2-5.5c-4.9-2.6-10.3-5.3-15.7-8
			C-30.9,223.8-33.9,225-34,229L-34,229z M53.9,260.6c5.1-3.9,14.9-27.3,13.9-32.3c-1.3-0.5-2.5,0-2.6,1.4c-1.3,8-4.2,14.8-7.4,21.4
			C56.6,254.2,54.5,256.8,53.9,260.6L53.9,260.6z M123.8,192.6c-8.5,8.5-15.4,16.6-18.8,28.2c1-0.1,1.4-0.9,1.6-1.3
			c1.5-2.4,3.6-5,5.1-7.4c2.5-6,6.3-10.4,11-14.4C124.2,196.3,124.3,194.8,123.8,192.6L123.8,192.6z M14.7,295.8
			c-1.6,0.3-2,1.2-1.7,2.8c0.4,2.7-0.1,5-0.7,7.7c-1.6,6.3-2.6,13.4-5.7,19.7c-0.9,2.1-0.5,4.8-0.1,7.5c0.8-0.7,1-1.1,0.7-1.7
			c1.9-5.7,2.3-11.6,5-16.9c2-3.7,2.5-8.5,2.8-12.8C15.4,300.1,15.4,297.6,14.7,295.8L14.7,295.8z M4.8,325.7c1-1.1,0.7-1.7,0.9-2.1
			c0-2.5,0.1-5,1-7.1c1.5-5.9,2.9-11.8,3.3-17.6c0.2-2.9-0.9-3.9-3.7-3.1c-0.5,1.3,0.9,1.4,1,2.4c-0.3,1.9-0.1,4-0.4,5.8
			c-1.1,5.1-1.8,10.3-2.9,15.3C3.6,321.2,3.8,323.3,4.8,325.7L4.8,325.7z M3.9,235.3c-8.7-9.1-19.5-15.6-29.8-23.4
			c-1.1,1.5-1.1,2.6,0.6,3.3c2.8,1.7,5.9,3.9,8.5,6c5.7,4.4,11.6,8.3,17.2,12.7C1.3,234.2,2.4,235.2,3.9,235.3L3.9,235.3z
			 M92.1,114.8c4.4-2.2,7.7-5.3,12.6-6.3c-1.3-1.6-3.1-2.3-4.4-1.3c-5.4,2.2-10.2,5.3-13.8,10.3c-0.6,0.3-0.8,0.7-0.4,0.9
			c2.9-0.8,6.3-1.9,9.3-3.1c2.8-0.8,5.9-2.1,8-4.7C99.5,111.4,96.1,113.5,92.1,114.8L92.1,114.8z M-46.8,344.8
			c-0.5,1.3-0.3,1.9,0.6,2.2c2.6,1.1,5.4,2.7,8.5,3.6c4.4,0.3,8.7,0.6,13.5,0.1c2.7-0.4,5.1-1.4,7.7-2.8c-5.2-0.7-10.3,0.7-15.3,0.6
			C-37,347.9-41.9,346.3-46.8,344.8L-46.8,344.8z M43.8,156.3c0.4,0.2,0.6-0.2,0.6-0.2c-2.4-5-6.2-9.1-10-13.2
			c-4.9-5-10-9.7-15.1-14.3c-1.4-1.6-2.8-1.7-4.9-1.5c3.1,3.3,6.9,6.4,10.2,9.2c3.7,3,7,5.9,10,9.7C38.1,149.4,40.7,153,43.8,156.3
			L43.8,156.3z M96.4,294.3c0.8,0.4,1-0.1,1.6-0.3c4.9-4.5,9.5-9.6,12.8-15.2c3.2-5.2,7.2-10,12.4-12.9c0.2-0.4,1-1.1,0.7-1.7
			c-0.9-0.4-1.9-0.3-2.7,0.4c-2.2,1.6-4.3,3.2-6.3,5.4c-3.9,5.9-8.3,11.6-12.5,16.8C100.4,289.5,98.5,291.7,96.4,294.3L96.4,294.3z
			 M1,127.9c8.7,9.1,19.5,13.2,30.1,19.1c-1.1-1-1.8-1.7-2.5-2.5c-4.1-2.2-7.6-4.7-11.2-6.7c-3.7-2-7.2-4.5-9.9-7.6
			C6,128,4,126.7,1,127.9L1,127.9z M83.6,87.2c-0.5,2.3-2.4,4.5-2.8,6.8c-0.7,7.7-3.3,15.1-5.9,22.6c0.4,0.2,0.2,0.6-0.4,0.8
			c-1.7,1.8-1.2,4-2.5,6C77.8,115.4,85.5,92.1,83.6,87.2L83.6,87.2z M81.6,302.2c0.7-4.2,2.3-8,1.6-12.3c-0.7-1.8-1.1-3.4-0.8-5.3
			c0.3-1.9-0.6-3.3-1.1-4.5c-2-2.3-2.4-5-2-8.4c-0.2-0.6,0.3-1.9-0.4-2.7c-3.2,1.7-3.8,4.4-2.2,7.6c2.7,5.6,4.5,11.9,5.4,18.3
			C82.1,297.4,81.2,299.5,81.6,302.2L81.6,302.2z M88.5,294c0.4-0.9,0.1-1.4,0.5-2.3c1.1-5,3-9.7,3.7-15c0-3.5,0.4-6.9,0.7-10.2
			c0.5-2.3,0.5-4.8,1.8-6.7c0,0,0.2-0.4-0.3-0.6c-1.2,0.5-1.2,0.5-1.6,1.3c-2.5,6-3.3,12.6-3.9,18.9C89.1,284.3,89,289.2,88.5,294
			L88.5,294z M117.4,262c-7.5,8.4-13.5,17.9-18.8,27.2c7.7-7.8,12.4-17.9,20.4-25C118.9,263.2,118.5,263,117.4,262L117.4,262z
			 M-46.9,328.3c4.9,5,26.8,13.7,32.3,12.5c-3.8-1.6-6.8-2.8-10.6-3.4c-2.1,0.1-4.4-0.3-6.3-1.6c-1.1-1-2.8-1.7-4.3-1.8
			c-2.6-1.1-4.9-2.6-7.2-4.5c3.5,2.5,7.1,3.4,11.1,4.6c-0.7-0.8-1.1-1-1.5-1.1c-3.3-2.9-7.9-2.8-10.4-6.3c-0.7-0.8-1.9-0.3-1.6,1.3
			l0,0C-45.8,328.2-46.5,327.4-46.9,328.3L-46.9,328.3z M34.8,152.6c-1.1-1-2-1.3-3.1-2.3c-4.7-2-9.6-4.5-14.1-6.9
			c-7.1-4.5-15.2-6.8-20.2-13.9c-0.7-0.8-1.1-1-2.5,0c0.9,1.4,2.3,2.9,3.8,4.1c4.3,2.8,8.7,6.7,13.9,8.8
			C19.7,145.7,27,149.8,34.8,152.6L34.8,152.6z M113.1,305.8c0,0,0,0,0.3,0.6c1-0.1,1.9,0.3,2.9,0.2c4.8,0.5,10.5,1.4,15.2,0.8
			c4.7-0.5,9.7-0.5,13.9-2.2c2.4-1,2.6-1.4,2-3.7C136.6,306,124.8,306.7,113.1,305.8L113.1,305.8z M-9.5,238.7
			c-7.9-3.8-15.6-7-24-8.5c-0.9-0.4-1.4-0.1-1.8,0.7c-0.1,1.5,0.9,1.4,1.8,1.7c4.2,0.7,8.5,2.5,12.9,3.9
			C-17.1,237.5-13.5,238.5-9.5,238.7L-9.5,238.7z M61.8,254.9c6.3-4.4,11.9-10.5,15.2-17.2c1.1-1.5,1.2-3-0.7-4.3
			C72.9,241.5,66.7,247.9,61.8,254.9L61.8,254.9z M25.9,272.5c-2.1-0.9-3.9-2.6-6.4-2.7c-6.7-0.8-12.8-2.8-19.2-5.5
			c-0.8,0.7-2,1.2-2.5,2.4C6.7,270.5,16.7,270.6,25.9,272.5L25.9,272.5z M45.4,101.9c-1.6,3.8-1.6,7.4-0.2,11.4
			c1.5-2.4,1.5-4.9,2.4-7c0.4,2.7-0.3,5.4-1.6,7.4c-0.7,1.7-1.6,3.8-0.8,5.7c2.6-3.9,3.8-7.9,5.3-12.8
			C49.7,104.7,48.2,102.5,45.4,101.9L45.4,101.9z M27.8,258.3c-1.6-4.7-3.5-8.5-6.4-12.2c-4.1-4.7-8.1-9.4-9.6-9.5
			c0.1,1,0.5,1.2,1.2,2c1.3,1.6,3.3,2.9,3.6,4.5c0.6,2.2,2.1,3.4,3.6,4.5c0.9,1.4,2.3,3,3.4,3.9c0.4,0.2,0.9,0.4,0.1,1
			c-1.7-0.7-2.5-2.5-4.6-3.4c0.3,1.6,1.4,2.6,2.1,3.4c0.7,0.8,2,1.3,2,2.4C23.7,257.5,25.5,257.8,27.8,258.3L27.8,258.3z
			 M-11.6,316.9c-2.2-5.4-3.6-10.5-5.9-16c-1.6,1.4-1,3.6-3.2,4.2C-20.1,308.4-13.9,316.4-11.6,316.9L-11.6,316.9z M-24.3,265.6
			c1.2-0.5,1.8-0.7,2.6-1.4c3.6-1.5,6.3-4.4,9.5-6c1.2-0.5,1.4-0.9,0.5-2.3c-4.1,1.3-8.3,3.1-11.8,5.6
			C-25.5,262.6-25.4,263.6-24.3,265.6L-24.3,265.6z M60.5,260.3c2.8-0.8,5.6-2.7,8.2-4.1c3.4-2.1,6.9-4.6,9.4-8.1
			c1-1.1,0.9-2.1,0-3.5C73.6,251.8,65.5,254.4,60.5,260.3L60.5,260.3z M-25.8,216.4c-0.4,0.9,0.1,1,0.1,1c3.1,2.3,5.5,4.8,8.3,6.5
			c4.5,2.4,8.9,5.2,12.8,8.8c1.5,1.1,3.3,2.9,4.8,4c0.7,0.8,1.5,1.1,2.7-0.4C-7,230.2-15.7,222.1-25.8,216.4L-25.8,216.4z
			 M49.9,249.9c0.2-0.4,0.6-0.2,0.6-0.2c0.5-1.3,1.2-3,0.9-4.6c0.8-5.6,1.3-11.5,1.1-17.1c0.3-1.9,0-3.5,0.1-5
			c-0.2-0.6-0.3-1.6-1.8-1.8C50.8,230.8,50.4,240.1,49.9,249.9L49.9,249.9z M-10.2,250.9c-1.8,0.7-4.3,0.7-6.3,1.9l-0.6,0.3
			c-0.3,1.9-1.9,2.2-3.1,2.7c-1.2,0.5-3,1.2-4.4,2.2c-1.6,0.3-1.6,1.4-0.8,3.2c4.3-3.2,9.4-4.6,13.8-6.8
			C-10.2,253.4-9.8,252.6-10.2,250.9L-10.2,250.9z M91.5,205.2c0.3-1.9,0.1-3.9-0.2-5.6c-0.4-5.2-0.7-10.3,1.4-15.4
			c0.4-0.9,0.3-1.9-1.4-2.6c-1.5-0.1-1.8,0.7-2.3,2c-0.1,1.5-0.2,2.9-0.5,4.8c0.7,4.3,1.9,8.8,2.4,13.5
			C90.9,202.9,91.4,204.2,91.5,205.2L91.5,205.2z M2.4,318.2c1.8-3.2,3.2-19.7,2-21.7C1.4,304.8,0.8,316,2.4,318.2L2.4,318.2z
			 M64.5,254.5c3.9-0.9,9.5-6.1,12.9-10.6c1.6-1.4,1.4-3.4,0.7-5.2C74.6,244.7,69.5,249.6,64.5,254.5L64.5,254.5z M38.5,116
			c0.2-0.4,0.4-0.9,0.5-1.3c1.2-4,1.3-7.9,1.6-12.3c0.1-1.5-0.8-2.8-2.7-3.1c0.1,4.6-0.8,9.2-1.1,13.5
			C36.9,113.9,37.6,114.7,38.5,116L38.5,116z M-9.1,329c-7.1-7-15.2-12.8-22.9-19.6C-25.9,317.5-18,323.8-9.1,329L-9.1,329z
			 M78,210.1c-2.1-5.9-3.8-12.6-5-19.1c0,0,0,0-0.2,0.4c-0.4,0.9-0.3,1.9-0.5,2.3c-0.5,1.3-1.4,0.9-1.6,1.4
			C71.3,200.8,74.9,205.3,78,210.1L78,210.1z M25.6,141.2c-1.4-1.6-3.1-3.3-5.1-4.6c-4.3-2.8-8.1-5.9-11.8-8.9
			c-0.7-0.8-1.5-1.1-2.3-0.5C11,134.1,18.7,137.3,25.6,141.2L25.6,141.2z M106.2,109.7c-1.4,0.9-2.5,2.5-3.9,3.4
			c-1.4,0.9-2.5,2.5-3.6,2.5c-5.1,1.4-9.9,3.4-14.5,6c-0.4-0.2-1,0.1-0.8,0.7c0.4,0.2,0.6-0.2,1-0.1c5-2.4,10.3-3.2,15.4-5.6
			c3.2-1.7,5.8-3.1,8.3-5.5C107.7,109.8,107.3,109.6,106.2,109.7L106.2,109.7z M21.3,147.9c-1.3-0.5-2.6-1.1-3.8-1.6
			c-5.8-2.9-12-6-16.8-10c-3.7-3.1-7.2-5.5-9.4-9.9c-1,1.1-1,1.1-0.3,1.9c2.5,3.5,5.4,6.3,8.3,9C5.7,141.9,13.2,145.6,21.3,147.9
			L21.3,147.9z M-0.5,168.9c4.8,4,10.6,0.9,15.6-5C9.6,165.1,5.5,168.9-0.5,168.9L-0.5,168.9z M35.6,274.5
			c-0.7-4.3-3.2-7.8-4.7-11.5c-0.8-2.8-2.7-3.1-5.4-3.8C28.5,265,32.3,269.1,35.6,274.5L35.6,274.5z M51.1,108.8
			c-1.1,5-4.8,9-5,14.4c1.3-2,2.9-3.3,4.2-5.3C53.1,114.6,53.3,111.7,51.1,108.8L51.1,108.8z M83.7,286.5c0.3-5.4,0.3-10.4-0.5-15.7
			c-0.1-1-1.2-2-2.8-1.7c0.4,2.7-0.7,5.2,0.7,7.8C82.8,280.1,83.6,283,83.7,286.5L83.7,286.5z M81.6,88.4c-1.6,0.3-2.2,1.6-2.5,2.5
			c-1,3.6-2,7.2-2,10.7c0,2.5-0.5,4.8-0.5,7.3C79.2,102.5,79.6,95.6,81.6,88.4L81.6,88.4z M24.1,246.7c-2.9-5.2-5.7-10.4-10.1-14.2
			c-0.7,1.7-0.4,3.3,0.5,4.7c2.2,1.9,4.6,3.4,6,6C21.5,244.6,22.4,246,24.1,246.7L24.1,246.7z M64.2,229.9c-2.5,0-3.1,0.2-3.1,2.7
			c-0.1,5-2,9.7-2.3,14C61.3,241.7,63.2,235.9,64.2,229.9L64.2,229.9z M30.5,143.7c0.1-1.5-0.7-1.8-1-2.4
			c-5.5-4.8-11.8-8.9-17.1-14.1c-0.7-0.8-1.3-0.5-2.1,0.1C16.3,133.3,24.1,137.5,30.5,143.7L30.5,143.7z M79.8,252.4
			c-2.2,4.1-5.8,6.6-10.2,8.8c3.2,0.8,5.2,0.7,7-1.1C78.6,257.9,80.5,255.7,79.8,252.4L79.8,252.4z M-27.8,223.6
			c6.9,3.9,13.5,7.2,20,10.8c-4.7-4.5-10.4-7.4-16.1-10.7C-24.7,223.4-26.2,222.2-27.8,223.6L-27.8,223.6z M-5.5,203.8
			c0.3,4.1,7.8,17.3,12.6,20.3C2.8,217.3-0.9,210.7-5.5,203.8L-5.5,203.8z M6.8,322.1c2.9-3.3,5.8-18.6,4.3-21.2
			C10.1,307.9,7.7,315,6.8,322.1L6.8,322.1z M0,268.7c0.9,1.4,0.6,3.3,2.5,3.6c3.6,1,7.1,1,10.3-0.7C8.6,270.8,4.2,269.4,0,268.7
			L0,268.7z M23.1,144.7c-1.4-1.6-3.1-2.3-5-3.6c-6.4-2.7-12.9-6.4-18-12c-0.2-0.6-0.9-1.4-1.7-0.7c1.7,3.2,6.9,7.4,10.6,9.4
			c3.8,1.6,7.7,3.2,11.2,5.6C20.8,144.2,22.2,144.3,23.1,144.7L23.1,144.7z M20.9,223.3c0.2,3.1,1.6,4.7,3,4.8
			c0.5,3.7,0.5,3.7,2.2,4.4c-0.2-3.1,0.8-5.7-1-8.4C23.5,221.9,23,221.7,20.9,223.3L20.9,223.3z M56.1,266c0.7,0.8,0.9,0.4,1.5,0.1
			c3.4-2.1,6.9-4.6,11-5.9c1.4-0.9,2.3-2,2.6-3.9C66.3,259.7,60.2,261.2,56.1,266L56.1,266z M111.9,204.2c1.7-1.8,3.1-2.7,3.8-4.4
			c1.7-2.8,3.8-5.4,6.5-7.3c1.4-0.9,1.3-2,0.2-2.9C118.2,192.8,113.8,198.5,111.9,204.2L111.9,204.2z M13.5,117.1
			c-0.7-4.3-3.5-6-7.5-6.1C7.2,115.5,9.4,117.4,13.5,117.1L13.5,117.1z M44.1,308.1c4.4-8.2,9.2-16.2,12.4-24.9
			C51.7,291.2,47.3,299.4,44.1,308.1L44.1,308.1z M97,272.5c0.3-4.4,3.1-8.7,4.5-13.1c-1.7-0.7-3.2-0.8-4.5,0.1
			c0.1,1,1.4,0.1,1.5,1.1C97.3,264.6,96.7,268.4,97,272.5L97,272.5z M0.2,250.2c2.5,3.6,6.9,6.4,9.1,3.3
			C7,250.6,5.1,250.3,0.2,250.2L0.2,250.2z M37,126.9c0.6-2.7,0.9-4.6,1-7.1c-0.1-1-0.1-2.1-1.8-1.7c-0.4,0.9-0.3,1.9-0.6,2.7
			c-0.6,0.3-1.3-0.5-2.1,0.1C33.9,123.6,33,123.3,37,126.9L37,126.9z M-33.5,356.3c0.2-0.4,0.2-0.4-0.2-0.6
			c-3.8-0.6-8.1,0.1-12.3-1.6c1,2.4,2.3,4,4.4,3.8C-39,357.5-36.2,356.7-33.5,356.3L-33.5,356.3z M9.5,260.1
			c1.4,2.6,14.7,9.1,17.2,9.2C21.5,265.1,15.1,263.5,9.5,260.1L9.5,260.1z M29.4,98.2c-2.2,0.6-2.2,0.6-2.5,3.5
			c-0.1,1.4,1.9,3.8,4.1,4.7C30.2,103.6,31.9,100.8,29.4,98.2L29.4,98.2z M-25.6,219.5c0.6,2.2,13.2,10.5,16.2,10.3
			C-14.8,226-20.6,223.1-25.6,219.5L-25.6,219.5z M18.4,256.8c-2.1-3.4-6.4-6.2-8.9-5.2c1.4,2.6,4.8,3,6.6,5.8
			C16.8,257.2,17.6,257.5,18.4,256.8L18.4,256.8z M0.7,311.5c0.7-4.2,1.5-8.4,1.8-12.8c-1.9-0.3-2.3,0.6-2.2,1.6
			c-0.3,1.9-0.4,3.3-0.7,5.2C-0.2,307.6-0.1,309.7,0.7,311.5L0.7,311.5z M45.1,136.3c-1.5,5.9,0.5,16.7,2.7,18.7
			C45.8,149.1,47,142.6,45.1,136.3L45.1,136.3z M20.5,268.7c-0.5-1.2-1.3-1.5-2.2-1.9c-2.9-0.2-5.1-2.1-7.5-3.6
			c-0.7-0.8-1.5-1.1-2.2-1.9c-1.3-0.5-2.3-0.5-3.9,0.9C10.3,264.4,15.4,266.6,20.5,268.7L20.5,268.7z M1.5,263.8
			c3.9,2.6,8.5,3.6,13.2,4.5c-0.2-0.6-0.2-0.6-0.7-0.8c-3.2-1.8-7.4-2.6-10.5-4.9C2.6,262.3,2,262.5,1.5,263.8L1.5,263.8z M17,230.2
			c1.1,3.4,2.1,6.9,4.8,9C21.7,235.7,20.7,232.2,17,230.2L17,230.2z M18.1,258.7c2.9,2.7,5.9,5,9.2,6.8c-1.9-2.8-4.1-4.7-6.5-7.2
			C20.1,257.5,18.9,258,18.1,258.7L18.1,258.7z M24,298.7c-0.4-0.2-0.9-0.4-1,0.1c0.3,6.6-2.2,12.6-4.3,18.7
			C21.2,311.5,23.7,305.6,24,298.7L24,298.7z M112.3,251.4c0.9,1.4,2.5,2.5,3.4,3.9c1,2.4,3.2,1.9,5.5,2.3
			C118.9,254.6,115.5,253.2,112.3,251.4L112.3,251.4z M96.4,261.8c-2.9,5.8-1.6,12.3-2.8,18.8C95.2,274.3,95.4,267.9,96.4,261.8
			L96.4,261.8z M37.8,273.9c0.4,5.2,2.7,9.1,4.3,13.8C41.6,283,40.6,278.1,37.8,273.9L37.8,273.9z M46.2,163.8
			c2.3,2.9,3.5,6,5.5,8.3c-0.8-2.9-1.4-5.1-2.8-7.7C48.8,163.4,47.8,163.5,46.2,163.8L46.2,163.8z M-7.8,264.4c2,2.3,4.7,2,7-1.1
			C-3.4,261.2-5.1,264.1-7.8,264.4L-7.8,264.4z M-31.8,312.5c0.6,3.3,6,8.5,10,9.7c-1.6-2.2-3.7-3.1-5.1-4.6
			C-28.7,315.8-30,314.2-31.8,312.5L-31.8,312.5z M21.5,229.1c-0.6,2.7,0.9,7.4,3.1,8.3C24.3,234.3,24.1,231.2,21.5,229.1
			L21.5,229.1z M73.3,257.2c3-1.2,7-6.1,6.5-8.3C77.7,251.5,74.8,253.8,73.3,257.2L73.3,257.2z M13.9,113.8c1.1,3.4,2.2,4.4,5.3,4.2
			C18.4,115.2,17.3,114.2,13.9,113.8L13.9,113.8z M29.1,231.2c1.5-2.4,0.6-6.3-1.8-7.8C27.1,226.4,27.7,228.7,29.1,231.2L29.1,231.2
			z M10.9,118.6c1.4,2.6,2.7,3.1,5.5,2.3C15.5,118.5,14.2,117.9,10.9,118.6L10.9,118.6z M14.3,122.5c2,1.3,2.8,4.2,6,3.5
			C19.2,124,17.8,121.4,14.3,122.5L14.3,122.5z M6.8,115.3c-1.8-1.7-1.6-4.7-4.7-5.5c-0.3,1.9,2.2,5.4,3.5,6
			C6,116,6.6,115.8,6.8,115.3L6.8,115.3z M0.8,118.9c-1-2.4-3-3.7-4.3-2.8c-0.6,0.3-1.4,0.9-1.3,2c0.2,0.6,0.7,0.8,1.3,0.5
			c0.6-0.2,0.4-0.9,1-1.1C-1.5,118.4-0.8,119.2,0.8,118.9L0.8,118.9z M20.1,230c0.1-1.5,0.4-3.3-1.1-4.5c-0.8,0.7-2.6,1.4-2.5,3.5
			C18.1,227.7,19.2,228.6,20.1,230L20.1,230z M1.2,246.6c-0.6-2.2-2.5-2.5-3.9-2.6c-1,0.1-1.4,0.9-1.7,1.8
			C-2.4,246.7-0.7,246.4,1.2,246.6L1.2,246.6z M-2,123.2c0.3,1.6,1,2.4,2.1,3.4c1-0.1,2.1-0.1,2.7-0.4C0.9,125.9,1,122-2,123.2
			L-2,123.2z M32.3,122.5c0.2-2.9-0.3-4.1-3-4.8C29.1,120.6,29.8,121.4,32.3,122.5L32.3,122.5z M42.8,144.3
			c-0.4-2.7-0.4-5.2-1.3-7.6C40.8,139.5,40.3,141.8,42.8,144.3L42.8,144.3z M-7.1,123.6C-9,124.3-9,124.3-6,128
			c0.4,0.2,1-0.1,1.4-0.9C-5.7,126.1-6.7,124.7-7.1,123.6L-7.1,123.6z M25.5,129.2c1.2,2,2.4,4,4.3,5.3
			C28.7,132.5,28.5,129.4,25.5,129.2L25.5,129.2z M10.7,120.4c-1.4-2.6-2.5-3.5-4.3-2.8C7.1,119.5,8.6,120.6,10.7,120.4L10.7,120.4z
			 M31.5,125.6c0.2,3.1,0.5,3.7,3,4.8C34.4,128.3,34.1,126.7,31.5,125.6L31.5,125.6z M20.4,123.5c1.2,2,2.5,3.5,4.8,4
			C24.2,125.1,23.3,123.7,20.4,123.5L20.4,123.5z M34.5,118.4c1.2-3-0.5-4.7-1.5-7.1C32.2,114.4,33.5,116,34.5,118.4L34.5,118.4z
			 M42.2,130.1c1.1-2.6,2.1-5.1,1.7-7.8C42.4,124.7,42.4,127.2,42.2,130.1L42.2,130.1z M41.9,117.5c-0.9,2.1-1.8,4.3-0.4,6.8
			C42,122,42.9,119.9,41.9,117.5L41.9,117.5z M27,105.2c1,2.4,2.4,4,4.1,5.7C31.3,108,28.4,106.8,27,105.2L27,105.2z M-0.7,241.4
			c1,2.4,2.1,3.4,5,3.6C3.2,243,1.8,241.4-0.7,241.4L-0.7,241.4z M25.1,115.9c0.1,2.1,1.7,3.2,3.4,3.9
			C28.4,116.3,28,116.2,25.1,115.9L25.1,115.9z M121.2,269.6c0,0,0,0-0.4-0.2c-2.4,1-3.7,4-5.8,5.6c-0.2,0.4,0.2,0.6,0.2,0.6
			C117.6,273.6,119.3,271.8,121.2,269.6L121.2,269.6z M12.1,255.2c-2.2-1.9-3.1,0.2-5.2,0.4C8.7,257.3,9.8,257.2,12.1,255.2
			L12.1,255.2z M17.2,119.2c1,2.4,2.1,3.4,5.2,3.2C21,120.8,19.5,119.6,17.2,119.2L17.2,119.2z M6.5,125.7c-1-2.4-1.4-2.6-4.1-2.2
			C3.3,124.9,4,126.7,6.5,125.7L6.5,125.7z M93.8,109.5c2-1.2,4.1-1.3,5.4-3.3C96.8,105.8,95,106.5,93.8,109.5L93.8,109.5z
			 M27.4,236.5c1.7-2.8,1.3-4.4,0-6C26.7,232.2,26.8,234.3,27.4,236.5L27.4,236.5z M37.4,138.1c-0.7-4.3-1.4-5.1-3.1-5.8
			C34.8,134.5,36.2,136.1,37.4,138.1L37.4,138.1z M25.9,236.4c-0.5,2.3-0.3,4.4,0.9,6.4C28.4,240,25.5,238.7,25.9,236.4L25.9,236.4z
			 M-1.7,247.5c1.4,1.6,3.6,1,5.3,1.7C2.4,247.2,0.2,247.7-1.7,247.5L-1.7,247.5z M9.4,236.5c0.7,1.8,1.7,3.2,4.5,4.9
			C12.5,239.8,11.9,237.6,9.4,236.5L9.4,236.5z M-19.5,254.1c-2.9-0.2-5.3,0.8-5.2,2.8C-23.1,255.6-21.2,255.8-19.5,254.1
			L-19.5,254.1z M2.4,115c-0.9-1.4-0.8-2.8-2.1-3.4c-1.2,0.5-1.4,0.9-0.9,2.1C0.1,114.6,0.6,115.8,2.4,115L2.4,115z M39,128.2
			c0.7-1.7,1-3.6-0.2-5.6C38.9,124.7,37.6,126.7,39,128.2L39,128.2z M22.3,103.3c0,2.5,0.6,3.3,3.8,4.1
			C24.8,105.8,23.8,104.4,22.3,103.3L22.3,103.3z M3.5,122c-0.7-1.8-2.2-1.9-3.7-2C0.4,122.2,1.3,122.6,3.5,122L3.5,122z
			 M26.5,314.3c-3.8,5.4-3.8,5.4-3.9,6.9C24.6,319,26.1,316.6,26.5,314.3L26.5,314.3z M23,239.7c0.6,2.2,0.9,3.9,2.7,5.6
			C25.1,243.1,25.4,241.2,23,239.7L23,239.7z M-3.6,258.1c-1.4-1.5-1.8-1.7-4-0.1C-6.1,259.2-5.4,259.9-3.6,258.1L-3.6,258.1z
			 M10.2,104.7c1,2.4,1.8,2.8,4.5,2.4C13.2,106,11.9,105.5,10.2,104.7L10.2,104.7z M-4.1,119.8c1.2,3,1.2,3,3.7,2
			C-1.4,120.5-1.9,119.2-4.1,119.8L-4.1,119.8z M-2.1,127.1c-0.3-1.6-0.6-3.3-2.9-3.7C-4.3,125.2-4,126.9-2.1,127.1L-2.1,127.1z
			 M23.7,120.4c-0.8-1.8-1.2-3-3.4-3.9C20.9,118.7,21.4,119.9,23.7,120.4L23.7,120.4z M18.4,106.7c-0.8-1.8-0.6-2.2-3.5-2.5
			C15.7,106,16.3,106.8,18.4,106.7L18.4,106.7z M20.8,104.6c0.8-0.7,1.1-1.5,0.2-2.9c-0.4,0.9-1.2,0.5-1.8,0.7
			C19,103.9,19.3,104.5,20.8,104.6L20.8,104.6z M87.5,237.6c1.7-1.8,2.4-3.5,2.3-5.5C88.9,234.1,87.8,235.7,87.5,237.6L87.5,237.6z
			 M54.5,262.8c-1.7-0.7-2.1,0.1-2.3,3.1C53.1,264.8,54.4,264.3,54.5,262.8L54.5,262.8z M23.3,102.2c0.5,1.2,1.2,2,2.4,2.5
			c0.1-1.5,0-2.5-1.2-3C24.2,101.1,23.5,101.8,23.3,102.2L23.3,102.2z M10.6,125.4c-1.2-2-1.6-2.2-3.2-1.9
			C8.4,126,8.4,126,10.6,125.4L10.6,125.4z M9.6,257.7c1.5,1.1,2.7,0.6,4.1-0.3C12.2,256.2,11.2,257.3,9.6,257.7L9.6,257.7z
			 M1.3,116.5c1.3,1.6,1.7,3.2,3.9,2.6C4.3,117.8,3.8,116.6,1.3,116.5L1.3,116.5z M32.4,219.6c-0.1,1.5,0.1,2.1,0.8,2.8
			c0.6-0.3,1.4-0.9,0.7-1.7C33.9,219.7,33.4,219.5,32.4,219.6L32.4,219.6z M-8.7,254.6c-0.2,0.4-1,1.1-0.3,1.9
			c0.9,0.4,1.9,0.3,2.7-0.4C-6.8,254.8-7.2,254.7-8.7,254.6L-8.7,254.6z M-4.5,260.3c1.5,1.1,2.4,1.5,3.3,0.4
			C-2.4,258.7-3,258.9-4.5,260.3L-4.5,260.3z M41,112.6c-1.3,2-1.2,4-1.5,5.9C40.8,116.5,41.1,114.6,41,112.6L41,112.6z M30.2,220.2
			c-2.1,0.1-2.5,0-1.9,2.2C29.7,222.5,30.5,221.8,30.2,220.2L30.2,220.2z M-5.4,253.9c0.9,1.4,1.6,2.2,3,1.2
			C-3.3,253.8-4.2,253.4-5.4,253.9L-5.4,253.9z M4.2,108.3c1.8,1.7,3.8,1.6,5.3,1.7C8,108.8,6.7,108.3,4.2,108.3L4.2,108.3z
			 M31.4,117.6c0.1-1.5-1-2.4-2.6-2.1C30.1,117,30.1,117,31.4,117.6L31.4,117.6z M23.3,108.2c0.7,1.8,1.2,2,3.2,1.9
			C26.2,108.4,24.5,108.7,23.3,108.2L23.3,108.2z M24.9,131.9c-2.1-3.4-2.1-3.4-4.2-3.2C22.3,129.8,23.4,130.8,24.9,131.9
			L24.9,131.9z M26.7,223.7c-0.1-1,0.3-1.9,0.2-2.9c-0.9-0.4-1.5-0.1-1.8,0.7C25.2,222.6,25.6,222.8,26.7,223.7L26.7,223.7z
			 M31.2,226.1c1.1-1.5,1.5-2.4,0.1-3.9C30.4,223.3,30.9,224.5,31.2,226.1L31.2,226.1z M109.1,310.6c1.7,0.7,3.4,1.4,5.5,1.3
			C112.9,311.2,111.2,310.5,109.1,310.6L109.1,310.6z M15.1,125.3c-0.9-1.4-1.8-1.7-3.4-1.4C12.5,125.7,13.5,125.6,15.1,125.3
			L15.1,125.3z M11.7,108.4c0.7,1.8,2.4,1.5,3.8,1.6C14.6,108.6,13.1,108.5,11.7,108.4L11.7,108.4z M9.2,108.3
			c-0.6-2.2-1.4-2.6-3-1.2C7.1,107.5,7.9,107.8,9.2,108.3L9.2,108.3z M1.8,261.9c-1.7-0.7-1.7-0.7-3.1,0.2
			C-0.2,263.1,0.8,263,1.8,261.9L1.8,261.9z M96.4,296.8c-1.4,0.9-2.6,1.4-3.6,2.5C94.5,299,95.4,297.9,96.4,296.8L96.4,296.8z
			 M3.8,246.2c0.9,1.4,2,1.3,3.6,1C6.5,245.8,4.8,246.2,3.8,246.2L3.8,246.2z M5.8,248.6c1.3,1.6,2.8,1.7,4.4,1.3
			C8.9,248.4,7.7,248.9,5.8,248.6L5.8,248.6z M2.6,258.8c-1.1-1-2.1-0.9-2.9-0.2C0.8,259.5,0.8,259.5,2.6,258.8L2.6,258.8z
			 M112.3,307.9c1.3,0.5,3.2,0.8,5.2,0.7C115.5,307.3,113.7,308,112.3,307.9L112.3,307.9z M120.5,261.8c0.6-0.3,1.4-0.9,1.5-2.4
			C119.1,260.2,119.1,260.2,120.5,261.8L120.5,261.8z M12.5,111.2c1.5,1.1,2.8,1.7,3.8,1.6C15.7,112,14.6,111.1,12.5,111.2
			L12.5,111.2z M-6.3,120.4c-0.3,1.9-0.3,1.9,1.8,1.8C-4.8,121.5-4.9,120.5-6.3,120.4L-6.3,120.4z M37.5,131.6
			c-0.3-1.6,0.2-2.9-2.1-3.4C36.2,130.1,36.2,130.1,37.5,131.6L37.5,131.6z M24,112.5c0.7,1.8,1.6,2.2,3.2,1.8
			C26.7,113.1,25.7,113.2,24,112.5L24,112.5z M20.9,115.2c0.1-1.5-0.7-1.8-2-2.3C18.7,114.3,19.6,114.7,20.9,115.2L20.9,115.2z
			 M60.2,228.7c2.1-0.1,2.7-0.4,3.8-1.9C62.6,227.7,61.3,227.1,60.2,228.7L60.2,228.7z M17.6,109.8c-0.3,1.9,1.2,2,2.2,1.9
			C19.9,110.3,18.9,110.4,17.6,109.8L17.6,109.8z M6.7,257.4c-1.1-1-2.1-0.9-2.9-0.2C4.4,258,5.3,258.4,6.7,257.4L6.7,257.4z
			 M-6.6,248.4c1.3,0.5,1.9,0.3,2.5,0c-0.2-0.6-0.1-1-0.9-1.4c-0.6,0.2-0.6,0.2-0.8,0.7C-5.8,247.7-6,248.2-6.6,248.4L-6.6,248.4z
			 M-13.2,318.3c0.6,2.2,0.6,2.2,2.5,2.5C-11.2,319.6-11.9,318.8-13.2,318.3L-13.2,318.3z M-0.2,257.1c-0.9-1.4-1.5-1.1-2.7-0.6
			C-2,257.8-1.4,257.6-0.2,257.1L-0.2,257.1z M63.9,264.3c-1.5-0.1-1.8,0.7-2.8,1.8C62.7,265.8,63.4,265.5,63.9,264.3L63.9,264.3z
			 M42.5,281.9c0.5-1.3,0.1-1.5-0.4-2.7C41.2,280.3,41.9,281.1,42.5,281.9L42.5,281.9z M12.5,102.7c-0.6,0.2-1.6,0.3-1.4,0.9
			c0.7,0.8,1.1,1,1.7,0.7C13,103.9,12.8,103.3,12.5,102.7L12.5,102.7z M8.1,121.9c-0.9-0.4-1.5-1.1-2.6-1.1
			C5.8,122.4,6.7,122.8,8.1,121.9L8.1,121.9z M124.5,260.5c-1.3-0.5-1.3-0.5-1.4,0.9C123.6,261.6,124.2,261.3,124.5,260.5
			L124.5,260.5z M71.4,130.8c-0.2,0.4,0.2,0.6,0.2,0.6c0.8-0.7,1.8-0.7,2.6-1.4C72.8,129.8,72.2,130.1,71.4,130.8L71.4,130.8z
			 M127.1,265.1c1.2-0.5,1.6-0.3,2-1.2C128,262.9,127.6,263.8,127.1,265.1L127.1,265.1z M27.8,110.6c-0.1,1.5,0.7,1.8,1.8,1.7
			C29.5,111.3,29.2,110.7,27.8,110.6L27.8,110.6z M4.7,259.6c-0.9-0.4-1.5-0.1-2.3,0.6C3.8,260.7,4.2,260.9,4.7,259.6L4.7,259.6z
			 M10.1,121.7c0.7,0.8,1.5,1.1,2.6,1.1C12,122,11.2,121.7,10.1,121.7L10.1,121.7z M15.4,101.9c0.7,0.8,1.3,1.6,2.6,1.1
			C17.6,101.3,16.8,102,15.4,101.9L15.4,101.9z M28.6,125.4c0.1,1,0.5,1.2,1.2,2C29.7,126.4,29.3,126.2,28.6,125.4L28.6,125.4z
			 M23.6,121.8c0.5,1.2,0.7,1.8,1.8,1.7C25.3,122.6,24.9,122.4,23.6,121.8L23.6,121.8z M64,124.6c0.2-0.4,1-1.1,0.3-1.9
			C63.5,123.4,63.7,124,64,124.6L64,124.6z M16.8,108c0.1,1,1.1,1,2.1,0.9C18.3,108.1,17.6,107.3,16.8,108L16.8,108z M-3.6,267.7
			c0.7,0.8,1.1,1,1.7,0.7C-2.2,267.8-3,267.4-3.6,267.7L-3.6,267.7z M-27.1,336c-0.7-0.8-1.5-1.1-3-1.2
			C-29,335.7-28.1,336.1-27.1,336L-27.1,336z M26.6,246.7c-0.4,0.9-0.1,1.5,0.7,1.8C27.7,247.7,27.5,247.1,26.6,246.7L26.6,246.7z
			 M30,152c0.7,0.8,1.5,1.1,2.1,0.9C31.3,152.6,31.1,152,30,152L30,152z"/>
		<path class="st1" d="M43.1,85.9c0-3.5,0.4-6.9,2.9-9.3c-0.7-0.8-1,0.1-1.5-0.1c0.1-1.5,0.2-2.9,0.7-4.2c0.6-0.2,1.9,0.3,2-1.2
			c-0.9-0.4-1.5-1.1-1.8-2.8c-0.8-5.3-2.8-10.2-6.6-14.2c-2.9-3.7-6.1-7-8-10.8c-1.2-2-2.4-2.5-4.5-2.4c-0.1-1,1.4-0.9,1.1-1.5
			c0.1-1.5-0.6-2.2-1.2-3c-4.9-5-4.3-11.3-2.7-17.6c0.9-2.1,2.6-3.9,4.6-5.1c1.7-1.8,3.9-3.4,6.6-3.8c2.2-0.6,4.7-0.5,7.2-0.5
			c1-0.1,1.6-0.3,3-1.2C49.6,4,55.1,1.8,61.7,4c3,1.2,5.4,2.7,8,4.8c1.1,1,1.2,3,2.2,4.4c1-0.1,2.1-0.1,3.1-0.2
			c2.2-0.6,3.9,0.1,4.9,2.6c0.8,1.8,1.8,2.8,3.7,3.1c2.6,1.1,4.4,3.8,6,6c3,3.7,4.9,7.5,5.8,12.4c1,5.9-0.1,11-3.9,15.4
			c-1.1,1.5-1.1,2.6-1.2,4c0.8,2.8-0.5,4.8-2.2,6.6c-1.6,1.4-3.1,2.7-5,2.4c-0.4-0.2-1,0.1-1.6,0.3c-2.8,1.8-6.1,1.5-9.2,1.7
			c-5.8,0.6-11.4-0.3-17.1,1.4c-5.5,1.2-8.2,4.1-9.3,9.1c-0.4,0.9-0.5,1.3-0.9,2.1c0.4,0.2,0.4,0.2,0.4,0.2c-0.3-0.6-0.1-1-0.9-1.4
			c-0.5,2.3-0.5,4.8-1.8,6.8L43.1,85.9z M74.7,54.5c-2.5,0-4.9,1-7.1,2.6c0,0,0,0,0.4,0.2C69.8,56.5,72.3,55.5,74.7,54.5
			c2.2-0.6,4.5-1.1,6.7-2.7C78.9,52.8,76.4,52.7,74.7,54.5L74.7,54.5z M64.5,6.7c-0.9,2.1-0.8,4.2-1.9,5.7C60.2,15.9,59,20,58,23.6
			c-0.7,4.2-3,8.3-3.3,12.6c0.3,4.1-0.7,7.7-1.7,11.3c-0.6,2.7-0.7,5.2-0.9,8.1c1.7-1.8,1.6-3.8,2.3-5.5c1.9-5.7,3.8-11.4,4.8-17.5
			C61,24.8,63.4,17.8,69.9,12C68.9,9.5,66.9,8.2,64.5,6.7L64.5,6.7z M72.6,15.1c-3.3,12.6-8.7,24.4-14.3,35.6
			c7.1-11.1,15.5-21.6,17.7-35.2c1.5,0.1,1.7,0.7,1.4,1.6c-1.1,2.6-1.9,5.7-2.9,8.3c-1.7,5.3-4.5,9.6-7.3,14
			c-1.3,1.9-2.5,3.5-2.9,5.8c0.6-0.3,0.6-0.3,1.2-0.5c3.4-4.6,6.8-9.2,9.1-14.7c1.4-3.4,3-7.3,5.3-10.3c0.4-0.8,0.4-0.8,0.1-1.5
			C78.6,15.1,76.4,14.2,72.6,15.1L72.6,15.1z M55.3,4.9c-1.9-0.3-2,1.2-2.4,2c-0.5,1.3-0.8,3.2-1.8,4.2c-1.1,1.5-1.7,2.8-1.8,4.3
			c-1.6,7.4,0,14.5,0.3,22.1c0.8-0.7,1-1.1,0.7-1.7c2.3-9.1,4.5-18.1,8.5-26.5c1-1.1,1.7-2.8,0.9-4.6c-1,0.1-2.3-0.5-3.1,0.2
			c-1.8,3.2-2.4,7-3.8,10.4C52.9,11.9,54.7,8.7,55.3,4.9L55.3,4.9z M65.6,54.7c1.5,0.1,2.2-0.6,2.8-0.8c4.6-2.6,8.7-5.4,13.6-7.4
			c4.2-1.7,7.8-4.3,11.5-7.2c0.6-0.2,0.8-0.7,1.1-1.5c-0.8-2.8-1.6-5.7-3.5-8.5c-1.6,3.8-3.9,6.9-6.8,9.2c-1.4,0.9-2.7,2.9-4.1,3.8
			c-2.8,1.8-5.3,4.3-7.8,6.8C70.3,50.7,67.9,52.7,65.6,54.7L65.6,54.7z M32.9,37.1c-3.2-6.8-4.7-14-5-21.6
			C23,20,21.9,28.5,25.6,34.1c2.5,3.6,6.1,7,7.8,11.3c0,0,0,0,0.3,0.6c3.6,4.5,7.4,8.6,10.3,13.8c0.2-0.4-0.1-1-0.1-1
			c-1.1-3.4-2.9-6.2-4.2-9.2c-1.4-2.6-2.8-5.2-4.6-6.9c-4.2-4.3-6.2-9.1-8-14.4c-1-2.4-2.2-4.4-0.9-7.4
			C28.2,26.6,29.2,32.6,32.9,37.1L32.9,37.1z M58.9,45.4c5.5-9.7,10.1-19.3,12.6-30.3c-0.4-0.2-0.9-0.4-1.3-0.5
			c0.2-0.4-0.1-1-0.7-0.8c-7.1,7.5-9,16.8-11,26.4c1.7-2.8,2.2-6.6,3.5-9.6c1.9-5.7,2.9-8.3,4.8-9C63,29.6,61.3,37.4,58.9,45.4
			L58.9,45.4z M61.3,55.4c1.5,0.1,2.2-0.6,3-1.2c2.2-1.6,4.7-4.1,6.9-5.7c5.6-3.7,10-8.4,14.4-13c2.4-2,4.3-4.2,5.1-7.4
			c-0.7-0.8-1.2-2-2.7-3.1C81.1,36.7,71.4,45.6,61.3,55.4L61.3,55.4z M46.7,8.8c-3,1.2-4.3,3.2-4.6,6.1c0.1,1-0.3,1.9-0.5,2.3
			c-1.3,4.4-0.6,8.7-0.5,13.3c0.6,5.8,3.3,11.4,5.1,16.6c-0.2,0.4,0.1,1,0.9,1.4c-0.2-3.1,0.2-5.4-0.6-8.2c-1.7-4.2-1.9-8.8-2-13.3
			C44.2,20.8,44.6,15,46.7,8.8L46.7,8.8z M34.4,11.7c-3.5,0-5.3,1.8-5.3,4.3c0.1,2.1,0.7,4.3,0.8,6.4c0.4,6.2,3.3,11.4,5.9,17
			c0.1,1,0.8,1.8,1.4,2.6c0.7,0.8,1.3,1.6,2,2.3C35.7,33.8,32.7,23,34.4,11.7L34.4,11.7z M50.4,56.4c0.8-3.2,1.2-6.5,2.2-10.1
			c0.5-2.3,1.4-4.4,1.4-6.9c-0.3-4.1,0.7-7.7,1.9-11.7c1.3-4.4,1.8-9.2,4.7-13.6c0.9-2.1,2.2-4.1,2.4-7c0.5-1.3-0.3-1.6-0.9-1.4
			C54.6,22.1,49.3,38.4,50.4,56.4L50.4,56.4z M70.9,60c5.3-0.8,10.8-2,15.7-4c0.4,0.2,1-0.1,1.2-0.5c0.7-1.7,2.1-2.6,3.2-4.2
			c0.8-0.7,1.7-1.8,1.9-3.2c-3,1.2-5.8,3.1-8.6,3.9c-6.8,3.2-13.9,5.7-21,8.3c-1.8,0.7-3.8,1.9-5.7,4.1c2.8-0.8,5.3-1.8,7.7-2.8
			c0.4,0.2,1-0.1,1.2-0.5c0.9-2.1,3.1-2.7,5.2-2.8l0.4,0.2C71.9,58.8,70.8,58.9,70.9,60L70.9,60z M84.6,21.1
			c-2.4-2.5-3.5-2.4-4.7,0.5c-1.5,2.4-2.4,4.5-3.3,6.6c-3.6,8.5-9.7,16-15.6,23c-1.1,1.5-2.7,2.9-3.4,4.6
			C64.9,50.4,81.7,27.9,84.6,21.1L84.6,21.1z M35.6,11.2c-2.7,8.9,3,34.8,8.9,41.2c0.1-5-1.3-10.1-3.7-14
			c-3.2-6.8-3.8-13.6-3.7-21.1c0.3-1.9,1.2-4,0.6-6.2C36.8,10.7,36.4,10.6,35.6,11.2L35.6,11.2z M52,5.5c0,0-0.4-0.2-0.6,0.2
			c-2.7,0.4-3.4,2.1-3.8,4.4c-2,7.2-2.5,14.5-1.8,22.3c0.5,4.7,2.7,9.1,2.6,14.1c0.5-1.3,0.2-2.9,0.1-3.9c0.1-3.9,0.3-7.9-0.2-11.6
			C46.5,22.3,47.2,13.5,52,5.5L52,5.5z M70.4,44.2c7.7-5.3,11.5-13.2,16.8-20c-0.7-1.8-0.7-1.8-2-2.4C80.6,29.4,76.4,37.2,70.4,44.2
			L70.4,44.2z M84.7,61.7c1.6-0.3,3.3,0.4,4.2-1.7c0.4-0.9,0.5-2.3-0.6-3.3c-3.4,1.1-6.9,2.1-10.8,3c-3.7,0.5-7.1,1.5-10.8,3
			c7.3,0.5,14.2-1.6,21.1-3.7C87.1,60.7,85.6,60.6,84.7,61.7L84.7,61.7z M72.1,53.4c6.8-3.2,14.2-4.1,20.1-8.6
			c1-0.1,0.5,1.2,1.7,0.7c0.7-1.7,0.8-3.2,0.2-5.4C87.7,45.9,78.8,48.2,72.1,53.4L72.1,53.4z M85.4,63.5C78.1,63,71,64.5,63.8,65
			c-2.9-0.2-5.8,0.6-8.4,2c2.5,0,5.2-0.4,8.1-0.1c3.5,0,7.1-1.5,10.7-0.5C78.4,67.1,81.7,64,85.4,63.5L85.4,63.5z M41.8,10.8
			c-1.9-0.3-2.5,0-2.4,1c-1.5,4.9-1.8,10.3-0.8,15.2c0.1,1,0.4,2.7,0.9,3.9c0,0,0.2-0.4,0.6-0.3C38.8,24.1,40.6,17.3,41.8,10.8
			L41.8,10.8z M47.6,61.8c1.2-4,0.3-7.9-1.7-10.2C46.3,55.2,47,58.5,47.6,61.8L47.6,61.8z M92.7,46c-1.2,0.5-1.6,0.3-2.2,1.6
			C91.6,47.5,92.2,47.3,92.7,46L92.7,46z"/>
		<path class="st1" d="M15.4,219.5c0.7-1.7-0.4-2.7-0.1-4.5c1.6,2.2,1.6,4.7,2.7,6.6c-0.8,0.7-1.6,1.4-1.9,2.2
			c-4.7-10.5-10.5-20.4-16.6-29.9l0.6-0.2c3,3.7,5.1,8.1,7.7,12.7C10.2,210.4,12.8,215,15.4,219.5L15.4,219.5z"/>
		<path class="st1" d="M-4,195.4c4.6,6.9,9.7,14,12.9,21.9l0,0c-0.4-0.2-0.8-0.4-1.1-1c-3.3-6.4-7.5-12.1-10.8-18.5
			c-0.7-0.8-0.9-1.4-0.6-2.2L-4,195.4z"/>
		<path class="st1" d="M0.5,416.5c-0.2,2.9-2.3,5.5-3.4,8.1C-2.7,421.7-0.6,419.1,0.5,416.5L0.5,416.5z"/>
		<path class="st1" d="M-8.7,212.5c-2-2.4-4.2-4.3-6.3-6.6l0.2-0.4C-12.1,207.6-10.1,209.9-8.7,212.5L-8.7,212.5z"/>
		<path class="st1" d="M10,93.1c1-0.1,1.7,0.7,1.8,1.8C10.9,94.5,10.3,93.8,10,93.1L10,93.1z"/>
		<path class="st1" d="M120.7,252.9c0.6-0.3,1.3,0.5,2.4,1.5C121.6,254.3,120.9,253.5,120.7,252.9L120.7,252.9z"/>
		<path class="st1" d="M24.7,83.2c-2.1-3.4-3-7.3-4.1-10.7c-0.2-0.6-0.1-1,0.3-1.9C22,75.1,23.9,78.9,24.7,83.2L24.7,83.2z"/>
		<path class="st1" d="M26.8,87.6c-1.5-1.1-1.2-3-2.2-4.4C26.2,84.4,26.3,86.4,26.8,87.6L26.8,87.6z"/>
		<path class="st1" d="M39.7,258.7c1.2,2,1.3,4,1.3,6.5C40.8,263.2,40.2,260.9,39.7,258.7L39.7,258.7z"/>
		<path class="st1" d="M31,237.5c1.1,1,1.2,3,1.1,4.5C31.8,240.4,31.3,239.2,31,237.5L31,237.5z"/>
		<path class="st1" d="M34.2,239.4c-0.1-1-0.6-2.2-1.2-3C34.1,237.3,34.7,238.1,34.2,239.4L34.2,239.4z"/>
		<path class="st1" d="M38.6,240.7c0.9,1.4,1.9,2.8,1.1,4.5C39.5,243.6,39,242.4,38.6,240.7L38.6,240.7z"/>
		<path class="st1" d="M38.8,254.8c-0.5-1.2-0.8-1.8-0.8-2.8c0.7,0.8,0.7,1.8,1.4,2.6C38.8,254.8,38.8,254.8,38.8,254.8L38.8,254.8z
			"/>
		<path class="st1" d="M34.5,247c0.3,0.6,0.9,1.4,1,2.4C34.8,248.7,34.2,247.9,34.5,247L34.5,247z"/>
		<path class="st1" d="M35.2,241.8c0.4,0.2,0.7,0.8,0.9,1.4C35.1,243.3,35.4,242.4,35.2,241.8L35.2,241.8z"/>
		<path class="st1" d="M133.4,218.6c2-1.2,3.7-3,6.1-4C138.1,217.1,135.9,217.6,133.4,218.6L133.4,218.6z"/>
		<path class="st1" d="M131.3,220.2c-1.2,0.5-2.4,1-3.2,1.7C128.6,220.6,129.8,220.1,131.3,220.2L131.3,220.2z"/>
		<path class="st1" d="M51.6,20.9c0.1-1.5,0-2.5,0.4-3.3C52.1,18.6,51.6,19.9,51.6,20.9L51.6,20.9z"/>
	</g>
	<g>
		<path class="st1" d="M52.9,249.7c0.8,0.2,1.1,0.7,0.8,1.5c-1.2,5.2,0.8,10,2.8,14.7c2.6,7,6,14.1,8.1,21.4
			c0.8,1.5,1.4,2.5,2.3,3.9c2.6,8.3,0.4,16.7,1.7,25c1.9,11.9,0,23.4-3.4,35.7c-1.1,1.9-2.9,3.6-3.1,5.7c0.7-6.2-0.9-12.5-1.5-18.6
			c-0.3-3.1-1.2-5.8-1.6-8.9c-2.6-8.3-3.7-17.4-5.2-26.3c-0.9-4-1.5-7.6,1.3-11.2c0.5-1.6,1.3-4-0.9-5.3c-1.7-1.7-3.5-1.3-4.3,1.1
			c-1,3.2-0.7,6.2,0.2,9c1.7,4.2,2.4,9,3,13.9c0.9,5.3,1.9,10.6,3.1,16.4c0.6,2.3,1.2,4.5,1.5,7.6c-5-3.7-8.9-8-12.2-12.6
			c-1.4-1.2-2.2-2.6-3.6-3.8c-4.2-4.8-5.1-10.1-5-16c-0.3-1.8,1-3.2,1.8-4.3c0.8-2.4,0.4-4.2-0.4-5.6c-0.6-1-1.7-1.7-3-1.6
			c-1.3,0.1-2.7,1.5-2.6,2.8c0.1,2.6,0.4,4.3,1,6.6c1.2,3.2,2,6,2.4,9.1c0.4,4.3,2.4,7.8,5.4,10.6c0.3,0.5,0.6,1,0.3,1.8
			c-6-0.5-10.1-4-14.3-7.6c-1.4-1.2-2.5-1.8-4.1-2.2c-1.6-0.4-3-0.3-3.8,0.8c-1,1.9-1,3.2,0.4,4.3c1.7,1.7,3.6,2.5,6.3,1
			c1.1-0.6,2.4-0.7,3.5,0c4.4,2.7,8.8,4.2,13.7,5.3c1.1,0.7,2.2,1.4,2.8,2.3c1.7,2.9,4.5,5.3,7.2,7.6c0.9,1.5,2.8,2.3,3.1,4.1
			c0.6,1,1.3-0.1,1.6,0.4c0,0,0.8,0.2,0.3,0.5c0.9,4,2.1,8.6,2.2,12.4c0.5,8.2-3.2,14.1-7.9,20.7c-3.9,5.5-9.2,11-14.5,16.6
			c-7.9,8.4-15.8,16.7-25.1,23.9c-4.2,3.7-9.6,5.4-15.2,7.9c-3.2,1.8-6.4,3.6-10.4,5.2c1.4,1.2,2.5,0.6,3.5,0
			c7.7-5,17.1-8.4,26-12.7c6.4-3.6,13.1-5.4,19.8-8.6c7.5-2.9,15.1-3.3,22.1-5.9c5.9-2,10.7-3.4,16.4-4.7c1.4-0.1,2.7-0.2,3.8,0.5
			c6,1.8,12.3,4.1,18,6.7c1.4,1.2,2.5,1.9,3.3,3.3c1.2,3.2,3.4,5.9,5.9,7.7c3,2.8,5,6.3,6.2,9.5c1.2,3.2,2.3,6.5,3,10
			c1.2,3.3,0.2,6.4-0.8,9.6c-0.8,2.4-1.3,4-0.4,5.4c0,1.3,0.6,2.3,2.2,2.6c1.4-0.1,2.1-1.2,2.4-2c1.5-3.5,3.1-6.9-0.5-9.5
			c0,0-0.3-0.5-0.6-1c1.3-4-0.7-7.4-1.9-10.6c-1-6.6-4.6-11.7-8.8-16.5c-1.4-1.2-3-2.8-3.6-5.1c3.8,1.7,7.1,3.8,9.9,6.1
			c5.5,4.7,11.6,9.1,16.9,14.5c3.9,4.3,6.7,9.2,9.6,14.1c1.9,2.1,1.5,5,1.8,8.1c-0.2,3.4,0.2,6.4,1,9.2c0.6,2.3,0.7,4.8,0.7,7.4
			c0.1,2.6,0.9,5.3,1.3,8.4c0.6,1,0.6,2.2,2.2,1.4c-0.7,6.2,0.2,7.7,4.6,9.1c2.9-3.6,0-9.8-4.9-10.9c-1-9.2-3.2-17.7-3.1-27.5
			c3,1.6,3.6,3.8,5.3,5.5c5.8,6.5,11.4,12.4,17.8,18.6c1.7,1.7,5.2,2.9,5,6.3c0,1.3,1.1,2,2.5,1.9c1.6-0.9,3.5-1.3,4-2.9
			c0.5-1.6-0.6-2.3-1.7-2.9c-0.8-0.2-0.8-0.2-1.6-0.4c-1.9-0.9-4.1-1-4.2-3.5c-1.1,0.6-0.5,1.6-1,1.9c-4.9-2.4-26.1-26.9-26.8-31.7
			c5.4,0.8,10.9,1.7,16.1,3.3c1.6,0.4,2.5,1.9,3.9,3c1.7,1.7,3.6,2.5,6.5,1.5c0.8,0.2,1.9-0.4,2.1-1.2c0.5-1.6-0.6-2.3-1.4-2.5
			c-2.2-1.4-4.7-3.2-7.9-2.7c-1.1,0.6-1.9-0.9-2.7-1.1c-1.6,0.9-3.2,0.5-4.9,0.1c-5.5-0.8-11.2-2.2-15.6-4.9
			c-0.8-0.2-1.1-0.7-1.4-1.2c-3.9-5.6-8.4-10.9-13.9-15.5c-5.8-3.9-10.8-8.9-17.1-12.5c-6.9-3.3-14-7.1-21.6-9.3
			c-0.8-0.2-1.1-0.7-1.4-1.2c0.3-0.8,1.1-0.6,1.6-0.9c4-0.3,8.6-1,13-0.8c5.2,0.3,10.5-0.1,15.5,1c5.4,0.8,10.6,1.2,15.5,2.3
			c7.6,2.2,14,5.8,19.5,10.5c1.4,1.2,2,2.2,3.6,2.5c4.7,3.2,8.1,7.8,12.2,11.3c7.2,5.1,13.5,11.2,20.5,17.1c3.6,2.5,6.4,4.9,9.4,7.7
			c1.7,1.7,2,4.7,2.6,7c0.7,4.8,3.2,9.2,4.9,13.5c0.9,2.8,0.4,5.6,2.4,7.8c0.6,1,0.6,2.3,1.7,2.9c1.7,1.7,2.7,1.1,3.8-0.8
			c1-1.9,1-3.2-0.7-4.8c-7.7-4.8-7.6-13.2-10.8-21.2c1.9,0.9,2.5,1.8,3.6,2.5c3.9,4.3,8.9,8,14.4,11.4c1.4,1.2,3.3,2,5.7,2.6
			c0.8,0.2,1.4,1.2,1.7,1.7c0.6,2.3,2,3.4,4.7,4.5c1.1,0.7,3,0.3,3.5-1.3c1.3-1.4,0.8-2.4,0.2-3.3c-0.9-1.5-2.5-1.9-4.1-2.2
			c-10.6-1.2-17.8-7.5-24.7-14.6c-6.4-6.2-13.8-11.7-20.7-17.5c-1.1-0.7-2.5-1.9-3.3-3.3c8.2,1.9,15.8,2.8,22.6,6.1
			c7.4,3,14.2,6.3,21.4,10.1c0.8,0.2,1.1,0.7,1.9,0.9c2.5,1.9,5.2,2.9,8.4,2.4c0.8,0.2,1.6,0.4,2.1-1.2c0.3-0.8,0-1.3-0.6-2.3
			c-2.2-2.6-6-3.1-9-2.1c-2.7,0.2-3.8-0.5-5.4-0.8c-9.6-5.6-19.8-9.7-30.6-12.6c-3.6-1.2-7.4-1.7-10.9-3
			c-7.7-3.5-13.5-8.7-19.3-13.8c-5-5-11.1-9.4-16.6-12.8c-1.1-0.7-2.2-1.4-3.6-2.5c1.9-0.4,3,0.3,4.3,0.2c0.8,0.2,1.9,0.9,2.4,0.6
			c8.1,0.6,16.3,2.5,24.4,3.1c5.4,0.8,11.4,1.4,16.3,2.5c2.7,1.1,5.4,0.8,8.1,0.6c3.8,0.5,8.1,0.6,11.7,1.9
			c4.7,1.9,9.3,3.8,12.9,7.7c2.2,1.4,3.6,3.8,4.2,6.1c0.1,2.6,2.3,3.9,5,5c1.9,0.9,3.2-0.5,2.9-2.3c0.2-2.1-0.4-4.3-2.3-5.2
			c-4.6-1.9-8.5-5-12.1-7.5c-1.4-1.2-3.3-2-4.7-3.2c8.7,0.3,17.1,0.1,24.2,5.2c5,3.7,10.4,5.8,16.7,6.8c2.5,0.6,4.7,1.9,7.1,2.5
			c3,1.6,5.2,1.6,8.7,0.3c1.1-0.6,1.9-1.7,1.8-3c-1.7-1.7-3.8-1.7-6.3-1c-9.7,1.6-17.6-1.1-25.3-5.9c-1.4-1.2-3.3-2-5-3.7
			c1.3-1.4,3.2-0.5,5.1-0.9c7.3,0.4,14-1.4,21.3-3.6c2.4-0.7,4.9-0.1,7.6-0.4c3,0.3,5.4-0.5,8.4-1.5c1.1-0.6,1.9-1.7,1.3-2.7
			c-2.8-2.3-9.5-1.8-11.6,0.7c-2.4,2-4.8,2.7-7.2,3.4c-10.2,3.2-20.2,3-30.3,2.8c-4.3-0.2-9.2,0-13.8-0.7c-4.6-0.6-9-0.8-13.6-1.5
			c-0.8-0.2-1.1-0.7-1.9-0.9c3.8-0.8,7.3-2.1,10.2-3.1c5.9-2,12.3-4.4,17.7-7.4c5.1-2.2,9.6-4.1,15.1-4.6c1.9-0.4,3.5,0,5.7,0
			c4.3,0.2,7.5-1.7,9.6-4.1c0.8-1.1,1-1.9,1.3-2.7c-0.6-1-1.4-1.2-2.7-1.1c-2.4-0.6-4.6,0.6-6.4,2.3c-2.4,2-5.3,3-7.8,3.7
			c-3.8,0.8-7.3,2.1-11.6,3.3c1.3-2.7,4.2-3.7,5.6-5.1c0.3-0.8,1.1-0.6,1.6-0.9c3.2-0.5,6.2-2.8,6.6-5.7c0.2-2.1-1.2-3.2-2.8-2.3
			c-3.2,1.8-6.2,2.8-6.1,6.7c-0.5,1.6-2.1,2.5-3.2,3.1c-6.3,7.5-15.4,11.3-25.1,14.1c-4.8,1.4-10.5,2.7-15.9,3.1
			c-5.4,0.4-11.1-0.9-16.6-1.7c-8.9-0.8-17.1-2.7-26.1-3.5c-5.2-0.3-10.6-1.2-15.8-2.8c-3.3-0.8-6-0.5-9-2.1
			c0.5-0.3,1.1-0.6,1.9-0.4c7.3-2.1,14.5-4.3,22-7.2c0,0,0.5-0.3,1.1-0.6c2,2.1,4.3,0.2,7-0.1c1.4-0.1,2.7-0.2,3.8,0.5
			c3.3,0.8,6.5,0.2,9.8,1c0.8,0.2,1.6,0.4,2.7,1.1c-2.1,1.2-4.1-0.9-6.2,0.2c4.1,1,7.9,2.7,11.7,3.2c2.2,0.1,3.5,0,5.7-1.2
			c1.1-0.6,1.3-1.4,1.3-2.7c-0.6-1-0.9-1.5-2-2.2c-1.4,0.1-3.5,0-4.9,0.2c-3.2,0.5-5.9,0.7-9.2,0c-4.1-0.9-8.4-1.1-12.5-2.1
			c-0.5,0.3-1.4,0.1-1.6-0.4c6.2-1.5,11.5-4.5,16.9-6.3c6.2-1.5,12.1-2.3,18.4-1.3c5.2,0.3,10.6-0.1,15.7,0.2c1.9-0.4,3,0.3,4.9,1.1
			c3,1.6,5.7,2.6,9.5,1.8c1.9-0.4,3.5-1.3,3.2-3.1c0.2-2.1-1.4-2.5-3.6-2.5c-1.3,0.1-3-0.3-4.6,0.6c-2.9,1-5.4,0.4-8.4,0.2
			c-6.5-0.2-13.5-0.2-20-0.4c-0.8-0.2-1.6-0.4-3-0.3c1.3-1.4,2.9-2.3,4.5-3.2c4.8-1.4,9.7-2.9,14.3-3.5c7.3-0.9,14.6-3,21.9-2.6
			c1.4-0.1,2.7-0.2,3.2-0.5c1.6-0.9,3-1,2.6-2.8c0.2-2.1-1.9-2.2-3.3-2c-3-0.3-5.4,0.4-8.1,1.9c-5.3,3-10.5,4-15.9,4.4
			c-5.9,0.7-12.1,2.3-17.7,4.8c-4.6,1.9-9.4,4.6-14.5,5.6c-1.9,0.4-3.5,1.3-5.1,2.2c-6.2,2.8-13.2,4.2-19.9,7.3
			c-6.2,2.8-12.9,4.7-19.6,6.5c-4.8,1.4-10.2,1.9-15.7,1c-6-0.5-12.5-0.8-19.2-0.2c-5.4,0.5-11.1,1.7-17,2.4
			c-6.8,0.5-13.4,3.7-19.6,5.2c-5.4,1.7-11,3-16.4,4.7c1-1.9,3.5-2.6,5.1-3.5c6.1-4.1,12.3-6.9,18.4-11c2.7-1.5,5.9-3.3,9.1-5.1
			c2.4-0.7,5.1-2.2,7.2-3.4c4.8-2.7,10.2-4.4,16.1-6.5c6.2-2.8,12.9-5.9,19.6-7.8c7.3-2.2,13.4-6.2,20.4-8.9
			c5.4-1.7,10.7-4.7,15.8-6.9c8.3-2.8,16.7-2.9,25.4-2.6c6.3,1,12.2,1.6,18.7,0.5c1.6-0.9,3.2-0.5,4.9-0.1c3.3,0.8,6.8,0.7,10.3-0.6
			c1.9-0.4,4-1.6,4.5-4.5c-1.9-0.9-3.5-1.2-5.4-0.8c-3.8,0.8-6.7,1.8-10.2,3.2c-2.1,1.2-4.8,1.4-7,1.4c-8.4,0.2-17.1-0.1-25.2-0.8
			c-0.5,0.3-1.3,0.1-2.2-0.1c2.1-1.2,4-1.6,5.6-2.5c9.9-3.6,20.1-8.1,30.6-10.7c7.3-2.1,15.4-2.8,23.2-4c2.2,0.1,4.3-1.1,6.7-0.6
			c9.2,0,17.9,2.9,25.9,6.9c3.3,2,6.6,4.1,10.1,5.3c1.1,0.7,2.5,1.9,3.1,2.9c1.1,2,1.7,4.2,3.4,5.9c1.1,0.7,0.3,1.8,0.3,3.1
			c-0.7,2.4,0.1,3.8,2.3,5.2c2.2,1.4,2.7,1.1,3.5-1.3c1.5-3.5,0.1-5.9-3.2-8c-1.1-0.7-1.9-2.1-3.3-3.3c-1.1-0.7-1.7-2.9-2.8-4.9
			c7.6,2.2,15.2,0.6,22.3,3c4.4,1.5,7.8-1.1,7.7-5c-3-1.5-6.8-0.7-9.7,0.3c-3.5,1.3-6.2,1.5-9.2,1.3c-9-0.8-17.9-1.6-25.9-6.9
			c-4.1-2.2-9-3.4-13.4-4.8c-0.8-0.2-1.6-0.4-2.5-0.6c0.8-1.1,2.1-1.2,3-1c11.6-2,23.7-4.3,35.3-5c5.4-0.4,10.8-0.9,16,0.7
			c5.2,1.6,10.6,1.2,15.8,1.5c3,0.3,5.1,0.3,7.3,1.7c2.7,1.1,4.9-0.1,7.2-3.4c-1.7-1.7-3.6-1.3-5.7-1.3c-7,1.3-14.6,1.7-21.9,0
			c0,0-0.5,0.3-0.8-0.2c5.7-1.2,11.6-3.3,16.9-5c3.8-0.8,7.3-2.1,11.3-2.5c0.8,0.2,1.9-0.4,2.7-1.5c0.5-0.3,1.3-1.4,0.8-2.4
			c-0.6-1-1.4-1.2-2.7-1.1c-3,1-5.9,2-8,4.5c-0.3,0.8-0.8,1.1-1.3,1.4c-7,1.4-13.2,4.2-20.5,5c-4.1,0.3-8.4,0.2-12.4,0.5
			c-3.5,0-7.3,0.8-10.8,0.9c-0.5,0.3-1.4,0.1-1.6-0.4c0.3-0.8,0.8-1.1,1.3-1.4c7.2-3.4,12.8-8.5,19.2-13.4c4.8-4,9.3-8.5,15.7-9.5
			c3,0.3,6.2-0.2,9.7-1.6c1.1-0.6,2.7-1.5,2.9-3.6c-5.2-0.3-9.2,0-13.5,2.4c-4.5,3.2-9.3,5.9-13.9,9.1c-4.2,3.7-8.5,7.4-12.5,10.3
			c-8,5.8-16.8,10.1-26.8,11.2c-6.2,0.3-12.4,1.8-18.9,2.8c-9.2,1.3-19.5,1.9-28.6,4.4l-0.8-0.2c2.9-2.3,5.6-3.8,8.2-6.6
			c2.9-2.3,6.1-5.4,10.1-7c5.9-2,10.7-6,16.6-8c3-1,5.4-1.7,8-3.2c1.1-0.6,2.2,0.1,3,0.3c4.4,1.4,8.1-2,8-5.8
			c-1.9-2.2-7.1-1.2-8.9,1.8c-1.6,2.2-4.2,3.7-6.7,4.4c-5.6,2.5-11.8,4.1-17.2,7.1c1.8-3,3.9-5.5,6.9-7.8c5.3-4.3,9.5-9.3,15.9-12.9
			c1.8-1.7,4.5-3.2,6.4-4.9c0.8-1.1,3-1,4.3-1.1c2.4-0.7,4.6-1.9,6.4-3.6c1.3-1.4,1.6-2.2,0.4-4.1c-3.3-0.8-5.9,0.7-8.3,2.7
			c-5.8,5.9-12.5,10.3-18.6,15.7c-2.9,2.3-5,4.8-8.2,6.6c-2.9,2.3-4.2,5-6.3,7.5c-7.7,6.3-14.3,13.3-22.9,18.1
			c-5.3,3-10.7,4.7-16.3,7.3c-2.4,0.7-4.6,1.9-8.4,1.5c3.2-3.1,5.5-6.4,9-9c1.3-1.4,2.6-2.8,4.5-4.5c1.3-1.4,2.6-2.8,4.5-3.2
			c3.2-0.5,4.5-3.2,6.4-4.9c1.1-0.6,1-1.9,0.5-2.9c-3.3-0.8-5.7,0-7.5,2.9c-4.2,6.3-9.2,12.3-14.7,17.4c-1.9,1.7-3.7,3.4-4.7,5.3
			c-2.1,2.5-5.3,3-7.8,3.7c-10.5,3.9-20.9,7.9-30.8,12.8c-5.1,2.2-10.4,5.2-15.8,7c-7.8,2.4-15.5,6.2-23.9,8.9
			c-2.7,1.5-5.9,2-8.6,3.5l-0.3-0.5c2.1-1.2,3.5-2.6,5.1-3.5c8.2-6.6,18.1-11.5,26.4-18.1c8-5.8,16.8-11.4,25.3-17.5
			c7.4-5.5,14.6-11.5,21.2-18.4c2.4-2,5-4.8,7.1-7.3c2.9-3.6,6.9-5.2,10.9-6.8c9.4-3.4,18.8-4.1,28.6-5.7c0.8,0.2,1.6,0.4,2.5,0.6
			c3,1.5,4.9,1.1,7.5-1.6c0.8-1.1,1.6-2.2,2.4-3.3c-0.3-1.8-1.1-2-3-1.5c-1.4,0.1-2.7,0.2-3.8,0.8c-6.7,3.1-13.4,5-20.2,5.5
			c-5.4,0.4-10.2,3.2-15.1,4.6c-1.4,0.1-2.4,0.7-3.8,0.8c1.3-2.7,3.2-4.4,4.7-5.3c4.3-2.4,7.4-5.5,11.4-8.4
			c4.5-3.2,9.6-5.4,14.4-8.1c6.2-2.8,12.6-5.2,17.9-9.4c2.9-2.3,6.9-3.9,10.1-5.7c2.1-1.2,4.3-2.4,6.1-4.1c3.2-3.1,7.5-4.2,10.9-6.8
			c2.1-1.2,3.2-3.1,4.2-5c0.5-0.3,0.5-1.6-0.1-2.6c-1.1-0.7-1.9-0.9-3-0.3c-1.9,0.4-3.7,2.1-4.2,3.7c-1.5,4.8-5.8,7.2-10.1,9.6
			c-5.8,4.6-12.8,8.5-19.7,12.4c-9.1,5.1-18.5,8.5-27.8,14.4c0.8-2.4,2.4-3.3,3.7-4.7c3.7-4.7,7.9-9.6,12.4-14.1
			c7.4-6.8,14.8-13.5,22.8-19.3c6.9-5.2,14.1-9.9,18.8-16.5c2.9-3.6,6.4-4.9,9.8-7.5c2.1-1.2,3.7-2.1,4.2-5c0.3-0.8,0.5-1.6,0.2-2.1
			c-1.1-0.7-1.9-0.9-3.3-0.8c-1.6,0.9-3.7,2.1-4.2,3.7c-1.5,6-7.1,9.8-11.3,13.5c-2.6,2.8-4.7,5.3-8.2,7.9c0,0-0.8-0.2-1.3,0.1
			c1.3-2.7,2-5,3-8.2l0.5-0.3c-0.1-3.8,3.4-6.4,5.8-8.4c1.8-1.7,2.1-3.8,2.3-5.8c-0.3-0.5-0.8-1.5-1.7-1.7c-0.8-0.2-1.4,0.1-2.4,0.7
			c-0.8,1.1-2.1,2.5-2.3,4.6c-1,4.4-2.8,8.7-4.6,13c-2,5.1-5.5,8.9-8.9,12.8c-1.6,2.2-4,2.9-5.8,4.6c-11.1,10.2-21.7,21.3-31.9,33
			c-1,1.9-2.4,3.3-4.2,3.7c0.8-2.4,2.3-4.6,3.6-7.2c2.5-6.6,6.2-12.6,8.2-18.9c1.5-6,1.3-12.4,2.3-18.2c1-4.4,2.2-8.4,2.7-12.6
			c0.3-0.8,1.3-1.4,1.9-1.7c5.9-3.3,11.2-6.3,17.7-8.7c2.4-0.7,5.1-2.2,6.7-4.4c1-1.9,0.7-3.7-2-3.4c-3.8-0.5-6.2,1.5-8,4.5
			c-1.8,3-4.2,5-7.2,6c-2.4,0.7-4.3,2.4-6.4,3.6c-0.4-3.1,0.7-4.9,1.7-6.8c1.3-2.7,2.3-4.6,3.1-6.9c1.5-4.7,6.3-7.5,8.9-11.5
			c0.8-1.1,1-1.9,1.8-3c0-1.3-0.3-1.8-1.4-2.5c-0.8-0.2-2.2-0.1-2.4,0.7c-3.2,3.1-4.7,6.6-5.4,10.2c0,1.3-0.2,2.1-0.5,2.9
			c-2.9,3.6-5.2,8.1-7.3,11.9c-1.8,4.3-3,8.2-4.6,13c-1.1-2-0.6-3.5-1.5-5c-0.7-6.1-2.7-12.1-4-17.9c-1.5-5-1.6-10.1-2.6-15.5
			c0.2-2.1,1.5-3.5,2-5.1c1-3.2-0.7-4.8-3.6-5.1c-2.2-0.1-2.4,0.7-2.9,2.3c-0.5,2.9,0.4,5.6,1.3,8.4c-0.3,0.8,0.6,1,1.6,0.4
			c-0.7,4.9,1.6,8.8,1.9,13.2c0.1,3.9,2.1,7.3,1.9,10.6l0,0c2,6,3.3,11.8,4,17.9c0.5,8.2-0.7,16-2.7,23.6c-0.2,2.1-1.8,4.2-2.8,6.1
			c-2.8,6.1-5.4,12.8-8.2,18.9c-3.9,5.5-7.3,11.9-12.6,16.2c-1.1,0.6-1.3,1.4-2.7,1.5c1-1.9,1.3-4,1.8-5.5c2.4-13,3.4-26,1.2-38.4
			c-0.7-4.8-0.5-9.5-1.2-14.3c-0.6-1-0.1-2.6,1.3-4c3.5-2.6,2.8-6.2,3-9.5c-0.3-1.8-1.4-2.4-3.6-2.5c-1.3,0.1-2.1,1.2-2.4,2
			c-1.3,4-1.4,7.3,0.5,10.8c-0.2,0.8,0.6,1,0.3,1.8c-1,4.5-0.6,8.8-0.2,13.1c0.7,4.8,1,9.2,1.7,14c0.3,3.1,0.4,5.6-0.6,8.8
			c-0.4,4.1-0.3,8-0.8,12.1c-1.2,7.8-4,15.2-9.2,22.1c-4.7,6.6-12.2,10.8-19.1,16c-4,2.9-7.7,6.3-12.2,9.5
			c-4.3,2.4-8.5,4.8-12.8,8.5l-0.3-0.5c1.6-2.2,3.7-4.7,5-7.3c1.5-3.5,3.1-6.9,4.6-10.4c2.6-5.4,6-10.5,9.6-15.2
			c2.9-3.6,5-7.4,8.1-10.4c1.6-2.2,3.7-4.7,6.6-5.7c1.6-0.9,2.4-2,3.2-3.1c0.3-0.8,0.8-2.4-0.3-3.1c-1.1-0.7-2.2-0.1-3.2,0.5
			c-1.3,1.4-2.7,2.8-3.7,4.7c-1.3,2.7-3.4,5.2-6,7.9c-3.9,5.5-8.4,11.2-11.5,16.9c-0.5,0.3-0.5,0.3-1.6,0.9c0.5-1.6,0.5-2.9,0.7-3.6
			c1.2-5.2,1.9-10.2,4-15.2c2.1-3.8,5-6.1,7.6-8.8c1.3-1.4,1.6-2.2,0.7-3.7c0-1.3-1.1-2-2.5-1.8c-1.9,0.4-2.7,1.5-2.6,2.8
			c-0.8,1.1-1,1.9-1.3,2.7c-0.2,3.3-1.2,6.5-3.8,9.3c-1,1.9-2.1,3.8-2.3,5.8c-0.6,7.5-2.9,14.6-4.3,21.9c-1,4.4-4.1,8.8-7.5,12.7
			c-4.5,5.8-9.8,10.1-15.6,13.4c-5.3,3-9.3,7.2-14.1,9.9c-1.6,0.9-2.4,2-4.8,2.7c2.1-3.8,4.4-7,6.8-10.3c1.8-3,3.9-6.7,6-10.5
			c0.5-1.6,1.3-2.7,3.7-3.4c2.1-1.2,4.8-2.7,6.1-5.4c0.8-2.4-0.1-3.8-2-4.7c-1.4-1.2-2.7,0.2-4,1.6c-1,1.9-3.7,3.4-3.6,6
			c-0.1,7.2-5.9,13.1-9.6,19c-1.8,3-4.2,6.3-6.3,8.7c-1.1,0.6-1,1.9-0.7,2.4c-1.3,1.4-2.7,1.5-3.7,2.1c-5.4,1.7-9.9,4.9-14.7,7.6
			c-5.6,3.8-10.9,6.8-16.8,10.1c-5.3,3-10.1,5.7-15.5,8.7c-1.3,1.4-2.4,2-4.6,1.9c0.2-2.1,2.1-2.5,2.9-3.6
			c6.1-6.7,12.7-12.4,18.7-19c9-9,16.3-19.6,23.1-29.9c4.4-7.1,8.9-14.1,11.7-21.5c2.5-6.6,7.8-10.9,13.2-15.2
			c2.9-2.3,6.7-3.1,10.5-3.9c3-1,7-1.4,9.9-3.6c1.1-0.6,2.2,0.1,3,0.3c4.6,0.6,9.1-2.6,9.9-6.2c-0.9-1.5-2.2-1.4-3.5-1.2
			c-1.9,0.4-3.8,0.8-5.6,2.5c-4.2,5-10.2,5.7-15.5,7.4c-1.9,0.4-3.2,1.8-5.7,1.2c2.6-2.8,6.1-5.4,9.6-8c7.2-4.7,13-10.6,19.1-17.3
			c0.5-0.3,0.8-1.1,1-1.9c2.1-2.5,2.3-5.8,6.6-7c1.6-0.9,2.4-3.3,3.7-4.7c0.8-1.1,0.5-2.9-0.6-3.5c-1.1-0.7-2.7,0.2-3.5,1.3
			c-1.8,3-4.2,6.3-5.4,10.2c-0.5,1.6-1.5,3.5-3.4,5.2c-6.1,6.7-13.2,12.7-20.7,18.1c-5.8,4.6-10.9,9.4-15.9,15.4
			c-1.1,0.6-1.9,1.7-3.5,2.6c3.3-10.3,8.5-19.7,12.3-29l0,0c-0.8-0.2-1.3,1.4-1.6,2.2c-4.2,5-6.8,11.6-9.1,17.5
			c-2.3,5.8-5.4,11.5-6.6,18c-0.7,3.7-3.9,6.7-6.8,10.3c0.2-2.1,0.4-4.1,0.6-6.2c0.7-4.9,1.1-10.4,1.3-15c0.2-3.4,0.1-5.9-0.2-9
			c-1.5-5-0.8-10-0.9-15.1c0.2-4.6-0.2-9-0.6-13.3c-1.6-10.1-0.5-20.5,2.7-30.8c1-3.2,1.4-7.3,2.5-10.5c0,0-0.3,0.8-1.1,0.6
			c-1.4-3.7,0.1-7.2,3.1-6.9c0.6,1,0.3,1.8-0.5,2.9c0,1.3-1.6,2.2-1.5,3.5c2.1-1.2,3.7-3.4,3.6-5.9c0.3-0.8,0.2-2.1-1.1-2
			c-0.8-0.2-1.6-0.4-2.7,0.2c-1.9,1.7-2.9,3.6-2.6,5.3c-0.3,8-2.6,15.1-4,22.4c-0.7,4.9-1.7,9.4-0.5,13.9c0.6,2.3-0.1,4.6-0.6,7.5
			c-1.2-3.2-2-6-2.6-8.3c-2-6-6-11.6-7.5-17.9c0-1.3-0.9-2.8-0.9-4c-0.9-4-0.7-7.4,1.6-10.7c0.8-1.1,1.8-3,1.8-4.3
			c0.2-2.1-1.7-4.2-3.1-4.1c-2.2-0.1-3.2,1.8-3.4,3.9C52.4,244.1,52.5,246.6,52.9,249.7L52.9,249.7L52.9,249.7c1-1.9,1-4.4,0.7-6.2
			c0-1.3-0.1-2.6,1.3-4c1.9-0.4,2.5,0.6,2.8,2.3C57,244.7,55.8,247.4,52.9,249.7L52.9,249.7z M99,342c2.2,0.1,2.7,1.1,2,2.2
			c-0.8,2.4-2.9,4.9-5.8,5.9C94.2,346,97.4,344.2,99,342L99,342z M170,234.4c3.8,1.7,3.7,6.4-0.3,9.3
			C169.3,240.6,169,237.5,170,234.4L170,234.4z M35.7,300.9c-1.1-2-1.4-3.7-1.8-5.5c0-1.3,0.2-2.1,1.6-2.2c1.1-0.6,1.6,0.4,2.2,1.4
			C38.8,296.6,37.3,298.8,35.7,300.9L35.7,300.9z M211.7,342.2c-2.9,3.6-7.5,4.2-11,3C204.4,343,207.6,342.5,211.7,342.2
			L211.7,342.2z M248.8,385.6c2.4-3.3,5.6-5.1,8-4.5C254.9,384.1,253.3,385,248.8,385.6L248.8,385.6z M189.1,196.3
			c-1.4-2.5-1.7-4.2-1-6.6c1.1-0.6,2.4-0.7,2.7,1C191.2,192.5,190.7,194.1,189.1,196.3L189.1,196.3z M249.8,253.7
			c1.3-2.7,1.8-5.5,5-6.1C255.7,250.4,253.3,252.4,249.8,253.7L249.8,253.7z M220.7,291.6c-2.6,4.1-4.2,5-8,3.2
			C215.3,293.3,217.2,291.6,220.7,291.6L220.7,291.6z M219.8,221.3c1.3-3.9,3.6-5.9,6.9-5.2C225.4,218.7,222.4,219.8,219.8,221.3
			L219.8,221.3z M224.5,465c4.3,0.2,6.3,1,5.8,3.9C227,469.4,225.6,468.2,224.5,465L224.5,465z M242.6,376.1
			c0.1,2.6-2.3,5.8-3.9,5.5c-0.3-0.5-0.8-1.5-1.1-2C238.8,378.2,239.6,375.8,242.6,376.1L242.6,376.1z M276.7,354.3
			c-3-0.3-3.3-2-2.6-5.7C277.4,349.3,277.6,349.8,276.7,354.3L276.7,354.3z M249.1,302.8c0.5-2.9,3.1-4.4,5.6-3.8
			C254,302.7,253.5,303,249.1,302.8L249.1,302.8z M174.6,387.1c2.1-2.5,5.3-3,8.4-1.5C180.3,388.4,177.6,387.4,174.6,387.1
			L174.6,387.1z M25.8,315.6c-1.6,2.2-2.9,2.3-4.8,1.4c-0.6-1-1.1-2-0.1-2.6C23.3,312.5,23.9,314.8,25.8,315.6L25.8,315.6z
			 M262.9,278.9c-1.8,3-5.6,5.1-8,4.5C257.5,280.6,259.1,279.7,262.9,278.9L262.9,278.9z M233.2,445.7c-3.5,1.3-5.4,0.4-6.8-2
			C229.3,442.7,231.5,444.1,233.2,445.7L233.2,445.7z M117.4,440.1c1.4,2.5,1.2,4.5-1.2,6.5C114.3,444.5,114.8,442.9,117.4,440.1
			L117.4,440.1z M51.6,288.1c2.7,1.1,2.8,3.6-0.4,6.7C50.7,292.5,50.9,290.4,51.6,288.1L51.6,288.1z M229.9,421.6
			c-2.7,0.2-4.9-1.1-5-3.7C227.1,418,229.5,418.6,229.9,421.6L229.9,421.6z M134.3,301.3c0.2-2.1,0.7-3.6,1.2-5.2
			c0.2-0.8,0.8-1.1,1.6-0.9c0.8,0.2,1.1,0.7,0.9,1.5C137.5,298.2,136.9,299.8,134.3,301.3L134.3,301.3z M275.9,398.3
			c-2.1,2.5-5.9,3.3-8.6,2.3C270.2,399.5,272.9,398,275.9,398.3L275.9,398.3z M214.3,373.8c2.1-1.2,4.6-1.9,7.3-0.8
			C219.3,375,216.5,375.2,214.3,373.8L214.3,373.8z M207.6,473.8c-2.2-1.4-3-2.8-3.6-5.1C207.5,470,208.6,470.6,207.6,473.8
			L207.6,473.8z M297.7,337.9c-2.4,2-5.1,2.2-8.1,0.7C292.5,337.6,294.7,337.6,297.7,337.9L297.7,337.9z M213.4,206.6
			c2.8-6.1,2.8-6.1,4.7-6.6C217.7,202.9,215.8,204.6,213.4,206.6L213.4,206.6z M114.7,310.4c1.8-3,4.5-4.5,6.9-3.9
			C120.1,308.6,118,309.8,114.7,310.4L114.7,310.4z M257.5,224.1c1-4.4,1.8-5.5,4.5-5.8C261.7,220.4,259.9,222.1,257.5,224.1
			L257.5,224.1z M150.4,480.1c-3-1.6-3.3-3.3-2-6C149.4,476,151.1,477.7,150.4,480.1L150.4,480.1z M315.2,289.7
			c-3.2,3.1-5.6,3.8-7.8,2.4C309.5,290.9,312.2,290.7,315.2,289.7L315.2,289.7z M220.5,359.9c2.1-1.2,4.6-1.9,7.5-1.6
			C225.4,359.8,223,360.5,220.5,359.9L220.5,359.9z M171.5,471.4c2.5,0.6,3.8,0.4,4.7,1.9C173.8,475.3,173,475.1,171.5,471.4
			L171.5,471.4z M268.8,419.2c-2.7,1.5-4.8,1.4-7,0.1C264.2,418.5,266.3,417.3,268.8,419.2L268.8,419.2z M131.7,274.8
			c-0.2,3.4-2.3,5.8-4.2,6.3C129.1,277.6,129.3,276.8,131.7,274.8L131.7,274.8z M197.7,314.3c-1.6,2.2-2.6,4.1-5.3,5.6
			C193.7,317.2,194.5,314.8,197.7,314.3L197.7,314.3z M320.3,320.6c-2.1,2.5-3.5,2.6-5.1,1C316.7,320.6,318.1,320.5,320.3,320.6
			L320.3,320.6z M168.4,442.6c-2.4,0.7-3.8-0.5-5.5-2.1C165.6,440.3,167,441.4,168.4,442.6L168.4,442.6z M147.8,301.5
			c0.2-2.1,1.5-3.5,3.7-4.7C150.8,299.2,149.1,300.1,147.8,301.5L147.8,301.5z M244.6,218.9c1.1,2-0.2,3.4-1.2,5.2
			C243.1,222.4,243.1,221.1,244.6,218.9L244.6,218.9z M324.3,308c-1,1.9-2.9,2.3-4.8,2.7C321.9,308.7,321.9,308.7,324.3,308
			L324.3,308z"/>
		<path class="st1" d="M93,297.2c2.6-2.8,3.6-6,5.2-9.4c2.8-6.1,5.9-11.8,9.9-17.3c1-1.9,1.8-3,4.2-3.7c2.4-0.7,4.5-3.2,7.5-4.2
			c3.7-2.1,7.5-2.9,11.6-3.3c4.1-0.3,8.6-3.5,10.6-7.3c0.3-0.8,0-1.3-0.3-1.8c-0.6-1-1.6-0.4-2.2-0.1c-3,1-5.3,3-7.4,5.5
			c-1.3,1.4-2.9,2.3-4.8,2.7c-4.8,1.4-9.4,3.4-14.7,6.4c1-3.2,2.6-5.4,3.9-6.7c2.9-3.6,5.8-7.2,8.7-10.7c1.9-1.7,3.5-2.6,5.1-3.5
			c3.7-2.1,5-4.8,6.6-8.3c0.2-0.8,0.5-1.6-0.6-2.3c-0.6-1-1.6-0.4-2.7,0.2c-3.7,2.1-6.1,5.4-6.5,9.5c-0.5,1.6-1.3,2.7-2.6,4.1
			c-2.9,2.3-4.8,4-7.4,6.8c1.3-4,1.2-7.8,4.3-10.9c1.6-2.2,2.9-4.9,2.3-7.1c-0.1-2.6-1.7-2.9-3-1.5c-1.6,0.9-2.9,2.3-2.3,4.6
			c0.1,3.8-0.3,8-2.1,12.2c-0.5,1.6-0.4,4.2-1.5,6c-1,1.9-2.3,4.6-3.9,6.7c-3.1,4.4-6.5,9.5-9.7,13.9c-1.6,2.2-1.5,4.8-4.4,7.1
			c0.7-3.7,0.9-7,1.1-10.4c0.6-8.8,0.9-18.1,3.9-27.6c1.3-4,2.8-8.7,5.1-13.3c0.5-1.6,2.4-3.3,4.2-5c1.6-2.2,2.1-3.8,0.1-5.9
			c-0.3-0.5-0.6-1-1.9-0.9c-0.8-0.2-1.1,0.6-1.3,1.4c-1.5,4.8-3.8,9.3-4,13.9c-0.5,1.6-1.3,2.7-1.8,4.3c-4.4,8.3-4.2,17.3-5.3,26.4
			c-0.7,6.2-1,12.9-2,18.6c-0.2,2.1-1.8,4.3-0.1,5.9c0.8,0.2,0,1.3-0.5,1.6C94.1,295.4,92.5,296.3,93,297.2L93,297.2z M135.3,234.4
			c-0.4,4.2-3.6,8.5-8.2,9.2C129.2,239.8,130.5,235.8,135.3,234.4L135.3,234.4z M132.7,258c1.5-3.5,3.9-5.5,6.6-5.7
			C138,255,135.3,256.5,132.7,258L132.7,258z M107.3,230c1-1.9-0.4-4.3,2-6.3C110.8,226.2,110,227.2,107.3,230L107.3,230z
			 M121.8,235.5c0.3,1.8,0.1,3.8-1.8,5.5C120.3,239,118.3,236.8,121.8,235.5L121.8,235.5z"/>
		<path class="st1" d="M278.8,307.6c2.7-0.2,3.7-2.1,4.8-4c2.1-3.8,2.8-7.4,5.2-10.7c0.5-1.6,1.3-2.7,2.9-3.6c1.6-0.9,2.9-2.3,4-4.2
			c1-1.9,0.2-3.4-1.5-3.8c-1.9-0.9-3.2,0.5-3.7,2.1c-2.6,5.3-4.3,10.9-6.9,16.2C282.2,302.4,280.9,305.1,278.8,307.6L278.8,307.6z
			 M291,287.1c0.2-2.1,1-3.2,1.8-4.3C293.9,284.8,293.4,285.1,291,287.1L291,287.1z"/>
		<path class="st1" d="M193,222.7c-3.3-3.3-5.9-7.7-10.3-10.5c-1.7-1.6-2.8-3.6-2.9-6.2c-0.3-0.5-1.1-0.7-1.4-1.2
			c-1.1-0.7-2.5-1.9-4.1-0.9c-1.3,1.4-0.5,2.9-0.4,4.1c0.3,1.8,1.7,1.7,3,1.6c1.9-0.4,2.5,0.6,3,1.5c0.6,1,1.7,1.7,2.8,2.3
			c2.5,1.9,4.4,4,5.8,6.5c0.9,1.5,2.8,2.3,3.6,3.8C192.7,223.5,192.5,223,193,222.7L193,222.7z M176.1,208.2
			c-1.1-0.7-1.7-1.6-0.9-2.7c2.4,0.6,2.7,1.1,3,1.5C177.5,208.1,176.9,208.4,176.1,208.2L176.1,208.2z"/>
	</g>
</g>
</svg>
