<?xml version="1.0" encoding="utf-8"?>
<!-- Generator: Adobe Illustrator 23.0.2, SVG Export Plug-In . SVG Version: 6.00 Build 0)  -->
<svg version="1.1" id="Calque_1" xmlns="http://www.w3.org/2000/svg" xmlns:xlink="http://www.w3.org/1999/xlink" x="0px" y="0px"
	 viewBox="0 0 331.8 418.4" style="enable-background:new 0 0 331.8 418.4;" xml:space="preserve">
<style type="text/css">
	.st0{opacity:0.14;}
	.st1{fill:#020203;}
</style>
<g class="st0">
	<g>
		<path class="st1" d="M284.6,343.5c-0.6-2.2,0.1-4,0.2-6.4c0.4-3.3,0.5-7.3-0.1-10.6c1-0.1,0.9,0.4,1.3,0.5c0.5-1.3,0.5-2.3,0.1-4
			c-0.8-0.4-1.2,0.5-1.4,0.9c-5.7-1.9-7.1-7-9.1-11.8c-0.5-1.2,0-2.5,0.6-3.8c0.7-1.7,2-3.7,3.8-5.4c2.5-2.4,3.9-5.9,3.5-9.6
			c-0.3-4.1-1.4-8.6-1.7-12.7c-0.5-3.7-1.5-7.1-1-10.9c0-2.5-1-4.9-1.3-7.6c0.2-0.4-0.1-1-0.9-1.4c-0.6,0.3-0.4,0.9-0.1,1.5
			c-0.4,3.3-1.6,6.3-3.7,9c-1.1,1.5-1.4,3.4-1.5,5.9c0.3,1.6-1.2,4-3,4.8c-1,1.1-1.7,1.8-0.6,2.7c-1.9,3.2-2.4,7-3.2,10.2
			c-0.3,1.9,0.6,3.3,0.5,4.7c0.9,6.4,1.9,12.3,4.1,17.7c0.5,1.2,1.4,2.6,2.7,3.1c1.8,1.8,1.7,3.2,1.8,5.3c-0.1,1.5-1.7,1.8-2.9,2.3
			c-1.7,0.3-2.2,1.6-2.9,3.3c-1,3.6-3.5,6-7.1,7.5c-3.9,0.9-8.7-0.6-10.4-3.8c-1.5-0.1-2.8,0.8-3.6,1.5c-1.1,1.5-2.6,1.4-3.6,1.5
			c-2.7-0.6-5.2-0.7-8-1.3c-2.7-0.6-5.3-4.2-5.7-6.8c-0.5-3.7-1.1-7,0.3-10.4c-4.3-1.8-7.9-3.8-11.4-6.3c-3.2-1.9-4.5-4.9-3.5-8.5
			c0.4-0.8,0.3-1.9-0.8-2.8c-1.8-1.7-2.3-4-2.5-6c-0.9-3.9-0.6-8.2,0.9-11.7c1.4-3.4,3.9-5.9,7-7.1c1-0.1,1.6-0.3,2.2-0.6
			c2.4-1,3.8-1.9,4.9-4.5c0.6-2.7,4.5-3.6,6.7-1.7c4.3,2.8,7.9,6.3,11.5,9.8c0.7,0.8,1.4,1.6,2.6,2.1c3.2,0.8,6.6,2.2,9.5,2.4
			c3.3,0.4,6.4-0.9,9.1-2.7c2.2-1.6,3.5-3.6,4.5-6.1c2-4.7,3.5-9.5,5-14.4c0.6-2.7,0.4-5.8-0.4-8.7c-1.2-3-0.4-6.2-0.2-9.1
			c1.5,1.1-0.2,2.9,1.7,4.2c-0.6-2.2,0.6-3.8-1-5.9c-0.9-1.4-0.9-3.9-0.6-5.8c0-3.5-1.1-7-1.1-10.5c-0.1-4.5,0-8.5,0.4-12.9
			c0.2-2.9,0-6-0.2-9.1c-0.2-0.6-0.1-1.1-0.5-1.2c-2.4-1.5-3.4-3.9-5.4-6.2c-8,3.7-14.1-0.9-20.5-6c0.4-3.3,0.3-6.9,0.5-10.8
			c-2.9,2.3-3.2,5.2-3.2,7.7c-0.1,7.5,2.8,13.7,6.8,19.8c0.2,0.6,0.5,1.2,1.3,1.6c4.2,3.2,6.6,8.2,9.4,12.4c0.9,1.4,1.8,2.8,1,4.9
			c-0.4,0.9-0.7,1.7-1.5,2.4c-1.6,1.3-2.9,2.3-4.6,2.6c-0.2,0.4-0.2,0.4-0.2,0.4c-0.5,4.8-4.1,7.3-7.7,8.8c-3,1.2-5.5,3.7-9.3,3.1
			c-0.9-0.4-1.2,0.5-1.8,0.7c-0.9-0.4-1.4-1.6-2.4-1.5c-3.9-0.1-7.1-1-9.5-4.9c-7.7,5.3-15.1,3.7-22.3-1.8c-0.6-2.2-1.7-4.2-2.1-6.9
			c0.1-1.5-1.2-2-1.8-2.8c-2.8-1.7-5-3.6-7.2-5.5c-1.3-0.5-1.8-1.7-2.4-2.5c-1.2-2-2.8-4.2-3.5-6c-3.2-6.8-4.3-13.8,1.1-20.6
			c1.1-1.5,1.2-3,0.5-4.8c-2.2-4.4-2.5-8.5-0.3-12.6c1.8-4.3,4.2-7.8,9.4-8.1c0.5-1.3,1.1-2.6,1.6-3.8c-2-1.3-3.7-2-4.8-4
			c-3-4.8-7.9-8.8-6.8-14.9c-0.1-2.1,0.6-3.8,0.9-5.7c0.4-0.8,1.1-1.5,2.2-1.6c2.1-0.1,3.6-1.5,5-2.4c3-2.3,5.9-4.6,9.1-6.2
			c4.8-3,9.8-5.4,15.3-6.7c-4.1,0.3-8.2,0.6-12.4,0.9c-4.3,0.7-8.4,2-12.4,3.4c-4.1,1.3-7.4,4.4-11.8,5.6c-0.4-0.2-0.9-0.4-1.1-1
			c10-4.8,19.4-9.4,31-9.6l-0.3-0.6c-1.9-0.3-3.3-0.4-5.4-0.3c-5.4-0.3-10.8-0.5-16.1,1.3c-3.9,0.9-7.5,2.4-11.2,2.8
			c-0.8,5.7,2.7,12.6,6.9,13.4c-1.4,0.9-2,1.2-2.9-0.2c-6.2-5.6-7.5-15.6-3.6-22.5c1.5-2.4,3.8-4.4,6-6c0.8-0.7,1.4-0.9,1.5-2.4
			c0.2-2.9,1.5-5.9,3.1-8.7c0.4-0.9,0.7-1.7,0.5-2.3c4.3-3.2,8.6-4.9,13.8-4.3c0.8-0.7,0.7-1.7,1.1-2.6c0.6-3.8,6.6-6.2,9.6-5
			c0.9,0.4,2.1,0.9,3,1.2c0.9,0.4,1.3,0.5,1.4,1.6c0.6,2.2,0.5,4.7,0.7,6.8c0.4,5.2,3.1,9.3,5.9,13.5c2.3,3,5.2,5.6,8.6,7.1
			c4.3,1.8,8.5,3.6,13.1,1c6-3.5,12.6-7.3,17.9-11.6c6.7-5.2,12.4-11.8,18.3-17.4c5.1-4.9,8.8-10.3,11.9-16.6
			c1.5-2.4,1.5-4.9,2.6-7.4c3.9-11.9,9.3-23.6,14.7-35.4c2.2-4.1,4.7-7.6,6.9-11.6c2.6-4.9,5.5-9.7,7.4-15.4
			c0.2-0.4,0.3-1.9,1.5-2.4c-0.5,2.3-1.3,4.4-2.4,7c-3.6,7.5-8.3,15.1-12.3,22.4c-2.2,4.1-3.6,8.5-5.5,13.2
			c-1.7,2.8-3.1,6.2-4.5,9.6c-1.7,2.8-2.5,6-3.7,9c-1.9,5.7-3.6,11-5.5,16.7c-1.7,5.3-3.6,11-4.4,16.7c-0.4,0.9-0.7,1.7-0.9,2.1
			c-0.5,1.3-1.1,2.6-0.1,3.9c0.3,1.6-0.8,3.2-1.4,4.4c-0.5,2.3-1.2,4-1.6,6.3c-0.4,0.9-0.3,1.9-0.2,2.9c1.1-1.5,1.8-3.2,2.4-4.5
			c1-6.1,2.5-12,4.8-17.5c0.8-3.2,1.5-5.9,2.1-8.6c2.2-7.6,4.6-14.6,7.2-22c2.7-6.4,5.5-13.2,7.8-19.8c0.7-1.7,0.6-3.8,1.5-4.9
			c2.1-2.6,2.9-5.8,4-8.4c2-4.7,4.6-8.6,7.2-12.5c0.4-0.9,0.7-1.7,1.1-2.6c0.5-1.3,0.9-2.1,1.9-2.2l0,0c-1.4,0.9-1.7,2.8-2.2,4.1
			c-4.3,6.7-7.9,14.2-11,21.5c-1.2,4-1.5,8.4-2.2,12.6c-0.3,4.4,0.7,7.8,1.6,11.7c0.3,1.6,1.7,3.2,2.6,4.6c0,0,0.4,0.2,0.7,0.8
			c3.3,5.4,8.8,7.7,15.1,8.3c2.9,0.2,5.6,0.9,8.9,0.2c2.7-0.4,5.3-0.8,7.6-1.4c3.9-0.9,7.8-1.8,11.2-2.8c3-1.2,5.7-1.6,8.8-1.8
			c3.5-1.1,8.3,3,8.2,7.9c0.1,1-0.3,1.9-0.2,2.9c-0.5,1.3,0,2.5,1.2,3c3.3,2.9,3.2,6.8,1.6,10.7c-0.7,1.7-1.4,3.4-2.1,5.1
			c-0.7,1.7-1.8,3.2-3.7,4c-1.2,0.5-2,1.2-1.7,2.8c0.6,5.8-2.4,10.5-5.6,14.7c-2.3,3.1-5.9,4.6-10.3,4.2c-1.9-0.3-4.1,0.3-6,0
			c-1,0.1-1.4,0.9-1.6,1.4c-1.2,3-3.2,4.2-5.8,5.6c-4.6,2.6-9.1,2.7-13.6,0.3c-1.3-0.5-2.7-0.6-3.9,0.9c-1.9,2.2-4.5,1.1-7.2,0.5
			c-1.3-0.5-2.3-0.5-3.5,0c-1.6,1.4-4.1,1.3-5.8,0.6c-3.6-1-6.2-3.1-8.1-5.9c-1.6-2.2-2-4.8-2-7.3c0.2-2.9,0.2-5.4,1.3-8
			c0.5-2.3,2.5-3.5,3.3-5.6c2.6-4.9,6.4-9.3,9-14.3c2.6-3.9,4-8.3,4.7-12.6c0.1-1.4,0.2-2.9-0.3-4.1c-0.1-1,0.5-1.3,1.1-1.5
			c-0.2-2.1-1.3-4-2.5-6c-3.3-5.4-4.3-11.3-4.7-17.5c0.2-0.4,0.4-0.9,0.1-1.5c-1,0.1-0.8,0.7-1,1.1c-3.4,8.1-6.7,16.2-9.3,24.7
			c-0.5,2.3-1.5,4.9-2.6,7.4c-1.3,4.5-2.5,8.5-3.3,12.7c-2.5,8.5-4.6,17.1-6.7,25.7c-1,3.6-1.6,7.4-1.3,11.5c0,3.5,1.1,7,3.6,9.5
			c0.2,0.6,0.2,0.6,0.5,1.2c2.3,5.4,7.2,8,12.7,10.3c4.7,2,9.1,2.3,14.1,0.9c2.8-0.8,5.6-0.2,8.5,0c1-0.1,1.7,0.7,2.4,1.5
			c1.4,2.6,4.8,3,7.2,2c1.4-0.9,3-2.3,4.8-2c-2,1.2-4.5,1.1-5.5,3.7c2.5,2.5,2.5,2.5,5.6,0.9c1.6-1.3,3.4-2.1,5.2-2.8
			c0,0,1-0.1,1-1.1c-2.1-0.9-4.4-0.3-6.3-0.6c3-1.3,6.8-0.7,9.1,2.3c2.2,1.9,4.2,4.3,5.5,7.3c0.6,2.2,0.3,4.1-0.8,6.7
			c-1.5,2.4-1.1,2.6,1.1,4.5c3.7,3.1,6.7,6.8,8.6,10.6c1,2.4,1.4,5.1,1.5,7.1c-0.2,0.4,0.1,1-0.5,1.3c-1.4,0.9-1.3,2-0.6,2.7
			c-1.8,4.3-5.2,6.4-9.4,8.1c1.6,5.7,1,10.9-1.6,15.8c-0.2,0.4-0.8,0.7-1.6,0.3c0.4-0.9,0.7-1.7,1.5-2.4c0.7-1.7,0.6-2.7-0.5-3.7
			c-5.9-5-11.8-8.9-17.9-13.5c-3.7-3.1-7-5.9-10.8-9c-0.9-0.4-1.3-1.6-2.9-0.2c5.3,4.2,9.7,9.1,14.8,13.7c5.1,4.6,10.5,8.4,16,13.2
			c-1.6,0.3-1.9-0.3-2.3-0.5c-8.8-7.7-17.2-15.2-25.8-23.3c-1.5-1.1-3.8-1.6-5.2-3.2c-0.7-0.8-1.3-0.5-1.8,0.8
			c2.5,3.6,5,7.1,7.6,10.7c3.2,4.3,6.2,9.1,8.6,14.1c0.7,1.8,2.6,2.1,3.9,2.6c2.5,0,4.2,0.8,6.3,1.6c2.1,0.9,4.2,0.7,6.4,0.2
			c-2.2,1.6-4.2,1.7-6.8,0.7c-2.3-0.5-4.9-1.5-7.8-1.7c1.6,4.7-0.9,8.1-3.1,12.2c-0.5-1.2,0.3-1.9,0-2.5c-0.4-0.2-0.4-0.2-0.4-0.2
			c1.9-2.2,1.9-2.2,0.5-4.8c-2.5-3.6-4.7-8-7-11.9c2.9,2.7,4.4,6.3,7.1,9.4c-3.8-6.6-7.2-14-12.2-20.1c0.9,1.4,1.4,2.6,2.4,4
			c0.6,2.2,2.8,4.2,3.2,6.8c-0.2-0.6-0.7-0.8-1.1-1c-2.6-4.6-5.2-9.2-8-14.4c-0.4-0.2-0.5-1.2-1.5-1.1c-1,0.1-1,1.1-0.3,1.9
			c0.5,1.2,1.6,2.2,2.3,4c0.7,1.8,2.7,3.1,2.2,5.4l0,0c-2-2.3-2.8-5.2-4.3-7.8c-0.2-0.6-0.5-1.2-1.8-1.7c-2.3,2-3.7,4-5.5,7.2
			c0,0,0.4-0.8-0.5-1.2c-0.4,0.8-0.3,1.9,0,2.5c0.9,0.4,1.2-0.5,1.9,0.3c1.3,4.1,2.9,8.7,3.9,13.6c0.8,2.8,2.1,5.9,2.9,8.7
			c1.3,3,4,3.7,6.7,3.3c-3.2-6.8-6.7-12.8-8.8-19.7c0,0,0.2-0.4,0.6-0.3c0.3,1.6,1.2,3,2,4.8c1.6,4.6,4.2,9.2,6.9,13.4
			c1.4,2.6,2.7,3.1,5.3,1.7c0.6-0.2,1.2-0.5,2.2-0.6c-0.7,1.7-3.1,2.7-5,2.4c-1.9-0.3-3.8-0.6-5-1.1c-3.4-1.4-6.3-0.6-9,2.3
			c-1.9,2.2-5.6,2.7-9,1.2c-3.2-1.8-6.9-3.9-10-6.1c-2.9-2.7-5.4-6.3-6.7-10.3c-2-4.8,0.9-8.1,3.8-11.4c0.8-0.7,0.8-0.7,1.1-2.6
			c-4.3,0.7-8.3,0.6-12.3-0.6c-0.8,4.2-1.1,7.6-1.3,11.5c0.1,4.6-0.2,8.9,0.3,13.7c0.3,6.6,0.1,13,0.9,19.4
			c0.5,7.2,5.1,10.6,11.1,13.1c3,1.2,6.3,1.6,9.7,2c3.8,0.6,6.8-0.7,9.7-2.9c3.7-3,6.9-5.7,10.8-8c2.8-1.9,7.8-1.8,10.2,0.7
			c0.4,0.2,0.2,0.6,0.7,0.8c-0.2,2.9,2.1,3.4,4.4,3.8c4.9,1.5,6.9,7.4,6.9,12.4c-0.1,4-1.4,6.9-2.4,10.5c-0.2,0.4-0.1,1.4,0.1,2.1
			c1.2,3,1.3,6.5,0.7,10.3c0,0-0.2,0.4,0.1,1c1.5,1.1,4,0.1,4.9,2.6c-2.5,0-3.7-2-5.5-1.3c-0.8,0.7-1.1,1.5-1.1,2.6
			c-0.2,0.4-0.1,1.5,0.9,1.4c1.5,0.1,3,1.2,4.6,0.9c0.5-1.3-0.9-1.4-1.6-2.2c2.2-0.6,3.1-0.2,3.8,1.6c2.2,4.4,1.4,8.6-0.3,12.9
			c-0.1,1.5-2.1,2.6-3.2,4.2c3.1,2.3,4.7,5.5,5.4,8.7c0.6,3.3,0,6-0.8,9.2c-1.7,7.8-7.1,13.5-13.6,18.3c-1.6,1.4-3.8,1.9-5.6,2.7
			c-1,0.1-2.1,0.1-2.3,2c-1.3-1.6-2.4-1.5-4-1.2c-1.8,0.7-3.9-0.1-6,0c-1,0.1-1.6,0.3-2,1.2c-3.2,5.2-8.3,6.6-13.6,3.8
			c-1.7-0.7-3.4-1.4-5.1-2.1c-3.6-1-4.8-4-5.7-7.9c-0.7-4.3,0.9-8.1,3.1-12.2c1.4-3.4,2.7-6.4,2.4-10.5c0.2-0.4,0.1-1.5-0.6-2.2
			c-2.8,0.8-4.9-1.5-7.8-1.7c-0.3,4.4,0,8.5-1.6,12.3c0.4,0.2,0.4,0.2,0.4,0.2c-0.3-1.6,0.2-2.9-0.5-4.7c-0.7,1.7-0.6,2.7-0.7,4.2
			c-0.9,2.1-0.3,4.4-1.5,5.9L284.6,343.5z M330.2,79.1c1.3,0.5,2.6,1.1,3.7,2c0.2-0.4,0.2-0.4,0.2-0.4
			C332.9,79.8,331.6,79.2,330.2,79.1c-0.3-1.6-1.2-2-2.9-2.7C328.2,77.8,329.5,78.3,330.2,79.1L330.2,79.1z M274,153.8
			c2.2-0.6,2.5-2.5,3.7-4C276.5,151.4,274.9,151.7,274,153.8c-1.2,0.5-2,1.2-3,2.3C272.3,155.6,273.5,155.1,274,153.8L274,153.8z
			 M337.6,162.3c1.4-0.9,0.7-1.7,0-2.5c-1.2,0.5-2.8,0.8-3.8,1.9c1.4,1.6,2.7,0.6,4.2,0.7c-0.6,0.2-0.8,0.7-1,1.1
			c0.4,0.2,0.2,0.6,0.7,0.8c0.4,0.2,0.8,0.4,1-0.1C339.1,163.4,338.9,162.8,337.6,162.3L337.6,162.3z M277.7,217
			c-0.8,0.7-1.1,1.5-1.1,2.6c0.2,3.1,0.4,6.2,0.7,9.3c0.4-0.9,0.7-1.7,0.5-2.3c-0.2-3.1,0.6-6.3-0.2-9.1c0.8-4.2,1.1-8.6,1.2-12.5
			c-0.1-1-0.5-1.2-1.5-1.2l-0.2,0.4c-0.6,3.8,0.1,8.1-0.4,11.8C276.5,216.4,276.9,216.6,277.7,217L277.7,217z M328.3,168.9
			c0.6-0.2,0.8-0.7,0.1-1.5c-0.9-0.4-1.9-0.3-2.7,0.4C326.2,169.1,327.1,169.4,328.3,168.9c-0.4,0.9-0.1,1.4,0.7,1.8
			c0.7,0.8,1.3,1.6,2.2,1.9c1.8,1.7,4.3,1.8,6.4,0.2c-1-2.4-1.8-2.8-4-1.2C331.3,171.2,331,168.5,328.3,168.9L328.3,168.9z
			 M301.6,154.8c-1,0.1-1.4-1.6-2.4-1.5C299.6,155,300.4,155.3,301.6,154.8c0.5,1.2,1.6,2.2,2.7,3.1c2.6,2.1,5.4,3.8,7.6,5.7
			c1.8,1.8,3.4,1.4,5.4,0.3c-1.3-1.6-3.2-1.9-4.7-3C308.8,159.3,304.9,157.7,301.6,154.8L301.6,154.8z M295.9,317.6
			c-1.3-0.5-1-2.4-2.7-3.1c-0.6,3.8-1,7.1-0.3,10.4c0.9,0.4,2.3,0.5,2.9,0.2c0.4-0.9,0.1-1.5,0.5-2.3c0.3-1.9-1.1-3.5-0.8-5.3
			c0.8,0.4,0.7,1.8,1.6,2.2c1-3.6,0.2-5.4-2.8-7.7C294,313.8,295.8,315.6,295.9,317.6L295.9,317.6z M339.9,160.3c4-1.3,7.2-4,11-5.9
			c-0.7-0.8-1.7-0.7-2.3-0.5c-2.3,0.6-4.7,1.6-6.4,3.3C341.2,158.3,339.6,158.6,339.9,160.3c0.7,0.8,0.1,2.1,1.4,2.6
			c3.7-0.5,9.7-4,11.6-6.2c-0.5-1.2-1.3-1.6-2.6-1.1c-0.8,0.7-2,1.2-2.8,1.8C345,158.9,342.8,160.5,339.9,160.3L339.9,160.3z
			 M297.8,168.8c-1.3-0.5-1.5-1.1-1.6-2.2c-1.5-3.6-3.2-7.9-4.5-11.9c-0.3-0.6-0.1-1-0.9-1.4c0.8,5.3,8.2,25.9,10.2,28.3
			c0.5-2.3,0.3-4.4-0.9-6.4c-0.7-1.8-2.3-4-2.7-6.6c0.7,0.8,0.7,1.8,1.8,1.7c0.1-1.5-1.3-4-3.1-5.8
			C296.4,166.2,297.9,167.3,297.8,168.8L297.8,168.8z M332.1,259.6c-1.7-0.7-0.4-2.7-1.5-3.6c-5.4-0.3-16.3,4.2-19.6,7.4
			c0.4,0.2,0.4,0.2,0.4,0.2c0.4,0.2,1-0.1,1.6-0.3c5.7-1.6,11.4-3.3,17.6-2.7C331.3,260.3,331.7,260.5,332.1,259.6
			c1.5,1.1,2.7,0.6,4.4,0.3C335.2,259.4,333.5,258.7,332.1,259.6L332.1,259.6z M314,354.7c-0.7-0.8-0.7-1.8-1-2.4
			c-1.8-5.3-3.6-9.5-6.1-14.1c1.2,5.5,4.2,10.3,4.2,16.3c-0.7-0.8-0.9-1.4-1-2.4c-1.6-5.7-3.5-11-6.1-16.6c-0.3-0.6-0.5-1.2-1.5-1.1
			c0.1-1.5,0.6-2.7-1.2-3c0.1-1.5-0.8-2.8-2.5-3.6c-0.2,0.4,0.1,1,0.3,1.6c2.9,8.7,4.7,17.5,5.4,26.8c0.1,1,0.1,2.1-1.1,2.6
			c0.4-6.9-1.5-13.1-2.6-19.1c-0.8,0.7-0.3,1.9-0.2,2.9c0.5,4.7,0.5,9.7,0.4,14.7c0.1,1-0.1,1.5-1.9,2.2c2.4-8,0.6-15.8-0.4-23.2
			c0.1,7-1.1,13.5-2.5,20.5c0.2-6.4,1.8-12.8,0.7-19.7c-0.9,2.1-1.8,4.3-3.1,6.2c-0.4,0.9-0.7,1.7-0.5,2.3c1.1,1,0.7,1.8,0.4,2.7
			c0.1,1,0,2.5-0.6,3.8c-0.1,4,1,5.9,4.4,7.4c2.1,0.9,3.8,1.6,6,2.5c2.1,0.9,4.2,0.7,6.2-0.4c-0.2-3.1-0.6-5.8-0.8-8.9
			c1.5,1.1,1,2.4,1.5,3.6c0.3,1.6-0.4,3.3,0.7,4.3c1-0.1,1.2-0.5,1.8-0.7c1.7-1.8,1-3.6,1.3-5.5c0.9,0.4,1,2.4,2.1,0.9
			c0.1-5-9.3-25.9-13.3-28.1c-0.2,0.4,0.2,0.6,0.2,0.6c3.4,7.4,7.3,15,10.1,22.7C313.8,351.6,314.7,353,314,354.7L314,354.7z
			 M192.9,188.6c-0.5,1.3-1.2,3-1.8,4.3c0.4,0.2,0.4,0.2,1-0.1c5.4-2.2,11.1-1.4,16.9-1c2.9,0.2,5.8,0.4,9-1.3
			c-7.3-0.5-14.2-1.9-21.9-1.6C195.3,189.1,194,189.6,192.9,188.6c1.4-0.9,2.6-1.4,4.1-1.3c3.6,1,7.9,0.3,11.5,1.3
			c1.9,0.3,3.3,0.4,5.2-0.4c-0.4-0.2-0.9-0.4-1.3-0.5c-4.8-0.5-9.3-1.9-13.3-4.1c-2.6-1.1-5.9-1.4-8.8-1.7
			C190.6,184.7,191.8,186.7,192.9,188.6L192.9,188.6z M334.3,261.5c1.5,0.1,3.2,0.8,5.1,2.1c-2.9-0.2-5-1.1-7.1-1
			c-5.3,0.8-10.7,1.6-15.8,1.9c-4.3,0.7-8.4,1-13.2,1.5c2.7,0.6,5.2,0.7,8.1,0.9c5.6-0.2,11.2-0.4,16.7-0.5
			c3.9,0.1,7.9,0.3,11.5,1.3c0.4,0.2,1.5,0.1,1.6-0.3c0.5-1.3-0.6-2.2-0.6-3.3C339.6,260.7,337.3,260.3,334.3,261.5
			c-0.4-0.2-0.8-0.4-1.3-0.5c-4.5,0.1-9.1,0.2-13.8,1.8c1.9,0.3,3.8,0.6,6,0C327.9,262.4,331,262.2,334.3,261.5L334.3,261.5z
			 M301.7,218.4c-0.3-0.6-0.3-1.6,0-2.5c0-3.5,0.8-6.7-1.5-9.6c-1.4-0.1-2.2,0.6-2.5,2.5c-0.6,3.8-1.3,8-2.1,12.2
			c-0.3,1.9-0.6,3.8-0.9,5.7c-0.1,1.4,1.5,3.6,2.5,3.6c1.9,0.3,1.6-1.4,2.1-2.6C300.2,224.3,300.9,221.6,301.7,218.4
			c0.1,4.5-1.7,8.8-2,13.2c0.4,0.2,0.9,1.4,2.1,0.9c2.6-5,4.1-21.8,2.7-26.9c-1.9-0.3-1.6,1.4-1.9,2.2
			C302.5,211.7,302.7,214.8,301.7,218.4L301.7,218.4z M229,275.2c0.8-0.7,1.6-0.3,2.3,0.5c2.6,1.1,4.9,2.6,7.8,4.2
			c2.1,0.9,4.7,2,8,2.3c-3.6-4.5-8-8.4-12.8-11.3c-1.1-1-3.8-0.6-4.7,0.5C228.6,272.6,228,273.8,229,275.2c-0.4,0.9-0.1,1.5-1.1,1.5
			c-2.5,0-4.3,0.7-6.5,1.3c-2.4,1-3.7,2.9-4.6,5.1c5.9-1,12,0,17.7,1.9c-3-2.3-6.3-4.1-9.2-6.8c1.6-0.3,2.3,0.5,3.2,0.8
			c4.6,3.4,9.8,6.6,15.1,8.3c5.5,1.3,10.7,2,16,1.2c0.6-0.3,1.2-0.5,1.4-0.9c-0.7-0.8-1.3-0.5-1.7-0.7c-3.9,0.9-8.1,0.2-12.1-1
			c-4-1.2-7.5-3.6-11.3-5.2c-1.3-0.5-3.4-1.4-3.9-2.6C231.3,276.7,230.2,275.8,229,275.2L229,275.2z M191.7,213.2
			c0.3,1.6,1.1,3.5,2.4,5c1.6,2.2,3.3,2.9,6.1,1c2-1.2,3.5-2.5,5.1-3.9c0.6-0.2,1.2-0.5,1.6-1.3c-2.7,0.4-4.2,1.7-6.4,3.3
			c-0.4,0.9-1.4,0.9-2.2,1.6c-1,0.1-1.3-0.5-1.5-1.1c4-2.3,8.2-4.1,11.5-7.2c3.5-3.6,7-7.1,10-10.8c1.6-1.3,2.7-2.9,4-4.8
			c-1,0.1-1.6,0.3-2.4,1c-3.6,2.5-6.3,5.4-9.6,8.5c-3.9,3.4-7.6,7.4-12.4,9.3c-0.8,0.7-1.6,1.4-2.6,1.4c-0.7-0.8,0.1-1.5,0.7-1.7
			c5.4-2.2,9.5-6.1,13.8-10.3c0.6-0.2,1.8-0.7,1.7-1.8c-0.4-0.2-0.4-0.2-0.6,0.2c-5.4,2.2-9.8,5.4-14.3,9.1
			C195.4,211.7,194.1,213.6,191.7,213.2c-0.1-1,0.5-1.3,1.3-2c1-0.1,1.8-0.7,2.6-1.4c4.3-3.2,8.7-6.4,13.7-8.8
			c3.6-1.5,7-3.6,10.3-6.7c-11.7,1.6-22.7,4.1-31.5,11.9C188.4,209.3,189.8,211.9,191.7,213.2L191.7,213.2z M330.3,102.7
			c-0.7-1.8-1.7-4.2-3.5-6C327.8,99.2,328.4,101.4,330.3,102.7c0.3,0.6,0.1,1,0.1,1c2.5,7.1,3.2,13.9,4.3,20.8
			c0.1,1,0.3,1.6-0.9,2.1c-0.5-9.7-1.9-18.3-6.4-26.7c-0.1,1.4,0.8,2.8,1.1,4.5c1.5,6.1,2.5,12.1,1.5,18.1c0.1,1-0.2,2.9,0.6,3.3
			c2.4,1.5,5.2,3.2,8,2.3c1-0.1,1.4-0.9,1.7-1.8c1.6-3.8-0.1-7-1.1-10.5c-1.9-6.3-4.8-12.5-7.9-18.3c-1.7-3.2-3.5-6-5.6-9.3
			c-0.4,0.8-0.1,1.5,0.3,1.6c1,4.9,3.9,8.6,6.1,13c3.8,6.6,5.7,13.9,6.5,21.7c0.1,1-0.3,1.9-1.6,1.3c-0.7-4.3,0-8.5-1.7-12.7
			C333.9,109.7,332.4,106.1,330.3,102.7L330.3,102.7z M228.3,232.4c0.5,1.2,1,2.4,1.1,3.4c0.2,3.1,3.3,5.4,6.2,5.6
			c1.3-4.4,1.8-9.2,1.3-14c-0.1-4.6-0.4-8.7-0.7-12.8c-0.1-2.1-0.1-4.6-0.2-6.6l-0.6,0.2c0,9.5-0.4,18.9-1.3,28.5
			c-0.9-7.4,0.4-14.3,0-21.5c-0.5-7.2,2.8-13.9,2.3-21.1c-1.1,1.5-2,3.7-2.7,5.4c-2.3,5.5-2.3,11.5-2.7,17.4
			C230.1,222.1,230.8,227.5,228.3,232.4c-0.1-4.6,1.2-9,0.5-13.3c-0.7,1.7-1.8,3.2-2.1,5.1c-0.2,2.9-0.7,5.2-1.3,8
			c-0.7,1.7-0.8,3.2-2.4,4.5c2.3-11.6,6.3-22.4,8-34.7c-1,1.1-1.1,1.5-1.3,2c-1.7,5.3-3.6,11-4.9,16.5c-1.2,6.5-1.8,12.8-6.2,18.5
			c0,0-0.2,0.4,0.5,1.2c1-0.1,2.4-1,3.4-1.1C226,237.9,228.1,236.3,228.3,232.4L228.3,232.4z M289.5,176.8c-0.3-0.6-0.5-1.2-1.8-1.7
			c1,5.9,2.2,11.4,4.8,16c-0.4-2.7-1.4-5.1-1.6-8.2c1.1,3.4,2.1,6.9,3.2,10.3c0.9,1.4,1.2,3,2.2,4.4c3.3-3.1,0.4-5.8,0.2-8.9
			c1.5,1.1,0.8,2.8,2.3,4c1.1-1.5,0.6-2.7,0.3-4.4c1.6-0.3,2-1.2,2.1-2.6c-0.1-1-0.6-2.2-1.1-3.4c-2-4.8-4-9.7-6-14.5
			c-0.9-1.4-1.2-3-2.3-4c0.6,2.2,0.7,4.3,1.5,6.1c-2.7-6.7-3.7-14-6-21.5c-0.5,1.3-0.3,1.9,0,2.5c-0.2,0.4-0.1,1.5-0.1,1.5
			c-1.6,0.3-1.1,1.5-1.1,2.6C286.6,162.1,287.5,169.5,289.5,176.8L289.5,176.8z M208.9,170.8c2.1,0.9,3.7,2,5,3.6
			c4.1,4.7,9.5,6,14.8,7.7c0.4,0.2,1.3,0.5,2.5,0c-10.4-3.8-17.6-11.8-27.2-16.4c0.1-1.4-0.6-2.2-2-2.3c0,0-0.4-0.2-0.6,0.2
			c-0.4,0.9-3.1,3.7-4.1,3.8c-0.6,0.3-0.6,0.3-0.6,0.3c-4.2,1.7-7.9,8.2-6.8,12.7c0.2,0.6,1.3,0.5,1.7,0.7c3.5,0,6.5,1.2,9.5,2.4
			c6.6,3.3,13.9,3.8,20.9,5.2c1-0.1,1.9,0.3,2.7-0.4c-1.1-1-1.7-0.7-2.7-0.6c-3.8-0.6-7.4-1.6-10.8-3c-5.1-2.1-10.4-3.8-15.7-5.5
			c-1.3-0.5-2.7,0.4-4.2-0.7c0.7-1.7,2-1.2,3-1.3c5.5,1.3,10,3.7,15.1,5.8c4.7,2,9.6,3.5,14.5,3.5c0.8,0.4,1.3,0.5,1.6-0.3
			c-10.4-3.8-19.9-9.8-30-14.5c5.8,0.4,9.3,5.4,14.7,5.6c-3.1-3.3-7.6-4.7-10.9-7.5c0.8-0.7,1.6-0.3,2.5,0c2.4,1.5,4.6,3.4,7.4,5.1
			c4.8,3,8.6,7.1,13.9,8.8c4.4,1.4,8.3,0.5,13-0.1c-1.3-0.5-1.7-0.7-2.3-0.5c-1.6,1.3-3.3,0.6-4.5,0.1c-0.9-0.4-1.7-0.7-2.6-1.1
			c-3.4-1.4-7.2-2-9.6-4.5c-2.6-2.1-4.8-4-7-5.9C209.6,171.6,209.1,171.4,208.9,170.8L208.9,170.8z M320.9,343
			c1.1,1,1.4,1.6,1.8,2.8c1.7,3.2,2.9,6.2,4.6,9.4c0.4,0.2,0.4,0.2,0.4,0.2c6.4-0.9,10.5-4.7,14.7-8.9c0.4-0.9,0.5-1.3,0-2.5
			c-2.5-3.6-5.5-7.3-8.8-10.2c-4.2-4.3-9.6-7-14.8-10.2c-1.3-0.5-2.3-0.5-3.3,0.6c2,1.3,3.9,2.6,5.9,4c2,1.3,3.7,3,5.7,4.4
			c2.9,2.7,4,3.7,4.3,5.3c-9.3-8.9-16.7-14-20.2-12.9c4.4,3.8,8,8.3,12.1,13c3.6,4.5,6.3,10.1,7.5,15.6c-1.3-0.5-1.8-1.7-1.8-2.8
			c-0.3-1.6-0.8-2.8-1.6-4.7c-4.3-7.8-10.5-14.4-16.4-20.8c-0.9-0.4-1.5-1.1-2.9-0.2c4.4,3.8,7.6,8.2,10.2,12.8
			c1.2,2,2.7,3.1,2.2,5.4c-0.7-0.8-0.9-1.4-1.2-2c-2.8-5.2-6.3-10.1-10.1-14.2c-0.3-0.6-0.5-1.2-1.5-1.1c0.1,1,0.5,1.2,0.7,1.8
			c2.5,2.5,4.1,5.7,5.8,8.9c3.2,4.3,5.3,10.2,7.7,15.2c0.3,1.6,1.2,3,2.9,3.7c0.4-0.8-0.5-1.2-0.1-2.1
			C323.8,350.3,322.3,346.7,320.9,343L320.9,343z M246.6,155.9c-1.3,2-2,3.7-2.7,5.4c-0.5,1.3-1.3,2-2.5,2.4c-3,1.2-5.9,2.1-9.6,2.5
			c-4.1,0.3-6.7-0.8-8.6-4.6l-0.4-0.2c-2.1,2.6-4.7,4-8,4.7c0.3,0.6,0.1,1,0.5,1.2c3.4,3.9,6.9,7.4,11.7,10.4
			c5.2,3.2,10.8,3,16.5,2.4c3.3-0.6,4.6-2.6,4.4-5.7c-0.3-1.6,0-3.5-0.4-5.2c-0.1-1,0.1-1.5,0.5-2.3c2.8-4.3,6.5-7.3,11.5-7.2
			c2.1-0.1,2.9-0.8,3.6-2.5c2.9-5.8,6.1-11,8.6-17c3.4-8.1,8.2-16.1,12-24c3.1-6.2,5.8-12.6,7.2-19.6c0.9-4.6,2.3-9.1,3.6-13.5
			c0.5-2.3,1.2-4,1.2-6.5c-0.6,0.3-0.8,0.7-1.6,1.4c-1.7,2.8-4.2,5.3-6.1,7.5c-5.2,5.3-10.7,10.1-15.9,15.4
			c-4.6,5.1-10.2,8.8-16.1,12.3c-2.8,1.9-5.4,3.3-5.8,6.6c-0.5,2.3-1.1,5-1.4,6.9c0.2,3.1,0.2,5.6,1,8.4c1.3,4.1,3.1,8.3,5,12.1
			c2.1,3.4-0.8,9.2-4.8,9C248.9,156.4,248.1,156,246.6,155.9L246.6,155.9z M337.3,320.4c3.5,0,6.1,2.1,9.8,3.1
			c-0.1-2.1-1.5-3.6-2.8-4.2c-4.4-1.3-9.1-2.3-13.1-3.4c-1.3-0.5-2.3-0.5-2.8,0.8c2.2,1.9,5.3,1.7,7.5,3.6c-2.1,0.1-3.2-0.8-5.1-1.1
			c-1.3-0.5-3.1-2.3-4.6-0.9c2.1,0.9,4.7,2,7.1,3.4c2,1.3,4.5,2.4,6.5,3.7c5.2,3.2,5.2,3.2,5.9,5c-2.4-1.5-4.8-3-7.1-4.5
			c-3.5-2.5-7.6-4.7-12-6c-1.3-0.5-2.7-0.6-3.9,0.9c0.2,0.6,1.3,0.5,1.5,1.1c0.4,0.2,0.8,0.4,0.9,1.4c-1.9-0.3-3.5-3.5-6.2-0.6
			c9.5,6,19.2,11.5,24.9,21.9c1.7-2.8,1.8-3.2,2-4.7c-5-6.1-11.1-10.6-17.8-14.9c6.9,3.9,12.8,7.8,18.5,13.2c1.3-2,1.1-2.6-0.5-3.7
			c-1.8-1.7-4-3.7-6.4-5.1c-3.2-1.9-6.3-4.1-9.3-6.4l0.2-0.4c5.7,4.4,11.9,7.5,17.4,12.3c0.8-3.2,0.9-5.7,0.9-8.1
			c-0.3-0.6-0.5-1.2-1.3-1.6c-2.4-1.5-5.4-2.7-7.9-3.8C338.6,320.9,337.6,321,337.3,320.4L337.3,320.4z M378.2,91.1
			c1.8-0.7,2.1-2.6,2.4-4.5c0.1-1.5,0.2-2.9-0.5-4.7c-0.9-1.4-2.4-1.5-3.4-1.4c-1.3-0.5-2.1-0.9-3-1.2c-5.4-2.7-10.6-3.4-16.4-2.8
			c-6.8,0.7-13.4,0.9-20.1,0.1c-0.6,0.3-1.5-0.1-1.8,0.7c0.4,0.2,0.7,0.8,1.3,0.5c5,1.1,10.1,2.2,15.1,2.3
			c8.1,0.9,16.1,2.2,23.4,6.3c1.1,1,2.4,1.5,1.5,3.6c-6.9-7.4-16.3-7.8-26-8.3c9.4,3.9,19.3,6.5,27.4,12.4
			C379,92.9,378.3,92.2,378.2,91.1L378.2,91.1z M195.2,95.5c-1.7,2.8-3.8,5.4-3.6,8.5c0.2,3.1-0.9,4.6-3.5,6
			c-2.6,1.4-4.9,3.4-5.1,7.4c4.5-1.1,9.2-1.7,13.5-2.4c4.5-1.1,9.3,0.4,13.7-0.3c-7.2-2-14.9-2.7-22.5-1.3c1.8-0.8,3.4-2.1,5.4-2.2
			c4.4,0.3,8.5,0,13.1,1c2.1,0.9,5.1,1.1,8,1.3c-7.3-3-14.5-3.5-21.7-5.6c3.3-0.6,6,0,8.7,0.6c6.1,1,7.8,1.7,9,1.2
			c-4.6-3.4-10.2-4.3-15.2-6.8c2.7-0.4,5.5,1.3,8.8,1.7c-2.7-3.1-5.7-4.4-9.5-6c2.4-1,3.5,0,4.8,0.5c2.8,1.7,5.4,3.8,8.5,6
			c2.2,1.9,4.8,3,7.5,3.6C208.6,104.1,203.1,98.3,195.2,95.5L195.2,95.5z M241.8,200c0.1,1,0.1,2.1,0.2,3.1
			c-0.2,5.4,1,10.9,1.7,16.2c1,5.9,2.3,12.5,2.1,18.9c-0.2,0.4-0.1,1.5-0.9,2.1c-0.3-0.6-0.3-0.6-0.1-1c0.5-4.8,0-9.5-1-14.4
			c-1.7-9.2-3.8-18.6-2.6-28.6c0.4-0.9,0.1-1.5-0.6-2.2c-0.5,1.3-0.6,2.7-1.2,4c-1.3,8-0.6,15.8,0.6,23.8c1,5.9,2.5,12,1.9,18.3
			c-0.4,0.8-0.5,1.3-0.3,1.9c1.3,0.5,1.9,0.3,2.9,0.2c2.7-0.4,3.6-1.5,4.3-4.2c0.1-5,0.1-10-1-14.4c-1.4-5.1-2.5-9.6-3.9-14.6
			C243.2,206.1,243,203,241.8,200L241.8,200z M292.9,198.7c-1.5-6.1-4.1-11.7-5.6-17.8c-0.4,0.9-0.1,1.5,0.2,2.1
			c0.3,4.1,1.6,8.2,2.3,12.5c0.5,1.2,0.8,2.8-0.5,4.8c-0.9-9.9-4-19.2-5.1-28.7c-0.3,5.4,1.1,10.5,1.5,15.6c0.4,5.2,1.9,9.8,1.2,15
			c-1.8-11.3-3.2-22.4-4.8-34.1c-0.7,1.7-1,3.6-0.8,5.7c-0.3,1.9-0.1,3.9-0.2,6.4c0.9,6.4,0.2,12.6,1.5,19.2
			c0.3,0.6,0.5,1.2-0.5,2.3c-0.6-2.2-0.5-4.7-1.1-7c-0.8,0.7-0.8,0.7-0.5,1.3c-0.5,1.3-0.6,2.7-0.7,4.2c0,3.5,0.5,3.7,3.8,4.1
			c3.3,0.4,7.3,0.5,10.4-2.2c1.2-0.5,2.2-1.6,1.8-3.2c-0.7-1.8-1.1-3.5-2.4-5C293.2,195.4,294.6,197,292.9,198.7L292.9,198.7z
			 M200.9,93.9c8.2,4.4,15.3,11.4,24.7,15.3c-1.2-2-2.7-3.1-4.8-4c-1.7-0.7-3.2-1.8-4.6-3.4c-0.9-1.4-1.6-2.2-3.3-2.9
			c-2.6-1.1-4.4-3.8-7.4-5.1c0.2-0.4,0.4-0.9,0.4-0.9c2.7,0.6,4.6,3.4,7.1,4.5c0.4-0.9-0.5-1.2-0.3-1.6c1.7,0.7,3.1,2.3,4.6,3.4
			c0.7,0.8,2,1.3,0.8,2.8c1.2,2,3.1,2.3,4.8,3c0.5-1.3-0.3-1.6-0.7-1.8c-1.4-1.6-1.9-2.8-2.8-4.2c-1.9-3.8-3.8-7.6-6.4-11.2
			c-0.7-0.8-1.4-1.6-2.4-1.5c-1.8,1.8-1.2,4-2.1,6.2c-1.9-0.3-3.7-2-6.1-1c-1.8,0.7-3.9,0.9-5.6,2.7c2,1.3,4.3,1.8,5.6,3.3
			c6.1,4.5,12.2,9.1,18.7,12.8c4.5,2.4,9,3.7,13.3,4C221.2,111.3,211,102.1,200.9,93.9L200.9,93.9z M211.6,236.5
			c-0.5-1.2-0.3-1.6,0.1-1.5c2.9-3.3,4.9-7,6.9-10.6c2.8-4.3,5.4-9.3,7.1-14.6c1.6-3.8,2.6-7.4,4-10.8c0.7-1.7,2.3-3.1,2.1-5.1
			c-1.7,2.8-3.8,5.4-5,8.4c-2.4,4.5-3.7,9-6.1,13.5c-3.3,6.7-6.5,14.3-12.7,19.7c2.6,2.1,5.6,3.3,8.4,4c6.2-6.4,6.6-14.7,8-22.7
			C220,223.5,216.6,230.5,211.6,236.5L211.6,236.5z M309.1,206.5c-0.2,0.4-0.4,0.9-0.4,0.9c0.1,4.5,1,8.4,1.7,12.7
			c0.3,4.1,0.8,7.8,0.6,11.8c-0.4,0.9-0.3,1.9-1.7,1.8c1.3-5.5,1.1-11.1-0.3-16.1c-0.4-0.2-0.4-0.2-0.9-0.4
			c-0.2,5.4-1.1,11-1.8,16.3c-1.2,0.5-1.9-0.3-1.5-1.1c0.4-0.8,0.5-1.3,0.9-2.1c1.6-7.4,1.9-14.2,2-21.7c-0.3-1.6,0.2-2.9-1.1-4.5
			c-1.3,2-0.7,4.2-1,6.1c-0.1,7.5-0.2,14.9-2.2,22.1c-0.4,0.9,0.1,2.1,1.2,2c0.9,0.4,1.3,0.5,1.7,0.7c4.3,1.8,8.8-1.8,8.5-6
			c-0.3-7.6-2.9-14.7-4.6-21.4C310,206.9,309.6,206.7,309.1,206.5L309.1,206.5z M285.6,120.1c-6.6,12.3-12.5,25.3-20.4,37
			c0.9,0.4,1.5,0.1,2.1-0.1c3.2-1.7,6-3.5,8.1-6.1c1.9-2.2,3.7-4,4.7-6.6C282.8,136.5,283.8,127.9,285.6,120.1L285.6,120.1z
			 M232.1,119.9c0,0,0,0-0.4-0.2c-2.2,0.6-3.9,0.9-6.1,1.5c-10.8,2-20.6,7.4-28.6,14.6c-0.8,0.7-2,1.2-2.6,1.4
			c-1.5-0.1-2.7,0.4-3,2.3c0.2,0.6-0.5,1.3-0.5,2.3c-0.9,2.1-0.6,3.8,0.2,5.6c9.4-4.6,15.3-12.7,23.8-18.6c-3,1.2-5.8,3.1-8.1,5.1
			c-4.2,2.8-7.2,6.5-11.2,8.9c-1.4,0.9-2.2,1.6-3.8,1.9c-0.3-1.6,0.7-1.7,1.5-2.4c2-1.2,4-2.3,5.6-3.7c4.9-3.4,8.8-7.9,14.6-11
			c4.6-2.6,9.2-5.2,14.9-5.8C229.5,121.3,231.2,121,232.1,119.9L232.1,119.9z M244,336.5c1.1-11.1,4.9-21.5,9-31.3
			c-7.2,9-14.9,17.8-17.2,29.4C238.1,336.1,241.2,335.9,244,336.5L244,336.5z M203.8,222.7c0.1,1-1,1.1-0.9,2.1
			c0.2,0.6,0.9,1.4,2,1.3c1.8-0.7,2.5-2.5,4.1-3.8c3.7-4,7.3-8,9-13.3c0.4-0.9,0.7-1.7,1.3-2c3.8-5.4,8-10.7,11.9-16.6
			c-0.2,0.4-0.6,0.2-0.8,0.7c-4.3,4.2-7.9,8.2-12.2,12.4c-4,4.8-8,9.7-13.3,14c-2.2,1.6-4.2,2.8-6.8,4.2c0.9,1.4,1.8,1.7,3.1,2.3
			C202.4,223.6,202.3,222.6,203.8,222.7L203.8,222.7z M313.3,128.1c-0.8-2.8,0.1-5,0.3-7.9c0.4-3.3,0.3-6.9,2.2-10.1
			c0.5-1.3,1.2-3,1.8-4.3c1.9-5.7,3.1-12.2,4.1-18.3c0.1-1.5,0.5-2.3,0-3.5c-0.6,0.2-0.4,0.9-0.5,1.3c-0.8,3.2-1.2,6.5-3.1,9.7
			c-2.2,4.1-4,8.4-5.8,12.6c-2.1,5.1-4.3,10.2-4.3,16.2C308,127.5,309.6,128.6,313.3,128.1L313.3,128.1z M339.1,312.6
			c1.4-0.9,2.2-0.6,3.1-0.2c4.4,0.3,4.8,0.5,5.7-4.1c1-3.6-0.9-6.4-4.6-6.9l-0.4-0.2c-3.3-0.4-3.9-0.1-4.3,3.2
			c0.7,0.8,2.1-0.2,2.6,1.1c-1.2,0.5-2.3-0.5-3.1,0.2c-0.8,0.7-1.3,2-1.2,3c0.4,0.2,1.3,0.5,2.1,0.9c-3.5,0-6.3,1.9-7.3,5.5
			c3,1.2,5.9,1.5,9.1,2.3c1.5,0.1,4.2-1.7,4.9-3.4C343.7,313.5,341.4,313,339.1,312.6L339.1,312.6z M341.4,181.9
			c7.4,1.6,14.7,3.1,22.5,2.4c0.1-1.5,0.2-2.9-1.3-3c-2.5,0-5.5-1.3-8.1-0.9c-4.1,0.3-8.1,0.1-12,0c-2.9-0.2-5.6,0.2-8.2,1.6
			c10.3,2.8,20.1,5.9,30.6,8.2c0.5-2.3,0.2-2.9-0.1-4.6C356.6,185.2,348.8,184.5,341.4,181.9L341.4,181.9z M331.6,84.2
			c1.8,1.7,3.4,3.9,5.3,5.2c7,4.9,14.1,9.4,20.9,14.7c3.3,2.9,6.2,5.6,8.5,9.6c-0.8,0.7-1.7-0.7-2.1,0.1c-0.5,1.3,0.6,2.2-0.4,3.3
			c1.2-0.5,2.4-1,3.4-2.1c0.6-0.2,1-1.1,0.3-1.9c-3-4.8-6.1-9.5-11.4-12.3c-0.4-0.2-1.3-0.5-1.5-1.1c6.6,2.2,9.7,8,14.2,12.9
			c0.5-2.3,0.2-2.9-0.7-4.3c-4.1-4.7-8.5-9.6-14.3-12.5C346.2,92.3,338.9,88.3,331.6,84.2L331.6,84.2z M240.4,119.3
			c-3.3,0.6-6,2.5-8.9,3.3c-4.9,1-9.3,3.1-13.5,5.9c-3.7,2.9-8.7,5.4-11.8,9.1c-2.7,2.9-5.6,5.2-9.2,7.7c-2,1.2-3.6,2.5-5.1,3.9
			c0.1,1,0.8,1.8,1.6,2.2c1.6-0.3,3-1.2,4.4-2.2c5.1-3.9,10-8.3,14.7-12.4c6.6-6.2,14.3-11.6,22.8-15
			C236.5,121.2,238.6,121.1,240.4,119.3L240.4,119.3z M234.7,333.7c1.7-5.3,3.6-10,6.6-14.8c2.4-4.5,6.7-7.7,8.9-12.8
			c-6.6,6.3-13,13.1-17,21.5c-0.5-1.2-0.6-2.2,0-2.5c1.1-1.5,1.9-3.2,2.8-4.3c4.3-6.7,9.7-12.5,15.5-18c1.1-1.5,3.1-2.7,3.6-5
			c-0.6,0.2-0.8,0.7-1.4,0.9c-6.3,5.4-12.7,11.2-18,18c-1.9,2.2-4.3,4.2-3.8,7.9c-0.1,1.4,0.2,3.1,0.5,4.7
			C232.4,330.7,233.1,332.5,234.7,333.7L234.7,333.7z M271.6,193.4c1.7-5.3,3-10.8,5.1-15.9c1.7-5.3,2-10.7,1.8-16.3
			c-1.4,3.4-2.7,6.4-3.7,10c-1.6,6.3-2.7,12.4-5.1,18.4c-0.7,1.7-0.6,3.8,0.3,5.2c1.4,1.6,2.3,3,3.5,4.9c0.7,0.8,1.4,1.6,2.6,1.1
			c0-6,0.4-11.8,0.4-17.8C274.2,185.9,273.4,190.1,271.6,193.4L271.6,193.4z M306.9,273.2c11.8,5.4,24.3,10.1,32.7,21.1
			c1.1-2.6,1.3-4.5,1-6.1c0.2-0.4-0.1-1-0.5-1.2c-5.9-5-12-9.5-19.4-11.1C316.2,275,311.9,273.2,306.9,273.2L306.9,273.2z
			 M252.6,293.1c-4,1.3-8.2,0.6-12.4,0.9c-4.5,0.1-9.4-1.4-14.4-1.5c-4.1,0.3-8.1,0.1-11.2,2.8c0.3,1.6,0.6,3.3,1.6,4.7
			c1.4,2.6,2.3,2.9,4.6,0.9c0.4,0.2,0.6-0.2,1-0.1c3.9-0.9,7.7-2.8,11.6-2.7c1.6-0.3,1.6-0.3,3-1.2c-6.6,0.3-13.2,0.5-19.9,3.2
			c1.1-1.5,1.1-1.5,1.7-1.8c6-2.5,12.6-2.7,19.1-2.6C242.6,295.4,247.6,295.5,252.6,293.1L252.6,293.1z M336.2,178.7
			c8.6,1.1,17.4,0.3,25.6,1.1c0.2-0.4-0.1-1-0.5-1.2c-1.9-2.8-4.1-4.7-6.5-7.2c-1.5-1.1-2.4-1.5-4-1.2c-3.9,0.9-7.1,2.6-11,3.5
			c-1,0.1-1.4,0.9-0.9,2.1c3.2,0.8,6.4,0.2,9.3-0.6c3.3-0.6,6.4,0.2,9.4,0.4c1.3,0.5,1.1,0.9,0.3,1.6c-3.4-1.4-6.8-1.8-10-1.2
			c-3.7,0.5-7.3,2-10.8,2C337,178.1,336.8,178.5,336.2,178.7L336.2,178.7z M242.2,292.8c-8.4-2.5-17.4-2.7-26.2-1.9
			c2.2-1.6,4.5-1.1,6.5-1.3c6.4-0.9,12.3,0.6,18.5,1.2c1.9,0.3,3.3,0.4,5,0.1c-2.3-0.5-4-1.2-6.3-1.6c-1.3-0.5-3-1.2-4.6-0.9
			c-4.1,0.3-8.3-0.5-12.3-0.6c-0.4-0.2-0.4-0.2-0.9-0.4c-0.6,0.2-0.4-0.2-0.9-0.4c4.1-0.3,8.2,0.9,12.6-0.3
			c-5.6-3.3-11.4-2.7-17-2.6c-1,0.1-1.8,0.7-2,1.2c-0.6,2.7-0.3,5.4-0.7,7.7c0.4,0.2,0.9,0.4,1-0.1c6-2.5,12.7-1.7,19.2-0.5
			C236.6,292.9,239.5,293.1,242.2,292.8L242.2,292.8z M261.9,297c-0.4-0.2-0.4-0.2-0.8-0.3c-0.2,0.4-0.8,0.7-1,1.1
			c-3.6,7.5-5.6,15.7-6.2,24.5c-0.4,3.3-0.8,6.7-1.8,10.3c0.4,0.2,0.4,0.2,0.9,0.4c0,0,0.4,0.2,1-0.1
			C259.3,321.4,259.9,309.1,261.9,297L261.9,297z M237.4,163.6c0.4,0.2,0.4,0.2,1-0.1c0,0,0.4,0.2,0.6-0.3c4.2-1.7,5.8-5.6,6.1-10
			c-0.1-4.6-0.2-9.1-0.8-13.8c-0.2-3.1-0.4-6.2,0.4-9.3c0.3-1.9,0.4-3.3,0.7-5.2c-2.7,2.9-3.5,6-3.5,9.6c-0.2,5.4-0.5,10.8-1.8,16.3
			C239.5,155,239.2,159.4,237.4,163.6L237.4,163.6z M260.2,338.3c4.6-17.1,5.1-19.4,3.7-22c-0.5,2.3-1,3.6-1.3,5.5
			c-0.3,1.9-1,3.6-1.3,5.5c-0.7,1.7-1,3.6-2.1,5.1c-0.7,1.7-0.4,3.3-2,4.7c-0.9-1.4,0-2.5,0.4-3.3c1.6-3.8,2.8-7.9,3.9-11.9
			c1.5-4.9,1-9.6,0.9-14.1c0.2-0.4-0.3-0.6-1.1-1c-1.6,9.8-2.8,19.9-7.3,29.5C255.4,337.8,257.9,337.9,260.2,338.3L260.2,338.3z
			 M336.2,94.7c6.5,7.2,12.7,15.3,19.9,21.8c-2.5,0-3.7-2-5.2-3.2c-1.5-1.1-2.1-3.4-4.8-4c0.5,1.2,1,2.4,1.8,2.8
			c1.5,1.1,2.5,2.5,2.8,4.2c0.8,1.8,1.7,3.2,4.3,2.8c1-0.1,2.5,0,4,0.1c1-0.1,2-0.1,3.4-1.1C354.8,108.9,345,102.3,336.2,94.7
			L336.2,94.7z M220.4,310.2c-0.5-1.2,0.7-1.7,1.3-1.9c4.1-1.3,7.4-3.4,11.6-3.7c3.3-0.6,6.9-2.1,10.1-3.8c2.8-0.8,5.3-1.8,7.4-3.4
			c-10.7,0.5-21,4.8-31.2,7.5c2.3-2,5.6-2.7,8.2-4.1c-2.1,0.1-4.1,0.3-5.7,1.6c-1,0.1-2.1,0.1-3,1.2c-1.9,3.2-2.1,5.1,1,8.4
			c1.6-0.3,2.6-1.4,3.1-2.7c0,0,0,0-0.4-0.2C221.8,309.3,221.7,310.7,220.4,310.2L220.4,310.2z M323.3,70.3c1-0.1,1.9,0.3,3,1.2
			c5.2,3.2,10.7,4.4,17.2,3.2c5.1-1.4,10.5-3.6,16.2-2.8c4,0.2,8.1-0.1,11.9,1.5c1.7,0.7,3.4,1.4,5,1.1c0.5-1.3,0.9-2.1,0-3.5
			c-1.5-0.1-2.7-0.6-4-1.2c-1.3-0.5-2.3-0.5-3.3-0.4c-1.6,0.3-3.5,0-5.4-0.2c-2.9-0.2-5.8-0.4-8.4,1c-5.6,2.7-12,3.5-18,3.5
			c-1,0.1-1.6,0.3-2.3-0.5c-0.4-0.2,0.4-0.9-0.5-1.2c-4-0.1-8.6-1.1-12.3-4.1C322.2,69.3,323.1,69.7,323.3,70.3L323.3,70.3z
			 M346.3,124.4c-2.4-7.5-4.5-14.4-7.9-20.8c-2.1-3.4-10.7-17.5-11.8-18.4c0.3,1.6,0.8,2.8,1.3,4.1c4.3,7.8,8.1,15.4,11.3,23.2
			c1.5,3.6,3.2,6.8,2.6,10.6c0.1,1,0,2.5,0.7,3.3C344.2,126,345.4,125.5,346.3,124.4L346.3,124.4z M312.5,270.5
			c4.6,0.9,9.2,1.9,14,2.4c4.2,0.7,8.6,1.1,12.7,3.3c0.4,0.2,1.3,0.5,1.9,0.3c0.9-2.1,0.9-4.6,0.8-6.7c-5.3-1.7-24-2.5-28-1.2
			c1.5,0.1,2.7,0.6,4.2,0.8c6,0,12,0,18.1,1c1.5,0.1,3.3,0.4,4.3,2.8C331.5,269.4,321.9,270.9,312.5,270.5L312.5,270.5z
			 M225.7,131.7c-0.4-0.2-0.4-0.2-0.4-0.2c-10.5,7.1-17.6,18.2-27.6,25.5c0.1,1,0.5,1.2,1.5,1.1c2.4-1,5.4-2.2,7.2-4
			c3.5-3.6,6.8-6.7,9.7-10C219.6,140.2,222.4,135.9,225.7,131.7L225.7,131.7z M291.2,216c-0.2-2.1,0.9-4.6,0.3-6.9
			c-2.8,1.9-3.8,4.4-3.2,7.7c0.1,1,0.3,1.6,0.4,2.7c0.6,3.3,3,4.8,5.1,7.1c1.4-5.9,2.3-11.6,2.9-17.8c0.3-1.9-0.4-2.7-2-2.3
			C293.1,207.8,291.9,211.8,291.2,216L291.2,216z M260.5,228.3c3-1.2,3.9-3.4,3.3-5.6c-2.6-4.6-4.8-9-8.9-12.2
			c-1.1-1-1.8-1.7-2.5-2.5c-3.9-5.1-6.4-11.2-7-18c-0.1-1,0.5-2.3-0.5-3.7c-0.2,0.4-0.2,0.4-0.4,0.8c-0.4,5.8,0.6,11.8,3.4,17
			c1.2,3,3.5,6,5.8,8.9c1.9,3.8,4.4,7.3,5.6,11.8C259.9,226.1,259.4,227.3,260.5,228.3L260.5,228.3z M235.6,131.8
			c-1.8,0.8-2.3,2-3,3.7c-4.6,6.1-9.1,12.2-12.8,18.7c-1.7,2.8-3.8,5.4-6.3,7.9c-0.2,0.4-1,1.1-0.3,1.9c0.2,0.6,1.1,1,1.7,0.7
			c2.8-0.8,5.3-1.8,6.5-4.8c0.4-0.9,0.9-2.1,1.7-2.8c1.7-2.8,2.9-5.8,3.6-8.5c1.4-4.5,3.2-7.7,5.6-11.2
			C233.6,135.5,234.5,133.4,235.6,131.8L235.6,131.8z M265.9,303.1l-0.4-0.2c0.1,2.1,0,3.5,0.3,5.2c1.2,8,2.4,16,0.6,23.8
			c-0.1,1.5-0.9,2.1-2.3,3.1c2-4.7,1.9-9.3,1.7-13.8c-1.7,5.3-2.1,11.1-3.8,16.4c5.3-1.8,7.3-5.5,8-10.7c0.6-0.2,0.6-0.2,1-0.1
			c2.7-0.4,3.8-1.9,2.4-4.5c-0.7-1.8-2.5-2.5-3.2-4.3c0.2,3.1,1.2,5.5,1.6,8.2c-1.5-1.1-1.6-2.2-2.1-3.4c-0.7-4.3-1.2-9-2.4-13.5
			C266.8,307,266.5,305.4,265.9,303.1L265.9,303.1z M304.1,325.6c5.4,9.8,11.3,19.7,14.3,30.5c1-0.1,2.5,0,3.9,0.1
			c-0.3-0.6-0.3-0.6-0.1-1c-2.5-6-4.5-11.9-8.1-17.9c-2.1-3.4-4.6-6.9-7.2-10.5C306.4,326,305.7,324.2,304.1,325.6L304.1,325.6z
			 M252.7,235.1c0.5-10.8-4.7-20-8.1-29.9c1.2,11.5,7.3,22.1,5.3,34.2c2.2-0.6,3.8-1.9,5.4-3.3c-0.3-4.1-0.1-8.1-1.5-12.1
			c-1.5-3.6-2.2-7.9-4.3-11.3c-0.4,0.9-0.1,1.5,0,2.5c1.3,4,3.2,7.9,3.5,12C253.4,229.8,254.4,232.3,252.7,235.1L252.7,235.1z
			 M212.1,85c0.7,0.8,1.5,1.1,2,2.3c1.9,3.8,4.3,7.8,6.6,11.8c1.9,3.8,5.2,6.7,8.7,9.1c-2.5-3.6-5.1-7.1-6.4-11.2
			c-0.8-2.8-1.2-5.5-1.6-8.2c0.1-1.5-0.2-3.1-1.3-4C218.6,83.7,214.3,83.4,212.1,85L212.1,85z M189.5,199.2c-0.3-0.6-0.3-0.6-0.1-1
			c6.2-2.9,13.2-4,19.6-4.9c-2.9-0.2-5.8-0.4-9.2-0.8c-3.1,0.2-6.1,1.5-9.2,1.7c-0.4-0.2-1,0.1-1.4,0.9c-1.7,2.8-2.5,6-1,9.6
			c5.3-4.3,11.6-6.2,17.8-9.1C200,194.6,194.8,197.4,189.5,199.2L189.5,199.2z M226.1,128.4c-1.6,0.3-3,1.3-4.6,2.6
			c-4.9,3.4-9.5,7.1-13.7,11.3c-3.9,3.4-7.1,7.5-12.2,10c-0.6,0.2-1.2,0.5-1,1.1c0.5,1.2,1,2.4,2.9,2.7
			C207.7,147.2,215.7,136.5,226.1,128.4L226.1,128.4z M318.9,84.5c-0.6,0.2-0.8,0.7-1,1.1c-3.1,6.2-6.6,12.3-10.1,18.3
			c-2.4,4.5-4.8,9-5.7,13.7c-0.5,2.3,0.4,5.2,2.5,6c-0.6-3.3,1-6.1,1.7-8.8c1.9-5.7,4-10.8,7.2-16C316.3,94.4,318.3,89.7,318.9,84.5
			L318.9,84.5z M306.8,271.1c11.8,2.9,23.9,5,33.5,14.5c-1.8-2.8-1-4.9-0.3-7.6c-2-1.3-4.3-1.8-6.8-2.8c-2.6-1.1-6.1-1-9-1.2
			C318.2,272.4,312.6,271.5,306.8,271.1L306.8,271.1z M370.7,108c2.1-2.6,1.8-3.2-0.8-5.3c-0.4-0.2-0.4-0.2-0.9-0.4
			c-4.2-4.3-9.6-7-15-9.7c-5.8-2.9-11.8-5.4-17.6-8.3c-1.3-0.5-2.4-1.5-3.7-2c0.5,1.2,0.9,1.4,1.8,1.8c5,3.6,10.8,6.5,16.6,9.4
			c6.4,2.7,12.1,7,17,12.1C368.9,106.3,369.2,107.9,370.7,108L370.7,108z M307.6,166.8c-0.2,0.4-0.6,0.2-0.8,0.7
			c4.3,5.3,9,9.7,13.6,14.2c-1.2,0.5-1.1-0.9-2.3-0.5c1,2.4,3,3.7,4.9,5.1c2-1.2,4.3-0.7,5.6-2.7c-1.1-1-1.1-1-2-1.3
			c-0.6,0.2-1,0.1-1.7-0.7c-2.8-4.2-6.7-6.8-10.8-9c-0.7-0.8-1.5-1.1-1.8-1.7C311.5,168.4,309.8,167.7,307.6,166.8L307.6,166.8z
			 M233.8,138.6c-0.4-0.2-0.9-0.4-1,0.1c-1.5,2.4-3.2,5.2-4.4,8.2c-0.6,2.7-1.5,5.9-2.9,8.3c-2,3.7-1.6,3.8,0.7,7.8
			c1.8-0.7,1.8-0.7,2.5-2.4C231.7,153.2,231.4,145.6,233.8,138.6L233.8,138.6z M337.1,83c11.6,5.8,24.6,10.7,35.1,19.1
			c0.7-1.7-1.4-2.6-0.9-3.9c0.5-1.3-0.3-1.6-1.2-2c-2.2-1.9-4.7-2-6.7-3.3c-3-2.3-6.6-3.3-10.5-4.9c-3.6-1-7.2-2-10.4-3.8
			C340.8,83.6,339.3,82.4,337.1,83L337.1,83z M271.2,167.7c-1.2,0.5-1.6,1.4-2.3,2c-2.9,3.3-5.3,6.8-8.2,10.1
			c-2.3,3.1-4.7,6.5-5.9,10.6c-0.2,0.4-0.7,1.7,0.7,1.8c2-3.7,3.8-7.9,5.8-11.6c0.9,0.4,0.7,0.8,0.5,1.2c-1.7,2.8-3.1,6.2-4.8,9
			c-1.2,3-0.3,4.4,2.4,4C260.2,184.6,266.5,176.7,271.2,167.7L271.2,167.7z M363.6,194.7c-4.9-1.5-9.5-2.5-14.4-4l-0.2,0.4
			c2.1,0.9,4.1,2.2,6.2,3.1c1.9,1.3,4.3,1.8,6.6,3.3c-1.4,0.9-2.2,0.6-3.1,0.2c-6.9-3.9-13.4-7.6-20.4-11c-1.1-0.9-2.8-1.7-4.7-2
			c2,2.4,4.4,3.8,7.2,5.5c4.9,2.6,10.3,5.3,15.7,8C360.5,199.9,363.5,198.6,363.6,194.7L363.6,194.7z M275.7,163
			c-5.1,3.9-14.9,27.3-13.9,32.3c1.3,0.5,2.5,0,2.6-1.4c1.3-8,4.2-14.8,7.4-21.4C273,169.4,275.1,166.8,275.7,163L275.7,163z
			 M205.8,231.1c8.5-8.5,15.4-16.6,18.8-28.2c-1,0.1-1.4,0.9-1.6,1.3c-1.5,2.4-3.6,5-5.1,7.4c-2.5,6-6.3,10.4-11,14.4
			C205.4,227.4,205.3,228.8,205.8,231.1L205.8,231.1z M314.9,127.8c1.6-0.3,2-1.2,1.7-2.8c-0.4-2.7,0.1-5,0.7-7.7
			c1.6-6.3,2.6-13.4,5.7-19.7c0.9-2.1,0.5-4.8,0.1-7.5c-0.8,0.7-1,1.1-0.7,1.7c-1.9,5.7-2.3,11.6-5,16.9c-2,3.7-2.5,8.5-2.8,12.8
			C314.2,123.5,314.1,126,314.9,127.8L314.9,127.8z M324.8,97.9c-1,1.1-0.7,1.7-0.9,2.1c0,2.5-0.1,5-1,7.1
			c-1.5,5.9-2.9,11.8-3.3,17.6c-0.2,2.9,0.9,3.9,3.7,3.1c0.5-1.3-0.9-1.4-1-2.4c0.3-1.9,0.1-4,0.4-5.8c1.1-5.1,1.8-10.3,2.9-15.3
			C326,102.4,325.8,100.3,324.8,97.9L324.8,97.9z M325.7,188.4c8.7,9.1,19.5,15.6,29.8,23.4c1.1-1.5,1.1-2.6-0.6-3.3
			c-2.8-1.7-5.9-3.9-8.5-6c-5.7-4.4-11.6-8.3-17.2-12.7C328.3,189.4,327.2,188.5,325.7,188.4L325.7,188.4z M237.5,308.8
			c-4.4,2.2-7.7,5.3-12.6,6.3c1.3,1.6,3.1,2.3,4.4,1.3c5.4-2.2,10.2-5.3,13.8-10.3c0.6-0.3,0.8-0.7,0.4-0.9
			c-2.9,0.8-6.3,1.9-9.3,3.1c-2.8,0.8-5.9,2.1-8,4.7C230.1,312.2,233.4,310.1,237.5,308.8L237.5,308.8z M376.3,78.8
			c0.5-1.3,0.3-1.9-0.6-2.2c-2.6-1.1-5.4-2.7-8.5-3.6c-4.4-0.3-8.7-0.6-13.5-0.1c-2.7,0.4-5.1,1.4-7.7,2.8
			c5.2,0.7,10.3-0.7,15.3-0.6C366.6,75.8,371.5,77.3,376.3,78.8L376.3,78.8z M285.8,267.4c-0.4-0.2-0.6,0.2-0.6,0.2
			c2.4,5,6.2,9.1,10,13.2c4.9,5,10,9.7,15.1,14.3c1.4,1.6,2.8,1.7,4.9,1.5c-3.1-3.3-6.9-6.4-10.2-9.2c-3.7-3-7-5.9-10-9.7
			C291.4,274.2,288.9,270.7,285.8,267.4L285.8,267.4z M233.2,129.3c-0.8-0.4-1,0.1-1.6,0.3c-4.9,4.5-9.5,9.6-12.8,15.2
			c-3.2,5.2-7.2,10-12.4,12.9c-0.2,0.4-1,1.1-0.7,1.7c0.9,0.4,1.9,0.3,2.7-0.4c2.2-1.6,4.3-3.2,6.3-5.4c3.9-5.9,8.3-11.6,12.5-16.8
			C229.2,134.2,231.1,132,233.2,129.3L233.2,129.3z M328.6,295.7c-8.7-9.1-19.5-13.2-30.1-19.1c1.1,1,1.8,1.7,2.5,2.5
			c4.1,2.2,7.6,4.7,11.2,6.7c3.7,2,7.2,4.5,9.9,7.6C323.6,295.6,325.5,296.9,328.6,295.7L328.6,295.7z M246,336.4
			c0.5-2.3,2.4-4.5,2.8-6.8c0.7-7.7,3.3-15.1,5.9-22.6c-0.4-0.2-0.2-0.6,0.4-0.8c1.7-1.8,1.2-4,2.5-6
			C251.7,308.2,244,331.6,246,336.4L246,336.4z M247.9,121.5c-0.7,4.2-2.3,8-1.6,12.3c0.7,1.8,1.1,3.4,0.8,5.3
			c-0.3,1.9,0.6,3.3,1.1,4.5c2,2.3,2.4,5,2,8.4c0.2,0.6-0.3,1.9,0.4,2.7c3.2-1.7,3.8-4.4,2.2-7.6c-2.7-5.6-4.5-11.9-5.4-18.3
			C247.5,126.3,248.4,124.1,247.9,121.5L247.9,121.5z M241.1,129.6c-0.4,0.9-0.1,1.4-0.5,2.3c-1.1,5-3,9.7-3.7,15
			c0,3.5-0.4,6.9-0.7,10.2c-0.5,2.3-0.5,4.8-1.8,6.7c0,0-0.2,0.4,0.3,0.6c1.2-0.5,1.2-0.5,1.6-1.3c2.5-6,3.3-12.6,3.9-18.9
			C240.5,139.4,240.6,134.4,241.1,129.6L241.1,129.6z M212.2,161.6c7.5-8.4,13.5-17.9,18.8-27.2c-7.7,7.8-12.4,17.9-20.4,25
			C210.7,160.5,211.1,160.7,212.2,161.6L212.2,161.6z M376.4,95.4c-4.9-5-26.8-13.7-32.3-12.5c3.8,1.6,6.8,2.8,10.6,3.4
			c2.1-0.1,4.4,0.3,6.3,1.6c1.1,1,2.8,1.7,4.3,1.8c2.6,1.1,4.9,2.6,7.2,4.5c-3.5-2.5-7.1-3.4-11.1-4.6c0.7,0.8,1.1,1,1.5,1.1
			c3.3,2.9,7.9,2.8,10.4,6.3c0.7,0.8,1.9,0.3,1.6-1.3l0,0C375.4,95.5,376.1,96.2,376.4,95.4L376.4,95.4z M294.7,271.1
			c1.1,1,2,1.3,3.1,2.3c4.7,2,9.6,4.5,14.1,6.9c7.1,4.5,15.2,6.8,20.2,13.9c0.7,0.8,1.1,1,2.5,0c-0.9-1.4-2.3-2.9-3.8-4.1
			c-4.3-2.8-8.7-6.7-13.9-8.8C309.9,277.9,302.6,273.9,294.7,271.1L294.7,271.1z M216.4,117.8c0,0,0,0-0.3-0.6
			c-1,0.1-1.9-0.3-2.9-0.2c-4.8-0.5-10.5-1.4-15.2-0.8c-4.7,0.5-9.7,0.5-13.9,2.2c-2.4,1-2.6,1.4-2,3.7
			C193,117.6,204.8,117,216.4,117.8L216.4,117.8z M339.1,185c7.9,3.8,15.6,7,24,8.5c0.9,0.4,1.4,0.1,1.8-0.7
			c0.1-1.5-0.9-1.4-1.8-1.7c-4.2-0.7-8.5-2.5-12.9-3.9C346.7,186.1,343.1,185.1,339.1,185L339.1,185z M267.8,168.8
			c-6.3,4.4-11.9,10.5-15.2,17.2c-1.1,1.5-1.2,3,0.7,4.3C256.7,182.2,262.9,175.7,267.8,168.8L267.8,168.8z M303.7,151.2
			c2.1,0.9,3.9,2.6,6.4,2.7c6.7,0.8,12.8,2.8,19.2,5.5c0.8-0.7,2-1.2,2.5-2.4C322.9,153.2,312.9,153,303.7,151.2L303.7,151.2z
			 M284.2,321.7c1.6-3.8,1.6-7.4,0.2-11.4c-1.5,2.4-1.5,4.9-2.4,7c-0.4-2.7,0.3-5.4,1.6-7.4c0.7-1.7,1.6-3.8,0.8-5.7
			c-2.6,3.9-3.8,7.9-5.3,12.8C279.8,318.9,281.4,321.1,284.2,321.7L284.2,321.7z M301.7,165.4c1.6,4.7,3.5,8.5,6.4,12.2
			c4.1,4.7,8.1,9.4,9.6,9.5c-0.1-1-0.5-1.2-1.2-2c-1.3-1.6-3.3-2.9-3.6-4.5c-0.6-2.2-2.1-3.4-3.6-4.5c-0.9-1.4-2.3-3-3.4-3.9
			c-0.4-0.2-0.9-0.4-0.1-1c1.7,0.7,2.5,2.5,4.6,3.4c-0.3-1.6-1.4-2.6-2.1-3.4c-0.7-0.8-2-1.3-2-2.4
			C305.9,166.1,304,165.8,301.7,165.4L301.7,165.4z M341.2,106.7c2.2,5.4,3.6,10.5,5.9,16c1.6-1.4,1-3.6,3.2-4.2
			C349.6,115.3,343.5,107.2,341.2,106.7L341.2,106.7z M353.8,158.1c-1.2,0.5-1.8,0.7-2.6,1.4c-3.6,1.5-6.3,4.4-9.5,6
			c-1.2,0.5-1.4,0.9-0.5,2.3c4.1-1.3,8.3-3.1,11.8-5.6C355.1,161.1,355,160,353.8,158.1L353.8,158.1z M269.1,163.3
			c-2.8,0.8-5.6,2.7-8.2,4.1c-3.4,2.1-6.9,4.6-9.4,8.1c-1,1.1-0.9,2.1,0,3.5C256,171.9,264.1,169.2,269.1,163.3L269.1,163.3z
			 M355.4,207.2c0.4-0.9-0.1-1-0.1-1c-3.1-2.3-5.5-4.8-8.3-6.5c-4.5-2.4-8.9-5.2-12.8-8.8c-1.5-1.1-3.3-2.9-4.8-4
			c-0.7-0.8-1.5-1.1-2.7,0.4C336.6,193.4,345.2,201.5,355.4,207.2L355.4,207.2z M279.7,173.7c-0.2,0.4-0.6,0.2-0.6,0.2
			c-0.5,1.3-1.2,3-0.9,4.6c-0.8,5.6-1.3,11.5-1.1,17.1c-0.3,1.9,0,3.5-0.1,5c0.2,0.6,0.3,1.6,1.8,1.8
			C278.8,192.9,279.2,183.5,279.7,173.7L279.7,173.7z M339.7,172.7c1.8-0.7,4.3-0.7,6.3-1.9l0.6-0.3c0.3-1.9,1.9-2.2,3.1-2.7
			c1.2-0.5,3-1.2,4.4-2.2c1.6-0.3,1.6-1.4,0.8-3.2c-4.3,3.2-9.4,4.6-13.8,6.8C339.8,170.2,339.4,171.1,339.7,172.7L339.7,172.7z
			 M238.1,218.5c-0.3,1.9-0.1,3.9,0.2,5.6c0.4,5.2,0.7,10.3-1.4,15.4c-0.4,0.9-0.3,1.9,1.4,2.6c1.5,0.1,1.8-0.7,2.3-2
			c0.1-1.5,0.2-2.9,0.5-4.8c-0.7-4.3-1.9-8.8-2.4-13.5C238.7,220.7,238.2,219.5,238.1,218.5L238.1,218.5z M327.2,105.4
			c-1.8,3.2-3.2,19.7-2,21.7C328.1,118.8,328.8,107.6,327.2,105.4L327.2,105.4z M265.1,169.2c-3.9,0.9-9.5,6.1-12.9,10.6
			c-1.6,1.4-1.4,3.4-0.7,5.2C255,179,260.1,174.1,265.1,169.2L265.1,169.2z M291.1,307.6c-0.2,0.4-0.4,0.9-0.5,1.3
			c-1.2,4-1.3,7.9-1.6,12.3c-0.1,1.5,0.8,2.8,2.7,3.1c-0.1-4.6,0.8-9.2,1.1-13.5C292.7,309.8,292,309,291.1,307.6L291.1,307.6z
			 M338.7,94.7c7.1,7,15.2,12.8,22.9,19.6C355.4,106.2,347.5,99.9,338.7,94.7L338.7,94.7z M251.6,213.6c2.1,5.9,3.8,12.6,5,19.1
			c0,0,0,0,0.2-0.4c0.4-0.9,0.3-1.9,0.5-2.3c0.5-1.3,1.4-0.9,1.6-1.4C258.3,222.9,254.7,218.3,251.6,213.6L251.6,213.6z M304,282.5
			c1.4,1.6,3.1,3.3,5.1,4.6c4.3,2.8,8.1,5.9,11.8,8.9c0.7,0.8,1.5,1.1,2.3,0.5C318.6,289.5,310.9,286.3,304,282.5L304,282.5z
			 M223.4,313.9c1.4-0.9,2.5-2.5,3.9-3.4c1.4-0.9,2.5-2.5,3.6-2.5c5.1-1.4,9.9-3.4,14.5-6c0.4,0.2,1-0.1,0.8-0.7
			c-0.4-0.2-0.6,0.2-1,0.1c-5,2.4-10.3,3.2-15.4,5.6c-3.2,1.7-5.8,3.1-8.3,5.5C221.9,313.8,222.3,314,223.4,313.9L223.4,313.9z
			 M308.3,275.8c1.3,0.5,2.6,1.1,3.8,1.6c5.8,2.9,12,6,16.8,10c3.7,3.1,7.2,5.5,9.4,9.9c1-1.1,1-1.1,0.3-1.9c-2.5-3.5-5.4-6.3-8.3-9
			C323.9,281.7,316.4,278.1,308.3,275.8L308.3,275.8z M330.1,254.8c-4.8-4-10.6-0.9-15.6,5C320,258.6,324.1,254.8,330.1,254.8
			L330.1,254.8z M294,149.2c0.7,4.3,3.2,7.8,4.7,11.5c0.8,2.8,2.7,3.1,5.4,3.8C301.1,158.6,297.3,154.5,294,149.2L294,149.2z
			 M278.5,314.9c1.1-5,4.8-9,5-14.4c-1.3,2-2.9,3.3-4.2,5.3C276.5,309,276.2,311.9,278.5,314.9L278.5,314.9z M245.9,137.1
			c-0.3,5.4-0.3,10.4,0.5,15.7c0.1,1,1.2,2,2.8,1.7c-0.4-2.7,0.7-5.2-0.7-7.8C246.8,143.5,246,140.7,245.9,137.1L245.9,137.1z
			 M248,335.2c1.6-0.3,2.2-1.6,2.5-2.5c1-3.6,2-7.2,2-10.7c0-2.5,0.5-4.8,0.5-7.3C250.4,321.2,250,328,248,335.2L248,335.2z
			 M305.4,176.9c2.9,5.2,5.7,10.4,10.1,14.2c0.7-1.7,0.4-3.3-0.5-4.7c-2.2-1.9-4.6-3.4-6-6C308.1,179,307.2,177.6,305.4,176.9
			L305.4,176.9z M265.4,193.8c2.5,0,3.1-0.2,3.1-2.7c0.1-5,2-9.7,2.3-14C268.3,182,266.4,187.7,265.4,193.8L265.4,193.8z
			 M299.1,279.9c-0.1,1.5,0.7,1.8,1,2.4c5.5,4.8,11.8,8.9,17.1,14.1c0.7,0.8,1.3,0.5,2.1-0.1C313.3,290.3,305.5,286.1,299.1,279.9
			L299.1,279.9z M249.7,171.3c2.2-4.1,5.8-6.6,10.2-8.8c-3.2-0.8-5.2-0.7-7,1.1C251,165.8,249.1,168,249.7,171.3L249.7,171.3z
			 M357.4,200.1c-6.9-3.9-13.5-7.2-20-10.8c4.7,4.5,10.4,7.4,16.1,10.7C354.3,200.3,355.8,201.4,357.4,200.1L357.4,200.1z
			 M335.1,219.8c-0.3-4.1-7.8-17.3-12.6-20.3C326.7,206.3,330.5,212.9,335.1,219.8L335.1,219.8z M322.8,101.6
			c-2.9,3.3-5.8,18.6-4.3,21.2C319.4,115.7,321.9,108.7,322.8,101.6L322.8,101.6z M329.6,155c-0.9-1.4-0.6-3.3-2.5-3.6
			c-3.6-1-7.1-1-10.3,0.7C321,152.9,325.4,154.2,329.6,155L329.6,155z M306.5,279c1.4,1.6,3.1,2.3,5,3.6c6.4,2.7,12.9,6.4,18,12
			c0.2,0.6,0.9,1.4,1.7,0.7c-1.7-3.2-6.9-7.4-10.6-9.4c-3.8-1.6-7.7-3.2-11.2-5.6C308.8,279.4,307.3,279.3,306.5,279L306.5,279z
			 M308.7,200.3c-0.2-3.1-1.6-4.7-3-4.8c-0.5-3.7-0.5-3.7-2.2-4.4c0.2,3.1-0.8,5.7,1,8.4C306.1,201.8,306.5,201.9,308.7,200.3
			L308.7,200.3z M273.4,157.6c-0.7-0.8-0.9-0.4-1.5-0.1c-3.4,2.1-6.9,4.6-11,5.9c-1.4,0.9-2.3,2-2.6,3.9
			C263.3,163.9,269.4,162.4,273.4,157.6L273.4,157.6z M217.6,219.5c-1.7,1.8-3.1,2.7-3.8,4.4c-1.7,2.8-3.8,5.4-6.5,7.3
			c-1.4,0.9-1.3,2-0.2,2.9C211.4,230.9,215.8,225.2,217.6,219.5L217.6,219.5z M316.1,306.5c0.7,4.3,3.5,6,7.5,6.1
			C322.4,308.1,320.2,306.2,316.1,306.5L316.1,306.5z M285.5,115.6c-4.4,8.2-9.2,16.2-12.4,24.9
			C277.9,132.4,282.3,124.3,285.5,115.6L285.5,115.6z M232.6,151.1c-0.3,4.4-3.1,8.7-4.5,13.1c1.7,0.7,3.2,0.8,4.5-0.1
			c-0.1-1-1.4-0.1-1.5-1.1C232.3,159,232.9,155.2,232.6,151.1L232.6,151.1z M329.4,173.4c-2.5-3.6-6.9-6.4-9.1-3.3
			C322.6,173.1,324.5,173.3,329.4,173.4L329.4,173.4z M292.6,296.7c-0.6,2.7-0.9,4.6-1,7.1c0.1,1,0.1,2.1,1.8,1.7
			c0.4-0.9,0.3-1.9,0.6-2.7c0.6-0.3,1.3,0.5,2.1-0.1C295.7,300,296.6,300.4,292.6,296.7L292.6,296.7z M363.1,67.3
			c-0.2,0.4-0.2,0.4,0.2,0.6c3.8,0.6,8.1-0.1,12.3,1.6c-1-2.4-2.3-4-4.4-3.8C368.6,66.1,365.8,66.9,363.1,67.3L363.1,67.3z
			 M320,163.5c-1.4-2.6-14.7-9.1-17.2-9.2C308.1,158.5,314.4,160.2,320,163.5L320,163.5z M300.2,325.4c2.2-0.6,2.2-0.6,2.5-3.5
			c0.1-1.4-1.9-3.8-4.1-4.7C299.4,320.1,297.7,322.9,300.2,325.4L300.2,325.4z M355.2,204.2c-0.6-2.2-13.2-10.5-16.2-10.3
			C344.4,197.7,350.2,200.6,355.2,204.2L355.2,204.2z M311.2,166.8c2.1,3.4,6.4,6.2,8.9,5.2c-1.4-2.6-4.8-3-6.6-5.8
			C312.8,166.5,312,166.1,311.2,166.8L311.2,166.8z M328.9,112.1c-0.7,4.2-1.5,8.4-1.8,12.8c1.9,0.3,2.3-0.6,2.2-1.6
			c0.3-1.9,0.4-3.3,0.7-5.2C329.8,116,329.7,114,328.9,112.1L328.9,112.1z M284.5,287.3c1.5-5.9-0.5-16.7-2.7-18.7
			C283.8,274.6,282.6,281.1,284.5,287.3L284.5,287.3z M309.1,154.9c0.5,1.2,1.3,1.5,2.2,1.9c2.9,0.2,5.1,2.1,7.5,3.6
			c0.7,0.8,1.5,1.1,2.2,1.9c1.3,0.5,2.3,0.5,3.9-0.9C319.3,159.2,314.2,157.1,309.1,154.9L309.1,154.9z M328.1,159.8
			c-3.9-2.6-8.5-3.6-13.2-4.5c0.2,0.6,0.2,0.6,0.7,0.8c3.2,1.8,7.4,2.6,10.5,4.9C326.9,161.4,327.5,161.1,328.1,159.8L328.1,159.8z
			 M312.6,193.4c-1.1-3.4-2.1-6.9-4.8-9C307.9,188,308.9,191.4,312.6,193.4L312.6,193.4z M311.4,164.9c-2.9-2.7-5.9-5-9.2-6.8
			c1.9,2.8,4.1,4.7,6.5,7.2C309.4,166.1,310.7,165.6,311.4,164.9L311.4,164.9z M305.6,124.9c0.4,0.2,0.9,0.4,1-0.1
			c-0.3-6.6,2.2-12.6,4.3-18.7C308.4,112.1,305.9,118.1,305.6,124.9L305.6,124.9z M217.3,172.3c-0.9-1.4-2.5-2.5-3.4-3.9
			c-1-2.4-3.2-1.9-5.5-2.3C210.6,169,214.1,170.4,217.3,172.3L217.3,172.3z M233.1,161.8c2.9-5.8,1.6-12.3,2.8-18.8
			C234.4,149.3,234.2,155.8,233.1,161.8L233.1,161.8z M291.8,149.7c-0.4-5.2-2.7-9.1-4.3-13.8C288,140.6,289,145.6,291.8,149.7
			L291.8,149.7z M283.4,259.9c-2.3-2.9-3.5-6-5.5-8.3c0.8,2.9,1.4,5.1,2.8,7.7C280.7,260.3,281.8,260.2,283.4,259.9L283.4,259.9z
			 M337.4,159.2c-2-2.3-4.7-2-7,1.1C333,162.4,334.7,159.6,337.4,159.2L337.4,159.2z M361.4,111.1c-0.6-3.3-6-8.5-10-9.7
			c1.6,2.2,3.7,3.1,5.1,4.6C358.2,107.8,359.6,109.4,361.4,111.1L361.4,111.1z M308.1,194.6c0.6-2.7-0.9-7.4-3.1-8.3
			C305.3,189.4,305.5,192.5,308.1,194.6L308.1,194.6z M256.2,166.5c-3,1.2-7,6.1-6.5,8.3C251.9,172.2,254.8,169.9,256.2,166.5
			L256.2,166.5z M315.7,309.8c-1.1-3.4-2.2-4.4-5.3-4.2C311.2,308.5,312.3,309.5,315.7,309.8L315.7,309.8z M300.5,192.4
			c-1.5,2.4-0.6,6.3,1.8,7.8C302.5,197.2,301.9,195,300.5,192.4L300.5,192.4z M318.6,305.1c-1.4-2.6-2.7-3.1-5.5-2.3
			C314.1,305.2,315.4,305.7,318.6,305.1L318.6,305.1z M315.3,301.2c-2-1.3-2.8-4.2-6-3.5C310.4,299.6,311.8,302.2,315.3,301.2
			L315.3,301.2z M322.8,308.3c1.8,1.7,1.6,4.7,4.7,5.5c0.3-1.9-2.2-5.4-3.5-6C323.6,307.6,323,307.9,322.8,308.3L322.8,308.3z
			 M328.8,304.8c1,2.4,3,3.7,4.3,2.8c0.6-0.3,1.4-0.9,1.3-2c-0.2-0.6-0.7-0.8-1.3-0.5c-0.6,0.2-0.4,0.9-1,1.1
			C331.1,305.3,330.4,304.5,328.8,304.8L328.8,304.8z M309.5,193.6c-0.1,1.5-0.4,3.3,1.1,4.5c0.8-0.7,2.6-1.4,2.5-3.5
			C311.5,196,310.4,195,309.5,193.6L309.5,193.6z M328.4,177c0.6,2.2,2.5,2.5,3.9,2.6c1-0.1,1.4-0.9,1.7-1.8
			C332,177,330.3,177.3,328.4,177L328.4,177z M331.6,300.4c-0.3-1.6-1-2.4-2.1-3.4c-1,0.1-2.1,0.1-2.7,0.4
			C328.7,297.7,328.6,301.7,331.6,300.4L331.6,300.4z M297.2,301.2c-0.2,2.9,0.3,4.1,3,4.8C300.5,303,299.8,302.2,297.2,301.2
			L297.2,301.2z M286.8,279.3c0.4,2.7,0.4,5.2,1.3,7.6C288.8,284.1,289.3,281.8,286.8,279.3L286.8,279.3z M336.7,300.1
			c1.8-0.7,1.8-0.7-1.1-4.5c-0.4-0.2-1,0.1-1.4,0.9C335.3,297.5,336.2,298.9,336.7,300.1L336.7,300.1z M304,294.5
			c-1.2-2-2.4-4-4.3-5.3C300.9,291.2,301.1,294.3,304,294.5L304,294.5z M318.9,303.2c1.4,2.6,2.5,3.5,4.3,2.8
			C322.5,304.2,321,303.1,318.9,303.2L318.9,303.2z M298.1,298c-0.2-3.1-0.5-3.7-3-4.8C295.2,295.3,295.5,296.9,298.1,298L298.1,298
			z M309.2,300.1c-1.2-2-2.5-3.5-4.8-4C305.3,298.5,306.3,299.9,309.2,300.1L309.2,300.1z M295,305.3c-1.2,3,0.5,4.7,1.5,7.1
			C297.4,309.2,296,307.7,295,305.3L295,305.3z M287.4,293.6c-1.1,2.6-2.1,5.1-1.7,7.8C287.2,299,287.2,296.5,287.4,293.6
			L287.4,293.6z M287.6,306.2c0.9-2.1,1.8-4.3,0.4-6.8C287.5,301.6,286.7,303.8,287.6,306.2L287.6,306.2z M302.6,318.4
			c-1-2.4-2.4-4-4.1-5.7C298.2,315.6,301.2,316.8,302.6,318.4L302.6,318.4z M330.3,182.3c-1-2.4-2.1-3.4-5-3.6
			C326.4,180.7,327.8,182.2,330.3,182.3L330.3,182.3z M304.5,307.7c-0.1-2.1-1.7-3.2-3.4-3.9C301.2,307.3,301.6,307.5,304.5,307.7
			L304.5,307.7z M208.4,154c0,0,0,0,0.4,0.2c2.4-1,3.7-4,5.8-5.6c0.2-0.4-0.2-0.6-0.2-0.6C212,150,210.3,151.8,208.4,154L208.4,154z
			 M317.5,168.4c2.2,1.9,3.1-0.2,5.2-0.4C320.9,166.3,319.8,166.4,317.5,168.4L317.5,168.4z M312.4,304.5c-1-2.4-2.1-3.4-5.2-3.2
			C308.5,302.9,310.1,304,312.4,304.5L312.4,304.5z M323.1,297.9c1,2.4,1.4,2.6,4.1,2.2C326.3,298.7,325.5,296.9,323.1,297.9
			L323.1,297.9z M235.8,314.1c-2,1.2-4.1,1.3-5.4,3.3C232.7,317.8,234.5,317.1,235.8,314.1L235.8,314.1z M302.2,187.1
			c-1.7,2.8-1.3,4.4,0,6C302.9,191.4,302.8,189.3,302.2,187.1L302.2,187.1z M292.2,285.6c0.7,4.3,1.4,5.1,3.1,5.8
			C294.8,289.1,293.4,287.6,292.2,285.6L292.2,285.6z M303.7,187.2c0.5-2.3,0.3-4.4-0.9-6.4C301.1,183.7,304.1,184.9,303.7,187.2
			L303.7,187.2z M331.3,176.2c-1.4-1.6-3.6-1-5.3-1.7C327.2,176.5,329.4,175.9,331.3,176.2L331.3,176.2z M320.2,187.1
			c-0.7-1.8-1.7-3.2-4.5-4.9C317.1,183.8,317.7,186,320.2,187.1L320.2,187.1z M349.1,169.6c2.9,0.2,5.3-0.8,5.2-2.8
			C352.7,168.1,350.8,167.8,349.1,169.6L349.1,169.6z M327.2,308.6c0.9,1.4,0.8,2.8,2.1,3.4c1.2-0.5,1.4-0.9,0.9-2.1
			C329.5,309.1,329,307.9,327.2,308.6L327.2,308.6z M290.6,295.4c-0.7,1.7-1,3.6,0.2,5.6C290.7,298.9,292,297,290.6,295.4
			L290.6,295.4z M307.3,320.4c0-2.5-0.6-3.3-3.8-4.1C304.8,317.8,305.7,319.2,307.3,320.4L307.3,320.4z M326.1,301.7
			c0.7,1.8,2.2,1.9,3.7,2C329.2,301.4,328.3,301.1,326.1,301.7L326.1,301.7z M303.1,109.4c3.8-5.4,3.8-5.4,3.9-6.9
			C305,104.7,303.5,107.1,303.1,109.4L303.1,109.4z M306.5,183.9c-0.6-2.2-0.9-3.9-2.7-5.6C304.4,180.5,304.2,182.4,306.5,183.9
			L306.5,183.9z M333.2,165.5c1.4,1.5,1.8,1.7,4,0.1C335.6,164.5,335,163.7,333.2,165.5L333.2,165.5z M319.4,318.9
			c-1-2.4-1.8-2.8-4.5-2.4C316.4,317.7,317.7,318.2,319.4,318.9L319.4,318.9z M333.7,303.8c-1.2-3-1.2-3-3.7-2
			C330.9,303.2,331.4,304.4,333.7,303.8L333.7,303.8z M331.7,296.5c0.3,1.6,0.6,3.3,2.9,3.7C333.9,298.4,333.6,296.8,331.7,296.5
			L331.7,296.5z M305.9,303.3c0.8,1.8,1.2,3,3.4,3.9C308.7,304.9,308.2,303.7,305.9,303.3L305.9,303.3z M311.2,317
			c0.8,1.8,0.6,2.2,3.5,2.5C313.9,317.6,313.2,316.8,311.2,317L311.2,317z M308.8,319c-0.8,0.7-1.1,1.5-0.2,2.9
			c0.4-0.9,1.2-0.5,1.8-0.7C310.5,319.7,310.3,319.1,308.8,319L308.8,319z M242.1,186.1c-1.7,1.8-2.4,3.5-2.3,5.5
			C240.6,189.5,241.8,188,242.1,186.1L242.1,186.1z M275.1,160.8c1.7,0.7,2.1-0.1,2.3-3.1C276.4,158.9,275.2,159.3,275.1,160.8
			L275.1,160.8z M306.3,321.5c-0.5-1.2-1.2-2-2.4-2.5c-0.1,1.5,0,2.5,1.2,3C305.4,322.6,306.1,321.9,306.3,321.5L306.3,321.5z
			 M319,298.2c1.2,2,1.6,2.2,3.2,1.9C321.2,297.6,321.2,297.6,319,298.2L319,298.2z M320,166c-1.5-1.1-2.7-0.6-4.1,0.3
			C317.4,167.4,318.4,166.3,320,166L320,166z M328.3,307.1c-1.3-1.6-1.7-3.2-3.9-2.6C325.3,305.9,325.8,307.1,328.3,307.1
			L328.3,307.1z M297.2,204c0.1-1.5-0.1-2.1-0.8-2.8c-0.6,0.3-1.4,0.9-0.7,1.7C295.7,203.9,296.1,204.1,297.2,204L297.2,204z
			 M338.3,169.1c0.2-0.4,1-1.1,0.3-1.9c-0.9-0.4-1.9-0.3-2.7,0.4C336.4,168.8,336.8,169,338.3,169.1L338.3,169.1z M334.1,163.4
			c-1.5-1.1-2.4-1.5-3.3-0.4C332,165,332.6,164.7,334.1,163.4L334.1,163.4z M288.6,311.1c1.3-2,1.2-4,1.5-5.9
			C288.8,307.1,288.5,309,288.6,311.1L288.6,311.1z M299.4,203.5c2.1-0.1,2.5,0,1.9-2.2C299.9,201.1,299.1,201.8,299.4,203.5
			L299.4,203.5z M335,169.7c-0.9-1.4-1.6-2.2-3-1.2C332.9,169.9,333.8,170.2,335,169.7L335,169.7z M325.4,315.4
			c-1.8-1.7-3.8-1.6-5.3-1.7C321.6,314.8,322.9,315.4,325.4,315.4L325.4,315.4z M298.2,306.1c-0.1,1.5,1,2.4,2.6,2.1
			C299.5,306.6,299.5,306.6,298.2,306.1L298.2,306.1z M306.3,315.5c-0.7-1.8-1.2-2-3.2-1.9C303.4,315.2,305,314.9,306.3,315.5
			L306.3,315.5z M304.7,291.7c2.1,3.4,2.1,3.4,4.2,3.2C307.3,293.8,306.2,292.9,304.7,291.7L304.7,291.7z M302.9,199.9
			c0.1,1-0.3,1.9-0.2,2.9c0.9,0.4,1.5,0.1,1.8-0.7C304.4,201.1,304,200.9,302.9,199.9L302.9,199.9z M298.4,197.5
			c-1.1,1.5-1.5,2.4-0.1,3.9C299.2,200.4,298.7,199.2,298.4,197.5L298.4,197.5z M220.4,113c-1.7-0.7-3.4-1.4-5.5-1.3
			C216.7,112.4,218.4,113.1,220.4,113L220.4,113z M314.4,298.3c0.9,1.4,1.8,1.7,3.4,1.4C317.1,297.9,316.1,298,314.4,298.3
			L314.4,298.3z M317.9,315.3c-0.7-1.8-2.4-1.5-3.8-1.6C315,315.1,316.4,315.2,317.9,315.3L317.9,315.3z M320.4,315.3
			c0.6,2.2,1.4,2.6,3,1.2C322.5,316.2,321.7,315.8,320.4,315.3L320.4,315.3z M327.8,161.7c1.7,0.7,1.7,0.7,3.1-0.2
			C329.8,160.6,328.8,160.6,327.8,161.7L327.8,161.7z M233.2,126.8c1.4-0.9,2.6-1.4,3.6-2.5C235.1,124.6,234.2,125.7,233.2,126.8
			L233.2,126.8z M325.8,177.4c-0.9-1.4-2-1.3-3.6-1C323.1,177.8,324.7,177.5,325.8,177.4L325.8,177.4z M323.7,175.1
			c-1.3-1.6-2.8-1.7-4.4-1.3C320.7,175.3,321.9,174.8,323.7,175.1L323.7,175.1z M327,164.9c1.1,1,2.1,0.9,2.9,0.2
			C328.8,164.1,328.8,164.1,327,164.9L327,164.9z M217.3,115.7c-1.3-0.5-3.2-0.8-5.2-0.7C214,116.3,215.9,115.6,217.3,115.7
			L217.3,115.7z M209.1,161.8c-0.6,0.3-1.4,0.9-1.5,2.4C210.5,163.4,210.5,163.4,209.1,161.8L209.1,161.8z M317.1,312.4
			c-1.5-1.1-2.8-1.7-3.8-1.6C313.9,311.6,315,312.6,317.1,312.4L317.1,312.4z M335.9,303.3c0.3-1.9,0.3-1.9-1.8-1.8
			C334.4,302.1,334.5,303.2,335.9,303.3L335.9,303.3z M292,292c0.3,1.6-0.2,2.9,2.1,3.4C293.4,293.6,293.4,293.6,292,292L292,292z
			 M305.6,311.1c-0.7-1.8-1.6-2.2-3.2-1.8C302.9,310.5,303.9,310.4,305.6,311.1L305.6,311.1z M308.7,308.5c-0.1,1.5,0.7,1.8,2,2.3
			C310.9,309.3,310,309,308.7,308.5L308.7,308.5z M269.4,195c-2.1,0.1-2.7,0.4-3.8,1.9C267,196,268.3,196.5,269.4,195L269.4,195z
			 M312,313.8c0.3-1.9-1.2-2-2.2-1.9C309.7,313.4,310.7,313.3,312,313.8L312,313.8z M322.9,166.2c1.1,1,2.1,0.9,2.9,0.2
			C325.2,165.6,324.3,165.3,322.9,166.2L322.9,166.2z M336.2,175.2c-1.3-0.5-1.9-0.3-2.5,0c0.2,0.6,0.1,1,0.9,1.4
			c0.6-0.2,0.6-0.2,0.8-0.7C335.4,175.9,335.6,175.5,336.2,175.2L336.2,175.2z M342.8,105.4c-0.6-2.2-0.6-2.2-2.5-2.5
			C340.8,104.1,341.5,104.8,342.8,105.4L342.8,105.4z M329.8,166.6c0.9,1.4,1.5,1.1,2.7,0.6C331.6,165.8,331,166.1,329.8,166.6
			L329.8,166.6z M265.7,159.4c1.5,0.1,1.8-0.7,2.8-1.8C266.8,157.9,266.2,158.1,265.7,159.4L265.7,159.4z M287.1,141.7
			c-0.5,1.3-0.1,1.5,0.4,2.7C288.4,143.3,287.7,142.5,287.1,141.7L287.1,141.7z M317,320.9c0.6-0.2,1.6-0.3,1.4-0.9
			c-0.7-0.8-1.1-1-1.7-0.7C316.5,319.7,316.8,320.3,317,320.9L317,320.9z M321.5,301.8c0.9,0.4,1.5,1.1,2.6,1.1
			C323.8,301.2,322.9,300.8,321.5,301.8L321.5,301.8z M205.1,163.2c1.3,0.5,1.3,0.5,1.4-0.9C206,162.1,205.4,162.3,205.1,163.2
			L205.1,163.2z M258.1,292.9c0.2-0.4-0.2-0.6-0.2-0.6c-0.8,0.7-1.8,0.7-2.6,1.4C256.8,293.8,257.4,293.6,258.1,292.9L258.1,292.9z
			 M202.5,158.6c-1.2,0.5-1.6,0.3-2,1.2C201.6,160.7,201.9,159.9,202.5,158.6L202.5,158.6z M301.8,313.1c0.1-1.5-0.7-1.8-1.8-1.7
			C300.1,312.4,300.3,313,301.8,313.1L301.8,313.1z M324.8,164c0.9,0.4,1.5,0.1,2.3-0.6C325.8,162.9,325.4,162.7,324.8,164
			L324.8,164z M319.5,301.9c-0.7-0.8-1.5-1.1-2.6-1.1C317.6,301.6,318.4,302,319.5,301.9L319.5,301.9z M314.2,321.8
			c-0.7-0.8-1.3-1.6-2.6-1.1C312,322.3,312.7,321.6,314.2,321.8L314.2,321.8z M301,298.2c-0.1-1-0.5-1.2-1.2-2
			C299.9,297.3,300.3,297.4,301,298.2L301,298.2z M306,301.8c-0.5-1.2-0.7-1.8-1.8-1.7C304.3,301.1,304.7,301.3,306,301.8L306,301.8
			z M265.6,299c-0.2,0.4-1,1.1-0.3,1.9C266.1,300.2,265.9,299.6,265.6,299L265.6,299z M312.7,315.6c-0.1-1-1.1-1-2.1-0.9
			C311.3,315.5,312,316.3,312.7,315.6L312.7,315.6z M333.2,156c-0.7-0.8-1.1-1-1.7-0.7C331.7,155.9,332.6,156.2,333.2,156L333.2,156
			z M356.6,87.6c0.7,0.8,1.5,1.1,3,1.2C358.5,87.9,357.7,87.6,356.6,87.6L356.6,87.6z M302.9,176.9c0.4-0.9,0.1-1.5-0.7-1.8
			C301.8,175.9,302.1,176.6,302.9,176.9L302.9,176.9z M299.6,271.6c-0.7-0.8-1.5-1.1-2.1-0.9C298.3,271.1,298.5,271.7,299.6,271.6
			L299.6,271.6z"/>
		<path class="st1" d="M286.5,337.7c0,3.5-0.4,6.9-2.9,9.3c0.7,0.8,1-0.1,1.5,0.1c-0.1,1.5-0.2,2.9-0.7,4.2c-0.6,0.2-1.9-0.3-2,1.2
			c0.9,0.4,1.5,1.1,1.8,2.8c0.8,5.3,2.8,10.2,6.6,14.2c2.9,3.7,6.1,7,8,10.8c1.2,2,2.4,2.5,4.5,2.4c0.1,1-1.4,0.9-1.1,1.5
			c-0.1,1.5,0.6,2.2,1.2,3c4.9,5,4.3,11.3,2.7,17.6c-0.9,2.1-2.6,3.9-4.6,5.1c-1.7,1.8-3.9,3.4-6.6,3.8c-2.2,0.6-4.7,0.5-7.2,0.5
			c-1,0.1-1.6,0.3-3,1.2c-4.7,4.1-10.1,6.3-16.7,4.1c-3-1.2-5.4-2.7-8-4.8c-1.1-1-1.2-3-2.2-4.4c-1,0.1-2.1,0.1-3.1,0.2
			c-2.2,0.6-3.9-0.1-4.9-2.6c-0.8-1.8-1.8-2.8-3.7-3.1c-2.6-1.1-4.4-3.8-6-6c-3-3.7-4.9-7.5-5.8-12.4c-1-5.9,0.1-11,3.9-15.4
			c1.1-1.5,1.1-2.6,1.2-4c-0.8-2.8,0.5-4.8,2.2-6.6c1.6-1.4,3.1-2.7,5-2.4c0.4,0.2,1-0.1,1.6-0.3c2.8-1.8,6.1-1.5,9.2-1.7
			c5.8-0.6,11.4,0.3,17.1-1.4c5.5-1.2,8.2-4.1,9.3-9.1c0.4-0.9,0.5-1.3,0.9-2.1c-0.4-0.2-0.4-0.2-0.4-0.2c0.3,0.6,0.1,1,0.9,1.4
			c0.5-2.3,0.5-4.8,1.8-6.8L286.5,337.7z M254.9,369.1c2.5,0,4.9-1,7.1-2.6c0,0,0,0-0.4-0.2C259.8,367.1,257.3,368.1,254.9,369.1
			c-2.2,0.6-4.5,1.1-6.7,2.7C250.7,370.9,253.2,370.9,254.9,369.1L254.9,369.1z M265.1,416.9c0.9-2.1,0.8-4.2,1.9-5.7
			c2.5-3.5,3.6-7.5,4.6-11.1c0.7-4.2,3-8.3,3.3-12.6c-0.3-4.1,0.7-7.7,1.7-11.3c0.6-2.7,0.7-5.2,0.9-8.1c-1.7,1.8-1.6,3.8-2.3,5.5
			c-1.9,5.7-3.8,11.4-4.8,17.5c-1.7,7.8-4.2,14.8-10.6,20.6C260.7,414.1,262.7,415.4,265.1,416.9L265.1,416.9z M257,408.5
			c3.3-12.6,8.7-24.4,14.3-35.6c-7.1,11.1-15.5,21.6-17.7,35.2c-1.5-0.1-1.7-0.7-1.4-1.6c1.1-2.6,1.9-5.7,2.9-8.3
			c1.7-5.3,4.5-9.6,7.3-14c1.3-1.9,2.5-3.5,2.9-5.8c-0.6,0.3-0.6,0.3-1.2,0.5c-3.4,4.6-6.8,9.2-9.1,14.7c-1.4,3.4-3,7.3-5.3,10.3
			c-0.4,0.8-0.4,0.8-0.1,1.5C251,408.6,253.1,409.4,257,408.5L257,408.5z M274.3,418.8c1.9,0.3,2-1.2,2.4-2c0.5-1.3,0.8-3.2,1.8-4.2
			c1.1-1.5,1.7-2.8,1.8-4.3c1.6-7.4,0-14.5-0.3-22.1c-0.8,0.7-1,1.1-0.7,1.7c-2.3,9.1-4.5,18.1-8.5,26.5c-1,1.1-1.7,2.8-0.9,4.6
			c1-0.1,2.3,0.5,3.1-0.2c1.8-3.2,2.4-7,3.8-10.4C276.7,411.8,274.9,415,274.3,418.8L274.3,418.8z M264,368.9
			c-1.5-0.1-2.2,0.6-2.8,0.8c-4.6,2.6-8.7,5.4-13.6,7.4c-4.2,1.7-7.8,4.3-11.5,7.2c-0.6,0.2-0.8,0.7-1.1,1.5
			c0.8,2.8,1.6,5.7,3.5,8.5c1.6-3.8,3.9-6.9,6.8-9.2c1.4-0.9,2.7-2.9,4.1-3.8c2.8-1.8,5.3-4.3,7.8-6.8
			C259.3,373,261.7,370.9,264,368.9L264,368.9z M296.7,386.5c3.2,6.8,4.7,14,5,21.6c4.9-4.5,5.9-13.1,2.2-18.6
			c-2.5-3.6-6.1-7-7.8-11.3c0,0,0,0-0.3-0.6c-3.6-4.5-7.4-8.6-10.3-13.8c-0.2,0.4,0.1,1,0.1,1c1.1,3.4,2.9,6.2,4.2,9.2
			c1.4,2.6,2.8,5.2,4.6,6.9c4.2,4.3,6.2,9.1,8,14.4c1,2.4,2.2,4.4,0.9,7.4C301.4,397,300.4,391.1,296.7,386.5L296.7,386.5z
			 M270.7,378.2c-5.5,9.7-10.1,19.3-12.6,30.3c0.4,0.2,0.9,0.4,1.3,0.5c-0.2,0.4,0.1,1,0.7,0.8c7.1-7.5,9-16.8,11-26.4
			c-1.7,2.8-2.2,6.6-3.5,9.6c-1.9,5.7-2.9,8.3-4.8,9C266.6,394,268.3,386.2,270.7,378.2L270.7,378.2z M268.3,368.2
			c-1.5-0.1-2.2,0.6-3,1.2c-2.2,1.6-4.7,4.1-6.9,5.7c-5.6,3.7-10,8.4-14.4,13c-2.4,2-4.3,4.2-5.1,7.4c0.7,0.8,1.2,2,2.7,3.1
			C248.5,387,258.2,378,268.3,368.2L268.3,368.2z M282.9,414.8c3-1.2,4.3-3.2,4.6-6.1c-0.1-1,0.3-1.9,0.5-2.3
			c1.3-4.4,0.6-8.7,0.5-13.3c-0.6-5.8-3.3-11.4-5.1-16.6c0.2-0.4-0.1-1-0.9-1.4c0.2,3.1-0.2,5.4,0.6,8.2c1.7,4.2,1.9,8.8,2,13.3
			C285.4,402.9,285,408.7,282.9,414.8L282.9,414.8z M295.2,411.9c3.5,0,5.3-1.8,5.3-4.3c-0.1-2.1-0.7-4.3-0.8-6.4
			c-0.4-6.2-3.3-11.4-5.9-17c-0.1-1-0.8-1.8-1.4-2.6c-0.7-0.8-1.3-1.6-2-2.3C293.8,389.8,296.9,400.6,295.2,411.9L295.2,411.9z
			 M279.2,367.2c-0.8,3.2-1.2,6.5-2.2,10.1c-0.5,2.3-1.4,4.4-1.4,6.9c0.3,4.1-0.7,7.7-1.9,11.7c-1.3,4.4-1.8,9.2-4.7,13.6
			c-0.9,2.1-2.2,4.1-2.4,7c-0.5,1.3,0.3,1.6,0.9,1.4C275,401.5,280.3,385.2,279.2,367.2L279.2,367.2z M258.7,363.7
			c-5.3,0.8-10.8,2-15.7,4c-0.4-0.2-1,0.1-1.2,0.5c-0.7,1.7-2.1,2.6-3.2,4.2c-0.8,0.7-1.7,1.8-1.9,3.2c3-1.2,5.8-3.1,8.6-3.9
			c6.8-3.2,13.9-5.7,21-8.3c1.8-0.7,3.8-1.9,5.7-4.1c-2.8,0.8-5.3,1.8-7.7,2.8c-0.4-0.2-1,0.1-1.2,0.5c-0.9,2.1-3.1,2.7-5.2,2.8
			l-0.4-0.2C257.7,364.8,258.8,364.7,258.7,363.7L258.7,363.7z M245,402.6c2.4,2.5,3.5,2.4,4.7-0.5c1.5-2.4,2.4-4.5,3.3-6.6
			c3.6-8.5,9.7-16,15.6-23c1.1-1.5,2.7-2.9,3.4-4.6C264.7,373.2,247.9,395.7,245,402.6L245,402.6z M294,412.4
			c2.7-8.9-3-34.8-8.9-41.2c-0.1,5,1.3,10.1,3.7,14c3.2,6.8,3.8,13.6,3.7,21.1c-0.3,1.9-1.2,4-0.6,6.2
			C292.7,412.9,293.2,413.1,294,412.4L294,412.4z M277.6,418.1c0,0,0.4,0.2,0.6-0.2c2.7-0.4,3.4-2.1,3.8-4.4
			c2-7.2,2.5-14.5,1.8-22.3c-0.5-4.7-2.7-9.1-2.6-14.1c-0.5,1.3-0.2,2.9-0.1,3.9c-0.1,3.9-0.3,7.9,0.2,11.6
			C283,401.4,282.4,410.1,277.6,418.1L277.6,418.1z M259.2,379.4c-7.7,5.3-11.5,13.2-16.8,20c0.7,1.8,0.7,1.8,2,2.4
			C249,394.2,253.2,386.4,259.2,379.4L259.2,379.4z M244.9,362c-1.6,0.3-3.3-0.4-4.2,1.7c-0.4,0.9-0.5,2.3,0.6,3.3
			c3.4-1.1,6.9-2.1,10.8-3c3.7-0.5,7.1-1.5,10.8-3c-7.3-0.5-14.2,1.6-21.1,3.7C242.5,363,243.9,363.1,244.9,362L244.9,362z
			 M257.5,370.2c-6.8,3.2-14.2,4.1-20.1,8.6c-1,0.1-0.5-1.2-1.7-0.7c-0.7,1.7-0.8,3.2-0.2,5.4C241.8,377.7,250.8,375.4,257.5,370.2
			L257.5,370.2z M244.2,360.1c7.3,0.5,14.4-1,21.6-1.5c2.9,0.2,5.8-0.6,8.4-2c-2.5,0-5.2,0.4-8.1,0.1c-3.5,0-7.1,1.5-10.7,0.5
			C251.2,356.6,247.8,359.7,244.2,360.1L244.2,360.1z M287.8,412.8c1.9,0.3,2.5,0,2.4-1c1.5-4.9,1.8-10.3,0.8-15.2
			c-0.1-1-0.4-2.7-0.9-3.9c0,0-0.2,0.4-0.6,0.3C290.8,399.6,289,406.3,287.8,412.8L287.8,412.8z M282,361.9c-1.2,4-0.3,7.9,1.7,10.2
			C283.3,368.4,282.6,365.2,282,361.9L282,361.9z M236.9,377.6c1.2-0.5,1.6-0.3,2.2-1.6C238,376.1,237.4,376.3,236.9,377.6
			L236.9,377.6z"/>
		<path class="st1" d="M314.1,204.1c-0.7,1.7,0.4,2.7,0.1,4.5c-1.6-2.2-1.6-4.7-2.7-6.6c0.8-0.7,1.6-1.4,1.9-2.2
			c4.7,10.5,10.5,20.4,16.6,29.9l-0.6,0.2c-3-3.7-5.1-8.1-7.7-12.7C319.3,213.3,316.7,208.7,314.1,204.1L314.1,204.1z"/>
		<path class="st1" d="M333.6,228.2c-4.6-6.9-9.7-14-12.9-21.9l0,0c0.4,0.2,0.8,0.4,1.1,1c3.3,6.4,7.5,12.1,10.8,18.5
			c0.7,0.8,0.9,1.4,0.6,2.2L333.6,228.2z"/>
		<path class="st1" d="M329.1,7.1c0.2-2.9,2.3-5.5,3.4-8.1C332.3,1.9,330.2,4.5,329.1,7.1L329.1,7.1z"/>
		<path class="st1" d="M338.3,211.1c2,2.4,4.2,4.3,6.3,6.6l-0.2,0.4C341.7,216.1,339.7,213.7,338.3,211.1L338.3,211.1z"/>
		<path class="st1" d="M319.6,330.5c-1,0.1-1.7-0.7-1.8-1.8C318.6,329.1,319.3,329.9,319.6,330.5L319.6,330.5z"/>
		<path class="st1" d="M208.9,170.8c-0.6,0.3-1.3-0.5-2.4-1.5C208,169.4,208.7,170.2,208.9,170.8L208.9,170.8z"/>
		<path class="st1" d="M304.9,340.4c2.1,3.4,3,7.3,4.1,10.7c0.2,0.6,0.1,1-0.3,1.9C307.6,348.5,305.6,344.7,304.9,340.4L304.9,340.4
			z"/>
		<path class="st1" d="M302.8,336c1.5,1.1,1.2,3,2.2,4.4C303.4,339.3,303.3,337.2,302.8,336L302.8,336z"/>
		<path class="st1" d="M289.9,165c-1.2-2-1.3-4-1.3-6.5C288.8,160.5,289.3,162.7,289.9,165L289.9,165z"/>
		<path class="st1" d="M298.6,186.1c-1.1-1-1.2-3-1.1-4.5C297.8,183.3,298.3,184.5,298.6,186.1L298.6,186.1z"/>
		<path class="st1" d="M295.4,184.3c0.1,1,0.6,2.2,1.2,3C295.5,186.3,294.8,185.6,295.4,184.3L295.4,184.3z"/>
		<path class="st1" d="M290.9,182.9c-0.9-1.4-1.9-2.8-1.1-4.5C290.1,180.1,290.6,181.3,290.9,182.9L290.9,182.9z"/>
		<path class="st1" d="M290.8,168.8c0.5,1.2,0.8,1.8,0.8,2.8c-0.7-0.8-0.7-1.8-1.4-2.6C290.8,168.8,290.8,168.8,290.8,168.8
			L290.8,168.8z"/>
		<path class="st1" d="M295.1,176.6c-0.3-0.6-0.9-1.4-1-2.4C294.7,175,295.4,175.8,295.1,176.6L295.1,176.6z"/>
		<path class="st1" d="M294.4,181.8c-0.4-0.2-0.7-0.8-0.9-1.4C294.5,180.4,294.1,181.2,294.4,181.8L294.4,181.8z"/>
		<path class="st1" d="M196.1,205c-2,1.2-3.7,3-6.1,4C191.5,206.6,193.7,206,196.1,205L196.1,205z"/>
		<path class="st1" d="M198.3,203.4c1.2-0.5,2.4-1,3.2-1.7C201,203,199.8,203.5,198.3,203.4L198.3,203.4z"/>
		<path class="st1" d="M278,402.8c-0.1,1.5,0,2.5-0.4,3.3C277.5,405.1,278,403.8,278,402.8L278,402.8z"/>
	</g>
	<g>
		<path class="st1" d="M276.7,174c-0.8-0.2-1.1-0.7-0.8-1.5c1.2-5.2-0.8-10-2.8-14.7c-2.6-7-6-14.1-8.1-21.4
			c-0.8-1.5-1.4-2.5-2.3-3.9c-2.6-8.3-0.4-16.7-1.7-25c-1.9-11.9,0-23.4,3.4-35.7c1.1-1.9,2.9-3.6,3.1-5.7
			c-0.7,6.2,0.9,12.5,1.5,18.6c0.3,3.1,1.2,5.8,1.6,8.9c2.6,8.3,3.7,17.4,5.2,26.3c0.9,4,1.5,7.6-1.3,11.2c-0.5,1.6-1.3,4,0.9,5.3
			c1.7,1.7,3.5,1.3,4.3-1.1c1-3.2,0.7-6.2-0.2-9c-1.7-4.2-2.4-9-3-13.9c-0.9-5.3-1.9-10.6-3.1-16.4c-0.6-2.3-1.2-4.5-1.5-7.6
			c5,3.7,8.9,8,12.2,12.6c1.4,1.2,2.2,2.6,3.6,3.8c4.2,4.8,5.1,10.1,5,16c0.3,1.8-1,3.2-1.8,4.3c-0.8,2.4-0.4,4.2,0.4,5.6
			c0.6,1,1.7,1.7,3,1.6c1.3-0.1,2.7-1.5,2.6-2.8c-0.1-2.6-0.4-4.3-1-6.6c-1.2-3.2-2-6-2.4-9.1c-0.4-4.3-2.4-7.8-5.4-10.6
			c-0.3-0.5-0.6-1-0.3-1.8c6,0.5,10.1,4,14.3,7.6c1.4,1.2,2.5,1.8,4.1,2.2c1.6,0.4,3,0.3,3.8-0.8c1-1.9,1-3.2-0.4-4.3
			c-1.7-1.7-3.6-2.5-6.3-1c-1.1,0.6-2.4,0.7-3.5,0c-4.4-2.7-8.8-4.2-13.7-5.3c-1.1-0.7-2.2-1.4-2.8-2.3c-1.7-2.9-4.5-5.3-7.2-7.6
			c-0.9-1.5-2.8-2.3-3.1-4.1c-0.6-1-1.3,0.1-1.6-0.4c0,0-0.8-0.2-0.3-0.5c-0.9-4-2.1-8.6-2.2-12.4c-0.5-8.2,3.2-14.1,7.9-20.7
			c3.9-5.5,9.2-11,14.5-16.6c7.9-8.4,15.8-16.7,25.1-23.9c4.2-3.7,9.6-5.4,15.2-7.9c3.2-1.8,6.4-3.6,10.4-5.2
			c-1.4-1.2-2.5-0.6-3.5,0c-7.7,5-17.1,8.4-26,12.7c-6.4,3.6-13.1,5.4-19.8,8.6c-7.5,2.9-15.1,3.3-22.1,5.9
			c-5.9,2-10.7,3.4-16.4,4.7c-1.4,0.1-2.7,0.2-3.8-0.5c-6-1.8-12.3-4.1-18-6.7c-1.4-1.2-2.5-1.9-3.3-3.3c-1.2-3.2-3.4-5.9-5.9-7.7
			c-3-2.8-5-6.3-6.2-9.5c-1.2-3.2-2.3-6.5-3-10c-1.2-3.3-0.2-6.4,0.8-9.6c0.8-2.4,1.3-4,0.4-5.4c0-1.3-0.6-2.3-2.2-2.6
			c-1.4,0.1-2.1,1.2-2.4,2c-1.5,3.5-3.1,6.9,0.5,9.5c0,0,0.3,0.5,0.6,1c-1.3,4,0.7,7.4,1.9,10.6c1,6.6,4.6,11.7,8.8,16.5
			c1.4,1.2,3,2.8,3.6,5.1c-3.8-1.7-7.1-3.8-9.9-6.1c-5.5-4.7-11.6-9.1-16.9-14.5c-3.9-4.3-6.7-9.2-9.6-14.1c-1.9-2.1-1.5-5-1.8-8.1
			c0.2-3.4-0.2-6.4-1-9.2c-0.6-2.3-0.7-4.8-0.7-7.4c-0.1-2.6-0.9-5.3-1.3-8.4c-0.6-1-0.6-2.2-2.2-1.4c0.7-6.2-0.2-7.7-4.6-9.1
			c-2.9,3.6,0,9.8,4.9,10.9c1,9.2,3.2,17.7,3.1,27.5c-3-1.6-3.6-3.8-5.3-5.5c-5.8-6.5-11.4-12.4-17.8-18.6c-1.7-1.7-5.2-2.9-5-6.3
			c0-1.3-1.1-2-2.5-1.9c-1.6,0.9-3.5,1.3-4,2.9c-0.5,1.6,0.6,2.3,1.7,2.9c0.8,0.2,0.8,0.2,1.6,0.4c1.9,0.9,4.1,1,4.2,3.5
			c1.1-0.6,0.5-1.6,1-1.9c4.9,2.4,26.1,26.9,26.8,31.7c-5.4-0.8-10.9-1.7-16.1-3.3c-1.6-0.4-2.5-1.9-3.9-3c-1.7-1.7-3.6-2.5-6.5-1.5
			c-0.8-0.2-1.9,0.4-2.1,1.2c-0.5,1.6,0.6,2.3,1.4,2.5c2.2,1.4,4.7,3.2,7.9,2.7c1.1-0.6,1.9,0.9,2.7,1.1c1.6-0.9,3.2-0.5,4.9-0.1
			c5.5,0.8,11.2,2.2,15.6,4.9c0.8,0.2,1.1,0.7,1.4,1.2c3.9,5.6,8.4,10.9,13.9,15.5c5.8,3.9,10.8,8.9,17.1,12.5
			c6.9,3.3,14,7.1,21.6,9.3c0.8,0.2,1.1,0.7,1.4,1.2c-0.3,0.8-1.1,0.6-1.6,0.9c-4,0.3-8.6,1-13,0.8c-5.2-0.3-10.5,0.1-15.5-1
			c-5.4-0.8-10.6-1.2-15.5-2.3c-7.6-2.2-14-5.8-19.5-10.5c-1.4-1.2-2-2.2-3.6-2.5c-4.7-3.2-8.1-7.8-12.2-11.3
			c-7.2-5.1-13.5-11.2-20.5-17.1c-3.6-2.5-6.4-4.9-9.4-7.7c-1.7-1.7-2-4.7-2.6-7c-0.7-4.8-3.2-9.2-4.9-13.5
			c-0.9-2.8-0.4-5.6-2.4-7.8c-0.6-1-0.6-2.3-1.7-2.9c-1.7-1.7-2.7-1.1-3.8,0.8c-1,1.9-1,3.2,0.7,4.8c7.7,4.8,7.6,13.2,10.8,21.2
			c-1.9-0.9-2.5-1.8-3.6-2.5c-3.9-4.3-8.9-8-14.4-11.4c-1.4-1.2-3.3-2-5.7-2.6c-0.8-0.2-1.4-1.2-1.7-1.7c-0.6-2.3-2-3.4-4.7-4.5
			c-1.1-0.7-3-0.3-3.5,1.3c-1.3,1.4-0.8,2.4-0.2,3.3c0.9,1.5,2.5,1.9,4.1,2.2c10.6,1.2,17.8,7.5,24.7,14.6
			c6.4,6.2,13.8,11.7,20.7,17.5c1.1,0.7,2.5,1.9,3.3,3.3c-8.2-1.9-15.8-2.8-22.6-6.1c-7.4-3-14.2-6.3-21.4-10.1
			c-0.8-0.2-1.1-0.7-1.9-0.9c-2.5-1.9-5.2-2.9-8.4-2.4c-0.8-0.2-1.6-0.4-2.1,1.2c-0.3,0.8,0,1.3,0.6,2.3c2.2,2.6,6,3.1,9,2.1
			c2.7-0.2,3.8,0.5,5.4,0.8c9.6,5.6,19.8,9.7,30.6,12.6c3.6,1.2,7.4,1.7,10.9,3c7.7,3.5,13.5,8.7,19.3,13.8c5,5,11.1,9.4,16.6,12.8
			c1.1,0.7,2.2,1.4,3.6,2.5c-1.9,0.4-3-0.3-4.3-0.2c-0.8-0.2-1.9-0.9-2.4-0.6c-8.1-0.6-16.3-2.5-24.4-3.1
			c-5.4-0.8-11.4-1.4-16.3-2.5c-2.7-1.1-5.4-0.8-8.1-0.6c-3.8-0.5-8.1-0.6-11.7-1.9c-4.7-1.9-9.3-3.8-12.9-7.7
			c-2.2-1.4-3.6-3.8-4.2-6.1c-0.1-2.6-2.3-3.9-5-5c-1.9-0.9-3.2,0.5-2.9,2.3c-0.2,2.1,0.4,4.3,2.3,5.2c4.6,1.9,8.5,5,12.1,7.5
			c1.4,1.2,3.3,2,4.7,3.2c-8.7-0.3-17.1-0.1-24.2-5.2c-5-3.7-10.4-5.8-16.7-6.8C73.8,5,71.6,3.6,69.1,3c-3-1.6-5.2-1.6-8.7-0.3
			c-1.1,0.6-1.9,1.7-1.8,3c1.7,1.7,3.8,1.7,6.3,1c9.7-1.6,17.6,1.1,25.3,5.9c1.4,1.2,3.3,2,5,3.7c-1.3,1.4-3.2,0.5-5.1,0.9
			c-7.3-0.4-14,1.4-21.3,3.6c-2.4,0.7-4.9,0.1-7.6,0.4c-3-0.3-5.4,0.5-8.4,1.5c-1.1,0.6-1.9,1.7-1.3,2.7c2.8,2.3,9.5,1.8,11.6-0.7
			c2.4-2,4.8-2.7,7.2-3.4c10.2-3.2,20.2-3,30.3-2.8c4.3,0.2,9.2,0,13.8,0.7c4.6,0.6,9,0.8,13.6,1.5c0.8,0.2,1.1,0.7,1.9,0.9
			c-3.8,0.8-7.3,2.1-10.2,3.1c-5.9,2-12.3,4.4-17.7,7.4C97,34.1,92.4,36,87,36.5c-1.9,0.4-3.5,0-5.7,0c-4.3-0.2-7.5,1.7-9.6,4.1
			c-0.8,1.1-1,1.9-1.3,2.7c0.6,1,1.4,1.2,2.7,1.1c2.4,0.6,4.6-0.6,6.4-2.3c2.4-2,5.3-3,7.8-3.7c3.8-0.8,7.3-2.1,11.6-3.3
			c-1.3,2.7-4.2,3.7-5.6,5.1c-0.3,0.8-1.1,0.6-1.6,0.9c-3.2,0.5-6.2,2.8-6.6,5.7c-0.2,2.1,1.2,3.2,2.8,2.3c3.2-1.8,6.2-2.8,6.1-6.7
			c0.5-1.6,2.1-2.5,3.2-3.1c6.3-7.5,15.4-11.3,25.1-14.1c4.8-1.4,10.5-2.7,15.9-3.1c5.4-0.4,11.1,0.9,16.6,1.7
			c8.9,0.8,17.1,2.7,26.1,3.5c5.2,0.3,10.6,1.2,15.8,2.8c3.3,0.8,6,0.5,9,2.1c-0.5,0.3-1.1,0.6-1.9,0.4c-7.3,2.1-14.5,4.3-22,7.2
			c0,0-0.5,0.3-1.1,0.6c-2-2.1-4.3-0.2-7,0.1c-1.4,0.1-2.7,0.2-3.8-0.5c-3.3-0.8-6.5-0.2-9.8-1c-0.8-0.2-1.6-0.4-2.7-1.1
			c2.1-1.2,4.1,0.9,6.2-0.2c-4.1-1-7.9-2.7-11.7-3.2c-2.2-0.1-3.5,0-5.7,1.2c-1.1,0.6-1.3,1.4-1.3,2.7c0.6,1,0.9,1.5,2,2.2
			c1.4-0.1,3.5,0,4.9-0.2c3.2-0.5,5.9-0.7,9.2,0c4.1,0.9,8.4,1.1,12.5,2.1c0.5-0.3,1.4-0.1,1.6,0.4c-6.2,1.5-11.5,4.5-16.9,6.3
			c-6.2,1.5-12.1,2.3-18.4,1.3c-5.2-0.3-10.6,0.1-15.7-0.2c-1.9,0.4-3-0.3-4.9-1.1c-3-1.6-5.7-2.6-9.5-1.8c-1.9,0.4-3.5,1.3-3.2,3.1
			c-0.2,2.1,1.4,2.5,3.6,2.5c1.3-0.1,3,0.3,4.6-0.6c2.9-1,5.4-0.4,8.4-0.2c6.5,0.2,13.5,0.2,20,0.4c0.8,0.2,1.6,0.4,3,0.3
			c-1.3,1.4-2.9,2.3-4.5,3.2c-4.8,1.4-9.7,2.9-14.3,3.5c-7.3,0.9-14.6,3-21.9,2.6c-1.4,0.1-2.7,0.2-3.2,0.5c-1.6,0.9-3,1-2.6,2.8
			c-0.2,2.1,1.9,2.2,3.3,2c3,0.3,5.4-0.4,8.1-1.9c5.3-3,10.5-4,15.9-4.4c5.9-0.7,12.1-2.3,17.7-4.8c4.6-1.9,9.4-4.6,14.5-5.6
			c1.9-0.4,3.5-1.3,5.1-2.2c6.2-2.8,13.2-4.2,19.9-7.3c6.2-2.8,12.9-4.7,19.6-6.5c4.8-1.4,10.2-1.9,15.7-1c6,0.5,12.5,0.8,19.2,0.2
			c5.4-0.5,11.1-1.7,17-2.4c6.8-0.5,13.4-3.7,19.6-5.2c5.4-1.7,11-3,16.4-4.7c-1,1.9-3.5,2.6-5.1,3.5c-6.1,4.1-12.3,6.9-18.4,11
			c-2.7,1.5-5.9,3.3-9.1,5.1c-2.4,0.7-5.1,2.2-7.2,3.4c-4.8,2.7-10.2,4.4-16.1,6.5c-6.2,2.8-12.9,5.9-19.6,7.8
			c-7.3,2.2-13.4,6.2-20.4,8.9c-5.4,1.7-10.7,4.7-15.8,6.9c-8.3,2.8-16.7,2.9-25.4,2.6c-6.3-1-12.2-1.6-18.7-0.5
			c-1.6,0.9-3.2,0.5-4.9,0.1c-3.3-0.8-6.8-0.7-10.3,0.6c-1.9,0.4-4,1.6-4.5,4.5c1.9,0.9,3.5,1.2,5.4,0.8c3.8-0.8,6.7-1.8,10.2-3.2
			c2.1-1.2,4.8-1.4,7-1.4c8.4-0.2,17.1,0.1,25.2,0.8c0.5-0.3,1.3-0.1,2.2,0.1c-2.1,1.2-4,1.6-5.6,2.5c-9.9,3.6-20.1,8.1-30.6,10.7
			c-7.3,2.1-15.4,2.8-23.2,4c-2.2-0.1-4.3,1.1-6.7,0.6C90.7,96.8,82,94,74,90c-3.3-2-6.6-4.1-10.1-5.3c-1.1-0.7-2.5-1.9-3.1-2.9
			c-1.1-2-1.7-4.2-3.4-5.9c-1.1-0.7-0.3-1.8-0.3-3.1c0.7-2.4-0.1-3.8-2.3-5.2c-2.2-1.4-2.7-1.1-3.5,1.3c-1.5,3.5-0.1,5.9,3.2,8
			c1.1,0.7,1.9,2.1,3.3,3.3c1.1,0.7,1.7,2.9,2.8,4.9c-7.6-2.2-15.2-0.6-22.3-3c-4.4-1.5-7.8,1.1-7.7,5c3,1.5,6.8,0.7,9.7-0.3
			c3.5-1.3,6.2-1.5,9.2-1.3c9,0.8,17.9,1.6,25.9,6.9c4.1,2.2,9,3.4,13.4,4.8c0.8,0.2,1.6,0.4,2.5,0.6c-0.8,1.1-2.1,1.2-3,1
			c-11.6,2-23.7,4.3-35.3,5c-5.4,0.4-10.8,0.9-16-0.7c-5.2-1.6-10.6-1.2-15.7-1.5c-3-0.3-5.1-0.3-7.3-1.7c-2.7-1.1-4.9,0.1-7.2,3.4
			c1.7,1.7,3.6,1.3,5.7,1.3c7-1.3,14.6-1.7,21.9,0c0,0,0.5-0.3,0.8,0.2c-5.7,1.2-11.6,3.3-16.9,5c-3.8,0.8-7.3,2.1-11.3,2.5
			C6,112,5,112.6,4.2,113.7c-0.5,0.3-1.3,1.4-0.8,2.4c0.6,1,1.4,1.2,2.7,1.1c3-1,5.9-2,8-4.5c0.3-0.8,0.8-1.1,1.3-1.4
			c7-1.4,13.2-4.2,20.5-5c4.1-0.3,8.4-0.2,12.4-0.5c3.5,0,7.3-0.8,10.8-0.9c0.5-0.3,1.4-0.1,1.6,0.4c-0.3,0.8-0.8,1.1-1.3,1.4
			c-7.2,3.4-12.8,8.5-19.2,13.4c-4.8,4-9.3,8.5-15.7,9.5c-3-0.3-6.2,0.2-9.7,1.6c-1.1,0.6-2.7,1.5-2.9,3.6c5.2,0.3,9.2,0,13.5-2.4
			c4.5-3.2,9.3-5.9,13.9-9.1c4.2-3.7,8.5-7.4,12.5-10.3c8-5.8,16.8-10.1,26.8-11.2c6.2-0.3,12.4-1.8,18.9-2.8
			c9.2-1.3,19.5-1.9,28.6-4.4l0.8,0.2c-2.9,2.3-5.6,3.8-8.2,6.6c-2.9,2.3-6.1,5.4-10.1,7c-5.9,2-10.7,6-16.6,8c-3,1-5.4,1.7-8,3.2
			c-1.1,0.6-2.2-0.1-3-0.3c-4.4-1.4-8.1,2-8,5.8c1.9,2.2,7.1,1.2,8.9-1.8c1.6-2.2,4.2-3.7,6.7-4.4c5.6-2.5,11.8-4.1,17.2-7.1
			c-1.8,3-3.9,5.5-6.9,7.8c-5.3,4.3-9.5,9.3-15.9,12.9c-1.8,1.7-4.5,3.2-6.4,4.9c-0.8,1.1-3,1-4.3,1.1c-2.4,0.7-4.6,1.9-6.4,3.6
			c-1.3,1.4-1.6,2.2-0.4,4.1c3.3,0.8,5.9-0.7,8.3-2.7c5.8-5.9,12.5-10.3,18.6-15.7c2.9-2.3,5-4.8,8.2-6.6c2.9-2.3,4.2-5,6.3-7.5
			c7.7-6.3,14.3-13.3,22.9-18.1c5.3-3,10.7-4.7,16.3-7.3c2.4-0.7,4.6-1.9,8.4-1.5c-3.2,3.1-5.5,6.4-9,9c-1.3,1.4-2.6,2.8-4.5,4.5
			c-1.3,1.4-2.6,2.8-4.5,3.2c-3.2,0.5-4.5,3.2-6.4,4.9c-1.1,0.6-1,1.9-0.5,2.9c3.3,0.8,5.7,0,7.5-2.9c4.2-6.3,9.2-12.3,14.7-17.4
			c1.9-1.7,3.7-3.4,4.7-5.3c2.1-2.5,5.3-3,7.8-3.7c10.5-3.9,20.9-7.9,30.8-12.8c5.1-2.2,10.4-5.2,15.8-7c7.8-2.4,15.5-6.2,23.9-8.9
			c2.7-1.5,5.9-2,8.6-3.5l0.3,0.5c-2.1,1.2-3.5,2.6-5.1,3.5c-8.2,6.6-18.1,11.5-26.4,18.1c-8,5.8-16.8,11.4-25.3,17.5
			c-7.4,5.5-14.6,11.5-21.2,18.4c-2.4,2-5,4.8-7.1,7.3c-2.9,3.6-6.9,5.2-10.9,6.8c-9.4,3.4-18.8,4.1-28.6,5.7
			c-0.8-0.2-1.6-0.4-2.5-0.6c-3-1.5-4.9-1.1-7.5,1.6c-0.8,1.1-1.6,2.2-2.4,3.3c0.3,1.8,1.1,2,3,1.5c1.4-0.1,2.7-0.2,3.8-0.8
			c6.7-3.1,13.4-5,20.2-5.5c5.4-0.4,10.2-3.2,15.1-4.6c1.4-0.1,2.4-0.7,3.8-0.8c-1.3,2.7-3.2,4.4-4.7,5.3c-4.3,2.4-7.4,5.5-11.4,8.4
			c-4.5,3.2-9.6,5.4-14.4,8.1c-6.2,2.8-12.6,5.2-17.9,9.4c-2.9,2.3-6.9,3.9-10.1,5.7c-2.1,1.2-4.3,2.4-6.1,4.1
			c-3.2,3.1-7.5,4.2-10.9,6.8c-2.1,1.2-3.2,3.1-4.2,5c-0.5,0.3-0.5,1.6,0.1,2.6c1.1,0.7,1.9,0.9,3,0.3c1.9-0.4,3.7-2.1,4.2-3.7
			c1.5-4.8,5.8-7.2,10.1-9.6c5.8-4.6,12.8-8.5,19.7-12.4c9.1-5.1,18.5-8.5,27.8-14.4c-0.8,2.4-2.4,3.3-3.7,4.7
			c-3.7,4.7-7.9,9.6-12.4,14.1c-7.4,6.8-14.8,13.5-22.8,19.3c-6.9,5.2-14.1,9.9-18.8,16.5c-2.9,3.6-6.4,4.9-9.8,7.5
			c-2.1,1.2-3.7,2.1-4.2,5c-0.3,0.8-0.5,1.6-0.2,2.1c1.1,0.7,1.9,0.9,3.3,0.8c1.6-0.9,3.7-2.1,4.2-3.7c1.5-6,7.1-9.8,11.3-13.5
			c2.6-2.8,4.7-5.3,8.2-7.9c0,0,0.8,0.2,1.3-0.1c-1.3,2.7-2,5-3,8.2l-0.5,0.3c0.1,3.8-3.4,6.4-5.8,8.4c-1.8,1.7-2.1,3.8-2.3,5.8
			c0.3,0.5,0.8,1.5,1.7,1.7c0.8,0.2,1.4-0.1,2.4-0.7c0.8-1.1,2.1-2.5,2.3-4.6c1-4.4,2.8-8.7,4.6-13c2-5.1,5.5-8.9,8.9-12.8
			c1.6-2.2,4-2.9,5.8-4.6c11.1-10.2,21.7-21.3,31.9-33c1-1.9,2.4-3.3,4.2-3.7c-0.8,2.4-2.3,4.6-3.6,7.2c-2.5,6.6-6.2,12.6-8.2,18.9
			c-1.5,6-1.3,12.4-2.3,18.2c-1,4.4-2.2,8.4-2.7,12.6c-0.3,0.8-1.3,1.4-1.9,1.7c-5.9,3.3-11.2,6.3-17.7,8.7
			c-2.4,0.7-5.1,2.2-6.7,4.4c-1,1.9-0.7,3.7,2,3.4c3.8,0.5,6.2-1.5,8-4.5c1.8-3,4.2-5,7.2-6c2.4-0.7,4.3-2.4,6.4-3.6
			c0.4,3.1-0.7,4.9-1.7,6.8c-1.3,2.7-2.3,4.6-3.1,6.9c-1.5,4.7-6.3,7.5-8.9,11.5c-0.8,1.1-1,1.9-1.8,3c0,1.3,0.3,1.8,1.4,2.5
			c0.8,0.2,2.2,0.1,2.4-0.7c3.2-3.1,4.7-6.6,5.4-10.2c0-1.3,0.2-2.1,0.5-2.9c2.9-3.6,5.2-8.1,7.3-11.9c1.8-4.3,3-8.2,4.6-13
			c1.1,2,0.6,3.5,1.5,5c0.7,6.1,2.7,12.1,4,17.9c1.5,5,1.6,10.1,2.6,15.5c-0.2,2.1-1.5,3.5-2,5.1c-1,3.2,0.7,4.8,3.6,5.1
			c2.2,0.1,2.4-0.7,2.9-2.3c0.5-2.9-0.4-5.6-1.3-8.4c0.3-0.8-0.6-1-1.6-0.4c0.7-4.9-1.6-8.8-1.9-13.2c-0.1-3.9-2.1-7.3-1.9-10.6l0,0
			c-2-6-3.3-11.8-4-17.9c-0.5-8.2,0.7-16,2.7-23.6c0.2-2.1,1.8-4.2,2.8-6.1c2.8-6.1,5.4-12.8,8.2-18.9c3.9-5.5,7.3-11.9,12.6-16.2
			c1.1-0.6,1.3-1.4,2.7-1.5c-1,1.9-1.3,4-1.8,5.5c-2.4,13-3.4,26-1.2,38.4c0.7,4.8,0.5,9.5,1.2,14.3c0.6,1,0.1,2.6-1.3,4
			c-3.5,2.6-2.8,6.2-3,9.5c0.3,1.8,1.4,2.4,3.6,2.5c1.3-0.1,2.1-1.2,2.4-2c1.3-4,1.4-7.3-0.5-10.8c0.2-0.8-0.6-1-0.3-1.8
			c1-4.5,0.6-8.8,0.2-13.1c-0.7-4.8-1-9.2-1.7-14c-0.3-3.1-0.4-5.6,0.6-8.8c0.4-4.1,0.3-8,0.8-12.1c1.2-7.8,4-15.2,9.2-22.1
			c4.7-6.6,12.2-10.8,19.1-16c4-2.9,7.7-6.3,12.2-9.5c4.3-2.4,8.5-4.8,12.8-8.5l0.3,0.5c-1.6,2.2-3.7,4.7-5,7.3
			c-1.5,3.5-3.1,6.9-4.6,10.4c-2.6,5.4-6,10.5-9.6,15.2c-2.9,3.6-5,7.4-8.1,10.4c-1.6,2.2-3.7,4.7-6.6,5.7c-1.6,0.9-2.4,2-3.2,3.1
			c-0.3,0.8-0.8,2.4,0.3,3.1c1.1,0.7,2.2,0.1,3.2-0.5c1.3-1.4,2.7-2.8,3.7-4.7c1.3-2.7,3.4-5.2,6-7.9c3.9-5.5,8.4-11.2,11.5-16.9
			c0.5-0.3,0.5-0.3,1.6-0.9c-0.5,1.6-0.5,2.9-0.7,3.6c-1.2,5.2-1.9,10.2-4,15.2c-2.1,3.8-5,6.1-7.6,8.8c-1.3,1.4-1.6,2.2-0.7,3.7
			c0,1.3,1.1,2,2.5,1.8c1.9-0.4,2.7-1.5,2.6-2.8c0.8-1.1,1-1.9,1.3-2.7c0.2-3.3,1.2-6.5,3.8-9.3c1-1.9,2.1-3.8,2.3-5.8
			c0.6-7.5,2.9-14.6,4.3-21.9c1-4.4,4.1-8.8,7.5-12.7c4.5-5.8,9.8-10.1,15.6-13.4c5.3-3,9.3-7.2,14.1-9.9c1.6-0.9,2.4-2,4.8-2.7
			c-2.1,3.8-4.4,7-6.8,10.3c-1.8,3-3.9,6.7-6,10.5c-0.5,1.6-1.3,2.7-3.7,3.4c-2.1,1.2-4.8,2.7-6.1,5.4c-0.8,2.4,0.1,3.8,2,4.7
			c1.4,1.2,2.7-0.2,4-1.6c1-1.9,3.7-3.4,3.6-6c0.1-7.2,5.9-13.1,9.6-19c1.8-3,4.2-6.3,6.3-8.7c1.1-0.6,1-1.9,0.7-2.4
			c1.3-1.4,2.7-1.5,3.7-2.1c5.4-1.7,9.9-4.9,14.7-7.6c5.6-3.8,10.9-6.8,16.8-10.1c5.3-3,10.1-5.7,15.5-8.7c1.3-1.4,2.4-2,4.6-1.9
			c-0.2,2.1-2.1,2.5-2.9,3.6c-6.1,6.7-12.7,12.4-18.7,19c-9,9-16.3,19.6-23.1,29.9c-4.4,7.1-8.9,14.1-11.7,21.5
			c-2.5,6.6-7.8,10.9-13.2,15.2c-2.9,2.3-6.7,3.1-10.5,3.9c-3,1-7,1.4-9.9,3.6c-1.1,0.6-2.2-0.1-3-0.3c-4.6-0.6-9.1,2.6-9.9,6.2
			c0.9,1.5,2.2,1.4,3.5,1.2c1.9-0.4,3.8-0.8,5.6-2.5c4.2-5,10.2-5.7,15.5-7.4c1.9-0.4,3.2-1.8,5.7-1.2c-2.6,2.8-6.1,5.4-9.6,8
			c-7.2,4.7-13,10.6-19.1,17.3c-0.5,0.3-0.8,1.1-1,1.9c-2.1,2.5-2.3,5.8-6.6,7c-1.6,0.9-2.4,3.3-3.7,4.7c-0.8,1.1-0.5,2.9,0.6,3.5
			c1.1,0.7,2.7-0.2,3.5-1.3c1.8-3,4.2-6.3,5.4-10.2c0.5-1.6,1.5-3.5,3.4-5.2c6.1-6.7,13.2-12.7,20.7-18.1
			c5.8-4.6,10.9-9.4,15.9-15.4c1.1-0.6,1.9-1.7,3.5-2.6c-3.3,10.3-8.5,19.7-12.3,29l0,0c0.8,0.2,1.3-1.4,1.6-2.2
			c4.2-5,6.8-11.6,9.1-17.5c2.3-5.8,5.4-11.5,6.6-18c0.7-3.7,3.9-6.7,6.8-10.3c-0.2,2.1-0.4,4.1-0.6,6.2c-0.7,4.9-1.1,10.4-1.3,15
			c-0.2,3.4-0.1,5.9,0.2,9c1.5,5,0.8,10,0.9,15.1c-0.2,4.6,0.2,9,0.6,13.3c1.6,10.1,0.5,20.5-2.7,30.8c-1,3.2-1.4,7.3-2.5,10.5
			c0,0,0.3-0.8,1.1-0.6c1.4,3.7-0.1,7.2-3.1,6.9c-0.6-1-0.3-1.8,0.5-2.9c0-1.3,1.6-2.2,1.5-3.5c-2.1,1.2-3.7,3.4-3.6,5.9
			c-0.3,0.8-0.2,2.1,1.1,2c0.8,0.2,1.6,0.4,2.7-0.2c1.9-1.7,2.9-3.6,2.6-5.3c0.3-8,2.6-15.1,4-22.4c0.7-4.9,1.7-9.4,0.5-13.9
			c-0.6-2.3,0.1-4.6,0.6-7.5c1.2,3.2,2,6,2.6,8.3c2,6,6,11.6,7.5,17.9c0,1.3,0.9,2.8,0.9,4c0.9,4,0.7,7.4-1.6,10.7
			c-0.8,1.1-1.8,3-1.8,4.3c-0.2,2.1,1.7,4.2,3.1,4.1c2.2,0.1,3.2-1.8,3.4-3.9C277.2,179.6,277.1,177,276.7,174L276.7,174L276.7,174
			c-1,1.9-1,4.4-0.7,6.2c0,1.3,0.1,2.6-1.3,4c-1.9,0.4-2.5-0.6-2.8-2.3C272.5,178.9,273.8,176.3,276.7,174L276.7,174z M230.6,81.7
			c-2.2-0.1-2.7-1.1-2-2.2c0.8-2.4,2.9-4.9,5.8-5.9C235.4,77.7,232.2,79.5,230.6,81.7L230.6,81.7z M159.6,189.3
			c-3.8-1.7-3.7-6.4,0.3-9.3C160.2,183.1,160.6,186.1,159.6,189.3L159.6,189.3z M293.9,122.7c1.1,2,1.4,3.7,1.8,5.5
			c0,1.3-0.2,2.1-1.6,2.2c-1.1,0.6-1.6-0.4-2.2-1.4C290.7,127.1,292.3,124.9,293.9,122.7L293.9,122.7z M117.9,81.5
			c2.9-3.6,7.5-4.2,11-3C125.2,80.6,122,81.1,117.9,81.5L117.9,81.5z M80.8,38c-2.4,3.3-5.6,5.1-8,4.5C74.6,39.6,76.2,38.7,80.8,38
			L80.8,38z M140.5,227.3c1.4,2.5,1.7,4.2,1,6.6c-1.1,0.6-2.4,0.7-2.7-1C138.4,231.1,138.9,229.5,140.5,227.3L140.5,227.3z
			 M79.8,169.9c-1.3,2.7-1.8,5.5-5,6.1C73.9,173.2,76.3,171.2,79.8,169.9L79.8,169.9z M108.9,132.1c2.6-4.1,4.2-5,8-3.2
			C114.3,130.3,112.4,132,108.9,132.1L108.9,132.1z M109.8,202.4c-1.3,3.9-3.6,5.9-6.9,5.2C104.2,204.9,107.1,203.9,109.8,202.4
			L109.8,202.4z M105.1-41.3c-4.3-0.2-6.3-1-5.8-3.9C102.6-45.7,104-44.6,105.1-41.3L105.1-41.3z M87,47.5C87,45,89.3,41.7,91,42.1
			c0.3,0.5,0.8,1.5,1.1,2C90.8,45.4,90,47.8,87,47.5L87,47.5z M52.9,69.4c3,0.3,3.3,2,2.6,5.7C52.2,74.3,51.9,73.8,52.9,69.4
			L52.9,69.4z M80.4,120.8c-0.5,2.9-3.1,4.4-5.6,3.8C75.6,120.9,76.1,120.6,80.4,120.8L80.4,120.8z M155,36.5
			c-2.1,2.5-5.3,3-8.4,1.5C149.3,35.2,152,36.3,155,36.5L155,36.5z M303.8,108c1.6-2.2,2.9-2.3,4.8-1.4c0.6,1,1.1,2,0.1,2.6
			C306.3,111.1,305.7,108.9,303.8,108L303.8,108z M66.7,144.8c1.8-3,5.6-5.1,8-4.5C72.1,143.1,70.5,144,66.7,144.8L66.7,144.8z
			 M96.4-22.1c3.5-1.3,5.4-0.4,6.8,2C100.3-19.1,98.1-20.4,96.4-22.1L96.4-22.1z M212.2-16.5c-1.4-2.5-1.2-4.5,1.2-6.5
			C215.3-20.9,214.8-19.3,212.2-16.5L212.2-16.5z M278,135.6c-2.7-1.1-2.8-3.6,0.4-6.7C278.9,131.1,278.7,133.2,278,135.6L278,135.6
			z M99.7,2c2.7-0.2,4.9,1.1,5,3.7C102.5,5.7,100,5.1,99.7,2L99.7,2z M195.3,122.4c-0.2,2.1-0.7,3.6-1.2,5.2
			c-0.2,0.8-0.8,1.1-1.6,0.9c-0.8-0.2-1.1-0.7-0.9-1.5C192.1,125.4,192.6,123.9,195.3,122.4L195.3,122.4z M53.7,25.4
			c2.1-2.5,5.9-3.3,8.6-2.3C59.4,24.1,56.7,25.6,53.7,25.4L53.7,25.4z M115.2,49.8c-2.1,1.2-4.6,1.9-7.3,0.8
			C110.3,48.7,113,48.5,115.2,49.8L115.2,49.8z M122-50.2c2.2,1.4,3,2.8,3.6,5.1C122.1-46.3,121-47,122-50.2L122-50.2z M31.9,85.7
			c2.4-2,5.1-2.2,8.1-0.7C37.1,86.1,34.9,86,31.9,85.7L31.9,85.7z M116.1,217c-2.8,6.1-2.8,6.1-4.7,6.6
			C111.9,220.7,113.8,219,116.1,217L116.1,217z M214.8,113.3c-1.8,3-4.5,4.5-6.9,3.9C209.5,115,211.6,113.8,214.8,113.3L214.8,113.3
			z M72.1,199.6c-1,4.4-1.8,5.5-4.5,5.8C67.9,203.3,69.7,201.6,72.1,199.6L72.1,199.6z M179.2-56.4c3,1.6,3.3,3.3,2,6
			C180.1-52.4,178.5-54.1,179.2-56.4L179.2-56.4z M14.4,133.9c3.2-3.1,5.6-3.8,7.8-2.4C20.1,132.7,17.4,132.9,14.4,133.9L14.4,133.9
			z M109.1,63.7c-2.1,1.2-4.6,1.9-7.5,1.6C104.2,63.9,106.6,63.1,109.1,63.7L109.1,63.7z M158-47.7c-2.5-0.6-3.8-0.4-4.7-1.9
			C155.8-51.7,156.6-51.5,158-47.7L158-47.7z M60.8,4.5c2.7-1.5,4.8-1.4,7-0.1C65.4,5.1,63.3,6.3,60.8,4.5L60.8,4.5z M197.9,148.9
			c0.2-3.4,2.3-5.8,4.2-6.3C200.5,146.1,200.2,146.9,197.9,148.9L197.9,148.9z M131.9,109.3c1.6-2.2,2.6-4.1,5.3-5.6
			C135.9,106.5,135.1,108.8,131.9,109.3L131.9,109.3z M9.3,103c2.1-2.5,3.5-2.6,5.1-1C12.8,103,11.5,103.1,9.3,103L9.3,103z
			 M161.2-19c2.4-0.7,3.8,0.5,5.5,2.1C164-16.6,162.6-17.8,161.2-19L161.2-19z M181.8,122.2c-0.2,2.1-1.5,3.5-3.7,4.7
			C178.8,124.5,180.4,123.6,181.8,122.2L181.8,122.2z M85,204.7c-1.1-2,0.2-3.4,1.2-5.2C86.5,201.2,86.5,202.5,85,204.7L85,204.7z
			 M5.3,115.7c1-1.9,2.9-2.3,4.8-2.7C7.7,115,7.7,115,5.3,115.7L5.3,115.7z"/>
		<path class="st1" d="M236.6,126.4c-2.6,2.8-3.6,6-5.2,9.4c-2.8,6.1-5.9,11.8-9.9,17.3c-1,1.9-1.8,3-4.2,3.7
			c-2.4,0.7-4.5,3.2-7.5,4.2c-3.7,2.1-7.5,2.9-11.6,3.3c-4.1,0.3-8.6,3.5-10.6,7.3c-0.3,0.8,0,1.3,0.3,1.8c0.6,1,1.6,0.4,2.2,0.1
			c3-1,5.3-3,7.4-5.5c1.3-1.4,2.9-2.3,4.8-2.7c4.8-1.4,9.4-3.4,14.7-6.4c-1,3.2-2.6,5.4-3.9,6.7c-2.9,3.6-5.8,7.2-8.7,10.7
			c-1.9,1.7-3.5,2.6-5.1,3.5c-3.7,2.1-5,4.8-6.6,8.3c-0.2,0.8-0.5,1.6,0.6,2.3c0.6,1,1.6,0.4,2.7-0.2c3.7-2.1,6.1-5.4,6.5-9.5
			c0.5-1.6,1.3-2.7,2.6-4.1c2.9-2.3,4.8-4,7.4-6.8c-1.3,4-1.2,7.8-4.3,10.9c-1.6,2.2-2.9,4.9-2.3,7.1c0.1,2.6,1.7,2.9,3,1.5
			c1.6-0.9,2.9-2.3,2.3-4.6c-0.1-3.8,0.3-8,2.1-12.2c0.5-1.6,0.4-4.2,1.5-6c1-1.9,2.3-4.6,3.9-6.7c3.1-4.4,6.5-9.5,9.7-13.9
			c1.6-2.2,1.5-4.8,4.4-7.1c-0.7,3.7-0.9,7-1.1,10.4c-0.6,8.8-0.9,18.1-3.9,27.6c-1.3,4-2.8,8.7-5.1,13.3c-0.5,1.6-2.4,3.3-4.2,5
			c-1.6,2.2-2.1,3.8-0.1,5.9c0.3,0.5,0.6,1,1.9,0.9c0.8,0.2,1.1-0.6,1.3-1.4c1.5-4.8,3.8-9.3,4-13.9c0.5-1.6,1.3-2.7,1.8-4.3
			c4.4-8.3,4.2-17.3,5.3-26.4c0.7-6.2,1-12.9,2-18.6c0.2-2.1,1.8-4.3,0.1-5.9c-0.8-0.2,0-1.3,0.5-1.6
			C235.5,128.3,237.1,127.4,236.6,126.4L236.6,126.4z M194.3,189.2c0.4-4.2,3.6-8.5,8.2-9.2C200.3,183.9,199.1,187.8,194.3,189.2
			L194.3,189.2z M196.9,165.7c-1.5,3.5-3.9,5.5-6.6,5.7C191.6,168.7,194.2,167.2,196.9,165.7L196.9,165.7z M222.3,193.6
			c-1,1.9,0.4,4.3-2,6.3C218.8,197.5,219.6,196.4,222.3,193.6L222.3,193.6z M207.8,188.1c-0.3-1.8-0.1-3.8,1.8-5.5
			C209.3,184.7,211.3,186.8,207.8,188.1L207.8,188.1z"/>
		<path class="st1" d="M50.8,116c-2.7,0.2-3.7,2.1-4.8,4c-2.1,3.8-2.8,7.4-5.2,10.7c-0.5,1.6-1.3,2.7-2.9,3.6
			c-1.6,0.9-2.9,2.3-4,4.2c-1,1.9-0.2,3.4,1.5,3.8c1.9,0.9,3.2-0.5,3.7-2.1c2.6-5.3,4.3-10.9,6.9-16.2
			C47.4,121.2,48.7,118.5,50.8,116L50.8,116z M38.6,136.6c-0.2,2.1-1,3.2-1.8,4.3C35.7,138.9,36.2,138.6,38.6,136.6L38.6,136.6z"/>
		<path class="st1" d="M136.6,200.9c3.3,3.3,5.9,7.7,10.3,10.5c1.7,1.6,2.8,3.6,2.9,6.2c0.3,0.5,1.1,0.7,1.4,1.2
			c1.1,0.7,2.5,1.9,4.1,0.9c1.3-1.4,0.5-2.9,0.4-4.1c-0.3-1.8-1.7-1.7-3-1.6c-1.9,0.4-2.5-0.6-3-1.5c-0.6-1-1.7-1.7-2.8-2.3
			c-2.5-1.9-4.4-4-5.8-6.5c-0.9-1.5-2.8-2.3-3.6-3.8C136.8,200.2,137.1,200.6,136.6,200.9L136.6,200.9z M153.5,215.5
			c1.1,0.7,1.7,1.6,0.9,2.7c-2.4-0.6-2.7-1.1-3-1.5C152.1,215.6,152.7,215.3,153.5,215.5L153.5,215.5z"/>
	</g>
</g>
</svg>
