<svg id="Calque_1" data-name="Calque 1" xmlns="http://www.w3.org/2000/svg" viewBox="0 0 746.25 311.42"><defs><style>.cls-1{fill:#010101;}</style></defs><title>floralseparator</title><path class="cls-1" d="M75.12,72.21c.15,1.71-.58,2.89-.91,4.71A26.7,26.7,0,0,0,73,84.67c-.77-.08-.58-.37-.88-.55A4.6,4.6,0,0,0,71.57,87c.57.36.94-.22,1.12-.51,4,2.07,4.38,6,5.26,9.75a3.74,3.74,0,0,1-.88,2.7,13.6,13.6,0,0,1-3.42,3.54,8.43,8.43,0,0,0-3.71,6.59c-.28,3.06,0,6.47-.27,9.53-.11,2.77.25,5.43-.61,8.13-.34,1.82.11,3.71.07,5.71-.18.29-.07.76.52,1.13.46-.11.36-.58.25-1a12.87,12.87,0,0,1,3.82-6.13,7.15,7.15,0,0,0,1.78-4.15,3.74,3.74,0,0,1,2.76-3.13c.84-.69,1.49-1.1.79-1.94,1.75-2.14,2.63-4.84,3.6-7,.45-1.35-.07-2.49.18-3.54a52.34,52.34,0,0,0-.89-13.51,4.17,4.17,0,0,0-1.6-2.61c-1.09-1.5-.84-2.56-.7-4.08.26-1.07,1.5-1.1,2.44-1.32,1.25,0,1.79-.91,2.52-2.08a8.39,8.39,0,0,1,6.15-4.66c2.94-.19,6.33,1.52,7.17,4.07a4,4,0,0,0,2.84-.66,3.06,3.06,0,0,1,2.85-.66c1.92.8,3.74,1.13,5.67,1.93s3.35,3.7,3.32,5.71c-.11,2.77,0,5.24-1.49,7.57a43.38,43.38,0,0,1,7.62,6,5.18,5.18,0,0,1,1.54,6.63,1.75,1.75,0,0,0,.25,2.18,6.73,6.73,0,0,1,1.1,4.73,14.77,14.77,0,0,1-2,8.44,9.54,9.54,0,0,1-6,4.38,4.75,4.75,0,0,0-1.71.15,5.54,5.54,0,0,0-4.11,2.7c-.8,1.92-3.75,2.12-5.13.44a54.51,54.51,0,0,1-7.23-8.55,4.8,4.8,0,0,0-1.67-1.85c-2.22-1-4.55-2.44-6.66-2.94a10,10,0,0,0-7,.87A10.14,10.14,0,0,0,76,123.37c-2,3.21-3.71,6.59-5.42,10a13.14,13.14,0,0,0-.76,6.41c.55,2.37-.43,4.59-.94,6.69-1-1,.51-2.1-.76-3.31.14,1.72-.88,2.7,0,4.48.52,1.13.19,2.95-.25,4.3-.4,2.58,0,5.24-.42,7.83a95.09,95.09,0,0,1-1.82,9.39,47.63,47.63,0,0,0-.93,6.7c.1.48-.08.78.2,1,1.58,1.37,2,3.27,3.22,5.24,6.33-1.72,10.27,2.34,14.31,6.89-.68,2.41-1.08,5-1.66,7.87,2.44-1.31,2.94-3.42,3.27-5.24,1-5.47-.41-10.37-2.56-15.37a1.79,1.79,0,0,0-.81-1.31c-2.65-2.87-3.82-6.83-5.36-10.23-.5-1.11-1-2.24-.11-3.7a4.31,4.31,0,0,1,1.38-1.57A7.69,7.69,0,0,1,80.3,158l.18-.28c1-3.47,3.85-4.89,6.7-5.55,2.36-.54,4.51-2,7.2-1.17.58.37.94-.21,1.42-.33.58.37.8,1.31,1.56,1.39,2.88.57,5.1,1.55,6.35,4.76,6.29-3,11.5-.92,16.13,4,.15,1.71.77,3.31.73,5.31-.25,1.06.62,1.6,1,2.26a35.2,35.2,0,0,1,4.63,4.91c.88.54,1.1,1.49,1.5,2.15a43,43,0,0,1,1.86,4.8c1.5,5.39,1.47,10.63-3.26,15a3.29,3.29,0,0,0-.95,3.45c1.07,3.49.77,6.56-1.33,9.29-1.82,2.9-4,5.18-7.86,4.8l-1.64,2.63c1.28,1.2,2.44,1.93,3.06,3.53,1.64,3.86,4.7,7.38,3.22,11.72a18.46,18.46,0,0,1-1.31,4.05,1.91,1.91,0,0,1-1.78.91,7.69,7.69,0,0,0-4,1.17,48.4,48.4,0,0,1-7.43,3.46,35.55,35.55,0,0,1-12,3l9.17.87a63.58,63.58,0,0,0,9.5-1c3.13-.47,5.93-2.37,9.36-2.66a1.28,1.28,0,0,1,.69.83c-7.93,2.33-15.4,4.57-23.92,3.3l.11.47a16.79,16.79,0,0,0,3.94.84c3.93.84,7.86,1.67,11.94,1,2.95-.18,5.79-.84,8.56-.73,1.3-4.05-.49-9.61-3.48-10.67,1.13-.51,1.6-.62,2.12.51a14.14,14.14,0,0,1-.06,17,17.72,17.72,0,0,1-5.12,3.69c-.67.4-1.14.51-1.39,1.56a15.27,15.27,0,0,1-3.34,6,2.64,2.64,0,0,0-.63,1.64c-3.56,1.83-6.87,2.59-10.62,1.48-.65.39-.73,1.15-1.09,1.74-.88,2.69-5.61,3.79-7.65,2.52l-2-1.27c-.59-.37-.88-.55-.82-1.31A28.44,28.44,0,0,1,89.9,264c.36-3.83-1.17-7.22-2.7-10.59a16.4,16.4,0,0,0-5.44-6.23c-2.91-1.81-5.82-3.63-9.49-2.28a110.64,110.64,0,0,0-14.5,6.35c-5.52,3-10.55,7.17-15.49,10.57a43.71,43.71,0,0,0-10.73,10.72c-1.39,1.56-1.71,3.38-2.8,5.13-4.33,8.24-9.71,16.22-15.09,24.19-2.1,2.74-4.33,5-6.44,7.72C4.75,312.91,2,316.05-.08,320c-.18.29-.44,1.35-1.39,1.56a28.42,28.42,0,0,1,2.62-4.85C4.71,311.67,9,306.68,12.89,301.8c2.12-2.73,3.64-5.84,5.64-9A58.47,58.47,0,0,0,23,286.25a52.23,52.23,0,0,0,3.81-6.13c2.07-4,4-7.64,6-11.62a78.49,78.49,0,0,0,5.26-11.69l.92-1.46c.54-.88,1.09-1.75.57-2.88,0-1.23,1-2.21,1.54-3.08.62-1.65,1.34-2.81,2-4.45a4.8,4.8,0,0,0,.5-2.12,15.18,15.18,0,0,0-2.28,3,60.07,60.07,0,0,1-5.63,12.28c-1,2.21-1.79,4.15-2.59,6.08-2.5,5.31-5.12,10.16-7.91,15.3-2.73,4.37-5.64,9-8.08,13.58-.73,1.17-.87,2.69-1.71,3.39-1.85,1.68-2.83,3.9-3.92,5.65a52.81,52.81,0,0,1-6.81,8.3l-1.09,1.75c-.55.88-.91,1.46-1.67,1.39h0c1.12-.51,1.57-1.86,2.11-2.73a104.2,104.2,0,0,0,10.62-14.43,87.8,87.8,0,0,0,3.15-9c.77-3.17.4-5.82.22-8.78A10.53,10.53,0,0,0,16.66,275a1.06,1.06,0,0,1-.4-.66c-1.75-4.33-5.55-6.7-10.06-7.9-2.11-.51-4-1.3-6.51-1.23-2,0-4-.07-5.72.08-3,.19-5.9.37-8.56.74a19.74,19.74,0,0,1-6.66.29c-2.66.38-5.72-3.16-5.08-6.8.08-.77.44-1.36.52-2.12a1.62,1.62,0,0,0-.55-2.36c-2.08-2.51-1.5-5.39.14-8l2.18-3.5a5.16,5.16,0,0,1,3.17-2.47c.94-.22,1.59-.63,1.56-1.87.25-4.29,3-7.42,5.89-10.08a8.32,8.32,0,0,1,8-1.87c1.35.44,3.06.29,4.41.73a1.37,1.37,0,0,0,1.3-.81c1.28-2,2.88-2.66,5-3.39a10,10,0,0,1,10.05,1.41,2.21,2.21,0,0,0,3-.18c1.67-1.39,3.41-.3,5.34.51a3.14,3.14,0,0,0,2.59.39,4.31,4.31,0,0,1,4.3.25,10.32,10.32,0,0,1,5.21,5.27,8.77,8.77,0,0,1,.55,5.6,17.78,17.78,0,0,1-1.92,5.69c-.62,1.64-2.22,2.26-3.13,3.72-2.47,3.32-5.82,6.08-8.29,9.4a24.26,24.26,0,0,0-5,8.64,6.63,6.63,0,0,0-.29,3c-.07.77-.55.88-1,1a10.86,10.86,0,0,0,1.1,4.73c1.75,4.32,1.79,8.81,1.36,13.4a1.26,1.26,0,0,0-.26,1.05c.77.08.66-.4.84-.69a184,184,0,0,0,9.78-17,30.9,30.9,0,0,1,2.8-5.13A81.26,81.26,0,0,0,36.19,256c2.87-5.92,5.45-12,8-18.07a25.17,25.17,0,0,0,2.32-8.27,10.1,10.1,0,0,0-1.47-7.4c-.11-.47-.11-.47-.21-.94-1-4.26-4.3-6.73-8.1-9.09a15.28,15.28,0,0,0-10.26-2.36c-2.19.25-4.11-.54-6.23-1-.77-.07-1.17-.73-1.56-1.38-.73-2.08-3.14-2.77-5-2.33-1.13.51-2.44,1.31-3.79.88,1.61-.62,3.42-.29,4.51-2-1.49-2.15-1.49-2.15-4-1.31a13.53,13.53,0,0,1-4.15,1.46.76.76,0,0,0-.84.69c1.46.91,3.18.76,4.52,1.2a5.69,5.69,0,0,1-6.37-2.76,14.65,14.65,0,0,1-3.14-6,7.28,7.28,0,0,1,1.38-4.81c1.38-1.56,1.09-1.74-.29-3.42a24.64,24.64,0,0,1-5-8.8,17.59,17.59,0,0,1-.26-5.43c.18-.29.07-.76.55-.87,1.13-.51,1.2-1.27.79-1.93,1.82-2.91,4.55-4,7.86-4.82a15.42,15.42,0,0,1,3.09-11.43c.19-.29.66-.4,1.23,0a4.25,4.25,0,0,1-1.37,1.56c-.74,1.18-.8,1.93-.11,2.78,3.76,4.36,7.58,8,11.51,12,2.38,2.69,4.45,5.2,6.83,7.89.58.36.8,1.31,2.11.51-3.36-3.72-6.05-7.82-9.23-11.83S12.72,161.22,9.26,157a1.79,1.79,0,0,1,1.64.62c5.54,6.69,10.79,13.2,16.15,20.18,1,1,2.63,1.64,3.42,3,.4.65.88.54,1.43-.34q-2.14-4.36-4.27-8.73A66.63,66.63,0,0,1,23,160.34c-.33-1.42-1.68-1.86-2.55-2.4A11.8,11.8,0,0,1,16,156a7.31,7.31,0,0,0-4.69-.9,4.66,4.66,0,0,1,5.06.32,41,41,0,0,0,5.5,2.22c-.58-3.61,1.63-5.86,3.74-8.6.22,1-.43,1.35-.32,1.82l.29.19c-1.67,1.38-1.67,1.38-.95,3.45,1.43,2.92,2.48,6.41,3.72,9.61-1.78-2.33-2.44-5.16-4-7.78,2,5.27,3.57,11.13,6.49,16.19-.51-1.13-.72-2.07-1.24-3.2-.14-1.71-1.53-3.38-1.49-5.39a1.23,1.23,0,0,0,.69.84c1.34,3.67,2.7,7.35,4.16,11.5.29.18.22.94,1,1s.84-.69.44-1.36c-.22-.93-.92-1.77-1.24-3.19s-1.61-2.62-1-4.26h0c1.21,2,1.46,4.15,2.19,6.22a2,2,0,0,0,1.1,1.5,18.47,18.47,0,0,0,4.91-4.64.68.68,0,0,0,.22.95,2.63,2.63,0,0,0,.32-1.82c-.59-.37-1,.22-1.34-.43a85.15,85.15,0,0,1-1.18-10.45c-.26-2.18-.81-4.55-1.06-6.74-.56-2.36-2.48-3.16-4.49-3.2,1.5,5.4,3.37,10.19,4.1,15.51a.34.34,0,0,1-.47.11,20.59,20.59,0,0,0-.88-3.78A43.8,43.8,0,0,0,32.05,151c-.73-2.07-1.61-2.62-3.68-1.89a4.6,4.6,0,0,1-1.71.14,3.64,3.64,0,0,1,4-1.16,18.54,18.54,0,0,1,3.58,1.41c2.33,1.45,4.51,1.21,6.85-.59,1.67-1.38,4.43-1.27,6.76.18a76.5,76.5,0,0,1,6.57,5.71,18.76,18.76,0,0,1,3.68,8.37c.88,3.79-1.64,5.87-4.15,7.94-.66.41-.66.41-1.09,1.75a19.78,19.78,0,0,1,8.92,1.93,56.37,56.37,0,0,0,2.32-8.27c.47-3.36,1.24-6.52,1.42-10.06.61-4.87,1.52-9.57,1.66-14.34.51-5.35-2.45-8.4-6.53-10.95a26.49,26.49,0,0,0-6.84-2.65,9.05,9.05,0,0,0-7.5,1,70.27,70.27,0,0,1-8.93,4.56c-2.25,1-5.9.37-7.39-1.77-.29-.18-.1-.48-.39-.66.5-2.11-1.14-2.72-2.78-3.35-3.38-1.71-4.19-6.26-3.53-9.89.57-2.89,1.85-4.93,3-7.44a2.67,2.67,0,0,0,.15-1.52,14.49,14.49,0,0,1,.71-7.66,1.09,1.09,0,0,0,.08-.76c-1-1-2.89-.57-3.32-2.47,1.82.32,2.44,1.93,3.86,1.6a2.22,2.22,0,0,0,1.09-1.75.72.72,0,0,0-.51-1.13C27.27,97,26.28,96,25,96c-.55.87.52,1.12.91,1.78-1.7.15-2.29-.22-2.62-1.63-1.06-3.5,0-6.49,1.81-9.4C25.4,85.73,27,85.11,28,84.13a10.43,10.43,0,0,1-2.89-7.06,14.68,14.68,0,0,1,1.71-6.63c2.21-5.5,6.87-9.07,12.22-11.81a14.55,14.55,0,0,1,4.45-1.28c.76.07,1.52.15,2-1.2a2.57,2.57,0,0,0,2.8,1.35c1.42-.33,2.87.58,4.41.71a1.44,1.44,0,0,0,1.6-.61c2.95-3.43,6.84-3.83,10.45-1.18l3.49,2.18c2.52,1.17,3.06,3.54,3.25,6.48,0,3.24-1.63,5.87-3.74,8.6-1.46,2.33-2.73,4.37-3,7.43a1.85,1.85,0,0,0,.15,1.71c2.19-.25,3.38,1.71,5.5,2.21.76-3.16,1-6.22,2.69-8.84l-.3-.19c0,1.24-.51,2.11-.17,3.54a8.09,8.09,0,0,0,1-3c.91-1.45.76-3.17,1.78-4.16ZM9.83,260.62a9.36,9.36,0,0,1-2.44-1.93l-.18.3a4.78,4.78,0,0,0,2.62,1.63c0,1.25.63,1.61,1.79,2.34a13.5,13.5,0,0,0-1.79-2.34Zm50.2-48c-1.71.14-2.14,1.49-3.17,2.48,1-1,2.26-1,3.17-2.48a5.62,5.62,0,0,0,2.45-1.32A3.47,3.47,0,0,0,60,212.59Zm-45.6-13.87c-1.12.51-.72,1.17-.32,1.83.94-.23,2.19-.26,3-1-.8-1.31-1.93-.79-3-1.05a1.27,1.27,0,0,0,.84-.69c-.29-.18-.11-.48-.4-.66s-.58-.36-.76-.07c-.37.59-.26,1.06.61,1.6Zm50.48-32.89A2.21,2.21,0,0,0,66,164.09c.21-2.3.43-4.6.64-6.89-.37.59-.73,1.17-.61,1.64-.23,2.29-1.2,4.52-.94,6.7a65.71,65.71,0,0,0-2.39,9c-.09.78.2,1,1,1l.18-.3c.87-2.7.87-5.93,1.73-8.63.19-.29-.1-.48-.68-.84ZM22,195c-.47.11-.65.41-.26,1.06a1.87,1.87,0,0,0,2,0A1.29,1.29,0,0,0,22,195a.9.9,0,0,0-.33-1.41,5,5,0,0,0-1.38-1.68,3.54,3.54,0,0,0-4.7-.91c.44,1.9,1,2.26,2.8,1.35,1.65.62,1.61,2.62,3.61,2.65ZM39.9,208.52c.76.08.8,1.32,1.56,1.39,0-1.24-.62-1.6-1.56-1.39a7,7,0,0,0-1.61-2.61c-1.68-1.86-3.53-3.42-4.92-5.09-1.09-1.5-2.34-1.46-3.93-.84.8,1.32,2.15,1.75,3.13,2.77a29.09,29.09,0,0,1,7.33,5.77ZM63.74,89.81c.87.54.44,1.9,1.6,2.62a22.44,22.44,0,0,0,1.49-7.57,3.71,3.71,0,0,0-2.11-.51c-.36.58-.26,1.06-.62,1.64-.44,1.34.37,2.66-.07,4-.58-.36-.33-1.41-.92-1.78-1.15,2.51-.82,3.94,1.14,6,.44-1.35-.66-2.84-.51-4.37ZM12.47,199.92c-3.13.48-5.75,2.09-8.77,3a1.51,1.51,0,0,0,1.63.61,10.19,10.19,0,0,0,5.11-1.67c.84-.7,2.07-.73,2-2-.4-.64.15-1.52-.74-2.07C9,197.74,4.17,199.61,2.5,201a1.28,1.28,0,0,0,1.75,1.09c.65-.4,1.6-.62,2.25-1,2.07-.73,3.86-1.64,6-1.14Zm31.9-1.15a1.59,1.59,0,0,1,.91,1.78c.66,2.84,1.42,6.15,1.89,9.28.12.47-.06.77.51,1.13.08-4-2.9-20-4.09-22a6.33,6.33,0,0,0-.14,4.76c.33,1.43,1.24,3.2,1.2,5.21-.39-.66-.32-1.42-1.09-1.49-.25,1,.48,3.13,1.57,4.62,0-1.24-1-2.26-.76-3.31ZM30.21,128c1.16.73,0,2,.65,2.84,3.94.84,12.46-1.14,15.26-3l-.29-.19a1.87,1.87,0,0,0-1.25,0c-4.36.51-8.72,1-13.25-.18-.47.12-.76-.06-1.12.52-1-1-1.93-.8-3.17-.76.87.55,2,1.27,3.17.76ZM54.94,60.44a5.41,5.41,0,0,1,.44,1.89,58.73,58.73,0,0,0,2.81,11.06c-.22-4.18-1.86-8-1.14-12.45a2.78,2.78,0,0,1,.44,1.9A78.16,78.16,0,0,0,60,75.72c.12.48.23,1,1,1-.26,1.06-.8,1.93.54,2.37A2.72,2.72,0,0,0,62.93,82a1.84,1.84,0,0,0,0-1.24,80.31,80.31,0,0,1-.71-20.27c.08-.77.14-1.54,1.09-1.75-1.09,5-.46,9.83-.43,14.31.67-.41.45-1.36.52-2.12a88.11,88.11,0,0,1,1.48-10.81c.07-.77.25-1.06,1.68-1.39-2.7,5.61-2.32,11.5-2.54,17A72.89,72.89,0,0,1,68.3,61.08c-.91,4.7-2.87,9.14-2.9,14.38a26.75,26.75,0,0,1,3-4.19A2.62,2.62,0,0,0,69,69.63c-.7-.83-.33-1.42,0-2a6.5,6.5,0,0,1,.87-2.69c.58-2.88,0-4.48-2.37-5.94l-4.08-2.54A4.9,4.9,0,0,0,58.9,56c-.21,2.3-.25,4.29-.47,6.59-1-1-.44-1.9-.65-2.84,0-1.24.69-2.41,0-3.24-.77-.08-1,.22-1.43.33-1.49,1.09-1.16,2.52-1.59,3.86-.59-.37-.45-1.89-1.47-.91C52.64,63.46,57,79.91,59.69,82a.33.33,0,0,0-.11-.47c-1.61-5.86-3.51-11.9-4.64-17.87-.22-1-.73-2.08,0-3.24ZM123.7,196.83l1.82-2.91c-.29-.18-.29-.18-.77-.07-4.26,1-8.3-.33-12.53-1.34-2.1-.51-4.22-1-6.77-.17,5.28,1.26,10.2,3.11,15.84,3.81.77.07,1.72-.15,2.41.68a4.67,4.67,0,0,1-3.14.48c-2.5-1.16-5.75-1.16-8.25-2.32a6.46,6.46,0,0,0-3.83-.36l.87.54a26.42,26.42,0,0,1,9.29,4.59,22.53,22.53,0,0,0,6.27,2.28,13.3,13.3,0,0,0-1.21-5.21Zm-94.88-70.5a8.32,8.32,0,0,1-3.5-2.18c2.11.5,3.57,1.41,5.11,1.55,4,.07,8,.15,11.82.51,3.25,0,6.3.28,9.84.46A36.45,36.45,0,0,0,46.22,125l-12.34-1.63a38.18,38.18,0,0,1-8.27-2.32c-.29-.19-1.05-.26-1.23,0-.55.88.14,1.72.07,2.48.36,2.66,2,3.28,4.37,2.73l.88.54a33.65,33.65,0,0,0,10.3.36,10.61,10.61,0,0,0-4.4-.73c-2,0-4.3-.25-6.78-.17Zm18.71,35.55a2.63,2.63,0,0,1-.32,1.82c-.4,2.59-1.38,4.82-.07,7.24,1,.26,1.71-.15,2.14-1.49.89-2.69,1.93-5.68,3-8.67.43-1.34.87-2.69,1.31-4,.25-1.05-.67-2.84-1.42-2.91-1.36-.44-1.32.8-1.87,1.68-1,2.22-1.77,4.15-2.76,6.37.47-3.35,2.29-6.27,3.06-9.43-.3-.19-.52-1.13-1.46-.91-2.48,3.32-5.64,15.52-5.23,19.41,1.35.43,1.31-.8,1.68-1.38.57-2.88.79-5.18,2-7.69Zm60.2-32.9c-.66.41-1.25,0-1.64-.62a46.36,46.36,0,0,1-5.18-4,21.12,21.12,0,0,0-5.61-2.69,38.46,38.46,0,0,0,8,9.86,3,3,0,0,0,3.53.18,2.17,2.17,0,0,0,.88-2.7c.37-.58.25-1.06,1-1a17.74,17.74,0,0,0,5-.15,6.47,6.47,0,0,0,4-3.17,27.44,27.44,0,0,1-12.78-3.52,72.88,72.88,0,0,1,5.91,6.11c-1.25,0-1.64-.61-2.22-1a40.49,40.49,0,0,0-10.07-7.9,31.64,31.64,0,0,0-11.61-2.79c-.47.11-1,.22-1.13.52.4.65.88.54,1.17.73,3-.19,5.93.86,8.74,2.2s5.06,3.57,7.68,5.2c.88.55,2.33,1.45,2.56,2.4a3.87,3.87,0,0,0,1.79,2.33Zm19.82,50a8.29,8.29,0,0,0-1.18-4c-.91-1.78-2.07-2.51-4.33-1.48a24,24,0,0,0-4.22,2.22,1.83,1.83,0,0,0-1.32.8c2,0,3.32-.77,5.1-1.68.37-.58,1.13-.52,1.78-.91.77.07.88.55,1,1-3.2,1.23-6.51,2-9.32,3.9-3,2.2-6,4.37-8.66,6.75a16.75,16.75,0,0,0-3.52,3.06,2.7,2.7,0,0,0,1.89-.44,64.09,64.09,0,0,0,8-5.11c3.27-2,6.44-4.48,10.23-5.35a3.36,3.36,0,0,1,2.07-.74c.4.66-.26,1.06-.73,1.16-4.26,1-7.71,3.29-11.35,5.89-.48.11-1.42.32-1.49,1.08.29.19.29.19.47-.11a42.43,42.43,0,0,0,11.57-4.92c1.13-.51,2.33-1.78,4-1.17-.08.77-.54.87-1.21,1.28a3.4,3.4,0,0,0-2.07.72,64.41,64.41,0,0,1-11.11,4.82,24.58,24.58,0,0,0-8.37,3.69c8.78.2,17.15-.24,24.54-4.94a6.84,6.84,0,0,0-1.78-5.57Zm-115,64.3a13,13,0,0,0,1.86,4.8c-.44-1.89-.59-3.6-1.86-4.8a1,1,0,0,1,.06-.77c-1-5.49-.69-10.55-.66-15.8.08-.76,0-1.23.91-1.46-.83,7.18-.82,13.66,1.48,20.36.25-1.06-.26-2.19-.3-3.42-.33-4.67-.38-9.14,1.11-13.48.08-.76.52-2.11-.07-2.48-1.57-1.37-3.42-2.93-5.61-2.68-.76-.07-1.12.51-1.49,1.09-1.63,2.63-.79,5.17-.43,7.83a75.26,75.26,0,0,0,3.58,14.38c.84,2.55,1.86,4.8,3,7.53.36-.58.25-1.06,0-1.24-.11-3.71-1.83-6.8-2.89-10.29a39.57,39.57,0,0,1-2.13-16.72c.07-.76.44-1.34,1.32-.79,0,3.24-1.05,6.22-.29,9.53a52.85,52.85,0,0,0,2.45,8.41Zm90.5-82.81a9.47,9.47,0,0,1-.36-2.65c.21-2.3-1.75-4.33-3.86-4.84a25.81,25.81,0,0,0-2.65,10.08c-.47,3.35-.76,6.41-1.05,9.47-.14,1.53-.47,3.35-.61,4.88l.47-.11a198.28,198.28,0,0,1,4.42-20.73c-.22,5.54-2.06,10.46-2.57,15.81s-3.71,9.83-4.2,15.19A20.18,20.18,0,0,0,95.29,184c2.36-3.78,3.08-8.19,4.1-12.42,1.13-3.75,1.2-7.75,3.66-11.07-.46,3.36-2,6.45-2,9.69a16.71,16.71,0,0,0,2.19-3.5,35.11,35.11,0,0,1,1.92-5.68c.73-1.16,1-2.22,2.29-3-3.09,8.19-7.35,15.66-10,24.51a4.48,4.48,0,0,0,1.2-1.28c1.89-3.68,4-7.65,5.56-11.51,1.67-4.63,2.87-9.14,6.76-12.79,0,0,.18-.29-.22-.94-.76-.07-1.89.44-2.65.37-2.66.36-4.44,1.27-5,4.15Zm-51.59,33.4a2,2,0,0,0,1.09,1.5c0-4.48-.26-8.67-1.61-12.35,0,2,.4,3.9.19,6.19-.37-2.66-.74-5.31-1.1-8-.51-1.13-.55-2.37-1.05-3.5-2.82,1.9-1,4.23-1.24,6.52-1-1-.26-2.18-1.24-3.2-1,1-.8,1.93-.77,3.17-1.23,0-1.59.62-1.85,1.68a9.08,9.08,0,0,0,.36,2.65l2.64,11.36c.51,1.13.54,2.36,1.24,3.2a36.33,36.33,0,0,0-.33-4.66c1.2,5.21,1,10.74,1.83,16.52a2,2,0,0,0,.33-1.81,3.59,3.59,0,0,0,.26-1.06c1.22,0,1-1,1.09-1.74a86.43,86.43,0,0,0,.16-16.5ZM109.84,208a9.68,9.68,0,0,1-3.25-3.24c-2.4-3.93-6.26-5.53-9.94-7.42a2.26,2.26,0,0,0-1.82-.33c7.18,4.07,11.48,10.8,18,15.28a1.43,1.43,0,0,0,1.21,2,.34.34,0,0,0,.47-.1c.36-.59,2.68-2.38,3.45-2.3l.48-.11c3.31-.77,6.8-5.07,6.5-8.5-.11-.47-.87-.54-1.16-.72a17.54,17.54,0,0,1-6.68-2.94c-4.47-3.2-9.75-4.48-14.67-6.32-.76-.08-1.34-.44-2,0,.69.84,1.16.73,1.93.8a34.09,34.09,0,0,1,7.54,3.49c3.49,2.18,7.18,4.07,10.86,6,.87.54,2,0,3,1.05-.73,1.17-1.6.63-2.37.55-3.86-1.6-6.88-3.89-10.38-6.07a29.41,29.41,0,0,0-10.23-4.36c-.58-.36-.88-.54-1.24,0,7.18,4.08,13.44,9.61,20.26,14.26-4.23-1-6.16-5.05-10.09-5.89,1.88,2.81,5,4.33,7.07,6.85-.65.39-1.24,0-1.82-.34-1.57-1.38-3-3.05-4.82-4.61-3.13-2.77-5.43-6.23-9.11-8.11-3.09-1.53-6-1.34-9.57-1.52.87.54,1.16.72,1.64.61,1.3-.79,2.47-.06,3.34.48l1.76,1.1c2.33,1.45,5,2.3,6.52,4.45,1.67,1.86,3.06,3.54,4.44,5.2a1.25,1.25,0,0,1,.7.85ZM48.5,68.16a4.34,4.34,0,0,1-1-2.25c-.84-2.55-1.39-4.92-2.23-7.47L45,58.25c-4.78-.13-8.23,2.17-11.87,4.76a1.88,1.88,0,0,0-.32,1.81A42.65,42.65,0,0,0,38,73.34c2.59,3.64,6.2,6.29,9.62,9.24a1.9,1.9,0,0,0,2.48-.07L46.25,78.9C45,77.7,43.88,76.22,42.61,75c-1.78-2.34-2.48-3.17-2.52-4.42,5.77,7.65,10.57,12.27,13.23,11.9a94,94,0,0,1-7.3-11A29,29,0,0,1,42.41,59.1a2.32,2.32,0,0,1,1,2.26A17.27,17.27,0,0,0,44,65c2.18,6.23,6,11.82,9.48,17.25.58.37,1,1,2.11.51a35.25,35.25,0,0,1-5.94-10.59c-.62-1.6-1.61-2.62-1-4.26a5,5,0,0,1,.63,1.6A52.72,52.72,0,0,0,55,81.12c.11.47.21.94,1,1,.07-.76-.23-.94-.33-1.41a27.78,27.78,0,0,1-3.18-7.25c-1.82-3.56-2.63-8.11-3.8-12.08A3.59,3.59,0,0,0,47,58.3c-.36.58.22.94-.15,1.53.37,2.66,1,5.49,1.69,8.33ZM80.39,214.35A20.38,20.38,0,0,0,83,210.74a3.14,3.14,0,0,1,2.14-1.49,26.52,26.52,0,0,1,7.33-.7c3,.29,4.81,1.38,5.75,4.4l.29.18a9.5,9.5,0,0,1,6.41-2.48c-.11-.47.07-.77-.22-1a37.78,37.78,0,0,0-7.33-9c-3.42-3-7.54-3.49-11.84-3.74a3.6,3.6,0,0,0-3.89,3.65c0,1.24-.39,2.58-.36,3.82a3,3,0,0,1-.61,1.64c-2.59,2.84-5.68,4.55-9.32,3.91a2.56,2.56,0,0,0-2.91,1.41c-2.83,3.9-5.78,7.34-8.33,11.41-3.45,5.54-8,10.82-11.7,16.18a58,58,0,0,0-7.61,13.48,103.66,103.66,0,0,1-4.28,9.47,22.91,22.91,0,0,0-1.67,4.63c.48-.11.66-.41,1.31-.81A41.72,41.72,0,0,1,41.58,261c4.48-3.28,9.07-6.09,13.55-9.37a49.55,49.55,0,0,1,13.31-7.07c2.25-1,4.33-1.76,5-4.16.62-1.64,1.42-3.57,1.85-4.92a28.56,28.56,0,0,0,.29-6.29,65.06,65.06,0,0,0-2.2-9.47c-1.12-2.74,1.71-6.63,4.58-6a21.93,21.93,0,0,1,2.41.68ZM33.7,82.81c-2.59-.39-4.26-2.25-6.79-3.41a3.68,3.68,0,0,0,1.54,3.38c3.1,1.53,6.38,2.77,9.18,4.1.88.55,1.64.63,2.18-.25-1.38-1.68-3.67-1.89-5.06-3.57,1.53.15,2.23,1,3.57,1.42.88.55,2,2,3.28,1.24a36.53,36.53,0,0,1-4.77-3.38c-1.28-1.2-3-2.3-4.31-3.49-3.42-2.95-3.42-2.95-3.75-4.36l4.7,4.13a32,32,0,0,0,8.09,5.87,2.21,2.21,0,0,0,2.95-.19c-.11-.48-.88-.55-1-1-.28-.18-.57-.36-.5-1.13,1.34.43,2.18,3,4.51,1.2-6.27-5.54-12.72-10.77-15.64-19.07-1.56,1.85-1.74,2.15-2,3.21,2.92,5.05,6.85,9.13,11.27,13.1a67.42,67.42,0,0,1-12-11.94c-1.2,1.28-1.09,1.75-.11,2.77A28.22,28.22,0,0,0,33.11,76a70.7,70.7,0,0,1,6.08,5.82l-.18.29c-3.65-3.89-7.84-6.91-11.3-11.09a23.31,23.31,0,0,0-1.63,5.86,1.81,1.81,0,0,0,.8,1.31,41.84,41.84,0,0,0,5.36,3.74c.58.36,1.34.44,1.46.91ZM-24,246c-1.41.33-1.86,1.67-2.29,3a7.08,7.08,0,0,0-.18,3.54A2.65,2.65,0,0,0-24.11,254l2,1.27a20.81,20.81,0,0,0,11.66,4,68,68,0,0,1,14.75,2.32c.47-.11,1,.25,1.41-.33-.28-.18-.39-.66-.87-.54A56.43,56.43,0,0,0-5.9,257.29c-5.86-1.64-11.54-3.55-16.42-7.41C-23,249-23.89,248.5-23,247c4.19,6.26,11,7.67,18.1,9.26-6.41-4-13.37-7.12-18.58-12.4-.83.7-.44,1.35-.51,2.12ZM110.8,264.9c1.57-1.87,3.43-3.54,3.64-5.83s1.23-3.28,3.31-4,4-1.94,4.61-4.81c-3.42.29-7,.11-10.19.11-3.41.3-6.8-1.41-10.06-1.41a37.55,37.55,0,0,0,16.33,3.7c-1.43.33-2.73,1.13-4.26,1-3.18-.78-6.23-1.06-9.5-2.3A21,21,0,0,0,99,249.43c5,3.09,10.24,4.36,15.26,6.69a14.74,14.74,0,0,1-6.34-1.52c-4.33-1.49-5.5-2.22-6.44-2,3,3.06,7,4.36,10.31,6.83-2,0-3.87-1.6-6.26-2.29,1.6,2.62,3.64,3.9,6.27,5.53-1.9.44-2.59-.4-3.47-.94-1.86-1.57-3.53-3.42-5.5-5.46a12.64,12.64,0,0,0-5.07-3.56c4.23,4.26,7.62,9.2,13,12.19ZM89.24,182.63c.08-.76.15-1.53.22-2.3.83-3.93.61-8.11.68-12.12,0-4.48-.2-9.43.71-14.12.18-.29.25-1.06.91-1.46.12.48.12.48-.07.77a36.16,36.16,0,0,0-1,10.7c.11,7,.53,14.09-1.54,21.3a1.43,1.43,0,0,0,.14,1.71c.55-.87.8-1.93,1.35-2.8,1.92-5.69,2.32-11.51,2.42-17.52,0-4.48-.38-9.13.82-13.66.36-.57.55-.87.44-1.35a3.77,3.77,0,0,0-2.12-.5c-2,0-2.84.66-3.63,2.59-.65,3.64-1.3,7.28-1,10.7.4,3.9.69,7.32,1.1,11.21.26,2.19,0,4.48.59,6.85Zm-37.61-5.24c.33,4.66,1.6,9.1,1.94,13.76a1.8,1.8,0,0,0,.14-1.53c.29-3.06-.18-6.19-.19-9.43a3.52,3.52,0,0,1,.94-3.46c-.54,7.36.64,14.56.28,21.63.84-3.93.43-7.82.79-11.66s-.23-7.42.9-11.18c0,8.49-.35,16.79-.55,25.56a9.27,9.27,0,0,0,1.3-4,38.15,38.15,0,0,0,.9-4.69c.14-4.77,1.34-9.29,1.19-14.24-.11-.48-.22-1,.62-1.64.15,1.71-.18,3.53,0,5.24.65-.4.65-.4.55-.88a9.57,9.57,0,0,0,1-3c.4-2.59.11-2.77-2.29-3.46s-5.28-1.26-7.9.34a2.08,2.08,0,0,0-1.74,2.15,11.78,11.78,0,0,0,1.17,4c.25-1.06-.55-2.37.94-3.46Zm54.8,88c-5.46-4.22-9.83-10.18-16.25-14.18a6.94,6.94,0,0,0,3.06,3.53,9,9,0,0,1,3,3.05,4.83,4.83,0,0,0,2.08,2.51c1.75,1.09,2.77,3.35,4.81,4.62l-.36.58c-1.93-.79-3-3.06-4.7-4.14-.36.58.22.94,0,1.23-1.17-.73-2-2-3-3.05-.4-.66-1.28-1.21-.25-2.19-.62-1.6-2-2-3.14-2.76A.89.89,0,0,0,92,256a23.49,23.49,0,0,1,1.53,3.38,64.15,64.15,0,0,0,3.33,9c.4.66.8,1.31,1.56,1.38,1.5-1.1,1.34-2.8,2.25-4.27,1.36.45,2.45,1.93,4.34,1.49,1.42-.33,3-.18,4.44-1.27-1.27-1.2-2.92-1.82-3.71-3.13a143.19,143.19,0,0,0-12.17-11.64,25.2,25.2,0,0,0-9.3-4.58c9.37,3.82,15.71,11.82,22.12,19.06Zm9.37-105.89c.22.95,0,1.24-.26,1.06a43.84,43.84,0,0,0-6.36,7,46.33,46.33,0,0,0-7,9.84c-1.63,2.62-2.8,5.13-4.25,7.46-.73,1.17-2,2-2.18,3.5a52.39,52.39,0,0,0,4.69-5.57c2.29-3,3.82-6.13,6.11-9.15,3.2-4.49,6.47-9.72,11.71-12.93a15.75,15.75,0,0,0-5.65-3.93c-5.31,4-6.65,10-8.57,15.7,4-4.42,7.34-9.18,11.71-12.94ZM40.62,169.71l.36-.58a63.68,63.68,0,0,0,.29-9.53,80.51,80.51,0,0,1,1-8.71c.36-.58.43-1.35,1.48-1.09A24.49,24.49,0,0,0,42,161.66l.59.37c.82-3.93,2.13-8,3.26-11.72.95-.23,1.35.43,1,1l-.91,1.45a81.34,81.34,0,0,0-4.1,15.66c0,1.24-.51,2.12.3,3.42,1.2-1.27,1.05-3,1.49-4.33,1-5.46,2-10.93,4.28-15.95a1,1,0,0,0-.62-1.6l-1.17-.73a4.62,4.62,0,0,0-7,3.35c-.69,5.65.34,11.14.78,16.28a1.25,1.25,0,0,0,.69.83Zm6.88,66.23c6.33-8.2,12.25-17.06,19.45-24.7a1.78,1.78,0,0,0-1.54-.15,17.8,17.8,0,0,0-6.65,3.54,18,18,0,0,0-4.26,4.23c-3,5.42-4.79,11.58-7,17.08Zm39.18,6.62.29.18c1.7-.14,3-.18,4.66-.33a44.06,44.06,0,0,0,22.75-7.27,7.77,7.77,0,0,1,2.07-.72,1.82,1.82,0,0,0,2.44-1.32c-.1-.47.55-.87.62-1.63a4.92,4.92,0,0,0,.54-4.12c-7.46,2.23-12.74,7.44-19.69,10.79a22.19,22.19,0,0,0,6.59-2.77c3.38-1.53,6.07-3.91,9.28-5.14a6.94,6.94,0,0,1,3-.95c0,1.24-.72,1.16-1.38,1.57a28.46,28.46,0,0,0-4.52,2c-4,1.94-7.38,4.71-12,6.27-3.68,1.36-7.35,2.7-11.65,2.45a7,7,0,0,0-3,.95ZM104.11,82.2c-2.14,8-6.21,15.15-10.39,21.85,6.4-5.72,13.09-11.26,16.18-19.45-1.57-1.39-3.86-1.61-5.79-2.4Zm15.74,88.35c.07-.77.84-.7.9-1.46a1.48,1.48,0,0,0-1.27-1.19c-1.42.32-2.15,1.49-3.45,2.29-3.17,2.48-6.33,5-8.22,8.64-.36.58-.72,1.17-1.21,1.28-3.41,3.53-7.12,6.88-10.73,10.71.18-.29.48-.11.66-.4,3.64-2.6,6.81-5.08,10.44-7.66a71.11,71.11,0,0,1,11.47-8.64,40.52,40.52,0,0,1,5.45-2.26,4.17,4.17,0,0,0-2-2c-.94.22-1,1-2.07.73Zm-91.7,56.16c.26,2.18-.65,3.64-1.16,5.75-.68,2.41-1.08,5-2.84,7.14l-1.81,2.91a98,98,0,0,0-5.23,12.94c-.25,1.05-.61,1.64-.39,2.58.46-.1.36-.58.54-.87,1-2.23,1.67-4.63,3.42-6.77,2.1-2.74,3.92-5.66,5.74-8.57,2.18-3.5,4.36-7,5.08-11.4.41-2.58-.58-3.61-3.35-3.71ZM31.47,88.32a2,2,0,0,1-2.29-.23c-3.16-.75-3.46-.93-4.69,2.34C23.32,93,24.35,95.2,27,96.07l.29.18c2.41.7,2.88.58,3.57-1.83-.4-.64-1.53-.13-1.75-1.09,1-.21,1.64.63,2.29.23a2.9,2.9,0,0,0,1.27-2l-1.45-.91a5.36,5.36,0,0,0,6-3.14c-2-1.27-4.16-1.78-6.38-2.76a5,5,0,0,0-4,1.93c1.35.43,3,1,4.62,1.68ZM14,183.87c-5.2-2-10.41-4.07-16.24-4.47-.25,1.06-.5,2.11.55,2.37,1.82.33,3.86,1.6,5.87,1.63A84.74,84.74,0,0,1,13,184.85a10.54,10.54,0,0,0,6.19-.19c-7.25-3.3-14-6.72-21.46-9.73a6.51,6.51,0,0,0-.47,3.35c6,1.33,11.62,2.79,16.75,5.59ZM9.43,256.73a30.5,30.5,0,0,0-3.28-4.47c-4.52-4.45-9.22-8.59-13.56-13.32a28.21,28.21,0,0,1-5.1-8c.65-.4,1.16.72,1.52.14.55-.88-.14-1.71.69-2.41A6.18,6.18,0,0,0-13,229.77a.85.85,0,0,0-.44,1.35c1.64,3.85,3.29,7.72,6.89,10.36.29.19.88.55,1,1-4.55-2.44-6.13-7.07-8.83-11.17a3.29,3.29,0,0,0,0,3.24c2.41,3.93,5.1,8,9,10.87,5.06,3.56,10,7.42,14.83,11.28ZM80.55,242c2.49-.08,4.74-1.1,6.93-1.36a27.59,27.59,0,0,0,10.59-2.7c3.09-1.72,7.05-2.88,9.76-5.25a42.81,42.81,0,0,1,7.67-4.52,26.18,26.18,0,0,0,4.22-2.23,1.91,1.91,0,0,0-.91-1.79,9.08,9.08,0,0,0-3.49,1.07c-4.22,2.23-8.33,4.92-12.27,7.33a55.79,55.79,0,0,1-18.52,8.28c-.94.22-2.49.07-4,1.17Zm30-156.56a46.73,46.73,0,0,1-6.65,10c-2.29,3-5.86,4.84-8,8.34,5.59-3.8,11.1-8.06,15-13.71.21,1,.15,1.72-.33,1.82-1,1-1.75,2.16-2.58,2.85a73.84,73.84,0,0,1-13.57,11.36c-1,1-2.62,1.61-3.23,3.25.47-.11.65-.39,1.12-.51a99.26,99.26,0,0,0,15.39-11c1.67-1.39,3.64-2.59,3.75-5.37a13.89,13.89,0,0,0,.17-3.52,3.9,3.9,0,0,0-1.06-3.5Zm-44,98.46c-1.89,3.68-3.49,7.54-5.67,11a35.36,35.36,0,0,0-3.27,11.72,61.8,61.8,0,0,0,3.89-6.88c2-4.44,3.45-8.78,6-12.86a4.22,4.22,0,0,0,.37-3.82,22.93,22.93,0,0,1-1.94-4c-.39-.65-.8-1.31-1.75-1.1-.72,4.42-1.74,8.64-2.46,13,2-2,3.09-5,4.84-7.1ZM50.3,121.1c-8-5.38-16.62-10.36-21.47-19.46A7.88,7.88,0,0,0,27.34,106a.73.73,0,0,0,.23.94c3.75,4.37,7.68,8.44,12.89,10.47,3.28,1.24,6.19,3.06,9.84,3.71Zm42.27-8c3.12-.48,6.11.57,9.17.86,3.35.48,6.73,2.19,10.38,2.84,3.06.29,5.93.86,8.55-.74a9.34,9.34,0,0,0-.58-3.61c-.73-2.07-1.31-2.43-3.28-1.23-.29-.18-.47.11-.76-.07-3,.19-6,1.13-8.85.56a4.09,4.09,0,0,0-2.37.54c4.88.61,9.76,1.23,15,0-1,1-1,1-1.49,1.09-4.73,1.11-9.61.49-14.3-.42-3.83-.36-7.48-1-11.43.16ZM17.41,186.82C11.25,185,4.67,184.53-1.2,182.89a.75.75,0,0,0,.22,1,38.94,38.94,0,0,0,3.9,6.07,3.26,3.26,0,0,0,2.81,1.35c2.95-.19,5.49-1,8.44-1.21.77.07,1.13-.51.91-1.46A13.14,13.14,0,0,0,8.21,188c-2.49.08-4.72-.9-6.82-1.42-.87-.54-.69-.83,0-1.23a12.79,12.79,0,0,0,7.22,2.07c2.76.1,5.6-.56,8.19-.16a1,1,0,0,1,.65-.39Zm82.73-72.29a51.25,51.25,0,0,0,19,4.57c-1.78.92-3.41.29-5,.15-4.78-.14-8.92-1.91-13.43-3.11a10.38,10.38,0,0,0-3.65-.66c1.64.62,2.81,1.35,4.45,2a6.2,6.2,0,0,0,3.27,1.23c3.07.29,6,1.35,8.92,1.92l.59.36c.47-.11.29.19.58.37-3-.28-5.87-1.64-9.28-1.34,3.72,3.13,8,3.38,12.13,3.92a1.88,1.88,0,0,0,1.6-.61c.8-1.94.84-3.94,1.45-5.58-.29-.18-.59-.36-.77-.07-4.73,1.09-9.55-.29-14.16-2a18.37,18.37,0,0,0-5.75-1.16Zm-14-5.48.57.36c.18-.29.65-.4.83-.69a49.51,49.51,0,0,0,7.49-17.2,50.15,50.15,0,0,1,2.54-7.31L97,83.84a1.06,1.06,0,0,0-.76-.07c-5.2,7.69-7.12,16.61-10.09,25.28Zm1.91,100.78c-.29-.18-.29-.18-.77-.07a.33.33,0,0,0-.47.11c-3.32.76-5,3.39-5.71,6.56-.47,3.35-.94,6.7-1.12,10.23a21.47,21.47,0,0,1-1.42,6.81c-.42,1.34-.68,2.41-1.12,3.75a9.6,9.6,0,0,0,3.71-6.59,64.42,64.42,0,0,1,3.27-11.74c1-3,1.81-6.15,3.63-9.06ZM92.38,78.94c-5.45,12-6.07,13.61-5.34,15.69.63-1.64,1.17-2.51,1.6-3.86s1.17-2.52,1.6-3.86c.73-1.16,1.16-2.51,2.18-3.5.73-1.16.7-2.41,2-3.2.52,1.13-.32,1.82-.69,2.4a86.91,86.91,0,0,0-4.32,8.23c-1.71,3.39-1.89,6.92-2.36,10.27-.18.29.12.47.7.84,2.35-7,4.43-14.25,8.9-20.77-.8-1.3-2.63-1.63-4.27-2.24ZM7.28,248.5c-3.91-6.07-7.45-12.73-12-18.4,1.82.32,2.44,1.92,3.42,2.93s1.13,2.74,3.06,3.54c-.21-.95-.43-1.9-1-2.26a5,5,0,0,1-1.53-3.39c-.33-1.42-.83-2.55-2.84-2.58a22.17,22.17,0,0,1-2.88-.58,4.7,4.7,0,0,0-2.66.36c4.53,7.69,10.91,13.68,16.45,20.38ZM118.22,104.36c.22,1-.73,1.16-1.19,1.27-3.14.48-5.87,1.61-8.93,1.32a29.42,29.42,0,0,0-7.86,1.58,16.5,16.5,0,0,0-5.86,1.61c7.94.89,16-1,23.77-1.77-2,1.2-4.43,1.27-6.52,2,1.54.14,3.06.27,4.38-.52a2.8,2.8,0,0,0,2.36-.55c1.75-2.15,2.18-3.5.29-6.29a3.12,3.12,0,0,0-2.62,1.59l.29.19c.76.07,1-1,1.89-.44ZM13.77,267.94a2.94,2.94,0,0,1-2-1.28A17.07,17.07,0,0,0-.5,262.27c-3.89.4-8.16,1.39-12.2.09-2.88-.59-5.94-.87-8.56-2.51a6.9,6.9,0,0,0-3.56-1.42c-.55.88-.92,1.47-.41,2.59a9.61,9.61,0,0,1,2.81,1.35,5,5,0,0,0,2.39.69,12.4,12.4,0,0,1,4,.82c2.11.52,4.22,1,6.29.29a31.51,31.51,0,0,1,13.62-.41c.76.07,1.24,0,1.64.62.29.18-.36.58.22.94a15.1,15.1,0,0,1,8.52,4.51c.26-1.06-.32-1.42-.44-1.89ZM3.43,225.45c.84,5.8,1.57,11.12,3.25,16.21,1.13,2.73,5.77,14.12,6.46,15a15.19,15.19,0,0,0-.47-3.14,172.43,172.43,0,0,1-5.52-18.41c-.65-2.84-1.5-5.39-.62-8.09.06-.76.32-1.82-.09-2.48a4.73,4.73,0,0,0-3,.95ZM45.86,122.38c-3.28-1.24-6.56-2.47-10-3.42-3-1-6.15-1.81-8.89-3.92a2.11,2.11,0,0,0-1.34-.44,11.13,11.13,0,0,0-1.38,4.81c3.68,1.89,17.3,4.72,20.43,4.25-1.06-.26-1.93-.8-3-1.06a81.1,81.1,0,0,1-13.15-2.93,3.31,3.31,0,0,1-2.84-2.59c6.12,3.82,13.37,3.88,20.18,5.3Zm47,112.28.29.18c8.54-4,15.09-11.22,23.35-15.38.08-.77-.21-1-1-1-1.89.44-4.25,1-5.74,2.08-3,2.19-5.8,4.09-8.3,6.16-3.17,2.49-5.75,5.32-8.62,8ZM55,164.89c-.14,1.54-1.22,3.28-1.09,5a5.18,5.18,0,0,0,3.28-5.26c.07-.77,0-1.24,0-2-.08-2.48-1.65-3.86-2.86-5.83a93.12,93.12,0,0,0-4.28,12.72c-.43,1.34,0,2,1.2,2,1.32-.81,2.66-3.61,3.71-6.6Zm24-5.3c-2.37.55-3.28,2-3.13,3.72,1.35,3.67,2.41,7.17,5.06,10a16.56,16.56,0,0,1,1.5,2.15,26.09,26.09,0,0,1,3,14c-.07.75-.62,1.63-.1,2.75l.36-.58a22.73,22.73,0,0,0-.48-12.84,31.06,31.06,0,0,0-3.19-7.26c-.94-3-2.36-5.92-2.66-9.35-.21-.95.33-1.82-.36-2.66Zm6.62,73.77c1.41-.34,2-1.22,2.68-2.38a139,139,0,0,0,11.66-12.17,28.41,28.41,0,0,1,5.56-5c.18-.28.84-.68.43-1.35a1,1,0,0,0-1.16-.72c-2.19.25-4.08.7-5.35,2.73a5.8,5.8,0,0,1-1.57,1.86,22.42,22.42,0,0,0-3.63,5.83,27.53,27.53,0,0,1-5.49,7.5c-1.21,1.28-2.12,2.74-3.13,3.73ZM84,104.07l.29.18a30.53,30.53,0,0,0,.37-3.83c.1-6,.2-12,2.42-17.51.25-1.06.91-1.46,2-2-2,3.2-2.47,6.56-2.94,9.91,1.89-3.69,2.9-7.9,4.79-11.58-4.07.69-6,3.13-7.13,6.89-.47.1-.47.1-.76-.08-2,0-3,1-2.29,3,.33,1.42,1.5,2.15,1.83,3.57.21-2.29-.23-4.19-.19-6.19a4.46,4.46,0,0,1,1.13,2.73c0,3.24-.18,6.77.12,10.19.14,1.72.18,2.95.32,4.67ZM58.67,83c-2.81-7.83-5.91-15.83-6.83-24.1A21.74,21.74,0,0,1,49,58.33c.11.48.11.48-.07.77,1.09,4.72,1.89,9.28,3.75,14.08,1.14,2.73,2.56,5.64,4,8.56.4.65.73,2.07,2,1.27Zm26.8,72.57c-1.67,7.87,1,15.22,2.31,22.9.51-8.59-2.71-17.07.27-25.75a9.81,9.81,0,0,0-4.33,1.76c-.29,3.06-.87,5.94-.39,9.07.65,2.84.65,6.08,1.78,8.81a3.56,3.56,0,0,0,.33-1.82c-.48-3.13-1.42-6.16-1.13-9.21,0-2-.4-3.9,1.16-5.76Zm11.68,115c-.4-.64-1-1-1.2-2-1-3-2.2-6.22-3.43-9.42a19.43,19.43,0,0,0-5.29-7.75,31.56,31.56,0,0,1,3.33,9,44.75,44.75,0,0,1,.18,6.18,3.59,3.59,0,0,0,.48,3.13,6.24,6.24,0,0,0,5.93.87Zm30.33-81.07c.11.47.11.47-.07.76-4.92,1.38-10.16,1.36-14.93,1.21,2.11.51,4.23,1,6.63,1.71,2.29.21,4.66-.33,7-.11.29.18.77.07,1.13-.51a7.57,7.57,0,0,0,1.89-6.93c-4.41,2.52-9.25,3.15-14.16,4.53,4.33,1.5,8.48,0,12.56-.66ZM92.13,237.06a7.53,7.53,0,0,0,3.68-1.35,74.79,74.79,0,0,0,11.43-6.64c3.27-2,6.14-4.66,10.12-5.83.46-.11.93-.23.83-.7-.22-.94-.44-1.9-1.79-2.32-8.52,5.21-15.65,12.1-24.27,16.84Zm-73.41,21a1.27,1.27,0,0,0,.83-.68c3-4.2,6.33-8.2,9.64-12.21,2.29-3,4.58-6,5.82-9.33.62-1.64.36-3.82-1.11-4.74.08,2.48-1.49,4.34-2.28,6.27a54.93,54.93,0,0,1-7.21,10.9,25.3,25.3,0,0,0-5.69,9.79ZM50.15,122.63c-8.3-3.56-17-6.54-22.84-14.65,1,2.25.12,3.71-.68,5.65,1.27,1.19,2.91,1.81,4.66,2.9s4.33,1.49,6.45,2a75.79,75.79,0,0,0,12.41,4.11ZM-16.41,234.54c-1.85,1.68-1.74,2.16-.07,4l.59.37c2.58,3.64,6.2,6.29,9.8,8.94,3.91,2.84,8,5.39,11.88,8.22.88.55,1.56,1.39,2.44,1.94a1.86,1.86,0,0,0-1.09-1.5,94.18,94.18,0,0,0-11-8.91,38.9,38.9,0,0,1-11-10.91c-.4-.66-.44-1.89-1.5-2.15ZM36.94,199c.18-.29.47-.11.65-.4a112.38,112.38,0,0,0-8.27-12c.93-.22.69.83,1.63.62-.43-1.9-1.71-3.1-3-4.3-1.6.63-3.24,0-4.44,1.28a3.76,3.76,0,0,0,1.28,1.2c.47-.1.76.08,1.16.72a21.22,21.22,0,0,0,6.82,7.9c.4.66,1,1,1.1,1.49.43,1.9,1.6,2.62,3.06,3.53Zm50.74,29.63c.29.18.59.36.77.07a43.67,43.67,0,0,0,4.22-5.47,21,21,0,0,1,3.15-5.72c1.94-2.44,1.64-2.62.4-5.82-1.41.33-1.41.33-2.14,1.49-3.09,5-3.78,10.61-6.4,15.45ZM5.24,257c-7.79-5.66-16.73-10.83-23.43-18.26-.72,1.16.74,2.08.19,3s0,1.23.62,1.59c1.39,1.68,3.21,2,4.48,3.21,2,2,4.48,3.19,7.11,4.83a33.53,33.53,0,0,1,7.17,4.07c1.17.73,2.14,1.74,3.86,1.6Zm58.5-54.2c.94-.22,1.31-.8,2-1.2,2.51-2.08,4.73-4.34,7.24-6.41a25.75,25.75,0,0,0,5.61-7c.18-.29.72-1.16-.33-1.42-1.93,2.44-3.75,5.36-5.67,7.8-.59-.37-.41-.66-.23-.94,1.56-1.87,3-4.2,4.58-6,1.28-2.05.76-3.17-1.24-3.2-1.78,7.38-7.34,12.41-11.92,18.46ZM-.77,171.83c3.39,1.7,6.66,2.95,10,4.65l.18-.29c-1.45-.9-2.74-2.11-4.19-3C4,172,2.36,171.35.79,170a2.07,2.07,0,0,1,2.29.22c4.6,3.67,8.9,7.16,13.67,10.55a7.14,7.14,0,0,0,3.21,2,20.13,20.13,0,0,0-4.64-4.91C12,175.35,8.4,172.7,4.79,170c-2.62-1.63-5-1.09-5.56,1.79Zm60.69,33.81c4.22-2.24,14.21-18.26,14.1-22a1.26,1.26,0,0,0-2.07.74,56.32,56.32,0,0,1-8,14.83c-1.27,2-3.13,3.72-4,6.41Zm59.45-41.46c-7.27,5.18-13.32,10.32-17.16,18.44a1.35,1.35,0,0,0,1.3-.8c1.38-1.57,3.24-3.25,4.62-4.81a28.31,28.31,0,0,1,9.82-9.26c1.31-.81,1.56-1.86,1.42-3.57ZM26.92,226.75c-1.25,0-1.61.62-1.57,1.85a14.71,14.71,0,0,1-1.45,5.58c-2,4.44-3.53,9.54-6.54,13.72-.91,1.47-.94,3.47-1,5.47.66-.4.84-.69.73-1.16,2.07-4,3.08-8.2,5.74-11.81,1.93-2.44,2.87-5.9,3.63-9.07a9.39,9.39,0,0,0,.44-4.58ZM16,247.48a2.75,2.75,0,0,0,.91-1.46,14.33,14.33,0,0,1,1.56-5.11,80.43,80.43,0,0,0,4.58-12.52c.5-2.12-.19-2.95-2.37-2.69-.54.87.51,1.13.44,1.88-.44,1.36-.58,2.89-1,4.23-1.42,3.58-2.54,7.33-4,10.89a8.72,8.72,0,0,0-.14,4.78ZM26.29,181c-5.29-7.75-12.43-13.83-19-20.78-1,1-1.09,1.76.08,2.49a57.67,57.67,0,0,1,5.5,5.45c3.64,3.89,7.47,7.49,11.12,11.38A7.07,7.07,0,0,0,26.29,181Zm79.22-77.71c3.5-1,6.3-3,10-3.07-.8-1.3-2-2-3.09-1.51a22.46,22.46,0,0,0-11.36,5.86c-.47.12-.65.41-.37.59a68.85,68.85,0,0,0,7.22-1.17,11.21,11.21,0,0,0,6.41-2.49c-3,.19-5.68,1.32-8.82,1.79Zm-129.58,152c-.55.86-.44,1.34.15,1.71a46,46,0,0,0,5.83,3.63,51.38,51.38,0,0,0,9.86,1.7,16.64,16.64,0,0,0,6-1.13c-3.74-1.12-7.64-.72-11.28-1.37a64.67,64.67,0,0,1-10.53-4.54ZM65.09,127.9a.33.33,0,0,0,.47-.11c-1.17-4-3.47-7.43-5.76-10.89-3-4.28-6.16-8.29-9.34-12.3-.8-1.31-1.86-1.56-3.38-1.7,1.89,2.8,4.27,5.49,6.34,8a47,47,0,0,1,6.17,8.3c2.18,3,3.6,5.9,5.5,8.7ZM87,235.5c.58.36.76.07,1.23,0a51.58,51.58,0,0,0,11.25-9.59c2.94-3.42,6.47-6.48,10.62-7.94.18-.29.83-.7.73-1.16a1.87,1.87,0,0,0-2,0,27,27,0,0,0-5.24,3.21c-3.59,3.82-7.5,7.47-11.2,10.82-1.86,1.68-3.53,3.06-5.38,4.74ZM37.14,102c5.28,7.75,12.75,12,19.79,17.6a15.31,15.31,0,0,1-1.5-2.15c-2.73-2.1-5-4.32-7.43-6.25a26.69,26.69,0,0,1-6.32-6.76c-.91-1.78-2.18-3-4.54-2.44Zm65.44-19.91c-.61,1.65-2.29,3-2.91,4.67-1.45,5.57-4.25,10.71-7,15.84.29.19.11.48-.36.58-1.49,1.09-1.34,2.81-2.55,4.09C95,102,103.46,85.84,102.58,82.05ZM75.25,239.48c1-3,2.67-5.61,2.67-8.85a7.15,7.15,0,0,1,.08-4,6,6,0,0,0-.29-3.43c-1.21-2-1.18-4-.49-6.37-.11-.47.44-1.34,0-2-2.55.84-3.35,2.77-2.51,5.32a46.34,46.34,0,0,1,1.76,14c-.33,1.83-1.24,3.29-1.26,5.29Zm6-5.14c.36-.58.25-1.05.61-1.64,1.41-3.57,3.41-6.78,4.54-10.52a59.63,59.63,0,0,1,1.77-7.4c.62-1.64,1-3.46,2.15-4.73a.34.34,0,0,0-.11-.48c-1,.22-1,.22-1.31.8-2.55,4.08-3.93,8.88-5.12,13.41-.94,3.46-1.6,7.1-2.53,10.56Zm25-20c-6.51,5.26-12,11.53-17.09,17.68,6.61-4.77,11.27-11.59,18-15.89.07-.76-.22-.94-.91-1.79ZM-22.15,243.1c3,4.3,18,13.28,22.23,13a32.4,32.4,0,0,0-7.37-3.78,7.55,7.55,0,0,1-4.44-2,5.74,5.74,0,0,0-2.91-1.82,19.28,19.28,0,0,1-4.71-4.16c2.27,2.23,4.78,3.39,7.58,4.73a2.7,2.7,0,0,0-1-1c-2.08-2.51-5.43-3-6.85-5.89-.41-.65-1.35-.43-1.31.8h0c-.47.12-.87-.54-1.24,0ZM59,124.08c-.7-.84-1.28-1.2-2-2-3.2-2-6.51-4.47-9.54-6.76-4.7-4.15-10.31-6.83-13.15-12.67-.4-.65-.69-.83-1.83-.32a13,13,0,0,0,2.3,3.46c2.84,2.58,5.62,5.93,9.11,8.11,4.78,3.38,9.65,7.24,15.09,10.22Zm39,121.86.12.47c.76.08,1.35.44,2.11.51,3.46.94,7.51,2.25,11,2.43s7.18.83,10.5.07c1.89-.46,2.07-.74,1.92-2.45-8.51,2-17.22,1-25.68-1ZM16,181.89c-5.36-3.73-10.61-7-16.59-9.11A.9.9,0,0,0-2,173.1c-.26,1.06.51,1.13,1.09,1.5,3,1.05,5.9,2.86,9,4.4A34.65,34.65,0,0,0,16,181.89ZM66.4,202.38A34.86,34.86,0,0,0,79.6,191.6c1-1,1.28-2,0-3.25-3.46,5.54-8.77,9.52-13.2,14ZM38,211c-1.45-.9-2.54-2.4-4.37-2.72a53.26,53.26,0,0,1-13.44-6.36c-.64.4-1.6.61-2.14,1.49,6.12,3.81,13.4,5.12,20,7.59ZM72.84,88.2a11.43,11.43,0,0,0-1.55,8.34C72.67,95,73,93.15,73.9,91.69a7.94,7.94,0,0,1-2,5.21c-.73,1.17-1.64,2.62-1.3,4C73,98.39,74.31,95.59,76,92.2a5.58,5.58,0,0,0-3.17-4ZM41.08,200.77a28.26,28.26,0,0,0-3.24-9.71c-2.41-3.93-4.82-7.86-5.87-8.12-.08.76.22.94.62,1.6.8,1.32,2.08,2.51,2.11,3.75A6,6,0,0,0,36.82,192a16.57,16.57,0,0,0,2,3.27c.3.19.59.37-.06.76-1.16-.72-1.5-2.14-3-3a5.34,5.34,0,0,0,1.13,2.73c.41.66,1.28,1.21,1.21,2,0,2,1.31,2.44,2.94,3.05ZM5.08,239c-1-4.26-1.39-8.16-2.38-12.42-1.31.81-1.16,2.52-2.87,2.66.07,2.48,3.61,9.14,5.25,9.76ZM2,199.86a6,6,0,0,0,2.08-.72c2.84-.67,5.17-2.45,7.72-3.29.94-.22,1.12-.51.62-1.64A32.52,32.52,0,0,0,3,196.88c-1.6.62-1.68,1.38-1.06,3Zm62.82,6.39a32.42,32.42,0,0,0,6.51-2,23.25,23.25,0,0,0,7.87-4.82c.83-.69.91-1.45.4-2.58-4.15,4.7-10.42,5.65-14.78,9.41Zm-58-42.65c-.36.58-.07.76-.07.76,2,2,3.46,4.18,5.32,5.75a44.29,44.29,0,0,1,8.35,8c1,1,2.07,2.5,3.06,3.53.4.65,1,1,2,0C18.89,176,13.54,169,6.79,163.6Zm51.45,33.7a.33.33,0,0,1,.47-.11,6.2,6.2,0,0,0,1.23-3.29,71,71,0,0,0,2.87-12.37,33.81,33.81,0,0,0,.65-3.64c-.1-.48,0-1.24-1.1-1.5-1.12,7-2.53,13.81-4.12,20.91Zm-44.15-6.48c-1.41.33-3.23,0-4.83.62l-.47.11c-.44,1.35-1.68,1.39-2.63,1.61a19.93,19.93,0,0,0-3.49,1.06c-1.24,0-1.31.8-1,2.22,3.57-1.83,7.46-2.23,11-3.29a2.05,2.05,0,0,0,1.45-2.33Zm80.09-21.3a12.8,12.8,0,0,0,.55-4.12c.36-3.82.72-7.64,2.9-11.13.36-.59.43-1.36-.74-2.09-1-.25-1.41.33-2,1.21-.25,1.05-.51,2.11-1,3.46,0,3.24.3,6.67.12,10.19-.07.77.16,1.72.08,2.48Zm-79,72.16c1.74-2.15,4.71-14.05,4.1-15.66-3.17,5.72-5,13.88-4.1,15.66ZM68.4,202.43c2.95-.19,7.71-3.29,10.77-6.24,1.31-.81,1.46-2.33,1.12-3.76-3.3,4-7.6,7-11.89,10ZM66.07,97.75l.55-.88A43,43,0,0,0,69.31,88,2.18,2.18,0,0,0,67.7,85.4c-.47,3.35-1.7,6.63-2.46,9.8a5.57,5.57,0,0,0,.83,2.55ZM5.45,248.18c-4.37-6-9.58-11.24-14.43-17.11A57.59,57.59,0,0,0,5.45,248.18Zm78.21-76.72a105.33,105.33,0,0,1-1.4-14.64l-.18.29a15.26,15.26,0,0,0-.62,1.64c-.54.88-1.13.52-1.31.81-.25,4.3,1.86,8.05,3.51,11.9ZM53.53,114.61a19.28,19.28,0,0,0-3.17-4,93.64,93.64,0,0,1-7.58-8c-.4-.65-1-1-1.64-.62,2.55,5.64,7.8,8.91,12.39,12.58Zm63-13.34c-1.12.5-2.14,1.49-3.27,2s-2.14,1.5-2.91,1.43A46.92,46.92,0,0,0,99,107.32c-.29-.18-.77-.06-.66.41.29.18.47-.11.76.07,4-1.17,8-1.1,12-2.27a24.22,24.22,0,0,0,6.76-3.06c-.22-1-.51-1.13-1.28-1.2ZM49.57,119l-2.63-1.64c-3.89-2.83-8.09-5.86-11.14-9.38-2.38-2.7-4.64-4.92-5.69-8.41-.84.69-.84.69-.43,1.35a43.11,43.11,0,0,0,5,7.57A54,54,0,0,0,49.57,119ZM31.08,131.78c3.07,3.54,7.69,2,12.05-1.79-4.19.22-7.64,2.52-12.05,1.79Zm13.73,81.83c0-3.23-1.42-6.14-2.07-9-.27-2.18-1.61-2.62-3.55-3.42,1.58,4.62,3.87,8.08,5.62,12.4ZM76.16,93.91c-1.43,3.57-4.58,6-5.42,10,1.2-1.27,2.52-2.07,3.71-3.35,2.51-2.08,3-4.19,1.71-6.63Zm2.46,134.31a58.2,58.2,0,0,0,1.55-11.58,1.6,1.6,0,0,0-1.85-1.56c0,2-1.13,3.75-.4,5.82a14.8,14.8,0,0,1,.7,7.32ZM101,82.68a2.58,2.58,0,0,0-2.15,1.49,29.61,29.61,0,0,0-2.73,7.61c-.31,1.83-.93,3.46-1.26,5.28,2.72-4.37,3.81-9.36,6.14-14.38ZM39.77,191.86c-1.46-4.16-2.92-8.31-5.7-11.66a3.64,3.64,0,0,0-.17,3.54c1.4,1.67,3,3,3.68,5.13a6.21,6.21,0,0,0,2.19,3Zm31.41-7.53c-1.82-.34-2.3-.23-2.61,1.59-.65,3.64-2.66,6.86-3.41,10a43,43,0,0,0,6-11.62ZM56.85,117.09c.25-1.06-.33-1.42-.44-1.89-3.46-4.19-7.58-8-10.87-12.45-.39-.65-.87-.54-1.52-.14,3.68,5.13,8.86,9.16,12.83,14.48Zm23.09,85.65c-2.11,2.73-5,4.15-8.51,5.21,2.21,1,3.75,1.13,5.23,0,1.68-1.38,3.36-2.77,3.28-5.24ZM4.46,168.62c4.6,3.68,9.08,6.88,13.38,10.37-2.88-3.83-6.78-6.66-10.5-9.79-.58-.36-1.56-1.38-2.88-.58Zm18.71-11.81c-.29,3.06,3.65,13.61,6.79,16.37-2.27-5.45-4.24-10.73-6.79-16.37ZM17.94,245c2.51-2.08,6.47-13,5.74-15-1.56,5.1-4.18,9.94-5.74,15Zm1.45-40c.51,1.13.08,2.48,1.43,2.92a10.28,10.28,0,0,0,7.65.72c-3-1.06-6.08-2.58-9.08-3.64Zm31.92-88.18c-.8-1.31-2-2-3.24-3.23a37,37,0,0,1-11.77-11c-.11-.47-.52-1.13-1.17-.72.84,2.54,4.19,6.25,6.64,8.18a42.88,42.88,0,0,1,7.51,5.49c.39.67,1.45.91,2,1.27ZM40.19,174.3c-.22,2.3.59,3.61,1.65,3.86-.11,2.77-.11,2.77,1,3.5.21-2.3,1.31-4,.29-6.3-.91-1.79-1.2-2-3-1.06Zm20.72,35.58c.4.66.58.37,1.05.27,2.73-1.14,5.64-2.56,8.77-3a4,4,0,0,0,2.4-2.56c-4,1.94-8.7,2.27-12.22,5.32Zm48.39-38.63c1.49-1.09,2.61-1.6,3.34-2.77a16.35,16.35,0,0,1,5.68-4.55c1.13-.51,1.19-1.28.5-2.12a23.61,23.61,0,0,0-9.52,9.44ZM47.61,95.54c0-3.24-1.86-4.8-4.74-5.39.3,3.43,1.69,5.1,4.74,5.39ZM47,239.29c4.21-5.47,8.72-10.75,12.07-16.77A104.56,104.56,0,0,0,47,239.29Zm43.05-19.71c.76-3.16,3.34-6,4.86-9.1A3.35,3.35,0,0,0,91.6,210c-.08.77,1.05.25,1,1a24.74,24.74,0,0,0-2.5,8.55Zm-68.33-28c1.42,2.92,4.26,5.49,6.3,3.53-1.31-2.44-2.66-2.87-6.3-3.53Zm41.9-86a23.31,23.31,0,0,0,1.56-5.1c.07-.77.14-1.53-1.09-1.49-.37.58-.44,1.34-.81,1.93-.47.11-.87-.55-1.53-.15,0,2-.62,1.65,1.87,4.81ZM-15.76,265.31c.18-.29.18-.29-.11-.48-2.69-.86-5.93-.86-8.84-2.68.43,1.9,1.23,3.2,2.76,3.35,2,0,4.19-.23,6.19-.19Zm43.19-65.37c.74,2.09,9.7,8.48,11.52,8.81-3.35-3.71-7.8-5.68-11.52-8.81ZM61.54,83.59c-1.7.14-1.7.14-2.22,2.26-.25,1.05,1,3,2.41,3.93-.25-2.19,1.32-4-.19-6.19Zm-55,82.3c.15,1.71,8.38,9.27,10.67,9.49-3.53-3.42-7.44-6.26-10.67-9.49Zm27.77,32.7c-1.13-2.73-4-5.31-5.87-4.87.74,2.08,3.14,2.77,4.16,5,.47-.11,1,.25,1.71-.15Zm-19.62,38a94.46,94.46,0,0,0,2.87-9.14c-1.36-.44-1.72.15-1.79.91-.43,1.35-.69,2.4-1.12,3.75a14,14,0,0,0,0,4.48ZM68.46,113.4c-1.79,4.15-1.63,12.34-.24,14-.81-4.55.87-9.17.24-14Zm-34,94.14a2.53,2.53,0,0,0-1.38-1.66c-2.11-.52-3.5-2.18-5.06-3.56-.41-.66-1-1-1.39-1.68-.87-.55-1.64-.62-3,.18l10.78,6.72ZM21.1,201.66c2.56,2.41,5.83,3.64,9.11,4.87-.11-.46-.11-.46-.41-.64-2.15-1.75-5.13-2.81-7.1-4.84-.58-.36-1.06-.25-1.6.61ZM36.52,178.9c.36,2.65.73,5.31,2.4,7.16.41-2.58,0-5.24-2.4-7.16Zm-2.6,21a35.37,35.37,0,0,0,5.91,6.11A38.83,38.83,0,0,0,35.92,200c-.4-.65-1.35-.43-2,0Zm-.52,30c-.29-.18-.58-.36-.77-.07-.61,4.87-3.16,9-5.41,13.22,2.55-4.08,5.09-8.16,6.18-13.15Zm70.45-24.07c.52,1.14,1.51,2.16,2,3.28.42,1.9,2.14,1.75,3.78,2.36-1.31-2.43-3.65-3.89-5.81-5.64ZM91,211.65c-2.83,3.89-2.69,8.85-4.35,13.48,2-4.45,2.86-9.15,4.35-13.48Zm-44.46,1.83c-.35,3.82.89,7,1.48,10.62.17-3.52,0-7.24-1.48-10.62Zm19.41-79.8c1.31,2.44,1.87,4.81,3.06,6.77a25.61,25.61,0,0,0-1.13-6c.07-.76-.69-.83-1.93-.8ZM14.22,201c1.2,2,3.2,2,5.24,0-1.68-1.86-3.24,0-5.24,0ZM-9.19,233.37c.07,2.48,3.35,6.95,6.15,8.29-.9-1.77-2.36-2.69-3.17-4-1.09-1.49-1.9-2.8-3-4.29Zm49.13-54.76c-.8,1.93-.21,5.53,1.24,6.44.22-2.3.44-4.6-1.24-6.44ZM74.6,205.47c2.36-.54,5.88-3.61,5.74-5.32-1.86,1.68-4.29,3-5.74,5.32ZM48.3,93.14c.37,2.66,1.06,3.49,3.36,3.71-.26-2.18-.95-3-3.36-3.71Zm-3,88a4.52,4.52,0,0,0-.36-5.9,9.48,9.48,0,0,0,.36,5.9Zm.28-84.83c.74,2.06,1.61,2.61,3.79,2.35-.44-1.89-1.31-2.43-3.79-2.35Zm2,3.26c1.28,1.21,1.53,3.39,4,3.32-.61-1.61-1.35-3.68-4-3.32ZM42.88,93.4c-1.1-1.49-.59-3.61-2.81-4.58-.44,1.34,1,4.25,1.86,4.8a.74.74,0,0,0,1-.22Zm-4.8,1.87c-.44-1.9-1.72-3.11-2.84-2.59A1.5,1.5,0,0,0,34,94a.64.64,0,0,0,.87.55c.48-.11.36-.59.84-.69.69.83,1.09,1.49,2.33,1.46Zm.73,83.84c.25-1.05.69-2.41-.29-3.42-.66.4-2.09.73-2.22,2.26,1.31-.8,2,0,2.51,1.16ZM22.91,189c-.15-1.71-1.5-2.15-2.55-2.4-.76-.08-1.13.51-1.49,1.09,1.45.91,2.69.88,4,1.31ZM35.49,98.11a3.94,3.94,0,0,0,1.14,2.72,7.19,7.19,0,0,0,2,0c-1.35-.43-.77-3.31-3.14-2.76Zm25.27,3.61c.51-2.11.29-3.06-1.64-3.87-.51,2.12-.1,2.78,1.64,3.87Zm5,17.29c0-2,.36-3.82-.07-5.72-.81,1.94-1.43,3.57.07,5.72ZM31.67,97.75c-1.42.32-1.42.32.3,3.41.29.18.76.07,1.12-.51a7.54,7.54,0,0,1-1.42-2.9Zm23.3,8a11.54,11.54,0,0,0,2.52,4.41c-.61-1.61-.4-3.9-2.52-4.41Zm-9.86-8.18c-.74-2.07-1.43-2.91-2.85-2.58a3.14,3.14,0,0,0,2.85,2.58Zm14.68,6.32c-.22,2.3-.11,2.76,1.64,3.85.14-1.52.1-2.76-1.64-3.85ZM51.88,101a5.37,5.37,0,0,0,3.06,3.52c-.44-1.88-.94-3-3.06-3.52Zm11-2.05c1.28-2,.18-3.53-.26-5.43-1,2.23-.17,3.53.26,5.43Zm4.2,9.49c1.09-1.74,2.18-3.49,2.22-5.49-1.39,1.56-1.71,3.39-2.22,5.49Zm1.34-9.27c-.91,1.45-1.82,2.9-1.09,5,.62-1.63,1.53-3.09,1.09-5ZM58.93,88.43a12,12,0,0,0,2.34,4.7c.51-2.12-1.54-3.39-2.34-4.7ZM22.21,185a3.66,3.66,0,0,0,3.25,3.24c-.62-1.6-1.42-2.91-3.25-3.24ZM56.22,96a3.46,3.46,0,0,0,2,3.28c.4-2.58.11-2.76-2-3.28Zm52,124.33-.29-.18c-1.89.43-3.17,2.48-5,3.39a.33.33,0,0,0,.11.47,41.42,41.42,0,0,0,5.13-3.68Zm-78.3-23.74c-1.39-1.67-2.3-.22-3.83-.36,1.1,1.49,1.87,1.57,3.83.36ZM50.05,97.47c.45,1.89,1.14,2.73,3.43,3a6.57,6.57,0,0,0-3.43-3ZM41.4,101c-.45-1.89-.74-2.07-2.74-2.1.51,1.12.84,2.54,2.74,2.1Zm66-1.34c1.6-.61,3.14-.48,4.34-1.75-1.65-.61-3.06-.29-4.34,1.75Zm-64,85.16c1.56-1.86,1.52-3.09.72-4.41a7.17,7.17,0,0,0-.72,4.41Zm19.19-71c0-3.24-.41-3.89-1.57-4.62.15,1.71.95,3,1.57,4.62ZM42.31,184.54a6.34,6.34,0,0,0-.14,4.76c1.56-1.85-.48-3.13.14-4.76Zm-21.58,4.75c.8,1.31,2.51,1.16,3.68,1.89-.63-1.61-2.34-1.46-3.68-1.89Zm9.42-6.68a6.73,6.73,0,0,0,2.7,4.11c-.81-1.3-1-3-2.7-4.11ZM6.89,192c-2.11-.5-4-.07-4.15,1.47,1.31-.81,2.67-.37,4.15-1.47ZM39.71,92.64c-.51-1.13-.26-2.19-1.13-2.73-.94.21-1.13.51-.91,1.46.4.65.62,1.6,2,1.27Zm25.21,14.1a4.39,4.39,0,0,0,.55-4.11c-.15,1.52-1.36,2.8-.55,4.11Zm-9.2-20.31c-.32,1.83.08,2.48,2.3,3.46a18.1,18.1,0,0,0-2.3-3.46Zm-16,11.45c-.33-1.42-1.39-1.68-2.44-1.93.14,1.71.72,2.08,2.44,1.93ZM33.37,241.7c-3.41,3.54-3.41,3.54-3.67,4.6a11.87,11.87,0,0,0,3.67-4.6Zm6.43-55.09c.15,1.71.19,2.95,1.28,4.44-.15-1.71.29-3.05-1.28-4.44ZM18,196.9c-.81-1.3-1.1-1.49-2.89-.58,1,1,1.39,1.67,2.89.58ZM46.66,86c.44,1.9,1,2.26,3,2.29a14.49,14.49,0,0,0-3-2.29Zm-12.3,9.33c.55,2.37.55,2.37,2.44,1.93-.51-1.13-.73-2.08-2.44-1.93Zm.55,5.61c0-1.24-.07-2.48-1.71-3.09.32,1.42.36,2.65,1.71,3.09Zm19.77-1.84c-.33-1.42-.54-2.36-2-3.27.15,1.71.38,2.66,2,3.27Zm-2.23-10.7c-.33-1.42-.15-1.71-2.26-2.22.33,1.42.73,2.08,2.26,2.22Zm2-1.2c.65-.41,1-1,.5-2.11-.36.58-1,.21-1.42.32-.25,1.06-.14,1.53.92,1.79ZM87.36,192.79A5.11,5.11,0,0,0,89.72,189c-.91,1.46-1.92,2.44-2.36,3.79ZM60.07,207.34c-1.17-.72-1.53-.14-2,2,.83-.7,1.78-.91,2-2ZM56.56,85.74a3.14,3.14,0,0,0,1.49,2.15c.26-1.06.33-1.82-.54-2.37-.11-.47-.76-.07-.95.22ZM44.45,101.27c-.61-1.61-.9-1.79-2.15-1.76.44,1.9.44,1.9,2.15,1.76ZM27.76,198.13c1,1,1.93.8,3.06.29-1-1-1.82-.33-3.06-.29ZM38.7,93.62c.8,1.31.83,2.55,2.54,2.4-.5-1.13-.73-2.07-2.54-2.4ZM49.11,173a2.37,2.37,0,0,0,.26,2.18c.47-.11,1.13-.51.73-1.16.06-.77-.23-1-1-1ZM14.75,193.66c-.18.3-.83.69-.43,1.34a1.89,1.89,0,0,0,2,.05c-.21-1-.5-1.14-1.57-1.39Zm2.35,4.7c1,1,1.56,1.38,2.39.69-.61-1.61-1.08-1.5-2.39-.69ZM68.3,95.49c-1.21,1.27-1.35,2.81-1.79,4.15a6.6,6.6,0,0,0,1.79-4.15ZM47.39,173.13c-1.52-.14-1.82-.33-1.66,1.39,1.05.25,1.7-.15,1.66-1.39ZM17.23,193.58c.52,1.13.92,1.78,2.05,1.28-.52-1.13-1.1-1.49-2.05-1.28ZM41.86,87.9a5.34,5.34,0,0,0,3.68,1.89,5.83,5.83,0,0,0-3.68-1.89ZM60.65,98c.26-1.06-.44-1.89-1.67-1.86.8,1.32.8,1.32,1.67,1.86Zm-4.81-7.87c.32,1.43.62,1.61,2.14,1.75,0-1.23-1.27-1.21-2.14-1.75Zm-1.66,17.6c-1.13-2.74-1.13-2.74-2.66-2.88,1,1,1.68,1.86,2.66,2.88Zm-9.77,67.58c.07-.76.44-1.35.52-2.11a.9.9,0,0,0-1.42.33c-.08.75.22.94.9,1.78Zm3,2.29c1-1,1.38-1.57.58-2.87-.84.68-.62,1.64-.58,2.87Zm47,71.39a8.72,8.72,0,0,0,3.85,1.6,8.84,8.84,0,0,0-3.85-1.6ZM47.8,101.73a2.09,2.09,0,0,0-2.33-1.45c.33,1.41,1.1,1.49,2.33,1.45Zm-.48-12.85c.33,1.42,1.56,1.38,2.62,1.63-.51-1.12-1.57-1.38-2.62-1.63Zm-1.83-.32c-.14-1.71-.72-2.07-2-1.28l2,1.28Zm-24,111.76c-1.16-.72-1.16-.72-2.29-.22a1.44,1.44,0,0,0,2.29.22Zm65.18,37a12.32,12.32,0,0,0-2.91,1.42,4.74,4.74,0,0,0,2.91-1.42Zm-61.8-48.25c.51,1.12,1.28,1.2,2.51,1.16-.5-1.13-1.74-1.09-2.51-1.16Zm1.21,2a3.06,3.06,0,0,0,3.09,1.52c-.8-1.3-1.75-1.09-3.09-1.52Zm-3.6,7.06a1.53,1.53,0,0,0-2.12-.5c.7.84.7.84,2.12.5ZM97,247.4a9,9,0,0,0,3.76,1.12c-1.28-1.2-2.7-.87-3.76-1.12Zm11.58-32.85A2,2,0,0,0,110,213c-2.18.25-2.18.25-1.39,1.57Zm-61-123.49A4.65,4.65,0,0,0,50.2,92.7a3.21,3.21,0,0,0-2.63-1.64ZM32.65,95.52c-.43,1.35-.43,1.35,1.1,1.5-.12-.48,0-1.24-1.1-1.5Zm30.82,13.55c0-1.24.5-2.11-1.14-2.73a6.1,6.1,0,0,0,1.14,2.73ZM55.84,93.39c.33,1.41.92,1.78,2.15,1.74-.21-.94-1-1-2.15-1.74ZM53.22,95c.26-1.06-.33-1.42-1.2-2-.25,1,.33,1.41,1.2,2Zm15.16,88a3,3,0,0,0,3-.95c-1.13.51-2,0-3,.95ZM51.47,90.67c-.44,1.34.62,1.59,1.39,1.66.25-1-.52-1.12-1.39-1.66Zm-25.82,107a1.54,1.54,0,0,0-2.12-.51,1.45,1.45,0,0,0,2.12.51ZM17,189.4a2,2,0,0,0,1.82.32c-.1-.47.08-.76-.51-1.12-.48.1-.48.1-.66.39a1,1,0,0,1-.65.41ZM3.77,239.84c.15,1.71.15,1.71,1.49,2.15a3.14,3.14,0,0,0-1.49-2.15Zm16.89-43.31c-.51-1.13-1-1-1.93-.8.5,1.13,1,1,1.93.8Zm46.14,13c-1-.26-1.41.32-2.25,1,1.23,0,1.71-.15,2.25-1ZM49,219.88c.54-.87.25-1.06,0-2-.83.69-.43,1.35,0,2Zm-.39-135c-.47.11-1.23,0-1.12.51.4.65.69.84,1.16.73a1.78,1.78,0,0,0,0-1.24ZM43,98.35c-.59-.36-1-1-1.75-1.09,0,1.24.62,1.6,1.75,1.09Zm68.71,115.72c-.88-.55-.88-.55-1.13.51.29.18.77.07,1.13-.51ZM88.45,112.51a.33.33,0,0,0,.11.47c.65-.4,1.41-.32,2.07-.73a2.42,2.42,0,0,0-2.18.26Zm24.64,105.23c1-.22,1.24,0,1.6-.62-.7-.84-1.06-.25-1.6.62ZM58.87,92.44c-.26,1.06.32,1.42,1.09,1.5.07-.78,0-1.25-1.09-1.5ZM24,199a1.46,1.46,0,0,0-1.72.15c.88.55,1.17.73,1.72-.15ZM44.56,98.5a2.15,2.15,0,0,0,1.75,1.08,2.17,2.17,0,0,0-1.75-1.08Zm6.25-13.92c.4.66.8,1.31,1.75,1.09,0-1.23-.69-.84-1.75-1.09Zm6.86,18.86c-.07.76.22.94.62,1.6.07-.77-.22-1-.62-1.6Zm-3.24-3.24c.21.94.32,1.42,1.09,1.49.08-.76-.22-1-1.09-1.49Zm29.28,6.93c.18-.3.84-.69.43-1.35-.65.4-.54.87-.43,1.35ZM51.14,89.24c-.07.76.7.84,1.46.91-.4-.65-.81-1.31-1.46-.91ZM16.87,203.89c.41.66.7.84,1.18.73a1,1,0,0,0-1.18-.73ZM-8.56,251.17a2.92,2.92,0,0,0-2-1.27,2.9,2.9,0,0,0,2,1.27Zm50.16-59a.9.9,0,0,0,.32,1.42.91.91,0,0,0-.32-1.42Zm13.9-69.05c.4.66,1,1,1.46.91-.58-.36-.69-.84-1.46-.91Z" transform="translate(27.7 -16.97)"/><path class="cls-1" d="M73.05,76.19c.4-2.59,1.08-5,3.23-6.49-.4-.65-.76-.07-1-.25a9.83,9.83,0,0,1,1-3c.47-.11,1.35.44,1.6-.62a2.48,2.48,0,0,1-1-2.25,19.12,19.12,0,0,0-3.11-11.25c-1.71-3.1-3.61-5.9-4.56-8.91a3.1,3.1,0,0,0-3-2.3c.07-.77,1.13-.51,1-1a2.83,2.83,0,0,0-.55-2.36c-3-4.3-1.79-8.81.16-13.25a8.28,8.28,0,0,1,4-3.18,8.78,8.78,0,0,1,5.28-2,20.27,20.27,0,0,1,5.35.5,4,4,0,0,0,2.36-.55c3.93-2.41,8.19-3.39,12.75-1a24.18,24.18,0,0,1,5.29,4.51c.69.84.54,2.36,1,3.5l2.3.21a2.82,2.82,0,0,1,3.31,2.47,3.3,3.3,0,0,0,2.36,2.7c1.75,1.09,2.78,3.34,3.69,5.13a20.46,20.46,0,0,1,2.77,9.82c.05,4.48-1.37,8.05-4.72,10.82a4.63,4.63,0,0,0-1.34,2.81c.26,2.18-.94,3.45-2.43,4.55-1.32.8-2.63,1.61-4,1.17a1.78,1.78,0,0,0-1.24,0c-2.25,1-4.66.33-7,.12C92.37,66,88.32,64.67,84,65.17c-4.19.23-6.51,2-7.94,5.59l-.9,1.45.29.18c-.12-.46.07-.76-.51-1.12-.62,1.64-1,3.46-2.15,4.73ZM100,57a8.72,8.72,0,0,0-5.49,1l.3.19L100,57a13.07,13.07,0,0,0,5.21-1.21c-1.89.45-3.71.12-5.21,1.21ZM98.34,20.71c-.91,1.46-1.06,3-2.08,4a25.93,25.93,0,0,0-4.72,7.58c-1.05,3-3.17,5.72-3.93,8.88A24.41,24.41,0,0,1,85,49.23a38,38,0,0,0-1.63,5.86C84.86,54,85,52.47,85.73,51.31A89.4,89.4,0,0,0,91.36,39c2.22-5.49,4.83-10.34,10.26-13.84-.44-1.9-1.72-3.1-3.28-4.48Zm4.88,7.1c-3.92,8.88-9.31,16.86-14.8,24.36,6.55-7.25,14-14,17.2-23.67,1.06.25,1.17.72.8,1.31-1.09,1.74-2.06,4-3.15,5.72a43.79,43.79,0,0,1-7.06,9.36,11.43,11.43,0,0,0-2.84,3.9l.95-.22a51.39,51.39,0,0,0,8.47-9.7A35.81,35.81,0,0,1,107.93,32c.36-.58.36-.58.24-1.05-.54-2.37-2-3.28-5-3.09ZM91.78,18.24c-1.35-.44-1.61.62-2,1.21-.54.87-1,2.22-1.81,2.9a5.85,5.85,0,0,0-1.82,2.92c-2,5.22-1.78,10.64-2.47,16.28.66-.4.84-.69.73-1.17C87.21,34,90,27.63,93.89,22a3.28,3.28,0,0,0,1.24-3.29c-.76-.06-1.64-.61-2.3-.2-1.74,2.15-2.61,4.84-4.07,7.17.41-2.59,2.15-4.74,3-7.43ZM93.31,56a3.72,3.72,0,0,0,2.18-.27A91,91,0,0,1,106.34,52a35.57,35.57,0,0,0,9.32-3.9c.47-.11.65-.4,1-1a21.14,21.14,0,0,0-1.53-6.62A16.13,16.13,0,0,1,109,46.4c-1.12.51-2.31,1.79-3.45,2.31a42.42,42.42,0,0,0-6.55,4c-1.79.91-3.74,2.12-5.71,3.33ZM71.44,39.16A41.78,41.78,0,0,1,70.37,22.7a11.28,11.28,0,0,0-3.88,13.37C67.91,39,70.1,42,70.87,45.27l.11.48c2.11,3.75,4.41,7.21,5.87,11.36a1.26,1.26,0,0,0,.08-.77c-.37-2.65-1.39-4.92-1.94-7.28a22.42,22.42,0,0,0-2.55-5.64C69.85,39.78,69,36,68.27,31.92c-.44-1.9-1.06-3.5.21-5.54.81,4.55.85,9,3,12.78Zm18.11,9.27c5.23-6.45,9.71-13,12.91-20.69l-.88-.55c.18-.29.07-.77-.4-.66C95,31.21,92.56,37.76,89.91,44.6c1.56-1.86,2.44-4.55,3.71-6.59,2.07-4,3.16-5.71,4.58-6-3.75,5.36-6,10.86-8.65,16.47ZM90.07,56a2.83,2.83,0,0,0,2.36-.55c1.79-.92,3.94-2.41,5.71-3.32,4.52-2,8.34-4.93,12.16-7.8a10.78,10.78,0,0,0,4.62-4.82,9.61,9.61,0,0,0-1.6-2.61C106.88,44.66,98.65,50.05,90.07,56Zm-5.1-36A4.86,4.86,0,0,0,80.9,24a3.88,3.88,0,0,1-.62,1.64c-1.52,3.1-1.52,6.34-2,9.69-.25,4.3,1,8.73,1.72,12.81-.18.3-.07.77.51,1.13.22-2.29.83-3.93.58-6.11-.77-3.32-.3-6.67.17-10A33.8,33.8,0,0,1,85,20.07Zm-9.32.66c-2.58-.39-4.08.69-4.39,2.52-.16,1.53,0,3.24-.15,4.77-.44,4.59,1,8.74,2.3,13.17a3.41,3.41,0,0,0,.74,2.08c.39.66.79,1.31,1.2,2-1.39-8.15-2.31-16.41.3-24.5ZM82,55.42c1-2.22,1.66-4.62,2.83-7.14a26.45,26.45,0,0,0,1.85-4.91c.29-3.06,1.45-5.57,2.8-8.38,1.52-3.1,2.46-6.56,5-9.4.91-1.46,2.1-2.73,2.62-4.84.55-.88,0-1.25-.51-1.13C89.2,30.8,83.35,42.13,82,55.42Zm14.63,5.09a50.7,50.7,0,0,0,12-1,.74.74,0,0,0,.94-.23c.72-1.16,1.86-1.67,2.88-2.66a3.6,3.6,0,0,0,1.74-2.14c-2.37.55-4.62,1.56-6.8,1.83-5.39,1.49-10.89,2.51-16.38,3.54a11.23,11.23,0,0,0-4.7,2.33,51.54,51.54,0,0,0,6-1.13.75.75,0,0,0,1-.22c.91-1.45,2.62-1.6,4.14-1.46l.3.18c-.18.29-1,.23-1,1Zm14.73-26.86c-1.5-2.13-2.26-2.21-3.54-.17A33,33,0,0,0,104.58,38c-3.64,5.83-9,10.57-14.22,15-1,1-2.33,1.79-3.06,3,6-3.14,21.1-17.61,24-22.28ZM76.6,20.51c-3,6.19-2,25.89,1.52,31.31a20.43,20.43,0,0,0-1-10.74c-1.5-5.39-1.18-10.44-.19-15.91.42-1.34,1.34-2.81,1.18-4.51-.58-.36-.87-.55-1.52-.15Zm12.7-2.19a.33.33,0,0,0-.47.11c-2,0-2.73,1.13-3.34,2.76a44.84,44.84,0,0,0-4,16.14c-.18,3.52.88,7,.23,10.66a6.44,6.44,0,0,0,.58-2.87,55.2,55.2,0,0,0,1.27-8.52c-.3-6.66,1.22-13,5.73-18.28Zm8.84,30.6c6.29-3,10-8.3,14.77-12.64-.32-1.42-.32-1.42-1.2-2-4.33,5-8.36,10.17-13.57,14.61Zm8.36,14.52c1.23,0,2.4.69,3.31-.76a2.14,2.14,0,0,0-.08-2.47c-2.65.36-5.31.73-8.26.92a30.47,30.47,0,0,0-8.26.91c5.28,1.26,10.59.54,15.9-.2-.72,1.17-1.78.91-2.61,1.6Zm-8.24-7.56c5.38-1.5,10.92-1.29,15.79-3.91.77.08.23.94,1.18.73a5.7,5.7,0,0,0,.82-3.94c-5.42,3.51-12.26,4.1-17.79,7.12Zm8.56,9c-5.28-1.26-10.7-1-16-1.51a11.42,11.42,0,0,0-6.38.48c1.83.32,3.83.37,5.94.87,2.59.4,5.42-.26,7.94.9,3,1.06,5.79-.84,8.55-.74ZM81.19,21c-1.35-.44-1.83-.33-1.9.44a23.37,23.37,0,0,0-2.42,11A10.45,10.45,0,0,0,77,35.37a.35.35,0,0,1,.48-.12c-.15-4.95,2-9.68,3.67-14.3ZM79.29,59a8.24,8.24,0,0,0,0-7.72c-.11,2.77,0,5.24,0,7.72Zm35-6.12c-1,.23-1.24.05-1.79.92a1.6,1.6,0,0,0,1.79-.92Z" transform="translate(27.7 -16.97)"/><path class="cls-1" d="M36.66,170.88c.72-1.16,0-2,.47-3.34.91,1.78.58,3.6,1.2,5.2a4.91,4.91,0,0,0-1.67,1.39,176.11,176.11,0,0,0-8.54-24l.47-.1c1.72,3.09,2.77,6.59,4.12,10.26,1.24,3.2,2.6,6.88,3.95,10.55Z" transform="translate(27.7 -16.97)"/><path class="cls-1" d="M25.28,150.83c2.56,5.64,5.4,11.46,6.82,17.62h0a1.25,1.25,0,0,1-.69-.84c-1.68-5.09-4-9.79-5.7-14.89a1.41,1.41,0,0,1-.14-1.7Z" transform="translate(27.7 -16.97)"/><path class="cls-1" d="M1.91,313.57c-.51,2.11-2.36,3.79-3.45,5.54.51-2.11,2.36-3.79,3.45-5.54Z" transform="translate(27.7 -16.97)"/><path class="cls-1" d="M19.83,162.82c-1.2-2-2.59-3.64-3.79-5.61l.17-.28a17.29,17.29,0,0,1,3.62,5.89Z" transform="translate(27.7 -16.97)"/><path class="cls-1" d="M47.93,77.51A1.25,1.25,0,0,1,49,79a2.64,2.64,0,0,1-1.08-1.5Z" transform="translate(27.7 -16.97)"/><path class="cls-1" d="M109.84,208c.47-.12.87.54,1.56,1.38a1.92,1.92,0,0,1-1.56-1.38Z" transform="translate(27.7 -16.97)"/><path class="cls-1" d="M59.86,72c-1.13-2.73-1.31-5.68-1.69-8.33-.1-.48.08-.77.45-1.35.29,3.42,1.24,6.44,1.24,9.68Z" transform="translate(27.7 -16.97)"/><path class="cls-1" d="M60.92,75.51c-1-1-.54-2.37-1.06-3.5,1,1,.84,2.55,1.06,3.5Z" transform="translate(27.7 -16.97)"/><path class="cls-1" d="M49.72,202.51a8.64,8.64,0,0,1,.14,5,26.85,26.85,0,0,0-.14-5Z" transform="translate(27.7 -16.97)"/><path class="cls-1" d="M45.88,186c.7.84.54,2.36.3,3.42,0-1.23-.26-2.18-.3-3.42Z" transform="translate(27.7 -16.97)"/><path class="cls-1" d="M48,187.69a4.23,4.23,0,0,0-.55-2.36c.69.84,1.1,1.49.55,2.36Z" transform="translate(27.7 -16.97)"/><path class="cls-1" d="M51.13,189.22c.51,1.14,1,2.26.3,3.42,0-1.23-.27-2.18-.3-3.42Z" transform="translate(27.7 -16.97)"/><path class="cls-1" d="M49.54,199.57a6.1,6.1,0,0,1-.26-2.19c.4.66.32,1.42.73,2.08l-.47.11Z" transform="translate(27.7 -16.97)"/><path class="cls-1" d="M47.35,193.33a5.38,5.38,0,0,1,.43,1.9c-.4-.65-.8-1.31-.43-1.9Z" transform="translate(27.7 -16.97)"/><path class="cls-1" d="M48.47,189.59c.29.18.4.66.51,1.13-.76-.08-.4-.66-.51-1.13Z" transform="translate(27.7 -16.97)"/><path class="cls-1" d="M123.32,184.45c1.61-.62,3.1-1.71,5-2.15-1.38,1.57-3.09,1.71-5,2.15Z" transform="translate(27.7 -16.97)"/><path class="cls-1" d="M121.54,185.37a9.55,9.55,0,0,0-2.55.83,2.17,2.17,0,0,1,2.55-.83Z" transform="translate(27.7 -16.97)"/><path class="cls-1" d="M87.17,29.54a8.64,8.64,0,0,1,.68-2.41c-.07.76-.61,1.63-.68,2.41Z" transform="translate(27.7 -16.97)"/><path class="cls-1" d="M237.27,273.18a.45.45,0,0,1,.74-.11c2,1.34,4.22,1.27,6.48,1.21,3.29,0,6.78-.21,10.11.11l2-.3c3.82.24,6.91,2.51,10.57,3.32,5.2,1.13,9.61,3.75,14.13,7.16.6.74,1,1.77,1.82,2.19-2.45-1.27-5.28-1.66-7.9-2.36-1.32-.35-2.59-.43-3.9-.78-3.82-.24-7.75-1.29-11.64-2.07-1.81-.27-3.37-.58-4.37-2.34-.57-.46-1.43-1.15-2.34-.47-.95.42-1.09,1.26-.23,1.95a6.34,6.34,0,0,0,3.72,1.35,25.71,25.71,0,0,1,6.2,1c2.34.47,4.67.93,7.25,1.37a20.56,20.56,0,0,1,3.37.58,25.52,25.52,0,0,1-7.15,3c-.7.38-1.44.49-2.14.87a9.67,9.67,0,0,1-7.4-.53c-.78-.15-1.13-.92-1.46-1.41a2.93,2.93,0,0,0-2.37-.74,1.39,1.39,0,0,0-1.13,1,1.35,1.35,0,0,0,.73,1.53,11.82,11.82,0,0,0,2.86.67,17.23,17.23,0,0,1,4.11.47,7,7,0,0,0,5.22-.52.89.89,0,0,1,.78.16c-1.18,2.36-3.29,3.5-5.4,4.64a4.23,4.23,0,0,0-1.58,1.33c-.41.62-.59,1.19-.27,1.69.61.73,1.15.92,1.85.54a2.06,2.06,0,0,0,1.43-2.4,1.52,1.52,0,0,1,.55-1.46,19,19,0,0,0,4.37-4.76,3.32,3.32,0,0,1,1.41-.76,13.83,13.83,0,0,0,4.29-1.75c.74-.11,1.41-.75,2.19-.6.49-.08.17-.58.42-.61,0,0,.21-.3.25,0a30.64,30.64,0,0,1,5.44,1.09c3.44,1.12,5.31,3.58,7.24,6.57a73.47,73.47,0,0,1,4.5,8.61,99.39,99.39,0,0,1,5.79,14.18c.83,2.34.68,4.82.81,7.54a37.09,37.09,0,0,1,.47,5.13c.7-.39.63-.92.55-1.46-.81-4-.68-8.38-1-12.7-.45-3.21-.12-6.27-.33-9.52,0-3.56,1.07-6.73,1.11-10a61.17,61.17,0,0,1,.71-7.5,2.72,2.72,0,0,1,.8-1.49,66.34,66.34,0,0,1,5.66-6.32,5.37,5.37,0,0,1,1.91-.84,7.55,7.55,0,0,0,4.12-1.17,10.62,10.62,0,0,1,4.9-1,26.81,26.81,0,0,1,4.6.4c1.52,0,2.66,1,3.8,1.89.86.69,1.42,1.15,2.16,1a1.14,1.14,0,0,0,1.45-.49,1.27,1.27,0,0,0-.43-1.31c-1.19-1.19-2.36-2.38-4-1.31l-.49.07c-1.43-1.15-3.16-.89-4.68-.93-2.87-.66-5.55,0-8.19,1a4.66,4.66,0,0,1-2.67.68,18.17,18.17,0,0,1,4.1-3.09,95.13,95.13,0,0,1,8.69-4.6,36,36,0,0,1,7.33-1.66c1.2-.45,2.3.2,3.61.55a11.08,11.08,0,0,0,3.94,1.05,14.38,14.38,0,0,1,3.15.89c1.06.39,2.33.47,3.65.82.49-.08,1,.11.91-.69,2.45,1.27,3.19,1.16,4.48-.4-1-1.77-4-1.59-5.26.24-3.93-1-7.79-1.55-11.8-3.13,1.12-1,2.15-.87,3.1-1.29,3.59-1.37,6.94-2.7,10.49-4.33.95-.41,2-1.67,3.38-1.06.54.2,1-.15,1.17-.72-.12-.8,0-1.65-.56-2.11s-1-.11-1.48.23l-.42.61c-.66.65-1.05,1.53-2.11,1.14.08.54.57.46.61.73-1.78,1.64-15.24,6.41-17.33,5.91a47.82,47.82,0,0,1,3.94-6.07c.42-.61,1.15-.72,1.86-1.11a2.5,2.5,0,0,0,1.67-2.44.87.87,0,0,0-.15-1.07.79.79,0,0,0-1.24.19c-.91.68-2.07,1.4-2.37,2.82.07.54-.66.65-.87,1a2.82,2.82,0,0,1-.73,2,18.85,18.85,0,0,1-4.5,5.62.93.93,0,0,1-.72.38,35.28,35.28,0,0,0-8.62,3.22c-2.53,1.75-5.38,3-7.87,5a62.07,62.07,0,0,0-7.28,7.39.93.93,0,0,1-.71.39c-.28-.24-.07-.54-.11-.81a53.17,53.17,0,0,1,1.75-5.47c1-2.06,1.66-4.35,2.92-6.18,1.21-2.1,2.18-4.16,3.44-6a22.81,22.81,0,0,1,7.43-6.33c.71-.38,1.2-.45,1.62-1.06,2.07-1.41,4.51-2.05,6.61-3.19,3.24-2.13,6.79-3.76,10.3-5.66a38.45,38.45,0,0,1,4.68-2.63c.95-.42,2.27-.07,3.29.05,2.09.5,4.31.16,6.33.14,1.27.08,2.37.73,3.57.28.49-.08,1,.11,1.48-.23.95-.41.88-.95.27-1.68a1.53,1.53,0,0,0-2.1-.51c-3.19,2.4-6.66,1-10.44,1a8.83,8.83,0,0,1,1.61-1.07,29.14,29.14,0,0,0,7-4.06,6,6,0,0,0,2-1.94,1.45,1.45,0,0,1,.95-.42,2.81,2.81,0,0,0,2.6-1.22,1.06,1.06,0,0,0,0-1.64c-.36-.77-.86-.69-1.35-.62-.74.11-1.16.72-1.58,1.33-2.19,4.17-5.95,6.1-10,7.81-3.55,1.63-7,3.8-10.54,5.7a4.41,4.41,0,0,1-1.91.83c2.09-3.05,3.69-6,6.15-8.31a100.81,100.81,0,0,1,7.56-7.17c.21-.3.46-.34.67-.65a4.72,4.72,0,0,0,2.33-3.08c.21-.31.43-.62-.15-1.08-.28-.23-.53-.19-1-.12a3.68,3.68,0,0,0-2.3,3.37,5.77,5.77,0,0,1-1.22,2.09,54.75,54.75,0,0,0-10.11,10.56c-1.09,1.26-1.89,2.75-3,4a33.63,33.63,0,0,1-8.79,5.71,41.59,41.59,0,0,0-7.9,4.75,13.79,13.79,0,0,1-1.62,1.07c.13-.85.59-1.19.76-1.76.22-.3.67-.65.63-.92,1.56-3.24,3.65-6.29,5.21-9.54,1.22-2.1,2.4-4.47,3.65-6.3a7.86,7.86,0,0,0,1.57-3.25,24.59,24.59,0,0,1,2.64-4.5,15.73,15.73,0,0,1,5.23-4.08,4.55,4.55,0,0,1,3.17-.75c1.07.39,2-.3,2.86-1.25a.88.88,0,0,0-.48-1.57,2.16,2.16,0,0,0-2.51.11,28.39,28.39,0,0,1-5,3.77c-.7.38-1.37,1-2.07,1.4,1.53-3.51,2.79-7,6-9.12a16.28,16.28,0,0,0,5.49-5.75c.63-.92,1.55-1.61,2.17-2.52a4,4,0,0,0,1.52-3.51,1.47,1.47,0,0,0-.92-1.23,2.57,2.57,0,0,0-1.43,2.4c-.92,4.24-3.29,7.07-6.49,9.47-.7.37-1.37,1-2.32,1.44-.36-.76.31-1.41.44-2.26,1.36-2.94,1.68-6,2-9.33a17.59,17.59,0,0,1,1.07-3.16,8.64,8.64,0,0,0,.75-3.67c-.08-.54-.4-1-.9-1-1.41.76-2.26,3.63-1.58,4.89a8,8,0,0,1,.24,3.52c-.34,4.7-2,8.79-3.73,12.88a59.87,59.87,0,0,1-2.49,5.58c-1,1.79-1.77,3.55-2.78,5.34-.21.3-.45.34-.67.65a37.66,37.66,0,0,0,.35-4.71,47.59,47.59,0,0,0-.18-8.45,20.47,20.47,0,0,1,.54-6.92,9.52,9.52,0,0,1,.93-2.33,5.16,5.16,0,0,0-.15-4.63,3.67,3.67,0,0,0-.89-1c-.5.07-.71.38-.88,1a3.17,3.17,0,0,0-.08,3,9.26,9.26,0,0,1,.28,3.79c-.26,1.68-.28,3.33-.51,5.28-.9-1-.83-2.33-1.2-3.11-.28-.23-.07-.53-.11-.79a3.44,3.44,0,0,0-1.27-3.65c-.82-.42-1.52,0-1.4.76.23,1.61.16,3,1.76,3.57a2.72,2.72,0,0,1,.76,1.8c2.05,3.79,2.16,8.15,1.77,12.59a36.43,36.43,0,0,1-1.27,7,32.35,32.35,0,0,1-3.37,6.53c-1.77,3.55-3.86,6.6-5.63,10.16a30.32,30.32,0,0,1-3.69,6c-.84,1.22-1.18,2.36-2.3,3.36a1.06,1.06,0,0,1,.13-.85c.29-3.32.57-6.65.57-10.21,0,0,0-.26-.07-.53,1.2-.46.76-1.76,1.1-2.91a2.78,2.78,0,0,1,.8-1.48c.84-1.22,1.14-2.64,2-3.86a3.73,3.73,0,0,1,.88-1c.15,1.07-1,1.53-.9,2.6,1.05-1.53,2.38-2.82,3.18-4.31a4,4,0,0,0,.4-2.52c-.07-.53-.36-.77-.89-1a2.17,2.17,0,0,0-1.2.45c-.17.58-.55,1.46-.72,2a10,10,0,0,1-1.48,3.78c-1.05,1.53-1.81,3.29-2.86,4.81a.57.57,0,0,1-.42.61c.36-2.79,0-5.47.14-7.95a19.6,19.6,0,0,1,2.44-7.76c1-2.07,1.65-4.35,2.63-6.42.12-.84.58-1.18,1.25-1.83a5.74,5.74,0,0,0,2.26-3.63c.14-.84,0-1.64-.75-1.79-.82-.43-1.24.18-1.62,1.06a4.21,4.21,0,0,0-.48,2,8.2,8.2,0,0,1-1.28,3.47c-1.14,2.64-2.24,5.54-3.38,8.18a3.68,3.68,0,0,0-.59,1.18,7.93,7.93,0,0,1-.59-2.37,44.16,44.16,0,0,1,.86-6.43c.82-3.13,1.11-6.46,2.46-9.4a4.72,4.72,0,0,0,.3-1.41c-.11-.81.06-1.38-.72-1.53-.82-.42-1.2.45-1.37,1a5.85,5.85,0,0,0-.5,3.63,16.17,16.17,0,0,1-.74,7.23,27.79,27.79,0,0,0-.88,8.06c.06,2.18.4,4.59,0,6.85A8.36,8.36,0,0,0,307,247c.17,3-.4,6.08-.2,9.33a56,56,0,0,1-.48,9.1,16.06,16.06,0,0,1-2.09,6.61,49.11,49.11,0,0,0-3.18,7.87c-.68,2.29-1.08,4.81-1.73,7.38-.86,2.86-.65,6.11-1,8.9-.15,2.49-.55,5-.71,7.5-.6-.73-.5-1.84-.62-2.64-.7-3.18-.87-6.16-1.57-9.34-.19-1.34-.42-2.95-.64-4.55a16.46,16.46,0,0,0-.25-3.52,43.1,43.1,0,0,1-.07-7.65,57.71,57.71,0,0,1-.05-9.3c.29-3.33-.41-6.5-.38-9.8.16-2.47-.22-5.16-.31-7.61a31.48,31.48,0,0,1,3-10.85,24.86,24.86,0,0,0,3.21-7.6,2.84,2.84,0,0,1,.73-2,7.73,7.73,0,0,0,1.41-4.32,2.39,2.39,0,0,0-1.13-2.57,3.63,3.63,0,0,0-1.21,2.1,30.08,30.08,0,0,0-.34,4.7,6.15,6.15,0,0,1-.57,3.1c-1.28,3.48-2.81,7-4.37,10.24a1.46,1.46,0,0,1-.38.88c-.14-1.08,0-1.92-.13-2.72.1-4.67-.08-9.56.51-14.3a75.67,75.67,0,0,1,2.1-10.17c.37-.88.22-1.95.85-2.87a25.83,25.83,0,0,1,7-9.54,23.42,23.42,0,0,0,3.82-3.31,4.54,4.54,0,0,1,1.66-.8,11.06,11.06,0,0,0,3-.45c.46-.34.78.16,1.31.36a1.8,1.8,0,0,0,2.51-.11c.91-.69.88-1,0-1.65-1.18-1.19-2.42-1-3.79,0a19.31,19.31,0,0,1-1.89.83c-.46.34-1.49.23-2.47.37,2.13-2.78,2.67-6.14,4.83-8.66,1.3-1.56.78-3.4-.82-4a5.66,5.66,0,0,0-1.44,4.05,8.62,8.62,0,0,1-.95,4c-1.77,3.56-3.54,7.11-7,9.54a35.62,35.62,0,0,0-4.13,4.73l-.63.92a1.27,1.27,0,0,1,.06-1.38,147.2,147.2,0,0,1,3.64-15.32,18.2,18.2,0,0,1,2.87-6.46c1.51-1.87,2.19-4.16,3.16-6.23a6.89,6.89,0,0,1,1.88-2.74c.88-1,.73-2-.24-3.52-.95.42-1.08,1.26-1.46,2.13a23.62,23.62,0,0,1-3.53,9,.27.27,0,0,1-.21.31c.41-2.53.52-5.28.68-7.77a34.82,34.82,0,0,1,.8-5.05,1.3,1.3,0,0,0-.19-1.33.84.84,0,0,0-.86-.7c-.49.08-.7.39-.87,1a7.4,7.4,0,0,0,.57,4,1,1,0,0,1,.35.76c-.56,3.1-.4,6.08-1.22,9.22-.51,1.72-1.27,3.47-1.78,5.19-.56,1.45-.83,3.14-1.38,4.59a.56.56,0,0,1-.42.61,1.07,1.07,0,0,1-.36-.77c-.24-3.51-1.44-6.62-2.42-10-.88-2.6-2-5.17-1.39-8a9.51,9.51,0,0,0,.92-4.24,2.06,2.06,0,0,0-1-1.76,9.94,9.94,0,0,0-1.18,5.92c.59,2.37.93,4.79,1.52,7.16.84,2.34,1.67,4.67,2.22,6.78a24.66,24.66,0,0,1,.29,12.82,70.38,70.38,0,0,0-1.86,8.21c-1,4-2.37,8.29-2.79,12.46l-.21.31a29.26,29.26,0,0,0-1.38-4.45,18.32,18.32,0,0,1-1.25-5.28c.11-2.75-.76-5.35-.64-8.11a19.47,19.47,0,0,0,0-3.82c-.07-.54.38-.88.59-1.19a2.64,2.64,0,0,0-1.1-4.21c-1.2.45-1.63,2.71-.7,3.94a5.74,5.74,0,0,1,.74,3.44c.12,2.72-.24,5.51.14,8.19a12.39,12.39,0,0,1-2.08-4.06c-.91-2.88-2.28-5.4-2.74-8.62-.4-1-.58-2.37-1-3.41-.31-.5.07-1.37.24-1.94a7.2,7.2,0,0,0-.46-3.22c-.35-.77-.64-1-1.63-.85a4.14,4.14,0,0,0-.21,3.87c1.48,3.33,2.22,6.77,3.45,10.14a28.06,28.06,0,0,1,1.38,4.44,19.06,19.06,0,0,0,2.06,3.8c1.34,4.17,3.14,8,3.75,12.29.37,2.68.22,5.17.35,7.88a7.56,7.56,0,0,1-.74,3.67,43.36,43.36,0,0,1-2.24-5.13c-.36-.77-.72-1.54-1.12-2.57a4,4,0,0,1-.58-2.38c.3-1.41-.6-2.36-1-3.4a.89.89,0,0,0-1.11-.66,2.72,2.72,0,0,0,0,3.56,42.74,42.74,0,0,1,4.78,8.85,9.78,9.78,0,0,0,1.4,2.8c.68,1.26.38,2.68.29,3.79a141.53,141.53,0,0,0,.31,14.73c.09,2.44.47,5.12.32,7.61-.25,3.59,0,7.38-.18,11.25.19,1.33-.12,2.74.07,4.09l-.25,0c-.15-1.07-.51-1.84-.62-2.64-1.38-4.44-1.82-9.3-3.21-13.74-1.09-4.21-2-8.73-3.12-13.21a69.57,69.57,0,0,0-4.17-11.67,28.76,28.76,0,0,0-1.84-4.11,10.92,10.92,0,0,1-1-5.58c.13-4.4,1.33-8.41,2.24-12.66l.63-.91c1.12-1,1.26-1.83.54-3.37l-1-1.49c-.78-.16-1,.14-1.12,1a4,4,0,0,0-.27,1.68,26.16,26.16,0,0,1-1,9.18c-.69,2.29-.35,4.7-.54,6.92-.17.57-.09,1.11-.27,1.68a5.27,5.27,0,0,1-1.4-2.8,56.85,56.85,0,0,0-1.61-6.05,67.61,67.61,0,0,1-1-7.23c-.18-3-.1-6-1-8.88a33.59,33.59,0,0,1-.72-5.08,14.05,14.05,0,0,0-.71-3.18c-.75-1.8-.52-3.75-1-5.59a5,5,0,0,0-1.36-2.53c0-.27-.57-.46-1.07-.38a1.11,1.11,0,0,0-.58,1.18,2.73,2.73,0,0,0,.82,2.33c1.72,1.39,2,3.53,2.32,5.67a67,67,0,0,1,1.93,10.11c.65,4.55.51,8.95,1.44,13.73a5,5,0,0,1-1.33-2.26,71.6,71.6,0,0,1-3.82-7.36,118.64,118.64,0,0,1-4.28-12.48c-1-3.67-1.8-7.39-3.74-10.38-1-1.76-1-3.4-1.49-5.25a2.87,2.87,0,0,0-1.37-2.52c-.29-.23-.57-.46-.82-.43a2.1,2.1,0,0,0-.83,1.23,3.82,3.82,0,0,0,.83,2.33c2.24,1.58,2.91,4.48,3.74,6.82a28.09,28.09,0,0,1,1.92,4.64,1,1,0,0,0-.18.57,26.2,26.2,0,0,0-2.88-2.57l0-.27c-1.6-.58-2.11-2.41-2.54-3.72a3.67,3.67,0,0,0-2-1.88,1.43,1.43,0,0,0-.95.42c-.21.31-.17.57-.09,1.11a4.07,4.07,0,0,0,1.5,1.68,33.69,33.69,0,0,1,4.59,4,19.76,19.76,0,0,1,3.84,5.72c.65,1,.55,2.1.94,3.13a192.85,192.85,0,0,0,8.41,18.43,2.9,2.9,0,0,1,.83,2.34,29.36,29.36,0,0,1-2.39-2.65c-2.32-2.12-4.18-4.57-6.46-6.41-2.24-1.58-4.89-2.54-7.1-3.85a51.25,51.25,0,0,0-4.73-3.12,1.75,1.75,0,0,1-.4-1,50.83,50.83,0,0,1-.71-8.65,5.6,5.6,0,0,0-.74-3.44c-.61-.73-1.39-.88-1.73.26a3.47,3.47,0,0,0,.57,4,6,6,0,0,1,1.31,3.91,14,14,0,0,0,.45,3.21,4.58,4.58,0,0,1-2.52-1.8,23.3,23.3,0,0,0-2.36-2.39c-1.71-1.38-2-3.79-3.3-5.51-.32-.5-.62-.74-.93-1.23a1.06,1.06,0,0,0-1.24.18c-.21.31-.38.88-.09,1.12a8.33,8.33,0,0,0,3.32,3.87,3.29,3.29,0,0,1,1.1.66,36.88,36.88,0,0,0,3.72,4.9c1.46,1.42,2.89,2.57,4.59,4-1,.14-1.55-.32-2.29-.21-2.62-.69-5.42-.82-8-1.25a64.17,64.17,0,0,1-6.76-1.43c-.82-.43-1.18-1.19-1.75-1.65-1.15-.93-2.09-.51-2.68.67-.38.88-.1,1.12.47,1.58a8,8,0,0,0,3.65.81c.28.23.49-.08.43-.61,1.91,1.08,3.88.78,5.73,1.32,1.6.58,3.32.31,4.67.93h0a37.19,37.19,0,0,1,8,1.26A33.26,33.26,0,0,1,266,217.4a8.28,8.28,0,0,1,2.07,2.14c2.07,2.15,4.38,4.27,6.45,6.42,1.62,2.49,3.73,4.9,4.63,7.78.08.53.37.76.19,1.33a11.92,11.92,0,0,0-2-1.61,48,48,0,0,0-15.58-6.67c-2.09-.51-4-1.31-6.06-1.82-.49.07-1.06-.39-1.42-1.15-.51-1.84-2.07-2.15-3.42-2.77-.78-.15-1.23.19-1.61,1.07a1.24,1.24,0,0,0,.43,1.3,5.5,5.5,0,0,0,4.5,1.51c.29.23.5-.08.78.15a18.73,18.73,0,0,0,5.36,2.2c2.09.51,3.93,1,6,1.55a8.69,8.69,0,0,1,3.52,1.66c1.63.85,3.23,1.43,4.85,2.27a20.72,20.72,0,0,1,7.6,7.33c1.94,3,2.47,6.75,3.49,10.42.55,2.11,1.35,4.18,1.94,6.55a32,32,0,0,0,1.43,6.62l-.24,0a23.18,23.18,0,0,0-2.22-3.22l-3.53-3.57a36,36,0,0,1-4.69-6.41,46.6,46.6,0,0,1-3-5,6.45,6.45,0,0,1-1.28-3.63,4,4,0,0,0-.75-1.8c-.29-.24-.86-.7-1.31-.36s-.38.88-.31,1.42a9.91,9.91,0,0,0,1.33,2.26,14.48,14.48,0,0,1,2.3,3.76,75.86,75.86,0,0,0,5.09,7.43c0,.27,0,.27.11.81-.57-.46-1.1-.66-1.38-.88a44.08,44.08,0,0,1-5.63-4.08,19.11,19.11,0,0,1-2.41-4.56c-.36-.76-.65-1-1.39-.88-.53-.2-1,.14-1.15.72-.14.84.18,1.34.72,1.53a3.51,3.51,0,0,0,.89,1,6.16,6.16,0,0,1,3.2,3.07,7.17,7.17,0,0,0,2,1.89c3,1.46,5.55,3.53,8.32,5.3a13.57,13.57,0,0,1,4,5.14,22.51,22.51,0,0,1,3,8.58c.38,2.68,1.46,5,1.8,7.39A8.15,8.15,0,0,1,293,282a43,43,0,0,1-3.15-4.45c-.93-1.22-2.14-2.67-3.36-4.13a2.07,2.07,0,0,1-.8-2.07,5.89,5.89,0,0,0-1.23-3.37,1.52,1.52,0,0,0-2.26.07c-.71.38-.34,1.14,0,1.91.61.73.79,2.07,1.86,2.45,2.94,1.2,4.42,4.53,6.28,7a31.78,31.78,0,0,1,2.58,4,.84.84,0,0,0,.86.69,4.81,4.81,0,0,1,.26,1.87,36,36,0,0,0,.78,7.27c.66,2.91,1,5.59,1.45,8.53l1.1,7.77a2.25,2.25,0,0,1,.05,2.18c-.81-.42-.68-1.26-1-1.76-1.76-3.56-3-7.2-4.8-10.76a81.86,81.86,0,0,0-8.58-14.3,55,55,0,0,0-7-8.25c-2.32-2.11-3.23-5-4.14-7.85a11,11,0,0,1,.06-4.94c.06-1.38.57-3.09.09-4.66-.07-.54.39-.88.6-1.18a4,4,0,0,0-1-5.06c-.74.12-.92.69-1.08,1.26a4.71,4.71,0,0,0,.13,2.71c1.36,2.53.72,5.1.56,7.58-.13.84.23,1.61-.4,2.53a34.21,34.21,0,0,1-1.74-5.21,43.89,43.89,0,0,0-4-10.61c0-.27-.32-.5-.6-.73-.68-1.27-2-1.88-1.8-3.84-.12-.8-1-1.49-1.33-2.25a1.14,1.14,0,0,0-1.56-.31c-.46.34-.34,1.14,0,1.64a20.18,20.18,0,0,0,3.32,3.87,5.35,5.35,0,0,1,1.58,2.23,62.47,62.47,0,0,1,4.13,11.41,43.44,43.44,0,0,0,3.79,9c.08.54.41,1,.52,1.84-3.71-3-6.74-6.64-10-9.71h0c-.21.31.36.77.64,1,1.37,2.53,3.69,4.65,5.72,6.53s3.85,4.07,6.34,5.61c1.39.88,2.14,2.68,3.15,4.44l-2.45-1.27a65.47,65.47,0,0,0-6-2.93,22.42,22.42,0,0,0-3.73-1.35c-2.29-.2-4.21-1.28-6.34-2a48,48,0,0,0-5.56-1.89,29.56,29.56,0,0,1-12.22-6.08c-1.14-.93-2.78-1.77-3.91-2.7a.4.4,0,0,1,.07.54c-1.76,0-2.94-1.2-2.35-2.38.49-.07.77.15,1.1.65.53.2.64,1,1.18,1.19a3,3,0,0,0-1.86-2.45c-.29-.23-.82-.42-1,.15a1.49,1.49,0,0,0-.35,1.15,2.74,2.74,0,0,0,1.79,1.91c3.23,1.43,5.8,3.5,8.57,5.27,1.91,1.08,3.58,2.19,5.64,2.44a8,8,0,0,1,3,1.46c-1.52-.05-2.8-.13-3.82-.25-2.8-.12-5.72.59-8.55.2-.53-.19-1.27-.08-1.81-.27a5.43,5.43,0,0,1-4.12-2.38,3.85,3.85,0,0,0-1.46-1.43,1.71,1.71,0,0,0-2.18.61c-.39.88.22,1.6,1,2,1.06.39,2.13.77,3.44,1.12h0a4.39,4.39,0,0,0-2.45-1.27,2.12,2.12,0,0,1-1.42-1.15c.12-.85.62-.92,1.4-.76a5.31,5.31,0,0,1,2.47,3.18Zm45.34-4.13c.38-.87.87-.95,1.19-.46a4.2,4.2,0,0,1,1.48,3.34c-1.8-.27-2-1.88-2.67-2.88ZM249.8,222.58c1.33-1.3,3.21-.49,3.77,1.62a9.67,9.67,0,0,1-3.77-1.62Zm5.77,65.89a6.94,6.94,0,0,1-2.54-.16c-.53-.2-.81-.43-.65-1-.07-.54.42-.61.91-.69,1-.14,1.64.85,2.28,1.85Zm45.23-65.68a4.35,4.35,0,0,1-.55,5,11,11,0,0,1,.55-5Zm23.82-8.25c-1-1.5-1.19-3.11-.57-4,.93,1.22,1.05,2,.57,4Zm-87.39-5.93a3.21,3.21,0,0,1-2.86-.65c-.08-.54.09-1.12.87-1a3.08,3.08,0,0,1,2,1.61Zm33.36-15.72c-.89-.95-2-1.61-1.68-3,1.27.07,1.71,1.38,1.68,3ZM281.47,211c1.25,1.72,1.37,2.53,0,3.82-.19-1.34-.58-2.37,0-3.82ZM252.42,200c-1.42-1.15-1.86-2.45-1-3.67.9,1,.83,2.33,1,3.67Zm100.89,37.26c.77-1.76,1.43-2.41,2.53-1.75-.3,1.41-1,1.79-2.53,1.75Zm-33.59-21.73c1.06.39,2,1.88,1.61,2.49l-1,.16c-.36-.77-1.21-1.46-.62-2.65ZM316.23,198c-.59,1.19-1.37,1-2.75.14.83-1.21,1.08-1.25,2.75-.14Zm-25.56,3a2,2,0,0,1-.66-2.91c1.39.89,1.42,1.15.66,2.91Zm22.64,44.18a2.9,2.9,0,0,1,.75-3.67c.71,1.53-.16,2.49-.75,3.67ZM260,294.91a1.47,1.47,0,0,1-.2,2.21c-.49.08-1,.15-1.06-.38-.44-1.31.59-1.18,1.26-1.83Zm23-103.35c.93,1.23,1.2,3.1.57,4a5.74,5.74,0,0,1-.57-4Zm63.8,39c0,1.65-.69,2.29-1.92,2.48a2.79,2.79,0,0,1,1.92-2.48ZM325.9,277.27a2,2,0,0,1,2.5,1.54c-1.2.45-1.77,0-2.5-1.54Zm-73,2.58c.87-1,1.93-.57,2.69,1.23a5,5,0,0,1-2.69-1.23Zm83.52-51.77a1.79,1.79,0,0,1-2.32,1.44c.38-.87,1-1.79,2.32-1.44ZM271.56,248a10.54,10.54,0,0,1-1.95-1.34.53.53,0,0,1-.12-.8.45.45,0,0,1,.74-.12,3.06,3.06,0,0,1,1.33,2.26Zm62.62-42.58a3.52,3.52,0,0,1-.46,3.9c.06-1.38-.13-2.72.46-3.9Zm-19.95,21.35a3.62,3.62,0,0,1,.83-3.14,2.67,2.67,0,0,1-.83,3.14Zm40,18.84a3.27,3.27,0,0,1-2.67.68c1.07-1.26,1.53-1.6,2.67-.68Zm-41.37-58.85a3,3,0,0,1-1,3.43,7.7,7.7,0,0,1,1-3.43Zm-67.48,13.5c-2.07-2.15-2.07-2.15-1.94-3a4.72,4.72,0,0,1,1.94,3Zm26.76,57.23a3,3,0,0,1-.5-3.48,4.3,4.3,0,0,1,.5,3.48ZM259.64,185c-1.67-1.12-2-1.62-1.66-2.76.82.42,1.22,1.45,1.66,2.76Zm88,85.18c-1.12,1-1.9.83-2.79-.13,1-.15,1.93-.56,2.79.13Zm-51.73-98.33c.76,1.8.66,2.91-.25,3.59a21.68,21.68,0,0,1,.25-3.59ZM309.53,222a5.45,5.45,0,0,1,.53-3.36,4.6,4.6,0,0,1-.53,3.36Zm37.92,38c.62-.92.8-1.5,1.54-1.61.43,1.31.23,1.61-1.54,1.61Zm-5.82-48.37a2.78,2.78,0,0,1-1.11,2.9c.1-1.11,0-2.18,1.11-2.9ZM260.26,244.8a2.93,2.93,0,0,1,1.9,2.72,5.58,5.58,0,0,1-1.9-2.72ZM287.11,224a7,7,0,0,1,1.44,3.07c-.9-1-1.75-1.65-1.44-3.07ZM309.4,174.7c.69,1.27.52,1.84-.43,2.26a3.85,3.85,0,0,1,.43-2.26Zm25.72,82c-.1,1.11-.8,1.49-1.76,1.91a3,3,0,0,1,1.76-1.91Zm-61.31-14.25a2.68,2.68,0,0,1-1.33-2.25,5,5,0,0,1,1.33,2.25Zm-18.34-53c1-.15,1.35.61,2,1.34a2.55,2.55,0,0,1-2-1.34ZM304.85,171a2.77,2.77,0,0,1,.34,2.41,4,4,0,0,1-.34-2.41Z" transform="translate(27.7 -16.97)"/><path class="cls-1" d="M263.27,264.32a13.41,13.41,0,0,0-3-3.64,44,44,0,0,1-5.5-6.84,2.69,2.69,0,0,1-.84-2.33c.1-1.11-.59-2.37-.53-3.75a12,12,0,0,1,.52-5.27,6.56,6.56,0,0,0-1.29-5.55.87.87,0,0,0-.78-.17c-.49.08-.42.62-.38.88a7.61,7.61,0,0,0,1.06,3.95,4.08,4.08,0,0,1,.34,2.41,30.77,30.77,0,0,0,.24,7.08,7.56,7.56,0,0,1-2.14-2.69q-1.52-2.64-3-5.29a10.55,10.55,0,0,1-.62-2.64,6.6,6.6,0,0,0-2.34-4c-.29-.23-.57-.46-1-.12-.5.07-.43.61-.34,1.15a5.34,5.34,0,0,0,2.86,4.21,4.37,4.37,0,0,1,1.25,1.73,25.6,25.6,0,0,0,1.6,4.14c-1.43-1.16-3-1.73-3.79-3.53A4.09,4.09,0,0,0,243,242c-1.06-.39-1.48.22-1.12,1a1.71,1.71,0,0,0,1.5,1.69,12.87,12.87,0,0,1,4.69,2.84,12.84,12.84,0,0,1,2.24,1.58,28.73,28.73,0,0,1,2.15,2.69c1.28,2,2.86,4.21,4.15,6.2.65,1,1.71,1.39,2.19,3a33.32,33.32,0,0,0-4.09-2.12c-3.51-1.66-7.27-3.27-10.69-6a37.86,37.86,0,0,1-4.63-4.22A6.63,6.63,0,0,1,238,246c-.64-1-1.22-1.46-2.41-1-.25,0-.5.08-.67.65-.2.31.08.54.36.77,1.71,1.38,3.21,3.07,5.09,3.88.57.46.9,1,1.46,1.42,2.72,3.15,6.44,4.5,10,6.42,2.44,1.27,5.14,2.5,7.34,3.81.82.42,1.47,1.42,2.41,1,.22-.31.54.19.58.46.53.19.64,1,1.14.92Zm-19-27.49a4.5,4.5,0,0,1,2.44,4.83c-1.21-1.46-2.63-2.61-2.44-4.83Zm9.26,4.89a3.71,3.71,0,0,1-1.26-3.64,6.36,6.36,0,0,1,1.26,3.64ZM238,247.63c-.61-.72-1.84-.54-2.28-1.84,1.24-.19,1.56.31,2.28,1.84Zm4.58-5.07a2.51,2.51,0,0,1,2,1.61c-.81-.42-2,0-2-1.61Z" transform="translate(27.7 -16.97)"/><path class="cls-1" d="M297.39,189.66a2.64,2.64,0,0,0-.88-2.61c-1.21-1.45-2.6-2.34-3.57-3.84a2.5,2.5,0,0,1-1-1.75,4.54,4.54,0,0,0-1.08-2.31,1,1,0,0,0-1.78,0,1.2,1.2,0,0,0,.28,1.87c1.78,1.92,3.77,3.53,5.56,5.45a15.93,15.93,0,0,1,2.47,3.19Zm-6.48-8.33a3.5,3.5,0,0,1-1.46-1.42c1-.15,1,.12,1.46,1.42Z" transform="translate(27.7 -16.97)"/><path class="cls-1" d="M248.71,211.25c-1.9.84-4.12,1.18-6,2.54a3.85,3.85,0,0,1-3,.19c-.25,0-.46.34-.7.38-.46.34-1.16.72-1.05,1.52.36.77,1.1.66,1.63.85.78.16,1-.42,1.13-1,.13-.84.62-.92,1.12-1a3.34,3.34,0,0,0,1.4-.76,9.35,9.35,0,0,1,3.6-1.36c.74-.12,1.4-.77,2.14-.88,0-.27-.28-.23-.32-.5Zm-8.69,4.6c-.45.35-.94.42-1.27-.08.62-.91.87-1,1.12-1,.33.5.36.77.15,1.07Z" transform="translate(27.7 -16.97)"/><path class="cls-1" d="M534.33,178c-2-1.7-4.12-3.11-5.86-4.74s-3.54-3-4.57-5c-.22-.36-.43-.71-.66-1.07-.79-.5-.72-.78-.3-1.29.5-.79.78-.73,1.36-.59a10,10,0,0,1,5.14,4c.51,1.64,1.88,2.28,2.4,3.92.37,1,.95,1.14,1.88,1,2.43,0,3.95,1.25,4.91,3.61.31,1.28,1.67,1.92,2.69,2.76a17.92,17.92,0,0,0,3.1,2.27c.5-.8-.65-1.07-.8-1.72a7.67,7.67,0,0,1-1-2.07c-.15-.64-.23-1.57-.38-2.21-2.89-1.91-3.56-4.2-2.72-6.43.64-.15.86.21,1.08.56.65,1.08,1.31,2.15,2,3.21.22.36.08.93.73.78,2,.48,1.88,2.28,2.47,3.63.08.94-.12,1.8-.11,3-1.38-1.86.17-4.52-2-5.65-.72.44-.57,1.08-.42,1.73.16,1.86,1.33,3.36,2.13,5.07.89,2.64,3.63,3.9,5.73,5.31,2.75,2.48,6.34,2.73,9.93,3,4.16.38,8,1,11.78,1.59a39.94,39.94,0,0,0,8.48,1.41c3.23.47,6.39,1.22,9.55,2l4.32,1c.57.14,1.22,0,1,.85s-.78.72-1.36.59a80,80,0,0,1-8.41-1.71c-3.52-.53-7.39-.85-10.91-1.38-.58-.14-1.22,0-1.8-.13-1.94-.76-3.43.4-4.92,1.56a3.54,3.54,0,0,0-.4,2.95c1.2-1.23,2.19-2.82,3.9-3.63-1,1.88-2.9,3.26-4,5.13-1.18-2.7,0-4.87,2.15-6.47-.43-.72-1.36-.63-1.94-.77-6.62-1.58-13.44-2.29-19.9-3.23-5.09-.3-10.34-1.25-15.37-1.84-5-.88-10-1.47-14.94-2.34a9.21,9.21,0,0,0-3.22.74c-3.06,1.4-6.22,1.87-9.06,3.62a11.56,11.56,0,0,0-2.48,2.75A3.76,3.76,0,0,0,505.3,199a23,23,0,0,1,4.06,3.4c-.85,1-1.78,1.09-2.78,1.46.44.72.94,1.14.74,2a3.77,3.77,0,0,1-2.36,1c-.65.15-1.16-1.49-2-.48-1.09-.56-1.1-1.79-1.61-2.21-.93.08-.91,1.3-1.91,1.67-.36.22-1.07.66-1.58.24-.79-.5-.66-1.07-.52-1.65a4,4,0,0,1,2.9-3.26c-.91,1.3-2.34,2.18-2.17,4,.86.21,1.35-.59,1.78-1.09a8.43,8.43,0,0,0,1.81-5c.48-2,.39-4.17,1.15-6.11L496,198.64c-.5.79-1.14.94-1.85,1.38a3.88,3.88,0,0,0-2.05,3.47c-.19,2.08-.45,4.44-.71,6.82-.07.28-.42.5-.49.79-2.44,0-3.25-1.69-2.48-3.63.63-1.37,1.54-2.67,2.18-4h0a1,1,0,0,1,.64-.15c-.63,1.37-1.19,2.45-1.75,3.54-1.35,1.8-.91,2.51.68,3.5a41.41,41.41,0,0,0,1.7-8.41c-.29-.07-.42.51-.93.08-.22-.35.14-.58.56-1.08a36,36,0,0,0,6.69-5.09,5.8,5.8,0,0,0-4.66.4,38.58,38.58,0,0,1-6.42,2.73c-.93.08-1.58.23-2.51.31a1.7,1.7,0,0,1-1.31-2.13c1.49-1.16,3.57-1,5.29-1.78l.06-.29c-1-.85-1.74-1.63-.89-2.64.92-1.3,1.65-.52,2.73,0a25.85,25.85,0,0,1,3.82,1.82,9.49,9.49,0,0,0,5.1.3c.57.14.71-.43,1.06-.65,2.84-3,6.48-4.23,10.2-5.78a28.51,28.51,0,0,0,4.06-1.76c-4.16-.39-8.68-.55-12.85-.94-4.51-.16-8.88.31-13.4.15-4.88.05-10.11.32-15.05.66-5.3.56-10.69.19-16,1A83.63,83.63,0,0,0,449,188c-1.57.24-3.08.18-4.94.34-1.8-.12-3.44.4-4,2.7-.14.57-.49.79-.63,1.37-.08-.93.63-1.37.26-2.37-2.64.88-4.67,5.57-3.78,8.22,1.15.27,1.64-.53,1.85-1.38.34-1.45.46-3.24,1.67-4.47L438,198.19a2.07,2.07,0,0,1-2.71,1.18c-.24-1.58.11-3-.48-4.37a19,19,0,0,1-3.14,1.68c-.64.15-1.58.23-2-.48-1-.85-.87-1.42.49-2,.07-.29.64-.15.78-.73-.44-.71-1.66-.7-2-1.7a48.9,48.9,0,0,1,7.22-2.23c-1.78,1.1-3.71,1.55-5.49,2.64,3.87.32,6.64-2.36,9.71-3.76-4.09-.67-8.09.81-12.41-.22,6.17-.36,12.33-.71,18.42-.77-2.09-1.42-4.25-2.54-6.13-3.6L429.93,185c-1.29.3-2-.48-2-1.7.42-.5.71-.43,1.35-.59,2.73,0,5.61.73,8.47.2,2.22-.38,3.38,1.11,5,1.81a22.46,22.46,0,0,1,4.39,2c2,.77,3.88.32,5.75.15,5.87-.42,11.53-1.2,17.19-.75l.36-.23c.36-.22.65-.15,1-.37-1.3-.91-3-1.61-4.26-2.53a66.74,66.74,0,0,1-6.42-3.66,3.59,3.59,0,0,0-1.79-.12,51.09,51.09,0,0,0-6.59.86c-1.57.23-1.8-.13-2.31-1.77-1.16-.28-2.44,0-3.6-.25l-1.43-.34c-.58-.14-1.44-.35-1.23-1.21-.08-.93.56-1.08,1.49-1.16A17.24,17.24,0,0,0,449,175c-2.81-1-5.69-1.66-8.5-2.63,1.13-2.17,3.57-2.19,7.67-.3-.3-1.29-2.31-1.77-1-3.58,1.23,0,2.24.84,3.6,1.47.72-.44,1.14-.94,1.85-1.38,1.14-.94,1.72-.81,2,.48a22.07,22.07,0,0,1,1.55,3.71c.21.36.43.71.65,1.07l.07-.29c.13-.57-.23-1.57,1-1.59s2,.48,2,1.7c-.07.29-.13.58-.2.87-.37-1-.39-2.23-1.68-1.92-1.27,1.52.18,3.08.35,4.94a4.53,4.53,0,0,0,2.81,1c-.88-1.42-1.54-2.49-1.48-4a24.15,24.15,0,0,0,3.5,5.69,1.1,1.1,0,0,0,.8.5c2.67,1.55,5,3,7.92,3.71.58.14.44.71.66,1.07,6.45-.28,12.91-.57,19.07-.92h0c-.8-.5-1.66-.7-2.16-1.13-.8-.49-1.66-.7-1.68-1.91h0c1.22,0,1.74,1.63,3.25,1.68a41.42,41.42,0,0,0-4.63-3.53c-.51-.43-1.3-.92-1.8-.13h0a1.62,1.62,0,0,1-1.29-.92,2.49,2.49,0,0,1,2.14-.09,5.37,5.37,0,0,1,1.88,1.06c1.52,1.27,3.47,2,5,3.31a11.59,11.59,0,0,0,6.9,1.64,63.62,63.62,0,0,1,11-.12c3.3.19,6.53.65,9.76,1.12,2.95.4,6,.22,9,.62a150.36,150.36,0,0,1,16.45,2.4,25.36,25.36,0,0,1,4.61,1.1c.57.14.92-.08,1.5.06a40.6,40.6,0,0,0-6.37-5.16l-.22-.37c-2.39-2.69-5.47-2.52-8.77-2.7a7.67,7.67,0,0,1-4.32-1c-1.59-1-3.38-1.12-5.11-1.53a3.22,3.22,0,0,1-1.37-.63c1.21-1.23,2.63-2.1,4.36-1.7,1.44.35,3,1.33,4.53,1.39a1.15,1.15,0,0,0,.08.93l2.31.55a4.74,4.74,0,0,0-2.39-1.48Zm-78.25-1.94a18.93,18.93,0,0,1-3.37.1c-2.31-.55-4.52-.17-7-.14-.58-.14-.87-.21-1.07.66.21.35.8.49,1.37.63a17.12,17.12,0,0,0,5.74.15,14.34,14.34,0,0,1,5.66-.78c-1.76-2.84-2-5.64-3.54-8.14a7.1,7.1,0,0,0-2.34,2.18,16.51,16.51,0,0,0,4.51,5.34Zm90.86,14.06c-2.31-1.76-22.13-4.06-24.42-3.39,8,.71,16.1,2.62,24.42,3.39Zm26.3,4.45,18.81,2.67c-1-.86-1.94-.77-3.09-1.05-4.82-1.45-9.7-1.4-14.58-2.56-.36.21-.94.08-1.14.94ZM530.7,174.1c2,2,3.7,3.61,6.36,3.94a2.16,2.16,0,0,0-1.11-3,33,33,0,0,1-5.25-.94ZM430,195.05c1.1,1.78,6-1,7.35-4-2.28,1.9-5.29,1.78-7.35,4Zm22.58-20.75a26.42,26.42,0,0,1-2.25-3.28,3.08,3.08,0,0,0-2.89-1.9c.23,1.57,1.24,2.43,1.9,3.49.37,1,1.73,1.63,3.24,1.69Zm-2.73-.05c-2.74-2.48-6.13-3.59-7.69-2.13,2.45,1.19,5.11,1.52,7.69,2.13Zm33.68,23.23c1.45,1.56,5.24,1,6.94-1.08-2.65-.33-4.65.41-6.94,1.08Zm23,7.93c-1.16-1.5-2.53-2.13-4-3.69,0,1.22-.48,2,.17,3.08.36-.21.43-.51.71-.44,1.1,1.78,1.39,1.85,3.1,1Zm27.25-26.33a9.14,9.14,0,0,0-6-1.73c.72.78,2,.48,2.45,1.2,1,1.13,2.23.83,3.52.53Zm-2.94-6.78a31.53,31.53,0,0,0-6.07-3.88c.88,1.43,4,3.69,6.07,3.88Zm-37.91,22.57a18.74,18.74,0,0,0-2.09-1.41,3.7,3.7,0,0,0-2.52-.9,1.27,1.27,0,0,0,1.09,1.78c1.16.27,2.38.25,3.52.53Zm79.31-1.15c-1-.85-6.84-1.93-8.49-1.41,1.45.35,3,.4,4.39.74,1.15.27,2.45,1.19,4.1.67Zm-67.64,5.76c.3,1.29.32,2.5,1.69,3.14.5.42,1.15.27,1.64-.53-1-.84-2-1.7-3.33-2.61Zm28.62-19.32c1.88,1.06,3.45.82,5.32.66-1.73-.41-3.25-1.69-5.32-.66Zm-9.47-13.81c.8,1.71,2.6,1.84,4.26,2.54-3-2.84-3-2.84-4.26-2.54Zm-67.06,12.28c-1.8-.13-3.52-.54-5.23.27a10,10,0,0,0,5.23-.27Zm-22.53,5.26a9.59,9.59,0,0,0-5.1-.3c1.59,1,3.52.53,5.1.3ZM539.79,171.7c.09,2.15.75,3.22,2.47,3.63a10.53,10.53,0,0,0-2.47-3.63Zm-35.53,30.43c.06-1.51-.6-2.57-1.19-3.93-.41,1.72-.26,2.37,1.19,3.93Z" transform="translate(27.7 -16.97)"/><path class="cls-1" d="M420.5,188.85a8.05,8.05,0,0,1-2.78,1.46,16.75,16.75,0,0,0-3.07,1.39,1.38,1.38,0,0,1-2.3-.54c-.15-.64,0-1.22.63-1.38a3.87,3.87,0,0,0,2.42-1.24c-3.3-.18-6.94,1.08-9.76-1.11.06-1.51.41-1.73,1.92-1.68a25.74,25.74,0,0,0,5,.6,1.13,1.13,0,0,0,.94-.08c-.16-.65-1.08-.56-1.23-1.21a6.88,6.88,0,0,1,4.13-2.05c.94-.08,1.37.63,2.1,1.41.51.42.94,1.14,1.67,1.91a3.62,3.62,0,0,0,3.38,1.11,5.69,5.69,0,0,1-2.75-2.48c-.73-.78-1.52-1.27-1.47-2.77,3.3.18,5.4,1.59,6.44,4.87-.8-.49-1-1.13-1.39-1.84s-.87-1.43-1.8-1.35a6.14,6.14,0,0,0-2.31-.54,16.52,16.52,0,0,0,5.22,4.89,35.41,35.41,0,0,0-5.17,5.14c-.43.51-1.21,1.24-2.15.1a1.88,1.88,0,0,1,.32-2.66c1.08-.66,2.29-.67,2.86-1.75a2.31,2.31,0,0,0,1.42-.88c-.72.44-1.15-.27-1.64.52-.51-.42-.87-.2-1.16-.27-2.43,0-4.57,1.34-6.86,2,0,1.22,1,.85,1.37.63a21,21,0,0,1,6-2.21Zm-6.78-3.44a6.27,6.27,0,0,0,5.46,1.3c-1.61-3.43-3.33-3.84-5.46-1.3Zm2.47,2.4c-3.24-.46-6.62-1.57-10.05-1.18a2.58,2.58,0,0,0,3.24,1.69c2.15-.1,4.37-.48,6.81-.51Zm6.61,1.58c-1.35.59-2.42,1.25-3.42,1.62-1.07.65-1.21,1.23-.19,2.08,1.42-.88,2.41-2.47,3.61-3.7Z" transform="translate(27.7 -16.97)"/><path class="cls-1" d="M490.58,203.43a5.49,5.49,0,0,0-1.5,1.16,43.67,43.67,0,0,1-4.72,7.09c-.78.72-1.14.94-2.22.38-.51-.43-.86-.21-1.37-.63-1.08-.57-1.23-1.21-.38-2.22l2.13-1.32c.64-.15,1-.37,1.14-.94-.86-.21-2.15.09-2.74-1.26a46.28,46.28,0,0,0,8.21-3.82,16.29,16.29,0,0,1-6.06,3.72c2.94.4,4.86-1.27,6.72-2.66.57.14.14.65.79.5Zm-10.47,6.92A2.66,2.66,0,0,0,483,211c1.64-.52,4.19-3.56,4.6-5.29-2.49,1.54-5.14,2.43-7.48,4.6Z" transform="translate(27.7 -16.97)"/><path class="cls-1" d="M437,182.14c-2.47-3.63-4.88-7.56-10.32-6.42,2.6,1.84,4.77,4.18,8.09,5.58-1.58.23-9.45-5-10.54-6.77,2.65.33,5.58-.49,8.12,1.63,2,1.7,3.77,3.33,4.65,6Z" transform="translate(27.7 -16.97)"/><path class="cls-1" d="M451.89,193.59a3.86,3.86,0,0,1,1.26-2.74,10.48,10.48,0,0,1-.63,1.37c-.13.58-.2.87.08.94.51.42.87.2,1-.38.56-1.08,1.48-2.38,2-3.46-.86-.21-1.13,1-2,.74a5.79,5.79,0,0,1,3.21-2c.86.21.44.71.08.93a13.1,13.1,0,0,0-2.82,4.19c-.56,1.08-1.21,1.23-2.22.38Z" transform="translate(27.7 -16.97)"/><path class="cls-1" d="M494.78,207.48c-1.88-1.06-2-2.93-.63-5-.27,1.15-1.19,2.45.11,3.37.49-.8-.16-1.86.69-2.88a8,8,0,0,1-.17,4.53Z" transform="translate(27.7 -16.97)"/><path class="cls-1" d="M487.9,181.52c-1.22,0-2.23-.84-3.18-2h0c1.09.56,2,1.7,3.18,2Z" transform="translate(27.7 -16.97)"/><path class="cls-1" d="M677.92,186.87c.8,1.27,2.71,2.12,4.08,3.18a4.19,4.19,0,0,1,1.18,1.44c.05.94-.88,1-1.33,1.47,1.14.5,2.46.63,3.44,1.53a1.56,1.56,0,0,1,1.25.77c.59.73.81,1.28.19,2.15-.44.49-1.21.15-1.59,0-1.53-.68-2.34-1.95-4-2.9.81,1.27,1.51,2.26.07,3.46-1,.7-1.89,1.68-3.21,1.55-1.4-2-1-4.35-1-6.6-1.48.26-1.72,1.3-2.82,1.72.25-2.63.23-5.16-1-7.53a3.13,3.13,0,0,1,.47-2.08c-3.35.34-6.47-.36-9.77-.67a3.45,3.45,0,0,1-2.84-.81h0c2.63.26,5.54.4,8.45.55.72-.6.4-1.42.08-2.26a60.3,60.3,0,0,1-3.44-5.64,4,4,0,0,0,1.08-3c.17-.38.33-.76.33-.76.35-.77.51-1.15,1.17-1.09s.87.62,1.08,1.17a19.59,19.59,0,0,1,.83,3.8c-.91-1.55-.23-3.08-1.76-3.75a1.6,1.6,0,0,0-1.06,1.35,6.14,6.14,0,0,1-.46,2.09c-.45.49,0,.93.15,1.2a41.43,41.43,0,0,1,2.57,5c.49.45.43,1.1.75,1.94a3.56,3.56,0,0,0,1.18-2.69,20.21,20.21,0,0,0-.35-7.47,3.88,3.88,0,0,1,1.42-3.71c.66.06.87.61.81,1.27-1.6,0-1.93.75-1.35,3.06,1.2-.15,2.37-1.23,3.86-1.49.25,1.48-.43,3,.49,4.56a4.4,4.4,0,0,1,4.56-.49c-.57,1.81-1.84,2.61-3.28,3.8.51-1.15,1.88-1.67,2.29-3.09-2.19-.75-4.53,1.42-5.77,4.75,1.1-.43,2.37-1.23,3.75-1.77-1.45,1.2-3,2.11-4.43,3.3,2.63.25,4.6.44,6.86.52a1.94,1.94,0,0,0,2.16-1.78h0c.21.55-.23,1,0,1.59a2.69,2.69,0,0,0,2.76-1.06,23.64,23.64,0,0,1,3.56-3.91c1-.7,4-.28,4.54,1.1.32.82-.4,1.42-1.23,1.74l-1.65.64c1.25.78,2.91.14,4,1.31-1.34,1.46-3.25.62-4.63,1.15a12.46,12.46,0,0,0,5.38.78c1.05-1.36,2.39-2.83,3.73-4.29,1,.23,1.25.79.91,1.55-.78,1.26-1.4,2.12-2.88,2.38-.28.11-.66-.06-.83.32,1.8.57,3.17,1.63,5.09.88h0a4.43,4.43,0,0,0,5.08-1.64c1.06-1.36,2.12-2.71,4.26-2.91.87.62.25,1.49,0,2.53,1,.89,2.14-.2,3.39.59-1.38.53-2.8.13-4,.28a6.82,6.82,0,0,0-3.76,1.76,43.86,43.86,0,0,1,9.43,1.44c.89-1,.74-2.19,1.46-2.78-1-.89-2.25-.09-3.23-1,1,.24,2.15-.19,3.19,0,.77.34,1.25.79.64,1.66a3,3,0,0,0-1.13,2c-.51,1.14-1.16,1.08-1.93.74a17.88,17.88,0,0,0-9.42-1.44,9.07,9.07,0,0,1-3.29-.31c-.55.21-1-.23-1.48.26a3,3,0,0,0,2.39,1.29,4.25,4.25,0,0,1,3.83,1.69c2.65,2.78,2.65,2.78,6,.85l.28-.11c-.53-1.38-2.12-1.4-2.83-2.39h0a9.85,9.85,0,0,1,3.17,1.63c.59.72.7,1-.4,1.42a6.61,6.61,0,0,1-2.11,1.12c-1.48.26-2.69.41-3.5-.86-.21-.55-.59-.72-1.08-1.17-.89,1,.13,2.8-1.53,3.44a28.11,28.11,0,0,0-2.74-4.64c-.49-.45-1.09-1.17-1.74-1.23-.11-.28-.77-.34-.77-.34-.19-2.15-1.91-.85-2.78-1.46,1,1.82,2.49,3.15,3.24,5.09-.35.77-1,.7-1.56.91a.62.62,0,0,0,.43,1.11c.39.16.76.33.71,1-.18.38-.62.87-1,.7-.66-.06-1.22.16-1.87.09s-1.15-.51-1-.89c.42-3-.64-5.77-1.43-8.64-6.69-.9-13.27-1.54-20-1.78-.89,1-.89,1-.63,2.46a4.79,4.79,0,0,1,3,3c.42,1.11,1.57,1.61,2.71,2.12-.78-2.87-2.74-4.64-4.7-6.43.45-.49.89-1,1.22-.15a2.26,2.26,0,0,0,1.53.68Zm-5.44-4.24c4.54-3,3.79-4.95,3.17-8.2-1.1.43-2.31.58-2.54,1.62-.47,2.08-.28,4.22-.63,6.58Zm5.21,9.4c.3,2.42-.44,4.6.58,6.43a6.28,6.28,0,0,0,2.2-.85c.83-.32.9-1,.58-1.81a10.52,10.52,0,0,0-3.36-3.77Zm15.61-10.46a3.29,3.29,0,0,0-2.89-1.74,12.92,12.92,0,0,0-3.84,4c2.2-.86,4.52-1.43,6.73-2.28Zm-10.5,9.76a41,41,0,0,1-4.36-3.08c.54,1.38,1.62,2.54,2.15,3.92a3.26,3.26,0,0,0,2.21-.84Zm-8,1.48c2.1-1.12,2.12-2.71,0-4.11a14.5,14.5,0,0,0,0,4.11Zm7.46,1.25c1.46,1.33,2.27,2.61,3.69,3,.29-1.7-1.07-2.76-3.69-3Zm14.06-5.43c.3,2.42,1.38,3.59,3.08,3.89-.09-1.87-1.89-2.45-3.08-3.89Zm6.9,1.46a7,7,0,0,0,1.83,3.1c.95-1.63.63-2.46-1.83-3.1Zm-5,5.1a3.56,3.56,0,0,0-1.34-2.65c.14,1.21.19,2.15.23,3.08.66.06.94-.05,1.11-.43ZM711,183.93a3.72,3.72,0,0,0-3.37,1.93,20.46,20.46,0,0,0,3.37-1.93Zm-22.35.38c-.93.05-2-.19-2.86.79a2,2,0,0,0,2.86-.79Zm2.91.15a2.11,2.11,0,0,0,2,.19c-.6-.73-1.32-.13-2-.19Z" transform="translate(27.7 -16.97)"/><path class="cls-1" d="M616.16,177.11c1.1-.43,1.61-1.58,2.6-2.28.55-.21.89-1,1.66-.64-.51,1.15-1.61,1.57-2.23,2.45a9.44,9.44,0,0,0,2.42-.3c.94-.05,1.6,0,1.36,1.06a2.27,2.27,0,0,1-2.59.68,8.27,8.27,0,0,0-6.68,3.21c-1.61,1.57-3,3.7-5,5.1,13-1.54,26.38-2.25,39.41-3.8.81-2.84,4.35-5.16,7.19-4.36.21.56,0,.94-.78,1.26-1.27.81-2.82,1.72-4.38,2.63l.11.28a34.73,34.73,0,0,0,5.27.5,22.39,22.39,0,0,0,5.15.23c.39.17,1.05.24,1.43.4h0a17.15,17.15,0,0,1-6.92.14,25.05,25.05,0,0,0-7-.14,1.06,1.06,0,0,1-.93,0,22,22,0,0,0-5.05.05,159.16,159.16,0,0,1-16.39,1.88,104.91,104.91,0,0,0-19.35,2.4l-.56.21c-2.43,1.89-5.83,1.3-8.53,1.71a22.61,22.61,0,0,0-4.35,1,31.9,31.9,0,0,1-5.28,1.09c-1.77.36-3.42,1-5.18,1.36,1.53.68,3,1.09,4.48,1.76a9.27,9.27,0,0,1,3.82,1.7,36.52,36.52,0,0,0-4.37-1.49,9.22,9.22,0,0,0,3.38,2.19l5.73,2.54-.28.11a58.21,58.21,0,0,1-9.55-4.24,10.48,10.48,0,0,0-7-1.73c-5.94,1-11.57,2.87-17.4,4.17a56.74,56.74,0,0,0-7.22,1.84c-.16.38-.55.21-.93,0,6.73-2.28,13.22-3.52,20.06-5.52-2.2-.73-25.77,5.51-30,7.76.76.34,1.65-.64,2.53,0-2.15.19-3.59,1.38-5.57,1.19.17-.38.94,0,1.28-.81-.56.22-1.21.15-1.66.64a1,1,0,0,1,.49.45c-3,.51-5.34,1.74-8.11,2.81l-1.93.74a2.77,2.77,0,0,1-.81-1.27A19.84,19.84,0,0,1,534,204c7.67-2.32,14.94-4.81,22.44-6.75,5.55-1.2,11.18-3,16.84-4,5.84-1.29,11.5-2.22,17.45-3.24,3.52-.73,7.15-1.18,10.84-2.28a11.09,11.09,0,0,0,4.25-1.32,16.09,16.09,0,0,0,3-2.11c1.44-1.19,2.23-2.44,3.66-3.63a2.67,2.67,0,0,0,.26-2.63,12.73,12.73,0,0,1-1.62-2.55c-.11-.27-.21-.55-.32-.83a1.19,1.19,0,0,1,.12-1.31c.45-.49,1,0,1.32.12a4,4,0,0,1,2,3.65c.1.28-.07.66,0,.93a2.46,2.46,0,0,0,1.83-1Zm32.05,5.06c1.72-1.3,3.48-1.66,4.82-3.13-2.08-.47-3.63.45-4.82,3.13Zm-36.58-7.76c1,.89,1,2.48,1.66,3.48.57-1.8.25-2.63-1.66-3.48Z" transform="translate(27.7 -16.97)"/><path class="cls-1" d="M624.72,186.16a2.11,2.11,0,0,1,2,.19,32.35,32.35,0,0,1,8.13,3.84,18.88,18.88,0,0,0,4.48,1.75,11.09,11.09,0,0,1,6.39,2.6c1.15.51,2.18.75,3.1,2.29-2,.47-3.78-.75-5.76-1,.81,1.28,2.51,1.57,3.32,2.85a2.52,2.52,0,0,1,2.46.63c1.74,1.23,3.49,2.46,5.61,3.85l.22.56c-.72.59-1.49.26-2.25-.08a37.31,37.31,0,0,1-5.61-3.86c-.45.49-.51,1.15-1.34,1.46a12.25,12.25,0,0,1-5-5.66,6.72,6.72,0,0,0-3.92-3.56c.92,1.55,2.11,3,2.47,4.76a7.9,7.9,0,0,1-.44,4.6c.32.82.66.06,1.05.23a1.79,1.79,0,0,1-.19,2c-3-3.61-3.58-8.45-5.9-12,.07-.66.83-.32.79-1.25a34.84,34.84,0,0,0-9.56-4.24Zm13.39,14.17c1-2.3-.62-7.37-3-7.73a75.57,75.57,0,0,0,3,7.73Zm1.52-7.56c2.06,2,4.52,2.69,7.26,3.22-2.23-1.68-4.46-3.35-7.26-3.22Zm1.55,3.2a8,8,0,0,0,3,3.61l1.11-.43c-1-1.82-2.72-2.12-4.08-3.18Zm10.68,6.34c-1-.89-2.16-2.34-3.76-2.36a11.3,11.3,0,0,0,3.76,2.36Z" transform="translate(27.7 -16.97)"/><path class="cls-1" d="M623.1,161.43c1.08,1.17.35,3.36,2.09,4.59-1.28.8-1.41,2.12-2.18,3.37,1.48-.25,3.31-1.28,5.11-.7-.47,2.08-2,2.34-3.88,3.08a13.69,13.69,0,0,0,2.42-.3c.38.17,1,.23,1.25.78a1,1,0,0,1-.51,1.15,9.09,9.09,0,0,1-5.56,1.2c1.55-.92,3.14-.9,5-1.92-1.7-.29-3,.51-4.57.49-.21-.55.34-.76.62-.87-1.25-.78-2.48,1-3.84-.1.29-1.7-.79-2.86-1-4.35-.21-.55-.43-1.1,0-1.59s.23-1,0-1.59c-.43-1.11-.85-2.21-1.27-3.32-.22-.55-.54-1.37.18-2,.94,0,1.64,1,2.79,1.46-.94,0-1.54-.68-2.36-.36-.3,1.7.51,3,1.15,4.63,1.34-1.46,1.21-4.27,4.6-3.68ZM621.3,165a6.17,6.17,0,0,0-.85-2.21,4.14,4.14,0,0,0-1.08,3c.38.17,1,.89,1.36,1.05.83-.32.51-1.14.57-1.8.45-.49,1.11-.42,1.55-.92a2.14,2.14,0,0,0-1.19-1.43,7.24,7.24,0,0,0-.36,2.35Zm-1.78,6.07a2.77,2.77,0,0,0,.81-2.84c-.22-.55-.53-1.38-1.47-1.34a17.57,17.57,0,0,0,.66,4.18Zm2.27-1.51c2-2.34,2.08-3.65.93-4.16-.5,1.15-1.29,2.4-.93,4.16Zm4.68-.21c-1.88.08-2.93,1.44-4.32,2a8.71,8.71,0,0,0,4.32-2Z" transform="translate(27.7 -16.97)"/><path class="cls-1" d="M628.38,160.34c1.17-1.08,1.3-2.4,1.91-3.27,1.15.51,2.19.74,3,1.08.43,1.11-.5,1.15-.57,1.81,1.32.13,2.47.63,2.73,2.12a48.35,48.35,0,0,0-5.76,3.17c-.38-.17-.7-1-1.48.25.23-1,.67-1.52.74-2.18-.94,0-1.07,1.35-2.1,1.12,0-.93.79-1.25.57-1.8-.49-.45-.83.32-1.21.15.51-1.15,1.67-2.24,1.14-3.61-.21-.55-.43-1.1-1.36-1.06a12.42,12.42,0,0,0,.07,7.58,7.67,7.67,0,0,1-1.19-5.57,3.18,3.18,0,0,0,0-1.59c.07-.65.13-1.31.68-1.52s1,.23,1.42.4a5.55,5.55,0,0,1,1.44,2.92Zm1.22,4c1.66-.64,3.1-1.83,4.75-2.46-1.29-1.72-3.29-.32-4.75,2.46Zm1.23-5.86a10.49,10.49,0,0,0-1.91,3.27,10.05,10.05,0,0,0,3.33-2.86,4.23,4.23,0,0,0-1.42-.41Z" transform="translate(27.7 -16.97)"/><path class="cls-1" d="M616.16,177.11c-.55.2-.66-.07-.87-.62-1-3.41-2.12-7.11-4.77-9.88-.11-.28-.11-.28-.15-1.22a5.38,5.38,0,0,1,5.69,1.61c1,.89.74,1.93.79,2.87a10.3,10.3,0,0,0-.15,2.9,3,3,0,0,1-.36,2.36c-.06.66-.78,1.25-.18,2ZM611.24,166a10.9,10.9,0,0,0,1.72,2.82c.6.72.37,1.77,1.35,2.65a1.79,1.79,0,0,1,1.72-1.29c.84-1.92-.41-2.7-1.78-3.76a4.77,4.77,0,0,0-3-.42Zm4.27,5.32c-.51,1.15-.57,1.81,0,2.53a2.94,2.94,0,0,0,0-2.53Z" transform="translate(27.7 -16.97)"/><path class="cls-1" d="M628.56,168.2c.45-.49.94,0,1.38-.54-.21-.54-.21-.54-2.35-.35a22.67,22.67,0,0,1,3.26-2.21c1.21-.15,2-.47,2.74.52.22.56.87.62,1.53.68,1,.24,1.25.79,1.3,1.72-.07.66-.41,1.42-1.17,1.08-2-1.12-4.61-.44-6.69-.9Zm2-.47a15.69,15.69,0,0,1,4.88.33c-.52-1.37-2.88-1.73-4.88-.33Z" transform="translate(27.7 -16.97)"/><path class="cls-1" d="M701.79,187.16c-.31-.82.24-1,.68-1.52a32.56,32.56,0,0,0,3.29-3.81,4.55,4.55,0,0,0,.68-1.53c-1.58-1.61-1.86-1.5-3,.51a16.59,16.59,0,0,1-1.57,2.51c.67-1.53,1.08-2.95,1.76-4.48.78-1.25,1.75-.36,2.53,0A1.54,1.54,0,0,1,707,181c-1.67,2.22-2.86,4.9-5.24,6.13Z" transform="translate(27.7 -16.97)"/><path class="cls-1" d="M677.92,186.87a2.43,2.43,0,0,1,2.52,0,8.92,8.92,0,0,1,4.14,2.52c.49.44.7,1,.26,1.48a5.84,5.84,0,0,1-3.27-1.91c-1.15-.5-2.23-1.67-3.65-2.07Zm4.09,1.59c.22.55.6.72,1.25.78-.48-.44-.69-1-1.25-.78Z" transform="translate(27.7 -16.97)"/><path class="cls-1" d="M683.07,183c.13-1.31,1-2.29,1.52-3.44a27.16,27.16,0,0,0,2.36-3.76c1.44,2.93.91,5.67-2,7.11,1.06-1.36,2.78-2.65,1.93-4.86a12,12,0,0,0-2.46,3.49c-.45.48-.41,1.41-1.34,1.46Z" transform="translate(27.7 -16.97)"/><path class="cls-1" d="M677.77,175.83a9.07,9.07,0,0,1,2.27-1.51c.46-.49,1.28-.8,1.51-1.85-2.08-.46-2.76,1.07-3.92,2.15.46-2.08,1.63-3.16,3.49-3.25.94,0,1.32.13,1.09,1.16a5.56,5.56,0,0,1-4.44,3.3Z" transform="translate(27.7 -16.97)"/><path class="cls-1" d="M710.71,189.75c-1.48.25-3.12-.7-4.71-.72a7.25,7.25,0,0,1,4.71.72Z" transform="translate(27.7 -16.97)"/><path class="cls-1" d="M546.18,201.88a23.2,23.2,0,0,1,4.24-1.32c-1.49.27-2.55,1.62-4.24,1.32Z" transform="translate(27.7 -16.97)"/></svg>